<?xml version="1.0" encoding="utf-8" standalone="no"?>
<!DOCTYPE svg PUBLIC "-//W3C//DTD SVG 1.1//EN"
  "http://www.w3.org/Graphics/SVG/1.1/DTD/svg11.dtd">
<svg xmlns:xlink="http://www.w3.org/1999/xlink" width="855.84625pt" height="495.051875pt" viewBox="0 0 855.84625 495.051875" xmlns="http://www.w3.org/2000/svg" version="1.1">
 <metadata>
  <rdf:RDF xmlns:dc="http://purl.org/dc/elements/1.1/" xmlns:cc="http://creativecommons.org/ns#" xmlns:rdf="http://www.w3.org/1999/02/22-rdf-syntax-ns#">
   <cc:Work>
    <dc:type rdf:resource="http://purl.org/dc/dcmitype/StillImage"/>
    <dc:date>2026-04-14T23:02:50.104541</dc:date>
    <dc:format>image/svg+xml</dc:format>
    <dc:creator>
     <cc:Agent>
      <dc:title>Matplotlib v3.10.8, https://matplotlib.org/</dc:title>
     </cc:Agent>
    </dc:creator>
   </cc:Work>
  </rdf:RDF>
 </metadata>
 <defs>
  <style type="text/css">*{stroke-linejoin: round; stroke-linecap: butt}</style>
 </defs>
 <g id="figure_1">
  <g id="patch_1">
   <path d="M 0 495.051875 
L 855.84625 495.051875 
L 855.84625 0 
L 0 0 
z
" style="fill: #ffffff"/>
  </g>
  <g id="axes_1">
   <g id="patch_2">
    <path d="M 66.80125 455.56 
L 835.92125 455.56 
L 835.92125 7.2 
L 66.80125 7.2 
z
" style="fill: #ffffff"/>
   </g>
   <g id="matplotlib.axis_1">
    <g id="xtick_1">
     <g id="line2d_1">
      <path d="M 66.80125 455.56 
L 66.80125 7.2 
" clip-path="url(#p94a9464de8)" style="fill: none; stroke: #808080; stroke-opacity: 0.3; stroke-width: 0.8; stroke-linecap: square"/>
     </g>
     <g id="line2d_2">
      <defs>
       <path id="mfbd7cbc554" d="M 0 0 
L 0 3.5 
" style="stroke: #000000; stroke-width: 0.8"/>
      </defs>
      <g>
       <use xlink:href="#mfbd7cbc554" x="66.80125" y="455.56" style="stroke: #000000; stroke-width: 0.8"/>
      </g>
     </g>
     <g id="text_1">
      <!-- 1950 -->
      <g transform="translate(54.07625 470.158437) scale(0.1 -0.1)">
       <defs>
        <path id="DejaVuSans-31" d="M 794 531 
L 1825 531 
L 1825 4091 
L 703 3866 
L 703 4441 
L 1819 4666 
L 2450 4666 
L 2450 531 
L 3481 531 
L 3481 0 
L 794 0 
L 794 531 
z
" transform="scale(0.015625)"/>
        <path id="DejaVuSans-39" d="M 703 97 
L 703 672 
Q 941 559 1184 500 
Q 1428 441 1663 441 
Q 2288 441 2617 861 
Q 2947 1281 2994 2138 
Q 2813 1869 2534 1725 
Q 2256 1581 1919 1581 
Q 1219 1581 811 2004 
Q 403 2428 403 3163 
Q 403 3881 828 4315 
Q 1253 4750 1959 4750 
Q 2769 4750 3195 4129 
Q 3622 3509 3622 2328 
Q 3622 1225 3098 567 
Q 2575 -91 1691 -91 
Q 1453 -91 1209 -44 
Q 966 3 703 97 
z
M 1959 2075 
Q 2384 2075 2632 2365 
Q 2881 2656 2881 3163 
Q 2881 3666 2632 3958 
Q 2384 4250 1959 4250 
Q 1534 4250 1286 3958 
Q 1038 3666 1038 3163 
Q 1038 2656 1286 2365 
Q 1534 2075 1959 2075 
z
" transform="scale(0.015625)"/>
        <path id="DejaVuSans-35" d="M 691 4666 
L 3169 4666 
L 3169 4134 
L 1269 4134 
L 1269 2991 
Q 1406 3038 1543 3061 
Q 1681 3084 1819 3084 
Q 2600 3084 3056 2656 
Q 3513 2228 3513 1497 
Q 3513 744 3044 326 
Q 2575 -91 1722 -91 
Q 1428 -91 1123 -41 
Q 819 9 494 109 
L 494 744 
Q 775 591 1075 516 
Q 1375 441 1709 441 
Q 2250 441 2565 725 
Q 2881 1009 2881 1497 
Q 2881 1984 2565 2268 
Q 2250 2553 1709 2553 
Q 1456 2553 1204 2497 
Q 953 2441 691 2322 
L 691 4666 
z
" transform="scale(0.015625)"/>
        <path id="DejaVuSans-30" d="M 2034 4250 
Q 1547 4250 1301 3770 
Q 1056 3291 1056 2328 
Q 1056 1369 1301 889 
Q 1547 409 2034 409 
Q 2525 409 2770 889 
Q 3016 1369 3016 2328 
Q 3016 3291 2770 3770 
Q 2525 4250 2034 4250 
z
M 2034 4750 
Q 2819 4750 3233 4129 
Q 3647 3509 3647 2328 
Q 3647 1150 3233 529 
Q 2819 -91 2034 -91 
Q 1250 -91 836 529 
Q 422 1150 422 2328 
Q 422 3509 836 4129 
Q 1250 4750 2034 4750 
z
" transform="scale(0.015625)"/>
       </defs>
       <use xlink:href="#DejaVuSans-31"/>
       <use xlink:href="#DejaVuSans-39" transform="translate(63.623047 0)"/>
       <use xlink:href="#DejaVuSans-35" transform="translate(127.246094 0)"/>
       <use xlink:href="#DejaVuSans-30" transform="translate(190.869141 0)"/>
      </g>
     </g>
    </g>
    <g id="xtick_2">
     <g id="line2d_3">
      <path d="M 176.675536 455.56 
L 176.675536 7.2 
" clip-path="url(#p94a9464de8)" style="fill: none; stroke: #808080; stroke-opacity: 0.3; stroke-width: 0.8; stroke-linecap: square"/>
     </g>
     <g id="line2d_4">
      <g>
       <use xlink:href="#mfbd7cbc554" x="176.675536" y="455.56" style="stroke: #000000; stroke-width: 0.8"/>
      </g>
     </g>
     <g id="text_2">
      <!-- 1960 -->
      <g transform="translate(163.950536 470.158437) scale(0.1 -0.1)">
       <defs>
        <path id="DejaVuSans-36" d="M 2113 2584 
Q 1688 2584 1439 2293 
Q 1191 2003 1191 1497 
Q 1191 994 1439 701 
Q 1688 409 2113 409 
Q 2538 409 2786 701 
Q 3034 994 3034 1497 
Q 3034 2003 2786 2293 
Q 2538 2584 2113 2584 
z
M 3366 4563 
L 3366 3988 
Q 3128 4100 2886 4159 
Q 2644 4219 2406 4219 
Q 1781 4219 1451 3797 
Q 1122 3375 1075 2522 
Q 1259 2794 1537 2939 
Q 1816 3084 2150 3084 
Q 2853 3084 3261 2657 
Q 3669 2231 3669 1497 
Q 3669 778 3244 343 
Q 2819 -91 2113 -91 
Q 1303 -91 875 529 
Q 447 1150 447 2328 
Q 447 3434 972 4092 
Q 1497 4750 2381 4750 
Q 2619 4750 2861 4703 
Q 3103 4656 3366 4563 
z
" transform="scale(0.015625)"/>
       </defs>
       <use xlink:href="#DejaVuSans-31"/>
       <use xlink:href="#DejaVuSans-39" transform="translate(63.623047 0)"/>
       <use xlink:href="#DejaVuSans-36" transform="translate(127.246094 0)"/>
       <use xlink:href="#DejaVuSans-30" transform="translate(190.869141 0)"/>
      </g>
     </g>
    </g>
    <g id="xtick_3">
     <g id="line2d_5">
      <path d="M 286.549821 455.56 
L 286.549821 7.2 
" clip-path="url(#p94a9464de8)" style="fill: none; stroke: #808080; stroke-opacity: 0.3; stroke-width: 0.8; stroke-linecap: square"/>
     </g>
     <g id="line2d_6">
      <g>
       <use xlink:href="#mfbd7cbc554" x="286.549821" y="455.56" style="stroke: #000000; stroke-width: 0.8"/>
      </g>
     </g>
     <g id="text_3">
      <!-- 1970 -->
      <g transform="translate(273.824821 470.158437) scale(0.1 -0.1)">
       <defs>
        <path id="DejaVuSans-37" d="M 525 4666 
L 3525 4666 
L 3525 4397 
L 1831 0 
L 1172 0 
L 2766 4134 
L 525 4134 
L 525 4666 
z
" transform="scale(0.015625)"/>
       </defs>
       <use xlink:href="#DejaVuSans-31"/>
       <use xlink:href="#DejaVuSans-39" transform="translate(63.623047 0)"/>
       <use xlink:href="#DejaVuSans-37" transform="translate(127.246094 0)"/>
       <use xlink:href="#DejaVuSans-30" transform="translate(190.869141 0)"/>
      </g>
     </g>
    </g>
    <g id="xtick_4">
     <g id="line2d_7">
      <path d="M 396.424107 455.56 
L 396.424107 7.2 
" clip-path="url(#p94a9464de8)" style="fill: none; stroke: #808080; stroke-opacity: 0.3; stroke-width: 0.8; stroke-linecap: square"/>
     </g>
     <g id="line2d_8">
      <g>
       <use xlink:href="#mfbd7cbc554" x="396.424107" y="455.56" style="stroke: #000000; stroke-width: 0.8"/>
      </g>
     </g>
     <g id="text_4">
      <!-- 1980 -->
      <g transform="translate(383.699107 470.158437) scale(0.1 -0.1)">
       <defs>
        <path id="DejaVuSans-38" d="M 2034 2216 
Q 1584 2216 1326 1975 
Q 1069 1734 1069 1313 
Q 1069 891 1326 650 
Q 1584 409 2034 409 
Q 2484 409 2743 651 
Q 3003 894 3003 1313 
Q 3003 1734 2745 1975 
Q 2488 2216 2034 2216 
z
M 1403 2484 
Q 997 2584 770 2862 
Q 544 3141 544 3541 
Q 544 4100 942 4425 
Q 1341 4750 2034 4750 
Q 2731 4750 3128 4425 
Q 3525 4100 3525 3541 
Q 3525 3141 3298 2862 
Q 3072 2584 2669 2484 
Q 3125 2378 3379 2068 
Q 3634 1759 3634 1313 
Q 3634 634 3220 271 
Q 2806 -91 2034 -91 
Q 1263 -91 848 271 
Q 434 634 434 1313 
Q 434 1759 690 2068 
Q 947 2378 1403 2484 
z
M 1172 3481 
Q 1172 3119 1398 2916 
Q 1625 2713 2034 2713 
Q 2441 2713 2670 2916 
Q 2900 3119 2900 3481 
Q 2900 3844 2670 4047 
Q 2441 4250 2034 4250 
Q 1625 4250 1398 4047 
Q 1172 3844 1172 3481 
z
" transform="scale(0.015625)"/>
       </defs>
       <use xlink:href="#DejaVuSans-31"/>
       <use xlink:href="#DejaVuSans-39" transform="translate(63.623047 0)"/>
       <use xlink:href="#DejaVuSans-38" transform="translate(127.246094 0)"/>
       <use xlink:href="#DejaVuSans-30" transform="translate(190.869141 0)"/>
      </g>
     </g>
    </g>
    <g id="xtick_5">
     <g id="line2d_9">
      <path d="M 506.298393 455.56 
L 506.298393 7.2 
" clip-path="url(#p94a9464de8)" style="fill: none; stroke: #808080; stroke-opacity: 0.3; stroke-width: 0.8; stroke-linecap: square"/>
     </g>
     <g id="line2d_10">
      <g>
       <use xlink:href="#mfbd7cbc554" x="506.298393" y="455.56" style="stroke: #000000; stroke-width: 0.8"/>
      </g>
     </g>
     <g id="text_5">
      <!-- 1990 -->
      <g transform="translate(493.573393 470.158437) scale(0.1 -0.1)">
       <use xlink:href="#DejaVuSans-31"/>
       <use xlink:href="#DejaVuSans-39" transform="translate(63.623047 0)"/>
       <use xlink:href="#DejaVuSans-39" transform="translate(127.246094 0)"/>
       <use xlink:href="#DejaVuSans-30" transform="translate(190.869141 0)"/>
      </g>
     </g>
    </g>
    <g id="xtick_6">
     <g id="line2d_11">
      <path d="M 616.172679 455.56 
L 616.172679 7.2 
" clip-path="url(#p94a9464de8)" style="fill: none; stroke: #808080; stroke-opacity: 0.3; stroke-width: 0.8; stroke-linecap: square"/>
     </g>
     <g id="line2d_12">
      <g>
       <use xlink:href="#mfbd7cbc554" x="616.172679" y="455.56" style="stroke: #000000; stroke-width: 0.8"/>
      </g>
     </g>
     <g id="text_6">
      <!-- 2000 -->
      <g transform="translate(603.447679 470.158437) scale(0.1 -0.1)">
       <defs>
        <path id="DejaVuSans-32" d="M 1228 531 
L 3431 531 
L 3431 0 
L 469 0 
L 469 531 
Q 828 903 1448 1529 
Q 2069 2156 2228 2338 
Q 2531 2678 2651 2914 
Q 2772 3150 2772 3378 
Q 2772 3750 2511 3984 
Q 2250 4219 1831 4219 
Q 1534 4219 1204 4116 
Q 875 4013 500 3803 
L 500 4441 
Q 881 4594 1212 4672 
Q 1544 4750 1819 4750 
Q 2544 4750 2975 4387 
Q 3406 4025 3406 3419 
Q 3406 3131 3298 2873 
Q 3191 2616 2906 2266 
Q 2828 2175 2409 1742 
Q 1991 1309 1228 531 
z
" transform="scale(0.015625)"/>
       </defs>
       <use xlink:href="#DejaVuSans-32"/>
       <use xlink:href="#DejaVuSans-30" transform="translate(63.623047 0)"/>
       <use xlink:href="#DejaVuSans-30" transform="translate(127.246094 0)"/>
       <use xlink:href="#DejaVuSans-30" transform="translate(190.869141 0)"/>
      </g>
     </g>
    </g>
    <g id="xtick_7">
     <g id="line2d_13">
      <path d="M 726.046964 455.56 
L 726.046964 7.2 
" clip-path="url(#p94a9464de8)" style="fill: none; stroke: #808080; stroke-opacity: 0.3; stroke-width: 0.8; stroke-linecap: square"/>
     </g>
     <g id="line2d_14">
      <g>
       <use xlink:href="#mfbd7cbc554" x="726.046964" y="455.56" style="stroke: #000000; stroke-width: 0.8"/>
      </g>
     </g>
     <g id="text_7">
      <!-- 2010 -->
      <g transform="translate(713.321964 470.158437) scale(0.1 -0.1)">
       <use xlink:href="#DejaVuSans-32"/>
       <use xlink:href="#DejaVuSans-30" transform="translate(63.623047 0)"/>
       <use xlink:href="#DejaVuSans-31" transform="translate(127.246094 0)"/>
       <use xlink:href="#DejaVuSans-30" transform="translate(190.869141 0)"/>
      </g>
     </g>
    </g>
    <g id="xtick_8">
     <g id="line2d_15">
      <path d="M 835.92125 455.56 
L 835.92125 7.2 
" clip-path="url(#p94a9464de8)" style="fill: none; stroke: #808080; stroke-opacity: 0.3; stroke-width: 0.8; stroke-linecap: square"/>
     </g>
     <g id="line2d_16">
      <g>
       <use xlink:href="#mfbd7cbc554" x="835.92125" y="455.56" style="stroke: #000000; stroke-width: 0.8"/>
      </g>
     </g>
     <g id="text_8">
      <!-- 2020 -->
      <g transform="translate(823.19625 470.158437) scale(0.1 -0.1)">
       <use xlink:href="#DejaVuSans-32"/>
       <use xlink:href="#DejaVuSans-30" transform="translate(63.623047 0)"/>
       <use xlink:href="#DejaVuSans-32" transform="translate(127.246094 0)"/>
       <use xlink:href="#DejaVuSans-30" transform="translate(190.869141 0)"/>
      </g>
     </g>
    </g>
    <g id="text_9">
     <!-- Année -->
     <g transform="translate(432.268125 485.35625) scale(0.12 -0.12)">
      <defs>
       <path id="DejaVuSans-41" d="M 2188 4044 
L 1331 1722 
L 3047 1722 
L 2188 4044 
z
M 1831 4666 
L 2547 4666 
L 4325 0 
L 3669 0 
L 3244 1197 
L 1141 1197 
L 716 0 
L 50 0 
L 1831 4666 
z
" transform="scale(0.015625)"/>
       <path id="DejaVuSans-6e" d="M 3513 2113 
L 3513 0 
L 2938 0 
L 2938 2094 
Q 2938 2591 2744 2837 
Q 2550 3084 2163 3084 
Q 1697 3084 1428 2787 
Q 1159 2491 1159 1978 
L 1159 0 
L 581 0 
L 581 3500 
L 1159 3500 
L 1159 2956 
Q 1366 3272 1645 3428 
Q 1925 3584 2291 3584 
Q 2894 3584 3203 3211 
Q 3513 2838 3513 2113 
z
" transform="scale(0.015625)"/>
       <path id="DejaVuSans-e9" d="M 3597 1894 
L 3597 1613 
L 953 1613 
Q 991 1019 1311 708 
Q 1631 397 2203 397 
Q 2534 397 2845 478 
Q 3156 559 3463 722 
L 3463 178 
Q 3153 47 2828 -22 
Q 2503 -91 2169 -91 
Q 1331 -91 842 396 
Q 353 884 353 1716 
Q 353 2575 817 3079 
Q 1281 3584 2069 3584 
Q 2775 3584 3186 3129 
Q 3597 2675 3597 1894 
z
M 3022 2063 
Q 3016 2534 2758 2815 
Q 2500 3097 2075 3097 
Q 1594 3097 1305 2825 
Q 1016 2553 972 2059 
L 3022 2063 
z
M 2466 5119 
L 3088 5119 
L 2070 3944 
L 1591 3944 
L 2466 5119 
z
" transform="scale(0.015625)"/>
       <path id="DejaVuSans-65" d="M 3597 1894 
L 3597 1613 
L 953 1613 
Q 991 1019 1311 708 
Q 1631 397 2203 397 
Q 2534 397 2845 478 
Q 3156 559 3463 722 
L 3463 178 
Q 3153 47 2828 -22 
Q 2503 -91 2169 -91 
Q 1331 -91 842 396 
Q 353 884 353 1716 
Q 353 2575 817 3079 
Q 1281 3584 2069 3584 
Q 2775 3584 3186 3129 
Q 3597 2675 3597 1894 
z
M 3022 2063 
Q 3016 2534 2758 2815 
Q 2500 3097 2075 3097 
Q 1594 3097 1305 2825 
Q 1016 2553 972 2059 
L 3022 2063 
z
" transform="scale(0.015625)"/>
      </defs>
      <use xlink:href="#DejaVuSans-41"/>
      <use xlink:href="#DejaVuSans-6e" transform="translate(68.408203 0)"/>
      <use xlink:href="#DejaVuSans-6e" transform="translate(131.787109 0)"/>
      <use xlink:href="#DejaVuSans-e9" transform="translate(195.166016 0)"/>
      <use xlink:href="#DejaVuSans-65" transform="translate(256.689453 0)"/>
     </g>
    </g>
   </g>
   <g id="matplotlib.axis_2">
    <g id="ytick_1">
     <g id="line2d_17">
      <path d="M 66.80125 455.56 
L 835.92125 455.56 
" clip-path="url(#p94a9464de8)" style="fill: none; stroke: #808080; stroke-opacity: 0.3; stroke-width: 0.8; stroke-linecap: square"/>
     </g>
     <g id="line2d_18">
      <defs>
       <path id="m4d82ff8b08" d="M 0 0 
L -3.5 0 
" style="stroke: #000000; stroke-width: 0.8"/>
      </defs>
      <g>
       <use xlink:href="#m4d82ff8b08" x="66.80125" y="455.56" style="stroke: #000000; stroke-width: 0.8"/>
      </g>
     </g>
     <g id="text_10">
      <!-- 0 € -->
      <g transform="translate(43.898125 459.359219) scale(0.1 -0.1)">
       <defs>
        <path id="DejaVuSans-a0" transform="scale(0.015625)"/>
        <path id="DejaVuSans-20ac" d="M 3647 4306 
L 3647 3641 
Q 3363 3969 3098 4109 
Q 2834 4250 2516 4250 
Q 2025 4250 1709 3937 
Q 1394 3625 1294 3041 
L 3097 3041 
L 2925 2656 
L 1244 2656 
Q 1238 2581 1236 2509 
Q 1234 2438 1234 2328 
Q 1234 2228 1236 2156 
Q 1238 2084 1244 2009 
L 2638 2009 
L 2463 1625 
L 1294 1625 
Q 1394 1041 1709 725 
Q 2025 409 2516 409 
Q 2834 409 3098 550 
Q 3363 691 3647 1019 
L 3647 359 
Q 3369 134 3080 21 
Q 2791 -91 2491 -91 
Q 1750 -91 1267 362 
Q 784 816 659 1625 
L 0 1625 
L 172 2009 
L 606 2009 
Q 606 2081 604 2154 
Q 603 2228 603 2328 
Q 603 2438 604 2511 
Q 606 2584 606 2656 
L 0 2656 
L 172 3041 
L 659 3041 
Q 784 3844 1268 4297 
Q 1753 4750 2491 4750 
Q 2797 4750 3086 4639 
Q 3375 4528 3647 4306 
z
" transform="scale(0.015625)"/>
       </defs>
       <use xlink:href="#DejaVuSans-30"/>
       <use xlink:href="#DejaVuSans-a0" transform="translate(63.623047 0)"/>
       <use xlink:href="#DejaVuSans-20ac" transform="translate(95.410156 0)"/>
      </g>
     </g>
    </g>
    <g id="ytick_2">
     <g id="line2d_19">
      <path d="M 66.80125 369.457497 
L 835.92125 369.457497 
" clip-path="url(#p94a9464de8)" style="fill: none; stroke: #808080; stroke-opacity: 0.3; stroke-width: 0.8; stroke-linecap: square"/>
     </g>
     <g id="line2d_20">
      <g>
       <use xlink:href="#m4d82ff8b08" x="66.80125" y="369.457497" style="stroke: #000000; stroke-width: 0.8"/>
      </g>
     </g>
     <g id="text_11">
      <!-- 1 000 € -->
      <g transform="translate(22.81375 373.256716) scale(0.1 -0.1)">
       <defs>
        <path id="DejaVuSans-202f" transform="scale(0.015625)"/>
       </defs>
       <use xlink:href="#DejaVuSans-31"/>
       <use xlink:href="#DejaVuSans-202f" transform="translate(63.623047 0)"/>
       <use xlink:href="#DejaVuSans-30" transform="translate(83.59375 0)"/>
       <use xlink:href="#DejaVuSans-30" transform="translate(147.216797 0)"/>
       <use xlink:href="#DejaVuSans-30" transform="translate(210.839844 0)"/>
       <use xlink:href="#DejaVuSans-a0" transform="translate(274.462891 0)"/>
       <use xlink:href="#DejaVuSans-20ac" transform="translate(306.25 0)"/>
      </g>
     </g>
    </g>
    <g id="ytick_3">
     <g id="line2d_21">
      <path d="M 66.80125 283.354995 
L 835.92125 283.354995 
" clip-path="url(#p94a9464de8)" style="fill: none; stroke: #808080; stroke-opacity: 0.3; stroke-width: 0.8; stroke-linecap: square"/>
     </g>
     <g id="line2d_22">
      <g>
       <use xlink:href="#m4d82ff8b08" x="66.80125" y="283.354995" style="stroke: #000000; stroke-width: 0.8"/>
      </g>
     </g>
     <g id="text_12">
      <!-- 2 000 € -->
      <g transform="translate(22.81375 287.154214) scale(0.1 -0.1)">
       <use xlink:href="#DejaVuSans-32"/>
       <use xlink:href="#DejaVuSans-202f" transform="translate(63.623047 0)"/>
       <use xlink:href="#DejaVuSans-30" transform="translate(83.59375 0)"/>
       <use xlink:href="#DejaVuSans-30" transform="translate(147.216797 0)"/>
       <use xlink:href="#DejaVuSans-30" transform="translate(210.839844 0)"/>
       <use xlink:href="#DejaVuSans-a0" transform="translate(274.462891 0)"/>
       <use xlink:href="#DejaVuSans-20ac" transform="translate(306.25 0)"/>
      </g>
     </g>
    </g>
    <g id="ytick_4">
     <g id="line2d_23">
      <path d="M 66.80125 197.252492 
L 835.92125 197.252492 
" clip-path="url(#p94a9464de8)" style="fill: none; stroke: #808080; stroke-opacity: 0.3; stroke-width: 0.8; stroke-linecap: square"/>
     </g>
     <g id="line2d_24">
      <g>
       <use xlink:href="#m4d82ff8b08" x="66.80125" y="197.252492" style="stroke: #000000; stroke-width: 0.8"/>
      </g>
     </g>
     <g id="text_13">
      <!-- 3 000 € -->
      <g transform="translate(22.81375 201.051711) scale(0.1 -0.1)">
       <defs>
        <path id="DejaVuSans-33" d="M 2597 2516 
Q 3050 2419 3304 2112 
Q 3559 1806 3559 1356 
Q 3559 666 3084 287 
Q 2609 -91 1734 -91 
Q 1441 -91 1130 -33 
Q 819 25 488 141 
L 488 750 
Q 750 597 1062 519 
Q 1375 441 1716 441 
Q 2309 441 2620 675 
Q 2931 909 2931 1356 
Q 2931 1769 2642 2001 
Q 2353 2234 1838 2234 
L 1294 2234 
L 1294 2753 
L 1863 2753 
Q 2328 2753 2575 2939 
Q 2822 3125 2822 3475 
Q 2822 3834 2567 4026 
Q 2313 4219 1838 4219 
Q 1578 4219 1281 4162 
Q 984 4106 628 3988 
L 628 4550 
Q 988 4650 1302 4700 
Q 1616 4750 1894 4750 
Q 2613 4750 3031 4423 
Q 3450 4097 3450 3541 
Q 3450 3153 3228 2886 
Q 3006 2619 2597 2516 
z
" transform="scale(0.015625)"/>
       </defs>
       <use xlink:href="#DejaVuSans-33"/>
       <use xlink:href="#DejaVuSans-202f" transform="translate(63.623047 0)"/>
       <use xlink:href="#DejaVuSans-30" transform="translate(83.59375 0)"/>
       <use xlink:href="#DejaVuSans-30" transform="translate(147.216797 0)"/>
       <use xlink:href="#DejaVuSans-30" transform="translate(210.839844 0)"/>
       <use xlink:href="#DejaVuSans-a0" transform="translate(274.462891 0)"/>
       <use xlink:href="#DejaVuSans-20ac" transform="translate(306.25 0)"/>
      </g>
     </g>
    </g>
    <g id="ytick_5">
     <g id="line2d_25">
      <path d="M 66.80125 111.14999 
L 835.92125 111.14999 
" clip-path="url(#p94a9464de8)" style="fill: none; stroke: #808080; stroke-opacity: 0.3; stroke-width: 0.8; stroke-linecap: square"/>
     </g>
     <g id="line2d_26">
      <g>
       <use xlink:href="#m4d82ff8b08" x="66.80125" y="111.14999" style="stroke: #000000; stroke-width: 0.8"/>
      </g>
     </g>
     <g id="text_14">
      <!-- 4 000 € -->
      <g transform="translate(22.81375 114.949209) scale(0.1 -0.1)">
       <defs>
        <path id="DejaVuSans-34" d="M 2419 4116 
L 825 1625 
L 2419 1625 
L 2419 4116 
z
M 2253 4666 
L 3047 4666 
L 3047 1625 
L 3713 1625 
L 3713 1100 
L 3047 1100 
L 3047 0 
L 2419 0 
L 2419 1100 
L 313 1100 
L 313 1709 
L 2253 4666 
z
" transform="scale(0.015625)"/>
       </defs>
       <use xlink:href="#DejaVuSans-34"/>
       <use xlink:href="#DejaVuSans-202f" transform="translate(63.623047 0)"/>
       <use xlink:href="#DejaVuSans-30" transform="translate(83.59375 0)"/>
       <use xlink:href="#DejaVuSans-30" transform="translate(147.216797 0)"/>
       <use xlink:href="#DejaVuSans-30" transform="translate(210.839844 0)"/>
       <use xlink:href="#DejaVuSans-a0" transform="translate(274.462891 0)"/>
       <use xlink:href="#DejaVuSans-20ac" transform="translate(306.25 0)"/>
      </g>
     </g>
    </g>
    <g id="ytick_6">
     <g id="line2d_27">
      <path d="M 66.80125 25.047487 
L 835.92125 25.047487 
" clip-path="url(#p94a9464de8)" style="fill: none; stroke: #808080; stroke-opacity: 0.3; stroke-width: 0.8; stroke-linecap: square"/>
     </g>
     <g id="line2d_28">
      <g>
       <use xlink:href="#m4d82ff8b08" x="66.80125" y="25.047487" style="stroke: #000000; stroke-width: 0.8"/>
      </g>
     </g>
     <g id="text_15">
      <!-- 5 000 € -->
      <g transform="translate(22.81375 28.846706) scale(0.1 -0.1)">
       <use xlink:href="#DejaVuSans-35"/>
       <use xlink:href="#DejaVuSans-202f" transform="translate(63.623047 0)"/>
       <use xlink:href="#DejaVuSans-30" transform="translate(83.59375 0)"/>
       <use xlink:href="#DejaVuSans-30" transform="translate(147.216797 0)"/>
       <use xlink:href="#DejaVuSans-30" transform="translate(210.839844 0)"/>
       <use xlink:href="#DejaVuSans-a0" transform="translate(274.462891 0)"/>
       <use xlink:href="#DejaVuSans-20ac" transform="translate(306.25 0)"/>
      </g>
     </g>
    </g>
    <g id="text_16">
     <!-- Euros constants 2026 (mensuel) -->
     <g transform="translate(16.318125 328.608125) rotate(-90) scale(0.12 -0.12)">
      <defs>
       <path id="DejaVuSans-45" d="M 628 4666 
L 3578 4666 
L 3578 4134 
L 1259 4134 
L 1259 2753 
L 3481 2753 
L 3481 2222 
L 1259 2222 
L 1259 531 
L 3634 531 
L 3634 0 
L 628 0 
L 628 4666 
z
" transform="scale(0.015625)"/>
       <path id="DejaVuSans-75" d="M 544 1381 
L 544 3500 
L 1119 3500 
L 1119 1403 
Q 1119 906 1312 657 
Q 1506 409 1894 409 
Q 2359 409 2629 706 
Q 2900 1003 2900 1516 
L 2900 3500 
L 3475 3500 
L 3475 0 
L 2900 0 
L 2900 538 
Q 2691 219 2414 64 
Q 2138 -91 1772 -91 
Q 1169 -91 856 284 
Q 544 659 544 1381 
z
M 1991 3584 
L 1991 3584 
z
" transform="scale(0.015625)"/>
       <path id="DejaVuSans-72" d="M 2631 2963 
Q 2534 3019 2420 3045 
Q 2306 3072 2169 3072 
Q 1681 3072 1420 2755 
Q 1159 2438 1159 1844 
L 1159 0 
L 581 0 
L 581 3500 
L 1159 3500 
L 1159 2956 
Q 1341 3275 1631 3429 
Q 1922 3584 2338 3584 
Q 2397 3584 2469 3576 
Q 2541 3569 2628 3553 
L 2631 2963 
z
" transform="scale(0.015625)"/>
       <path id="DejaVuSans-6f" d="M 1959 3097 
Q 1497 3097 1228 2736 
Q 959 2375 959 1747 
Q 959 1119 1226 758 
Q 1494 397 1959 397 
Q 2419 397 2687 759 
Q 2956 1122 2956 1747 
Q 2956 2369 2687 2733 
Q 2419 3097 1959 3097 
z
M 1959 3584 
Q 2709 3584 3137 3096 
Q 3566 2609 3566 1747 
Q 3566 888 3137 398 
Q 2709 -91 1959 -91 
Q 1206 -91 779 398 
Q 353 888 353 1747 
Q 353 2609 779 3096 
Q 1206 3584 1959 3584 
z
" transform="scale(0.015625)"/>
       <path id="DejaVuSans-73" d="M 2834 3397 
L 2834 2853 
Q 2591 2978 2328 3040 
Q 2066 3103 1784 3103 
Q 1356 3103 1142 2972 
Q 928 2841 928 2578 
Q 928 2378 1081 2264 
Q 1234 2150 1697 2047 
L 1894 2003 
Q 2506 1872 2764 1633 
Q 3022 1394 3022 966 
Q 3022 478 2636 193 
Q 2250 -91 1575 -91 
Q 1294 -91 989 -36 
Q 684 19 347 128 
L 347 722 
Q 666 556 975 473 
Q 1284 391 1588 391 
Q 1994 391 2212 530 
Q 2431 669 2431 922 
Q 2431 1156 2273 1281 
Q 2116 1406 1581 1522 
L 1381 1569 
Q 847 1681 609 1914 
Q 372 2147 372 2553 
Q 372 3047 722 3315 
Q 1072 3584 1716 3584 
Q 2034 3584 2315 3537 
Q 2597 3491 2834 3397 
z
" transform="scale(0.015625)"/>
       <path id="DejaVuSans-20" transform="scale(0.015625)"/>
       <path id="DejaVuSans-63" d="M 3122 3366 
L 3122 2828 
Q 2878 2963 2633 3030 
Q 2388 3097 2138 3097 
Q 1578 3097 1268 2742 
Q 959 2388 959 1747 
Q 959 1106 1268 751 
Q 1578 397 2138 397 
Q 2388 397 2633 464 
Q 2878 531 3122 666 
L 3122 134 
Q 2881 22 2623 -34 
Q 2366 -91 2075 -91 
Q 1284 -91 818 406 
Q 353 903 353 1747 
Q 353 2603 823 3093 
Q 1294 3584 2113 3584 
Q 2378 3584 2631 3529 
Q 2884 3475 3122 3366 
z
" transform="scale(0.015625)"/>
       <path id="DejaVuSans-74" d="M 1172 4494 
L 1172 3500 
L 2356 3500 
L 2356 3053 
L 1172 3053 
L 1172 1153 
Q 1172 725 1289 603 
Q 1406 481 1766 481 
L 2356 481 
L 2356 0 
L 1766 0 
Q 1100 0 847 248 
Q 594 497 594 1153 
L 594 3053 
L 172 3053 
L 172 3500 
L 594 3500 
L 594 4494 
L 1172 4494 
z
" transform="scale(0.015625)"/>
       <path id="DejaVuSans-61" d="M 2194 1759 
Q 1497 1759 1228 1600 
Q 959 1441 959 1056 
Q 959 750 1161 570 
Q 1363 391 1709 391 
Q 2188 391 2477 730 
Q 2766 1069 2766 1631 
L 2766 1759 
L 2194 1759 
z
M 3341 1997 
L 3341 0 
L 2766 0 
L 2766 531 
Q 2569 213 2275 61 
Q 1981 -91 1556 -91 
Q 1019 -91 701 211 
Q 384 513 384 1019 
Q 384 1609 779 1909 
Q 1175 2209 1959 2209 
L 2766 2209 
L 2766 2266 
Q 2766 2663 2505 2880 
Q 2244 3097 1772 3097 
Q 1472 3097 1187 3025 
Q 903 2953 641 2809 
L 641 3341 
Q 956 3463 1253 3523 
Q 1550 3584 1831 3584 
Q 2591 3584 2966 3190 
Q 3341 2797 3341 1997 
z
" transform="scale(0.015625)"/>
       <path id="DejaVuSans-28" d="M 1984 4856 
Q 1566 4138 1362 3434 
Q 1159 2731 1159 2009 
Q 1159 1288 1364 580 
Q 1569 -128 1984 -844 
L 1484 -844 
Q 1016 -109 783 600 
Q 550 1309 550 2009 
Q 550 2706 781 3412 
Q 1013 4119 1484 4856 
L 1984 4856 
z
" transform="scale(0.015625)"/>
       <path id="DejaVuSans-6d" d="M 3328 2828 
Q 3544 3216 3844 3400 
Q 4144 3584 4550 3584 
Q 5097 3584 5394 3201 
Q 5691 2819 5691 2113 
L 5691 0 
L 5113 0 
L 5113 2094 
Q 5113 2597 4934 2840 
Q 4756 3084 4391 3084 
Q 3944 3084 3684 2787 
Q 3425 2491 3425 1978 
L 3425 0 
L 2847 0 
L 2847 2094 
Q 2847 2600 2669 2842 
Q 2491 3084 2119 3084 
Q 1678 3084 1418 2786 
Q 1159 2488 1159 1978 
L 1159 0 
L 581 0 
L 581 3500 
L 1159 3500 
L 1159 2956 
Q 1356 3278 1631 3431 
Q 1906 3584 2284 3584 
Q 2666 3584 2933 3390 
Q 3200 3197 3328 2828 
z
" transform="scale(0.015625)"/>
       <path id="DejaVuSans-6c" d="M 603 4863 
L 1178 4863 
L 1178 0 
L 603 0 
L 603 4863 
z
" transform="scale(0.015625)"/>
       <path id="DejaVuSans-29" d="M 513 4856 
L 1013 4856 
Q 1481 4119 1714 3412 
Q 1947 2706 1947 2009 
Q 1947 1309 1714 600 
Q 1481 -109 1013 -844 
L 513 -844 
Q 928 -128 1133 580 
Q 1338 1288 1338 2009 
Q 1338 2731 1133 3434 
Q 928 4138 513 4856 
z
" transform="scale(0.015625)"/>
      </defs>
      <use xlink:href="#DejaVuSans-45"/>
      <use xlink:href="#DejaVuSans-75" transform="translate(63.183594 0)"/>
      <use xlink:href="#DejaVuSans-72" transform="translate(126.5625 0)"/>
      <use xlink:href="#DejaVuSans-6f" transform="translate(165.425781 0)"/>
      <use xlink:href="#DejaVuSans-73" transform="translate(226.607422 0)"/>
      <use xlink:href="#DejaVuSans-20" transform="translate(278.707031 0)"/>
      <use xlink:href="#DejaVuSans-63" transform="translate(310.494141 0)"/>
      <use xlink:href="#DejaVuSans-6f" transform="translate(365.474609 0)"/>
      <use xlink:href="#DejaVuSans-6e" transform="translate(426.65625 0)"/>
      <use xlink:href="#DejaVuSans-73" transform="translate(490.035156 0)"/>
      <use xlink:href="#DejaVuSans-74" transform="translate(542.134766 0)"/>
      <use xlink:href="#DejaVuSans-61" transform="translate(581.34375 0)"/>
      <use xlink:href="#DejaVuSans-6e" transform="translate(642.623047 0)"/>
      <use xlink:href="#DejaVuSans-74" transform="translate(706.001953 0)"/>
      <use xlink:href="#DejaVuSans-73" transform="translate(745.210938 0)"/>
      <use xlink:href="#DejaVuSans-20" transform="translate(797.310547 0)"/>
      <use xlink:href="#DejaVuSans-32" transform="translate(829.097656 0)"/>
      <use xlink:href="#DejaVuSans-30" transform="translate(892.720703 0)"/>
      <use xlink:href="#DejaVuSans-32" transform="translate(956.34375 0)"/>
      <use xlink:href="#DejaVuSans-36" transform="translate(1019.966797 0)"/>
      <use xlink:href="#DejaVuSans-20" transform="translate(1083.589844 0)"/>
      <use xlink:href="#DejaVuSans-28" transform="translate(1115.376953 0)"/>
      <use xlink:href="#DejaVuSans-6d" transform="translate(1154.390625 0)"/>
      <use xlink:href="#DejaVuSans-65" transform="translate(1251.802734 0)"/>
      <use xlink:href="#DejaVuSans-6e" transform="translate(1313.326172 0)"/>
      <use xlink:href="#DejaVuSans-73" transform="translate(1376.705078 0)"/>
      <use xlink:href="#DejaVuSans-75" transform="translate(1428.804688 0)"/>
      <use xlink:href="#DejaVuSans-65" transform="translate(1492.183594 0)"/>
      <use xlink:href="#DejaVuSans-6c" transform="translate(1553.707031 0)"/>
      <use xlink:href="#DejaVuSans-29" transform="translate(1581.490234 0)"/>
     </g>
    </g>
   </g>
   <g id="line2d_29">
    <path d="M 66.80125 370.631534 
L 77.788679 369.765557 
L 88.776107 365.008833 
L 99.763536 361.759316 
L 110.750964 352.497858 
L 121.738393 343.558421 
L 132.725821 333.64457 
L 143.71325 327.545912 
L 154.700679 331.84788 
L 165.688107 331.450227 
L 176.675536 325.451481 
L 187.662964 313.270331 
L 198.650393 302.506106 
L 209.637821 294.311668 
L 220.62525 289.999617 
L 231.612679 284.005254 
L 242.600107 277.933018 
L 253.587536 273.274649 
L 264.574964 259.026618 
L 275.562393 250.440375 
L 286.549821 242.599209 
L 297.53725 231.43567 
L 308.524679 221.395966 
L 319.512107 210.296906 
L 330.499536 201.464536 
L 341.486964 192.114079 
L 352.474393 172.560694 
L 363.461821 166.887785 
L 374.44925 154.597885 
L 385.436679 152.438646 
L 396.424107 149.049798 
L 407.411536 149.132886 
L 418.398964 143.174469 
L 429.386393 135.576967 
L 440.373821 131.145402 
L 451.36125 125.829646 
L 462.348679 116.788368 
L 473.336107 114.82388 
L 484.323536 111.826686 
L 495.310964 107.580843 
L 506.298393 104.524857 
L 517.285821 102.431319 
L 528.27325 95.870783 
L 539.260679 88.647193 
L 550.248107 83.581165 
L 561.235536 80.625909 
L 572.222964 78.274734 
L 583.210393 76.855403 
L 594.197821 75.318628 
L 605.18525 67.225233 
L 616.172679 65.659643 
L 627.160107 64.404787 
L 638.147536 63.819019 
L 649.134964 60.521474 
L 660.122393 58.926474 
L 671.109821 53.840066 
L 682.09725 52.243506 
L 693.084679 46.027828 
L 704.072107 45.005449 
L 715.059536 39.564863 
L 726.046964 37.099453 
L 737.034393 35.793591 
L 748.021821 36.986698 
L 759.00925 37.293333 
L 769.996679 33.36915 
L 780.984107 27.217545 
L 791.971536 31.930738 
L 802.958964 27.704771 
L 813.946393 30.138229 
L 824.933821 39.576666 
L 835.92125 25.521592 
" clip-path="url(#p94a9464de8)" style="fill: none; stroke: #000000; stroke-width: 2; stroke-linecap: square"/>
   </g>
   <g id="line2d_30">
    <path d="M 66.80125 386.099164 
L 77.788679 386.400842 
L 88.776107 382.887409 
L 99.763536 380.474051 
L 110.750964 373.491058 
L 121.738393 365.898694 
L 132.725821 358.139154 
L 143.71325 351.539936 
L 154.700679 355.346049 
L 165.688107 353.529355 
L 176.675536 347.867496 
L 187.662964 341.904264 
L 198.650393 334.022559 
L 209.637821 327.544866 
L 220.62525 324.209869 
L 231.612679 319.204236 
L 242.600107 314.078897 
L 253.587536 310.192927 
L 264.574964 301.136685 
L 275.562393 294.454148 
L 286.549821 288.122565 
L 297.53725 279.349235 
L 308.524679 272.464678 
L 319.512107 264.286212 
L 330.499536 255.456098 
L 341.486964 249.907225 
L 352.474393 237.496457 
L 363.461821 234.279625 
L 374.44925 225.923158 
L 385.436679 226.129584 
L 396.424107 225.094553 
L 407.411536 225.188537 
L 418.398964 221.091217 
L 429.386393 218.232781 
L 440.373821 215.842838 
L 451.36125 212.850974 
L 462.348679 205.743773 
L 473.336107 204.922841 
L 484.323536 203.634435 
L 495.310964 198.615793 
L 506.298393 194.09671 
L 517.285821 191.418311 
L 528.27325 189.803188 
L 539.260679 188.35978 
L 550.248107 187.843923 
L 561.235536 185.717003 
L 572.222964 184.826756 
L 583.210393 181.615563 
L 594.197821 177.891215 
L 605.18525 171.665526 
L 616.172679 170.419741 
L 627.160107 164.366056 
L 638.147536 162.625265 
L 649.134964 162.145226 
L 660.122393 161.752194 
L 671.109821 158.732816 
L 682.09725 157.424299 
L 693.084679 152.521245 
L 704.072107 151.72177 
L 715.059536 147.956307 
L 726.046964 146.460764 
L 737.034393 145.342964 
L 748.021821 146.439258 
L 759.00925 146.603976 
L 769.996679 143.157818 
L 780.984107 138.517228 
L 791.971536 136.519328 
L 802.958964 133.27586 
L 813.946393 133.042251 
L 824.933821 123.760075 
L 835.92125 112.549355 
" clip-path="url(#p94a9464de8)" style="fill: none; stroke-dasharray: 7.4,3.2; stroke-dashoffset: 0; stroke: #000000; stroke-width: 2"/>
   </g>
   <g id="line2d_31">
    <path d="M 66.80125 391.292578 
L 77.788679 391.953425 
L 88.776107 388.722075 
L 99.763536 386.502479 
L 110.750964 380.08013 
L 121.738393 372.898105 
L 132.725821 365.818281 
L 143.71325 359.016119 
L 154.700679 362.676604 
L 165.688107 362.36368 
L 176.675536 356.486491 
L 187.662964 352.104096 
L 198.650393 347.00327 
L 209.637821 341.191191 
L 220.62525 338.132777 
L 231.612679 333.881147 
L 242.600107 329.814166 
L 253.587536 326.802336 
L 264.574964 319.638472 
L 275.562393 313.758434 
L 286.549821 308.326661 
L 297.53725 300.990335 
L 308.524679 295.113302 
L 319.512107 288.129205 
L 330.499536 282.955465 
L 341.486964 278.338037 
L 352.474393 268.993606 
L 363.461821 266.925829 
L 374.44925 259.840834 
L 385.436679 263.880641 
L 396.424107 263.216624 
L 407.411536 263.547039 
L 418.398964 260.161863 
L 429.386393 258.419033 
L 440.373821 258.968278 
L 451.36125 256.62049 
L 462.348679 251.492959 
L 473.336107 252.368959 
L 484.323536 251.954303 
L 495.310964 250.399894 
L 506.298393 246.771066 
L 517.285821 246.086875 
L 528.27325 245.477411 
L 539.260679 244.882904 
L 550.248107 244.983325 
L 561.235536 243.310359 
L 572.222964 244.342786 
L 583.210393 242.98474 
L 594.197821 241.048208 
L 605.18525 237.716358 
L 616.172679 236.760418 
L 627.160107 235.249709 
L 638.147536 234.953108 
L 649.134964 234.833659 
L 660.122393 234.537994 
L 671.109821 232.379106 
L 682.09725 231.922613 
L 693.084679 228.215805 
L 704.072107 227.616027 
L 715.059536 224.79112 
L 726.046964 223.669142 
L 737.034393 222.830551 
L 748.021821 223.830255 
L 759.00925 224.366811 
L 769.996679 223.155633 
L 780.984107 220.537044 
L 791.971536 219.583889 
L 802.958964 217.451127 
L 813.946393 216.666974 
L 824.933821 209.929382 
L 835.92125 201.630115 
" clip-path="url(#p94a9464de8)" style="fill: none; stroke-dasharray: 12.8,3.2,2,3.2; stroke-dashoffset: 0; stroke: #000000; stroke-width: 2"/>
   </g>
   <g id="patch_3">
    <path d="M 66.80125 455.56 
L 66.80125 7.2 
" style="fill: none; stroke: #000000; stroke-width: 0.8; stroke-linejoin: miter; stroke-linecap: square"/>
   </g>
   <g id="patch_4">
    <path d="M 835.92125 455.56 
L 835.92125 7.2 
" style="fill: none; stroke: #000000; stroke-width: 0.8; stroke-linejoin: miter; stroke-linecap: square"/>
   </g>
   <g id="patch_5">
    <path d="M 66.80125 455.56 
L 835.92125 455.56 
" style="fill: none; stroke: #000000; stroke-width: 0.8; stroke-linejoin: miter; stroke-linecap: square"/>
   </g>
   <g id="patch_6">
    <path d="M 66.80125 7.2 
L 835.92125 7.2 
" style="fill: none; stroke: #000000; stroke-width: 0.8; stroke-linejoin: miter; stroke-linecap: square"/>
   </g>
   <g id="text_17">
    <!-- Cotisations -->
    <g transform="translate(640.583962 192.432477) scale(0.11 -0.11)">
     <defs>
      <path id="DejaVuSans-Oblique-43" d="M 4447 4306 
L 4319 3641 
Q 4019 3944 3683 4091 
Q 3347 4238 2956 4238 
Q 2422 4238 2017 3981 
Q 1613 3725 1319 3200 
Q 1131 2863 1032 2486 
Q 934 2109 934 1728 
Q 934 1091 1264 756 
Q 1594 422 2222 422 
Q 2656 422 3056 561 
Q 3456 700 3834 978 
L 3688 231 
Q 3316 72 2936 -9 
Q 2556 -91 2175 -91 
Q 1278 -91 773 396 
Q 269 884 269 1753 
Q 269 2309 461 2846 
Q 653 3384 1013 3828 
Q 1394 4300 1883 4525 
Q 2372 4750 3022 4750 
Q 3422 4750 3780 4639 
Q 4138 4528 4447 4306 
z
" transform="scale(0.015625)"/>
      <path id="DejaVuSans-Oblique-6f" d="M 1625 -91 
Q 1009 -91 651 289 
Q 294 669 294 1325 
Q 294 1706 417 2101 
Q 541 2497 738 2766 
Q 1047 3184 1428 3384 
Q 1809 3584 2291 3584 
Q 2888 3584 3255 3212 
Q 3622 2841 3622 2241 
Q 3622 1825 3500 1412 
Q 3378 1000 3181 728 
Q 2875 309 2494 109 
Q 2113 -91 1625 -91 
z
M 891 1344 
Q 891 869 1089 633 
Q 1288 397 1691 397 
Q 2269 397 2648 901 
Q 3028 1406 3028 2181 
Q 3028 2634 2825 2865 
Q 2622 3097 2228 3097 
Q 1903 3097 1650 2945 
Q 1397 2794 1197 2484 
Q 1050 2253 970 1956 
Q 891 1659 891 1344 
z
" transform="scale(0.015625)"/>
      <path id="DejaVuSans-Oblique-74" d="M 2706 3500 
L 2619 3053 
L 1472 3053 
L 1100 1153 
Q 1081 1047 1072 975 
Q 1063 903 1063 863 
Q 1063 663 1183 572 
Q 1303 481 1569 481 
L 2150 481 
L 2053 0 
L 1503 0 
Q 991 0 739 200 
Q 488 400 488 806 
Q 488 878 497 964 
Q 506 1050 525 1153 
L 897 3053 
L 409 3053 
L 500 3500 
L 978 3500 
L 1172 4494 
L 1747 4494 
L 1556 3500 
L 2706 3500 
z
" transform="scale(0.015625)"/>
      <path id="DejaVuSans-Oblique-69" d="M 1172 4863 
L 1747 4863 
L 1606 4134 
L 1031 4134 
L 1172 4863 
z
M 909 3500 
L 1484 3500 
L 800 0 
L 225 0 
L 909 3500 
z
" transform="scale(0.015625)"/>
      <path id="DejaVuSans-Oblique-73" d="M 3200 3397 
L 3091 2853 
Q 2863 2978 2609 3040 
Q 2356 3103 2088 3103 
Q 1634 3103 1373 2948 
Q 1113 2794 1113 2528 
Q 1113 2219 1719 2053 
Q 1766 2041 1788 2034 
L 1972 1978 
Q 2547 1819 2739 1644 
Q 2931 1469 2931 1166 
Q 2931 609 2489 259 
Q 2047 -91 1331 -91 
Q 1053 -91 747 -37 
Q 441 16 72 128 
L 184 722 
Q 500 559 806 475 
Q 1113 391 1394 391 
Q 1816 391 2080 572 
Q 2344 753 2344 1031 
Q 2344 1331 1650 1516 
L 1591 1531 
L 1394 1581 
Q 956 1697 753 1886 
Q 550 2075 550 2369 
Q 550 2928 970 3256 
Q 1391 3584 2113 3584 
Q 2397 3584 2667 3537 
Q 2938 3491 3200 3397 
z
" transform="scale(0.015625)"/>
      <path id="DejaVuSans-Oblique-61" d="M 3438 1997 
L 3047 0 
L 2472 0 
L 2578 531 
Q 2325 219 2001 64 
Q 1678 -91 1281 -91 
Q 834 -91 548 182 
Q 263 456 263 884 
Q 263 1497 752 1853 
Q 1241 2209 2100 2209 
L 2900 2209 
L 2931 2363 
Q 2938 2388 2941 2417 
Q 2944 2447 2944 2509 
Q 2944 2788 2717 2942 
Q 2491 3097 2081 3097 
Q 1800 3097 1504 3025 
Q 1209 2953 897 2809 
L 997 3341 
Q 1322 3463 1633 3523 
Q 1944 3584 2234 3584 
Q 2853 3584 3176 3315 
Q 3500 3047 3500 2534 
Q 3500 2431 3484 2292 
Q 3469 2153 3438 1997 
z
M 2816 1759 
L 2241 1759 
Q 1534 1759 1195 1570 
Q 856 1381 856 984 
Q 856 709 1029 553 
Q 1203 397 1509 397 
Q 1978 397 2328 733 
Q 2678 1069 2791 1631 
L 2816 1759 
z
" transform="scale(0.015625)"/>
      <path id="DejaVuSans-Oblique-6e" d="M 3566 2113 
L 3156 0 
L 2578 0 
L 2988 2091 
Q 3016 2238 3031 2350 
Q 3047 2463 3047 2528 
Q 3047 2791 2881 2937 
Q 2716 3084 2419 3084 
Q 1956 3084 1622 2776 
Q 1288 2469 1184 1941 
L 800 0 
L 225 0 
L 903 3500 
L 1478 3500 
L 1363 2950 
Q 1603 3253 1940 3418 
Q 2278 3584 2650 3584 
Q 3113 3584 3367 3334 
Q 3622 3084 3622 2631 
Q 3622 2519 3608 2391 
Q 3594 2263 3566 2113 
z
" transform="scale(0.015625)"/>
     </defs>
     <use xlink:href="#DejaVuSans-Oblique-43"/>
     <use xlink:href="#DejaVuSans-Oblique-6f" transform="translate(69.824219 0)"/>
     <use xlink:href="#DejaVuSans-Oblique-74" transform="translate(131.005859 0)"/>
     <use xlink:href="#DejaVuSans-Oblique-69" transform="translate(170.214844 0)"/>
     <use xlink:href="#DejaVuSans-Oblique-73" transform="translate(197.998047 0)"/>
     <use xlink:href="#DejaVuSans-Oblique-61" transform="translate(250.097656 0)"/>
     <use xlink:href="#DejaVuSans-Oblique-74" transform="translate(311.376953 0)"/>
     <use xlink:href="#DejaVuSans-Oblique-69" transform="translate(350.585938 0)"/>
     <use xlink:href="#DejaVuSans-Oblique-6f" transform="translate(378.369141 0)"/>
     <use xlink:href="#DejaVuSans-Oblique-6e" transform="translate(439.550781 0)"/>
     <use xlink:href="#DejaVuSans-Oblique-73" transform="translate(502.929688 0)"/>
    </g>
    <!-- retraite -->
    <g transform="translate(650.608571 204.75007) scale(0.11 -0.11)">
     <defs>
      <path id="DejaVuSans-Oblique-72" d="M 2853 2969 
Q 2766 3016 2653 3041 
Q 2541 3066 2413 3066 
Q 1953 3066 1609 2717 
Q 1266 2369 1153 1784 
L 800 0 
L 225 0 
L 909 3500 
L 1484 3500 
L 1375 2956 
Q 1603 3259 1920 3421 
Q 2238 3584 2597 3584 
Q 2691 3584 2781 3573 
Q 2872 3563 2963 3538 
L 2853 2969 
z
" transform="scale(0.015625)"/>
      <path id="DejaVuSans-Oblique-65" d="M 3078 2063 
Q 3088 2113 3092 2166 
Q 3097 2219 3097 2272 
Q 3097 2653 2873 2875 
Q 2650 3097 2266 3097 
Q 1838 3097 1509 2826 
Q 1181 2556 1013 2059 
L 3078 2063 
z
M 3578 1613 
L 903 1613 
Q 884 1494 878 1425 
Q 872 1356 872 1306 
Q 872 872 1139 634 
Q 1406 397 1894 397 
Q 2269 397 2603 481 
Q 2938 566 3225 728 
L 3116 159 
Q 2806 34 2476 -28 
Q 2147 -91 1806 -91 
Q 1078 -91 686 257 
Q 294 606 294 1247 
Q 294 1794 489 2264 
Q 684 2734 1063 3103 
Q 1306 3334 1642 3459 
Q 1978 3584 2356 3584 
Q 2950 3584 3301 3228 
Q 3653 2872 3653 2272 
Q 3653 2128 3634 1964 
Q 3616 1800 3578 1613 
z
" transform="scale(0.015625)"/>
     </defs>
     <use xlink:href="#DejaVuSans-Oblique-72"/>
     <use xlink:href="#DejaVuSans-Oblique-65" transform="translate(41.113281 0)"/>
     <use xlink:href="#DejaVuSans-Oblique-74" transform="translate(102.636719 0)"/>
     <use xlink:href="#DejaVuSans-Oblique-72" transform="translate(141.845703 0)"/>
     <use xlink:href="#DejaVuSans-Oblique-61" transform="translate(182.958984 0)"/>
     <use xlink:href="#DejaVuSans-Oblique-69" transform="translate(244.238281 0)"/>
     <use xlink:href="#DejaVuSans-Oblique-74" transform="translate(272.021484 0)"/>
     <use xlink:href="#DejaVuSans-Oblique-65" transform="translate(311.230469 0)"/>
    </g>
   </g>
   <g id="text_18">
    <!-- Autres cotisations -->
    <g transform="translate(621.737868 103.162957) scale(0.11 -0.11)">
     <defs>
      <path id="DejaVuSans-Oblique-41" d="M 2356 4666 
L 3072 4666 
L 3938 0 
L 3278 0 
L 3084 1197 
L 984 1197 
L 325 0 
L -341 0 
L 2356 4666 
z
M 2584 4044 
L 1275 1722 
L 2988 1722 
L 2584 4044 
z
" transform="scale(0.015625)"/>
      <path id="DejaVuSans-Oblique-75" d="M 428 1388 
L 838 3500 
L 1416 3500 
L 1006 1409 
Q 975 1256 961 1147 
Q 947 1038 947 966 
Q 947 700 1109 554 
Q 1272 409 1569 409 
Q 2031 409 2368 721 
Q 2706 1034 2809 1563 
L 3194 3500 
L 3769 3500 
L 3091 0 
L 2516 0 
L 2631 550 
Q 2388 244 2052 76 
Q 1716 -91 1338 -91 
Q 878 -91 622 161 
Q 366 413 366 863 
Q 366 956 381 1097 
Q 397 1238 428 1388 
z
" transform="scale(0.015625)"/>
      <path id="DejaVuSans-Oblique-20" transform="scale(0.015625)"/>
      <path id="DejaVuSans-Oblique-63" d="M 3431 3366 
L 3316 2797 
Q 3109 2947 2876 3022 
Q 2644 3097 2394 3097 
Q 2119 3097 1870 3000 
Q 1622 2903 1453 2725 
Q 1184 2453 1037 2087 
Q 891 1722 891 1331 
Q 891 859 1127 628 
Q 1363 397 1844 397 
Q 2081 397 2348 469 
Q 2616 541 2906 684 
L 2797 116 
Q 2547 13 2283 -39 
Q 2019 -91 1741 -91 
Q 1044 -91 669 257 
Q 294 606 294 1253 
Q 294 1797 489 2255 
Q 684 2713 1069 3078 
Q 1331 3328 1684 3456 
Q 2038 3584 2456 3584 
Q 2700 3584 2940 3529 
Q 3181 3475 3431 3366 
z
" transform="scale(0.015625)"/>
     </defs>
     <use xlink:href="#DejaVuSans-Oblique-41"/>
     <use xlink:href="#DejaVuSans-Oblique-75" transform="translate(68.408203 0)"/>
     <use xlink:href="#DejaVuSans-Oblique-74" transform="translate(131.787109 0)"/>
     <use xlink:href="#DejaVuSans-Oblique-72" transform="translate(170.996094 0)"/>
     <use xlink:href="#DejaVuSans-Oblique-65" transform="translate(212.109375 0)"/>
     <use xlink:href="#DejaVuSans-Oblique-73" transform="translate(273.632812 0)"/>
     <use xlink:href="#DejaVuSans-Oblique-20" transform="translate(325.732422 0)"/>
     <use xlink:href="#DejaVuSans-Oblique-63" transform="translate(357.519531 0)"/>
     <use xlink:href="#DejaVuSans-Oblique-6f" transform="translate(412.5 0)"/>
     <use xlink:href="#DejaVuSans-Oblique-74" transform="translate(473.681641 0)"/>
     <use xlink:href="#DejaVuSans-Oblique-69" transform="translate(512.890625 0)"/>
     <use xlink:href="#DejaVuSans-Oblique-73" transform="translate(540.673828 0)"/>
     <use xlink:href="#DejaVuSans-Oblique-61" transform="translate(592.773438 0)"/>
     <use xlink:href="#DejaVuSans-Oblique-74" transform="translate(654.052734 0)"/>
     <use xlink:href="#DejaVuSans-Oblique-69" transform="translate(693.261719 0)"/>
     <use xlink:href="#DejaVuSans-Oblique-6f" transform="translate(721.044922 0)"/>
     <use xlink:href="#DejaVuSans-Oblique-6e" transform="translate(782.226562 0)"/>
     <use xlink:href="#DejaVuSans-Oblique-73" transform="translate(845.605469 0)"/>
    </g>
    <!-- sociales -->
    <g transform="translate(649.179431 115.480551) scale(0.11 -0.11)">
     <defs>
      <path id="DejaVuSans-Oblique-6c" d="M 1172 4863 
L 1747 4863 
L 800 0 
L 225 0 
L 1172 4863 
z
" transform="scale(0.015625)"/>
     </defs>
     <use xlink:href="#DejaVuSans-Oblique-73"/>
     <use xlink:href="#DejaVuSans-Oblique-6f" transform="translate(52.099609 0)"/>
     <use xlink:href="#DejaVuSans-Oblique-63" transform="translate(113.28125 0)"/>
     <use xlink:href="#DejaVuSans-Oblique-69" transform="translate(168.261719 0)"/>
     <use xlink:href="#DejaVuSans-Oblique-61" transform="translate(196.044922 0)"/>
     <use xlink:href="#DejaVuSans-Oblique-6c" transform="translate(257.324219 0)"/>
     <use xlink:href="#DejaVuSans-Oblique-65" transform="translate(285.107422 0)"/>
     <use xlink:href="#DejaVuSans-Oblique-73" transform="translate(346.630859 0)"/>
    </g>
   </g>
   <g id="legend_1">
    <g id="patch_7">
     <path d="M 73.80125 59.634375 
L 268.571563 59.634375 
Q 270.571563 59.634375 270.571563 57.634375 
L 270.571563 14.2 
Q 270.571563 12.2 268.571563 12.2 
L 73.80125 12.2 
Q 71.80125 12.2 71.80125 14.2 
L 71.80125 57.634375 
Q 71.80125 59.634375 73.80125 59.634375 
z
" style="fill: #ffffff; opacity: 0.9; stroke: #cccccc; stroke-linejoin: miter"/>
    </g>
    <g id="line2d_32">
     <path d="M 75.80125 20.698437 
L 85.80125 20.698437 
L 95.80125 20.698437 
" style="fill: none; stroke: #000000; stroke-width: 2; stroke-linecap: square"/>
    </g>
    <g id="text_19">
     <!-- Coût employeur -->
     <g transform="translate(103.80125 24.198437) scale(0.1 -0.1)">
      <defs>
       <path id="DejaVuSans-43" d="M 4122 4306 
L 4122 3641 
Q 3803 3938 3442 4084 
Q 3081 4231 2675 4231 
Q 1875 4231 1450 3742 
Q 1025 3253 1025 2328 
Q 1025 1406 1450 917 
Q 1875 428 2675 428 
Q 3081 428 3442 575 
Q 3803 722 4122 1019 
L 4122 359 
Q 3791 134 3420 21 
Q 3050 -91 2638 -91 
Q 1578 -91 968 557 
Q 359 1206 359 2328 
Q 359 3453 968 4101 
Q 1578 4750 2638 4750 
Q 3056 4750 3426 4639 
Q 3797 4528 4122 4306 
z
" transform="scale(0.015625)"/>
       <path id="DejaVuSans-fb" d="M 544 1381 
L 544 3500 
L 1119 3500 
L 1119 1403 
Q 1119 906 1312 657 
Q 1506 409 1894 409 
Q 2359 409 2629 706 
Q 2900 1003 2900 1516 
L 2900 3500 
L 3475 3500 
L 3475 0 
L 2900 0 
L 2900 538 
Q 2691 219 2414 64 
Q 2138 -91 1772 -91 
Q 1169 -91 856 284 
Q 544 659 544 1381 
z
M 1991 3584 
L 1991 3584 
z
M 1753 5119 
L 2215 5119 
L 2981 3944 
L 2547 3944 
L 1984 4709 
L 1422 3944 
L 987 3944 
L 1753 5119 
z
" transform="scale(0.015625)"/>
       <path id="DejaVuSans-70" d="M 1159 525 
L 1159 -1331 
L 581 -1331 
L 581 3500 
L 1159 3500 
L 1159 2969 
Q 1341 3281 1617 3432 
Q 1894 3584 2278 3584 
Q 2916 3584 3314 3078 
Q 3713 2572 3713 1747 
Q 3713 922 3314 415 
Q 2916 -91 2278 -91 
Q 1894 -91 1617 61 
Q 1341 213 1159 525 
z
M 3116 1747 
Q 3116 2381 2855 2742 
Q 2594 3103 2138 3103 
Q 1681 3103 1420 2742 
Q 1159 2381 1159 1747 
Q 1159 1113 1420 752 
Q 1681 391 2138 391 
Q 2594 391 2855 752 
Q 3116 1113 3116 1747 
z
" transform="scale(0.015625)"/>
       <path id="DejaVuSans-79" d="M 2059 -325 
Q 1816 -950 1584 -1140 
Q 1353 -1331 966 -1331 
L 506 -1331 
L 506 -850 
L 844 -850 
Q 1081 -850 1212 -737 
Q 1344 -625 1503 -206 
L 1606 56 
L 191 3500 
L 800 3500 
L 1894 763 
L 2988 3500 
L 3597 3500 
L 2059 -325 
z
" transform="scale(0.015625)"/>
      </defs>
      <use xlink:href="#DejaVuSans-43"/>
      <use xlink:href="#DejaVuSans-6f" transform="translate(69.824219 0)"/>
      <use xlink:href="#DejaVuSans-fb" transform="translate(131.005859 0)"/>
      <use xlink:href="#DejaVuSans-74" transform="translate(194.384766 0)"/>
      <use xlink:href="#DejaVuSans-20" transform="translate(233.59375 0)"/>
      <use xlink:href="#DejaVuSans-65" transform="translate(265.380859 0)"/>
      <use xlink:href="#DejaVuSans-6d" transform="translate(326.904297 0)"/>
      <use xlink:href="#DejaVuSans-70" transform="translate(424.316406 0)"/>
      <use xlink:href="#DejaVuSans-6c" transform="translate(487.792969 0)"/>
      <use xlink:href="#DejaVuSans-6f" transform="translate(515.576172 0)"/>
      <use xlink:href="#DejaVuSans-79" transform="translate(576.757812 0)"/>
      <use xlink:href="#DejaVuSans-65" transform="translate(635.9375 0)"/>
      <use xlink:href="#DejaVuSans-75" transform="translate(697.460938 0)"/>
      <use xlink:href="#DejaVuSans-72" transform="translate(760.839844 0)"/>
     </g>
    </g>
    <g id="line2d_33">
     <path d="M 75.80125 35.376562 
L 85.80125 35.376562 
L 95.80125 35.376562 
" style="fill: none; stroke-dasharray: 7.4,3.2; stroke-dashoffset: 0; stroke: #000000; stroke-width: 2"/>
    </g>
    <g id="text_20">
     <!-- Salaire net + cotisations retraite -->
     <g transform="translate(103.80125 38.876562) scale(0.1 -0.1)">
      <defs>
       <path id="DejaVuSans-53" d="M 3425 4513 
L 3425 3897 
Q 3066 4069 2747 4153 
Q 2428 4238 2131 4238 
Q 1616 4238 1336 4038 
Q 1056 3838 1056 3469 
Q 1056 3159 1242 3001 
Q 1428 2844 1947 2747 
L 2328 2669 
Q 3034 2534 3370 2195 
Q 3706 1856 3706 1288 
Q 3706 609 3251 259 
Q 2797 -91 1919 -91 
Q 1588 -91 1214 -16 
Q 841 59 441 206 
L 441 856 
Q 825 641 1194 531 
Q 1563 422 1919 422 
Q 2459 422 2753 634 
Q 3047 847 3047 1241 
Q 3047 1584 2836 1778 
Q 2625 1972 2144 2069 
L 1759 2144 
Q 1053 2284 737 2584 
Q 422 2884 422 3419 
Q 422 4038 858 4394 
Q 1294 4750 2059 4750 
Q 2388 4750 2728 4690 
Q 3069 4631 3425 4513 
z
" transform="scale(0.015625)"/>
       <path id="DejaVuSans-69" d="M 603 3500 
L 1178 3500 
L 1178 0 
L 603 0 
L 603 3500 
z
M 603 4863 
L 1178 4863 
L 1178 4134 
L 603 4134 
L 603 4863 
z
" transform="scale(0.015625)"/>
       <path id="DejaVuSans-2b" d="M 2944 4013 
L 2944 2272 
L 4684 2272 
L 4684 1741 
L 2944 1741 
L 2944 0 
L 2419 0 
L 2419 1741 
L 678 1741 
L 678 2272 
L 2419 2272 
L 2419 4013 
L 2944 4013 
z
" transform="scale(0.015625)"/>
      </defs>
      <use xlink:href="#DejaVuSans-53"/>
      <use xlink:href="#DejaVuSans-61" transform="translate(63.476562 0)"/>
      <use xlink:href="#DejaVuSans-6c" transform="translate(124.755859 0)"/>
      <use xlink:href="#DejaVuSans-61" transform="translate(152.539062 0)"/>
      <use xlink:href="#DejaVuSans-69" transform="translate(213.818359 0)"/>
      <use xlink:href="#DejaVuSans-72" transform="translate(241.601562 0)"/>
      <use xlink:href="#DejaVuSans-65" transform="translate(280.464844 0)"/>
      <use xlink:href="#DejaVuSans-20" transform="translate(341.988281 0)"/>
      <use xlink:href="#DejaVuSans-6e" transform="translate(373.775391 0)"/>
      <use xlink:href="#DejaVuSans-65" transform="translate(437.154297 0)"/>
      <use xlink:href="#DejaVuSans-74" transform="translate(498.677734 0)"/>
      <use xlink:href="#DejaVuSans-20" transform="translate(537.886719 0)"/>
      <use xlink:href="#DejaVuSans-2b" transform="translate(569.673828 0)"/>
      <use xlink:href="#DejaVuSans-20" transform="translate(653.462891 0)"/>
      <use xlink:href="#DejaVuSans-63" transform="translate(685.25 0)"/>
      <use xlink:href="#DejaVuSans-6f" transform="translate(740.230469 0)"/>
      <use xlink:href="#DejaVuSans-74" transform="translate(801.412109 0)"/>
      <use xlink:href="#DejaVuSans-69" transform="translate(840.621094 0)"/>
      <use xlink:href="#DejaVuSans-73" transform="translate(868.404297 0)"/>
      <use xlink:href="#DejaVuSans-61" transform="translate(920.503906 0)"/>
      <use xlink:href="#DejaVuSans-74" transform="translate(981.783203 0)"/>
      <use xlink:href="#DejaVuSans-69" transform="translate(1020.992188 0)"/>
      <use xlink:href="#DejaVuSans-6f" transform="translate(1048.775391 0)"/>
      <use xlink:href="#DejaVuSans-6e" transform="translate(1109.957031 0)"/>
      <use xlink:href="#DejaVuSans-73" transform="translate(1173.335938 0)"/>
      <use xlink:href="#DejaVuSans-20" transform="translate(1225.435547 0)"/>
      <use xlink:href="#DejaVuSans-72" transform="translate(1257.222656 0)"/>
      <use xlink:href="#DejaVuSans-65" transform="translate(1296.085938 0)"/>
      <use xlink:href="#DejaVuSans-74" transform="translate(1357.609375 0)"/>
      <use xlink:href="#DejaVuSans-72" transform="translate(1396.818359 0)"/>
      <use xlink:href="#DejaVuSans-61" transform="translate(1437.931641 0)"/>
      <use xlink:href="#DejaVuSans-69" transform="translate(1499.210938 0)"/>
      <use xlink:href="#DejaVuSans-74" transform="translate(1526.994141 0)"/>
      <use xlink:href="#DejaVuSans-65" transform="translate(1566.203125 0)"/>
     </g>
    </g>
    <g id="line2d_34">
     <path d="M 75.80125 50.054687 
L 85.80125 50.054687 
L 95.80125 50.054687 
" style="fill: none; stroke-dasharray: 12.8,3.2,2,3.2; stroke-dashoffset: 0; stroke: #000000; stroke-width: 2"/>
    </g>
    <g id="text_21">
     <!-- Salaire net -->
     <g transform="translate(103.80125 53.554687) scale(0.1 -0.1)">
      <use xlink:href="#DejaVuSans-53"/>
      <use xlink:href="#DejaVuSans-61" transform="translate(63.476562 0)"/>
      <use xlink:href="#DejaVuSans-6c" transform="translate(124.755859 0)"/>
      <use xlink:href="#DejaVuSans-61" transform="translate(152.539062 0)"/>
      <use xlink:href="#DejaVuSans-69" transform="translate(213.818359 0)"/>
      <use xlink:href="#DejaVuSans-72" transform="translate(241.601562 0)"/>
      <use xlink:href="#DejaVuSans-65" transform="translate(280.464844 0)"/>
      <use xlink:href="#DejaVuSans-20" transform="translate(341.988281 0)"/>
      <use xlink:href="#DejaVuSans-6e" transform="translate(373.775391 0)"/>
      <use xlink:href="#DejaVuSans-65" transform="translate(437.154297 0)"/>
      <use xlink:href="#DejaVuSans-74" transform="translate(498.677734 0)"/>
     </g>
    </g>
   </g>
  </g>
 </g>
 <defs>
  <clipPath id="p94a9464de8">
   <rect x="66.80125" y="7.2" width="769.12" height="448.36"/>
  </clipPath>
 </defs>
</svg>
