<?xml version="1.0" encoding="utf-8" standalone="no"?>
<!DOCTYPE svg PUBLIC "-//W3C//DTD SVG 1.1//EN"
  "http://www.w3.org/Graphics/SVG/1.1/DTD/svg11.dtd">
<svg xmlns:xlink="http://www.w3.org/1999/xlink" width="864.420432pt" height="843.458363pt" viewBox="0 0 864.420432 843.458363" xmlns="http://www.w3.org/2000/svg" version="1.1">
 <metadata>
  <rdf:RDF xmlns:dc="http://purl.org/dc/elements/1.1/" xmlns:cc="http://creativecommons.org/ns#" xmlns:rdf="http://www.w3.org/1999/02/22-rdf-syntax-ns#">
   <cc:Work>
    <dc:type rdf:resource="http://purl.org/dc/dcmitype/StillImage"/>
    <dc:date>2026-04-18T10:28:20.550077</dc:date>
    <dc:format>image/svg+xml</dc:format>
    <dc:creator>
     <cc:Agent>
      <dc:title>Matplotlib v3.10.8, https://matplotlib.org/</dc:title>
     </cc:Agent>
    </dc:creator>
   </cc:Work>
  </rdf:RDF>
 </metadata>
 <defs>
  <style type="text/css">*{stroke-linejoin: round; stroke-linecap: butt}</style>
 </defs>
 <g id="figure_1">
  <g id="patch_1">
   <path d="M 0 843.458363 
L 864.420432 843.458363 
L 864.420432 0 
L 0 0 
z
" style="fill: #ffffff"/>
  </g>
  <g id="axes_1">
   <g id="patch_2">
    <path d="M 106.385707 781.4196 
L 672.305707 781.4196 
L 672.305707 7.2 
L 106.385707 7.2 
z
" style="fill: #ffffff"/>
   </g>
   <g id="matplotlib.axis_1">
    <g id="xtick_1">
     <g id="line2d_1">
      <path d="M 106.385707 781.4196 
L 106.385707 7.2 
" clip-path="url(#p6586921e63)" style="fill: none; stroke: #808080; stroke-opacity: 0.4; stroke-width: 0.5; stroke-linecap: square"/>
     </g>
     <g id="line2d_2">
      <defs>
       <path id="me4777d2f9e" d="M 0 0 
L 0 3.5 
" style="stroke: #000000; stroke-width: 0.8"/>
      </defs>
      <g>
       <use xlink:href="#me4777d2f9e" x="106.385707" y="781.4196" style="stroke: #000000; stroke-width: 0.8"/>
      </g>
     </g>
     <g id="text_1">
      <!-- $\mathdefault{1950}$ -->
      <g transform="translate(85.824992 803.986225) scale(0.225 -0.225)">
       <defs>
        <path id="CMR17-31" d="M 1702 4058 
C 1702 4192 1696 4192 1606 4192 
C 1357 3916 979 3827 621 3827 
C 602 3827 570 3827 563 3808 
C 557 3795 557 3782 557 3648 
C 755 3648 1088 3686 1344 3839 
L 1344 461 
C 1344 236 1331 160 781 160 
L 589 160 
L 589 0 
C 896 0 1216 0 1523 0 
C 1830 0 2150 0 2458 0 
L 2458 160 
L 2266 160 
C 1715 160 1702 230 1702 458 
L 1702 4058 
z
" transform="scale(0.015625)"/>
        <path id="CMR17-39" d="M 2253 1864 
C 2253 464 1670 31 1190 31 
C 1043 31 685 31 538 294 
C 704 268 826 357 826 518 
C 826 692 685 749 595 749 
C 538 749 365 723 365 506 
C 365 71 742 -128 1203 -128 
C 1939 -128 2688 674 2688 2073 
C 2688 3817 1971 4179 1485 4179 
C 851 4179 243 3628 243 2778 
C 243 1991 762 1408 1414 1408 
C 1952 1408 2189 1903 2253 2112 
L 2253 1864 
z
M 1427 1510 
C 1254 1510 1011 1542 813 1922 
C 678 2169 678 2461 678 2771 
C 678 3146 678 3405 858 3684 
C 947 3817 1114 4032 1485 4032 
C 2240 4032 2240 2885 2240 2632 
C 2240 2182 2035 1510 1427 1510 
z
" transform="scale(0.015625)"/>
        <path id="CMR17-35" d="M 730 3692 
C 794 3666 1056 3584 1325 3584 
C 1920 3584 2246 3911 2432 4100 
C 2432 4157 2432 4192 2394 4192 
C 2387 4192 2374 4192 2323 4163 
C 2099 4058 1837 3973 1517 3973 
C 1325 3973 1037 3999 723 4139 
C 653 4171 640 4171 634 4171 
C 602 4171 595 4164 595 4037 
L 595 2203 
C 595 2089 595 2057 659 2057 
C 691 2057 704 2070 736 2114 
C 941 2401 1222 2522 1542 2522 
C 1766 2522 2246 2382 2246 1289 
C 2246 1085 2246 715 2054 421 
C 1894 159 1645 25 1370 25 
C 947 25 518 320 403 814 
C 429 807 480 795 506 795 
C 589 795 749 840 749 1038 
C 749 1210 627 1280 506 1280 
C 358 1280 262 1190 262 1011 
C 262 454 704 -128 1382 -128 
C 2042 -128 2669 440 2669 1264 
C 2669 2030 2170 2624 1549 2624 
C 1222 2624 947 2503 730 2274 
L 730 3692 
z
" transform="scale(0.015625)"/>
        <path id="CMR17-30" d="M 2688 2025 
C 2688 2416 2682 3080 2413 3591 
C 2176 4039 1798 4198 1466 4198 
C 1158 4198 768 4058 525 3597 
C 269 3118 243 2524 243 2025 
C 243 1661 250 1106 448 619 
C 723 -39 1216 -128 1466 -128 
C 1760 -128 2208 -7 2470 600 
C 2662 1042 2688 1559 2688 2025 
z
M 1466 -26 
C 1056 -26 813 325 723 812 
C 653 1188 653 1738 653 2096 
C 653 2588 653 2997 736 3387 
C 858 3929 1216 4096 1466 4096 
C 1728 4096 2067 3923 2189 3400 
C 2272 3036 2278 2607 2278 2096 
C 2278 1680 2278 1169 2202 792 
C 2067 95 1690 -26 1466 -26 
z
" transform="scale(0.015625)"/>
       </defs>
       <use xlink:href="#CMR17-31" transform="scale(0.996264)"/>
       <use xlink:href="#CMR17-39" transform="translate(45.690477 0) scale(0.996264)"/>
       <use xlink:href="#CMR17-35" transform="translate(91.380954 0) scale(0.996264)"/>
       <use xlink:href="#CMR17-30" transform="translate(137.071431 0) scale(0.996264)"/>
      </g>
     </g>
    </g>
    <g id="xtick_2">
     <g id="line2d_3">
      <path d="M 187.231421 781.4196 
L 187.231421 7.2 
" clip-path="url(#p6586921e63)" style="fill: none; stroke: #808080; stroke-opacity: 0.4; stroke-width: 0.5; stroke-linecap: square"/>
     </g>
     <g id="line2d_4">
      <g>
       <use xlink:href="#me4777d2f9e" x="187.231421" y="781.4196" style="stroke: #000000; stroke-width: 0.8"/>
      </g>
     </g>
     <g id="text_2">
      <!-- $\mathdefault{1960}$ -->
      <g transform="translate(166.670706 803.986225) scale(0.225 -0.225)">
       <defs>
        <path id="CMR17-36" d="M 678 2176 
C 678 3690 1395 4032 1811 4032 
C 1946 4032 2272 4009 2400 3776 
C 2298 3776 2106 3776 2106 3553 
C 2106 3381 2246 3323 2336 3323 
C 2394 3323 2566 3348 2566 3560 
C 2566 3954 2246 4179 1805 4179 
C 1043 4179 243 3390 243 1984 
C 243 253 966 -128 1478 -128 
C 2099 -128 2688 427 2688 1283 
C 2688 2081 2170 2662 1517 2662 
C 1126 2662 838 2407 678 1960 
L 678 2176 
z
M 1478 25 
C 691 25 691 1200 691 1436 
C 691 1896 909 2560 1504 2560 
C 1613 2560 1926 2560 2138 2120 
C 2253 1870 2253 1609 2253 1289 
C 2253 944 2253 690 2118 434 
C 1978 171 1773 25 1478 25 
z
" transform="scale(0.015625)"/>
       </defs>
       <use xlink:href="#CMR17-31" transform="scale(0.996264)"/>
       <use xlink:href="#CMR17-39" transform="translate(45.690477 0) scale(0.996264)"/>
       <use xlink:href="#CMR17-36" transform="translate(91.380954 0) scale(0.996264)"/>
       <use xlink:href="#CMR17-30" transform="translate(137.071431 0) scale(0.996264)"/>
      </g>
     </g>
    </g>
    <g id="xtick_3">
     <g id="line2d_5">
      <path d="M 268.077135 781.4196 
L 268.077135 7.2 
" clip-path="url(#p6586921e63)" style="fill: none; stroke: #808080; stroke-opacity: 0.4; stroke-width: 0.5; stroke-linecap: square"/>
     </g>
     <g id="line2d_6">
      <g>
       <use xlink:href="#me4777d2f9e" x="268.077135" y="781.4196" style="stroke: #000000; stroke-width: 0.8"/>
      </g>
     </g>
     <g id="text_3">
      <!-- $\mathdefault{1970}$ -->
      <g transform="translate(247.516421 803.986225) scale(0.225 -0.225)">
       <defs>
        <path id="CMR17-37" d="M 2886 3941 
L 2886 4081 
L 1382 4081 
C 634 4081 621 4165 595 4288 
L 480 4288 
L 294 3094 
L 410 3094 
C 429 3215 474 3540 550 3661 
C 589 3712 1062 3712 1171 3712 
L 2579 3712 
L 1869 2661 
C 1395 1954 1069 999 1069 165 
C 1069 89 1069 -128 1299 -128 
C 1530 -128 1530 89 1530 171 
L 1530 465 
C 1530 1508 1709 2196 2003 2636 
L 2886 3941 
z
" transform="scale(0.015625)"/>
       </defs>
       <use xlink:href="#CMR17-31" transform="scale(0.996264)"/>
       <use xlink:href="#CMR17-39" transform="translate(45.690477 0) scale(0.996264)"/>
       <use xlink:href="#CMR17-37" transform="translate(91.380954 0) scale(0.996264)"/>
       <use xlink:href="#CMR17-30" transform="translate(137.071431 0) scale(0.996264)"/>
      </g>
     </g>
    </g>
    <g id="xtick_4">
     <g id="line2d_7">
      <path d="M 348.92285 781.4196 
L 348.92285 7.2 
" clip-path="url(#p6586921e63)" style="fill: none; stroke: #808080; stroke-opacity: 0.4; stroke-width: 0.5; stroke-linecap: square"/>
     </g>
     <g id="line2d_8">
      <g>
       <use xlink:href="#me4777d2f9e" x="348.92285" y="781.4196" style="stroke: #000000; stroke-width: 0.8"/>
      </g>
     </g>
     <g id="text_4">
      <!-- $\mathdefault{1980}$ -->
      <g transform="translate(328.362135 803.986225) scale(0.225 -0.225)">
       <defs>
        <path id="CMR17-38" d="M 1741 2264 
C 2144 2467 2554 2773 2554 3263 
C 2554 3841 1990 4179 1472 4179 
C 890 4179 378 3759 378 3180 
C 378 3021 416 2747 666 2505 
C 730 2442 998 2251 1171 2130 
C 883 1983 211 1634 211 934 
C 211 279 838 -128 1459 -128 
C 2144 -128 2720 362 2720 1010 
C 2720 1590 2330 1857 2074 2029 
L 1741 2264 
z
M 902 2822 
C 851 2854 595 3051 595 3351 
C 595 3739 998 4032 1459 4032 
C 1965 4032 2336 3676 2336 3262 
C 2336 2669 1670 2331 1638 2331 
C 1632 2331 1626 2331 1574 2370 
L 902 2822 
z
M 2080 1519 
C 2176 1449 2483 1240 2483 851 
C 2483 381 2010 25 1472 25 
C 890 25 448 438 448 940 
C 448 1443 838 1862 1280 2060 
L 2080 1519 
z
" transform="scale(0.015625)"/>
       </defs>
       <use xlink:href="#CMR17-31" transform="scale(0.996264)"/>
       <use xlink:href="#CMR17-39" transform="translate(45.690477 0) scale(0.996264)"/>
       <use xlink:href="#CMR17-38" transform="translate(91.380954 0) scale(0.996264)"/>
       <use xlink:href="#CMR17-30" transform="translate(137.071431 0) scale(0.996264)"/>
      </g>
     </g>
    </g>
    <g id="xtick_5">
     <g id="line2d_9">
      <path d="M 429.768564 781.4196 
L 429.768564 7.2 
" clip-path="url(#p6586921e63)" style="fill: none; stroke: #808080; stroke-opacity: 0.4; stroke-width: 0.5; stroke-linecap: square"/>
     </g>
     <g id="line2d_10">
      <g>
       <use xlink:href="#me4777d2f9e" x="429.768564" y="781.4196" style="stroke: #000000; stroke-width: 0.8"/>
      </g>
     </g>
     <g id="text_5">
      <!-- $\mathdefault{1990}$ -->
      <g transform="translate(409.207849 803.986225) scale(0.225 -0.225)">
       <use xlink:href="#CMR17-31" transform="scale(0.996264)"/>
       <use xlink:href="#CMR17-39" transform="translate(45.690477 0) scale(0.996264)"/>
       <use xlink:href="#CMR17-39" transform="translate(91.380954 0) scale(0.996264)"/>
       <use xlink:href="#CMR17-30" transform="translate(137.071431 0) scale(0.996264)"/>
      </g>
     </g>
    </g>
    <g id="xtick_6">
     <g id="line2d_11">
      <path d="M 510.614278 781.4196 
L 510.614278 7.2 
" clip-path="url(#p6586921e63)" style="fill: none; stroke: #808080; stroke-opacity: 0.4; stroke-width: 0.5; stroke-linecap: square"/>
     </g>
     <g id="line2d_12">
      <g>
       <use xlink:href="#me4777d2f9e" x="510.614278" y="781.4196" style="stroke: #000000; stroke-width: 0.8"/>
      </g>
     </g>
     <g id="text_6">
      <!-- $\mathdefault{2000}$ -->
      <g transform="translate(490.053564 803.986225) scale(0.225 -0.225)">
       <defs>
        <path id="CMR17-32" d="M 2669 989 
L 2554 989 
C 2490 536 2438 459 2413 420 
C 2381 369 1920 369 1830 369 
L 602 369 
C 832 619 1280 1072 1824 1597 
C 2214 1967 2669 2402 2669 3035 
C 2669 3790 2067 4224 1395 4224 
C 691 4224 262 3604 262 3030 
C 262 2780 448 2748 525 2748 
C 589 2748 781 2787 781 3010 
C 781 3207 614 3264 525 3264 
C 486 3264 448 3258 422 3245 
C 544 3790 915 4058 1306 4058 
C 1862 4058 2227 3617 2227 3035 
C 2227 2479 1901 2000 1536 1584 
L 262 146 
L 262 0 
L 2515 0 
L 2669 989 
z
" transform="scale(0.015625)"/>
       </defs>
       <use xlink:href="#CMR17-32" transform="scale(0.996264)"/>
       <use xlink:href="#CMR17-30" transform="translate(45.690477 0) scale(0.996264)"/>
       <use xlink:href="#CMR17-30" transform="translate(91.380954 0) scale(0.996264)"/>
       <use xlink:href="#CMR17-30" transform="translate(137.071431 0) scale(0.996264)"/>
      </g>
     </g>
    </g>
    <g id="xtick_7">
     <g id="line2d_13">
      <path d="M 591.459993 781.4196 
L 591.459993 7.2 
" clip-path="url(#p6586921e63)" style="fill: none; stroke: #808080; stroke-opacity: 0.4; stroke-width: 0.5; stroke-linecap: square"/>
     </g>
     <g id="line2d_14">
      <g>
       <use xlink:href="#me4777d2f9e" x="591.459993" y="781.4196" style="stroke: #000000; stroke-width: 0.8"/>
      </g>
     </g>
     <g id="text_7">
      <!-- $\mathdefault{2010}$ -->
      <g transform="translate(570.899278 803.986225) scale(0.225 -0.225)">
       <use xlink:href="#CMR17-32" transform="scale(0.996264)"/>
       <use xlink:href="#CMR17-30" transform="translate(45.690477 0) scale(0.996264)"/>
       <use xlink:href="#CMR17-31" transform="translate(91.380954 0) scale(0.996264)"/>
       <use xlink:href="#CMR17-30" transform="translate(137.071431 0) scale(0.996264)"/>
      </g>
     </g>
    </g>
    <g id="xtick_8">
     <g id="line2d_15">
      <path d="M 672.305707 781.4196 
L 672.305707 7.2 
" clip-path="url(#p6586921e63)" style="fill: none; stroke: #808080; stroke-opacity: 0.4; stroke-width: 0.5; stroke-linecap: square"/>
     </g>
     <g id="line2d_16">
      <g>
       <use xlink:href="#me4777d2f9e" x="672.305707" y="781.4196" style="stroke: #000000; stroke-width: 0.8"/>
      </g>
     </g>
     <g id="text_8">
      <!-- $\mathdefault{2020}$ -->
      <g transform="translate(651.744992 803.986225) scale(0.225 -0.225)">
       <use xlink:href="#CMR17-32" transform="scale(0.996264)"/>
       <use xlink:href="#CMR17-30" transform="translate(45.690477 0) scale(0.996264)"/>
       <use xlink:href="#CMR17-32" transform="translate(91.380954 0) scale(0.996264)"/>
       <use xlink:href="#CMR17-30" transform="translate(137.071431 0) scale(0.996264)"/>
      </g>
     </g>
    </g>
    <g id="text_9">
     <!-- Ann\'{e}e -->
     <g transform="translate(355.348061 831.026259) scale(0.27 -0.27)">
      <defs>
       <path id="CMR17-41" d="M 2323 4378 
C 2291 4461 2278 4480 2214 4480 
C 2150 4480 2138 4461 2106 4378 
L 749 566 
C 627 223 371 153 147 153 
L 147 -13 
C 262 0 518 0 640 0 
C 800 0 1056 0 1210 -13 
L 1210 153 
C 909 153 864 361 864 439 
C 864 497 877 530 890 569 
L 1229 1536 
L 2906 1536 
L 3290 442 
C 3322 365 3322 352 3322 327 
C 3322 153 3046 153 2925 153 
L 2925 0 
C 3110 0 3443 0 3642 0 
C 3808 0 4128 0 4282 -13 
L 4282 153 
C 3942 153 3827 153 3744 387 
L 2323 4378 
z
M 2067 3893 
L 2848 1702 
L 1286 1702 
L 2067 3893 
z
" transform="scale(0.015625)"/>
       <path id="CMR17-6e" d="M 2656 1933 
C 2656 2259 2592 2790 1837 2790 
C 1331 2790 1069 2400 973 2144 
L 966 2144 
L 966 2790 
L 211 2720 
L 211 2554 
C 589 2554 646 2515 646 2208 
L 646 428 
C 646 184 621 153 211 153 
L 211 -13 
C 365 0 646 0 813 0 
C 979 0 1267 0 1421 -13 
L 1421 153 
C 1011 153 986 178 986 428 
L 986 1658 
C 986 2247 1344 2688 1792 2688 
C 2266 2688 2317 2266 2317 1958 
L 2317 428 
C 2317 184 2291 153 1882 153 
L 1882 -13 
C 2035 0 2317 0 2483 0 
C 2650 0 2938 0 3091 -13 
L 3091 153 
C 2682 153 2656 178 2656 428 
L 2656 1933 
z
" transform="scale(0.015625)"/>
       <path id="CMR17-13" d="M 2221 4091 
C 2298 4161 2317 4174 2317 4244 
C 2317 4339 2234 4416 2144 4416 
C 2067 4416 2042 4384 1978 4308 
L 1254 3390 
C 1210 3333 1210 3327 1210 3320 
C 1210 3314 1267 3256 1280 3244 
L 2221 4091 
z
" transform="scale(0.015625)"/>
       <path id="CMR17-65" d="M 2438 1472 
C 2464 1498 2464 1511 2464 1576 
C 2464 2238 2118 2816 1389 2816 
C 710 2816 173 2169 173 1383 
C 173 551 781 -64 1459 -64 
C 2176 -64 2458 607 2458 740 
C 2458 784 2419 784 2406 784 
C 2362 784 2355 771 2330 696 
C 2189 265 1837 51 1504 51 
C 1229 51 954 203 781 480 
C 582 803 582 1176 582 1472 
L 2438 1472 
z
M 589 1568 
C 634 2505 1126 2714 1382 2714 
C 1818 2714 2112 2297 2118 1568 
L 589 1568 
z
" transform="scale(0.015625)"/>
      </defs>
      <use xlink:href="#CMR17-41" transform="scale(0.996264)"/>
      <use xlink:href="#CMR17-6e" transform="translate(69.07243 0) scale(0.996264)"/>
      <use xlink:href="#CMR17-6e" transform="translate(119.9678 0) scale(0.996264)"/>
      <use xlink:href="#CMR17-13" transform="translate(168.260761 0) scale(0.996264)"/>
      <use xlink:href="#CMR17-65" transform="translate(170.863169 0) scale(0.996264)"/>
      <use xlink:href="#CMR17-65" transform="translate(211.34883 0) scale(0.996264)"/>
     </g>
    </g>
   </g>
   <g id="matplotlib.axis_2">
    <g id="ytick_1">
     <g id="line2d_17">
      <path d="M 106.385707 781.4196 
L 672.305707 781.4196 
" clip-path="url(#p6586921e63)" style="fill: none; stroke: #808080; stroke-opacity: 0.4; stroke-width: 0.5; stroke-linecap: square"/>
     </g>
     <g id="line2d_18">
      <defs>
       <path id="m0a8819337d" d="M 0 0 
L -3.5 0 
" style="stroke: #000000; stroke-width: 0.8"/>
      </defs>
      <g>
       <use xlink:href="#m0a8819337d" x="106.385707" y="781.4196" style="stroke: #000000; stroke-width: 0.8"/>
      </g>
     </g>
    </g>
    <g id="ytick_2">
     <g id="line2d_19">
      <path d="M 106.385707 632.410167 
L 672.305707 632.410167 
" clip-path="url(#p6586921e63)" style="fill: none; stroke: #808080; stroke-opacity: 0.4; stroke-width: 0.5; stroke-linecap: square"/>
     </g>
     <g id="line2d_20">
      <g>
       <use xlink:href="#m0a8819337d" x="106.385707" y="632.410167" style="stroke: #000000; stroke-width: 0.8"/>
      </g>
     </g>
     <g id="text_10">
      <!-- 1\,000\,\euro{} -->
      <g transform="translate(35.112054 640.19348) scale(0.225 -0.225)">
       <defs>
        <path id="TeX-feymr10-65" d="M 0 2371 
L 608 2371 
L 608 1981 
L 294 1981 
L 166 1968 
L 109 1865 
L 0 1600 
L 499 1600 
L 614 1600 
C 634 1600 653 1600 672 1581 
C 698 1549 704 1484 717 1439 
C 749 1342 787 1252 832 1162 
C 973 865 1178 606 1427 394 
C 2061 -129 2938 -265 3699 19 
C 3866 84 4026 168 4173 271 
C 4211 297 4243 323 4282 348 
C 4301 361 4326 381 4333 400 
C 4358 445 4346 516 4346 561 
L 4346 936 
C 4256 865 4186 774 4102 703 
C 3904 535 3680 413 3437 335 
C 2758 122 1997 329 1504 852 
C 1306 1065 1158 1323 1069 1600 
L 2880 1600 
L 3379 1600 
L 3520 1600 
L 3590 1607 
L 3642 1710 
L 3757 1981 
L 992 1981 
L 986 2371 
L 3098 2371 
L 3674 2371 
L 3834 2371 
L 3904 2378 
L 3962 2481 
L 4070 2752 
L 1069 2752 
C 1158 3025 1306 3279 1504 3488 
C 1875 3875 2419 4096 2957 4096 
C 3283 4096 3610 3991 3885 3815 
C 4051 3709 4218 3572 4339 3408 
C 4390 3491 4422 3601 4461 3691 
C 4474 3724 4499 3769 4493 3801 
C 4480 3840 4429 3879 4397 3904 
C 4307 3982 4211 4059 4109 4124 
C 3680 4389 3181 4518 2682 4472 
C 2003 4408 1363 4040 986 3459 
C 890 3317 813 3170 755 3009 
C 730 2958 717 2900 698 2849 
C 691 2823 685 2791 672 2772 
C 640 2739 576 2752 538 2752 
L 294 2752 
C 256 2752 211 2759 173 2746 
C 141 2733 128 2681 115 2649 
C 77 2559 32 2468 0 2371 
z
" transform="scale(0.015625)"/>
       </defs>
       <use xlink:href="#CMR17-31" transform="scale(0.996264)"/>
       <use xlink:href="#CMR17-30" transform="translate(60.921112 0) scale(0.996264)"/>
       <use xlink:href="#CMR17-30" transform="translate(106.61159 0) scale(0.996264)"/>
       <use xlink:href="#CMR17-30" transform="translate(152.302067 0) scale(0.996264)"/>
       <use xlink:href="#TeX-feymr10-65" transform="translate(213.223179 0) scale(0.996264)"/>
      </g>
     </g>
    </g>
    <g id="ytick_3">
     <g id="line2d_21">
      <path d="M 106.385707 483.400734 
L 672.305707 483.400734 
" clip-path="url(#p6586921e63)" style="fill: none; stroke: #808080; stroke-opacity: 0.4; stroke-width: 0.5; stroke-linecap: square"/>
     </g>
     <g id="line2d_22">
      <g>
       <use xlink:href="#m0a8819337d" x="106.385707" y="483.400734" style="stroke: #000000; stroke-width: 0.8"/>
      </g>
     </g>
     <g id="text_11">
      <!-- 2\,000\,\euro{} -->
      <g transform="translate(35.112054 491.184047) scale(0.225 -0.225)">
       <use xlink:href="#CMR17-32" transform="scale(0.996264)"/>
       <use xlink:href="#CMR17-30" transform="translate(60.921112 0) scale(0.996264)"/>
       <use xlink:href="#CMR17-30" transform="translate(106.61159 0) scale(0.996264)"/>
       <use xlink:href="#CMR17-30" transform="translate(152.302067 0) scale(0.996264)"/>
       <use xlink:href="#TeX-feymr10-65" transform="translate(213.223179 0) scale(0.996264)"/>
      </g>
     </g>
    </g>
    <g id="ytick_4">
     <g id="line2d_23">
      <path d="M 106.385707 334.391301 
L 672.305707 334.391301 
" clip-path="url(#p6586921e63)" style="fill: none; stroke: #808080; stroke-opacity: 0.4; stroke-width: 0.5; stroke-linecap: square"/>
     </g>
     <g id="line2d_24">
      <g>
       <use xlink:href="#m0a8819337d" x="106.385707" y="334.391301" style="stroke: #000000; stroke-width: 0.8"/>
      </g>
     </g>
     <g id="text_12">
      <!-- 3\,000\,\euro{} -->
      <g transform="translate(35.112054 342.174614) scale(0.225 -0.225)">
       <defs>
        <path id="CMR17-33" d="M 1414 2157 
C 1984 2157 2234 1662 2234 1090 
C 2234 320 1824 25 1453 25 
C 1114 25 563 194 390 693 
C 422 680 454 680 486 680 
C 640 680 755 782 755 948 
C 755 1133 614 1216 486 1216 
C 378 1216 211 1165 211 926 
C 211 335 787 -128 1466 -128 
C 2176 -128 2720 430 2720 1085 
C 2720 1707 2208 2157 1600 2227 
C 2086 2328 2554 2756 2554 3329 
C 2554 3820 2048 4179 1472 4179 
C 890 4179 378 3829 378 3329 
C 378 3110 544 3072 627 3072 
C 762 3072 877 3155 877 3321 
C 877 3486 762 3569 627 3569 
C 602 3569 570 3569 544 3557 
C 730 3959 1235 4032 1459 4032 
C 1683 4032 2106 3925 2106 3320 
C 2106 3143 2080 2828 1862 2550 
C 1670 2304 1453 2304 1242 2284 
C 1210 2284 1062 2269 1037 2269 
C 992 2263 966 2257 966 2208 
C 966 2163 973 2157 1101 2157 
L 1414 2157 
z
" transform="scale(0.015625)"/>
       </defs>
       <use xlink:href="#CMR17-33" transform="scale(0.996264)"/>
       <use xlink:href="#CMR17-30" transform="translate(60.921112 0) scale(0.996264)"/>
       <use xlink:href="#CMR17-30" transform="translate(106.61159 0) scale(0.996264)"/>
       <use xlink:href="#CMR17-30" transform="translate(152.302067 0) scale(0.996264)"/>
       <use xlink:href="#TeX-feymr10-65" transform="translate(213.223179 0) scale(0.996264)"/>
      </g>
     </g>
    </g>
    <g id="ytick_5">
     <g id="line2d_25">
      <path d="M 106.385707 185.381868 
L 672.305707 185.381868 
" clip-path="url(#p6586921e63)" style="fill: none; stroke: #808080; stroke-opacity: 0.4; stroke-width: 0.5; stroke-linecap: square"/>
     </g>
     <g id="line2d_26">
      <g>
       <use xlink:href="#m0a8819337d" x="106.385707" y="185.381868" style="stroke: #000000; stroke-width: 0.8"/>
      </g>
     </g>
     <g id="text_13">
      <!-- 4\,000\,\euro{} -->
      <g transform="translate(35.112054 193.165181) scale(0.225 -0.225)">
       <defs>
        <path id="CMR17-34" d="M 2150 4122 
C 2150 4256 2144 4256 2029 4256 
L 128 1254 
L 128 1088 
L 1779 1088 
L 1779 457 
C 1779 224 1766 160 1318 160 
L 1197 160 
L 1197 0 
C 1402 0 1747 0 1965 0 
C 2182 0 2528 0 2733 0 
L 2733 160 
L 2611 160 
C 2163 160 2150 224 2150 457 
L 2150 1088 
L 2803 1088 
L 2803 1254 
L 2150 1254 
L 2150 4122 
z
M 1798 3703 
L 1798 1254 
L 256 1254 
L 1798 3703 
z
" transform="scale(0.015625)"/>
       </defs>
       <use xlink:href="#CMR17-34" transform="scale(0.996264)"/>
       <use xlink:href="#CMR17-30" transform="translate(60.921112 0) scale(0.996264)"/>
       <use xlink:href="#CMR17-30" transform="translate(106.61159 0) scale(0.996264)"/>
       <use xlink:href="#CMR17-30" transform="translate(152.302067 0) scale(0.996264)"/>
       <use xlink:href="#TeX-feymr10-65" transform="translate(213.223179 0) scale(0.996264)"/>
      </g>
     </g>
    </g>
    <g id="ytick_6">
     <g id="line2d_27">
      <path d="M 106.385707 36.372436 
L 672.305707 36.372436 
" clip-path="url(#p6586921e63)" style="fill: none; stroke: #808080; stroke-opacity: 0.4; stroke-width: 0.5; stroke-linecap: square"/>
     </g>
     <g id="line2d_28">
      <g>
       <use xlink:href="#m0a8819337d" x="106.385707" y="36.372436" style="stroke: #000000; stroke-width: 0.8"/>
      </g>
     </g>
     <g id="text_14">
      <!-- 5\,000\,\euro{} -->
      <g transform="translate(35.112054 44.155748) scale(0.225 -0.225)">
       <use xlink:href="#CMR17-35" transform="scale(0.996264)"/>
       <use xlink:href="#CMR17-30" transform="translate(60.921112 0) scale(0.996264)"/>
       <use xlink:href="#CMR17-30" transform="translate(106.61159 0) scale(0.996264)"/>
       <use xlink:href="#CMR17-30" transform="translate(152.302067 0) scale(0.996264)"/>
       <use xlink:href="#TeX-feymr10-65" transform="translate(213.223179 0) scale(0.996264)"/>
      </g>
     </g>
    </g>
    <g id="text_15">
     <!-- Euros de 2026 -->
     <g transform="translate(25.87995 470.523913) rotate(-90) scale(0.27 -0.27)">
      <defs>
       <path id="CMR17-45" d="M 3885 1615 
L 3770 1615 
C 3629 676 3546 166 2419 166 
L 1530 166 
C 1274 166 1261 197 1261 414 
L 1261 2176 
L 1862 2176 
C 2464 2176 2522 1960 2522 1430 
L 2637 1430 
L 2637 3081 
L 2522 3081 
C 2522 2557 2464 2342 1862 2342 
L 1261 2342 
L 1261 3913 
C 1261 4128 1274 4160 1530 4160 
L 2406 4160 
C 3398 4160 3514 3769 3603 2929 
L 3718 2929 
L 3565 4325 
L 326 4325 
L 326 4160 
C 768 4160 838 4160 838 3874 
L 838 451 
C 838 166 768 166 326 166 
L 326 0 
L 3654 0 
L 3885 1615 
z
" transform="scale(0.015625)"/>
       <path id="CMR17-75" d="M 1882 2693 
L 1882 2528 
C 2259 2528 2317 2489 2317 2186 
L 2317 1032 
C 2317 500 2029 38 1555 38 
C 1030 38 986 348 986 678 
L 986 2763 
L 211 2693 
L 211 2528 
C 467 2528 640 2528 646 2274 
L 646 1058 
C 646 633 646 361 813 183 
C 896 101 1056 -64 1517 -64 
C 2061 -64 2272 377 2323 506 
L 2330 506 
L 2330 -63 
L 3091 -63 
L 3091 128 
C 2714 128 2656 166 2656 473 
L 2656 2763 
L 1882 2693 
z
" transform="scale(0.015625)"/>
       <path id="CMR17-72" d="M 960 1497 
C 960 2112 1222 2688 1702 2688 
C 1747 2688 1792 2682 1837 2662 
C 1837 2662 1696 2617 1696 2452 
C 1696 2298 1818 2234 1914 2234 
C 1990 2234 2131 2279 2131 2458 
C 2131 2663 1926 2790 1709 2790 
C 1222 2790 1011 2317 947 2093 
L 941 2093 
L 941 2790 
L 198 2720 
L 198 2554 
C 576 2554 634 2515 634 2208 
L 634 428 
C 634 184 608 153 198 153 
L 198 -13 
C 352 0 646 0 813 0 
C 998 0 1325 0 1498 -13 
L 1498 153 
C 1037 153 960 153 960 440 
L 960 1497 
z
" transform="scale(0.015625)"/>
       <path id="CMR17-6f" d="M 2758 1356 
C 2758 2176 2163 2816 1466 2816 
C 768 2816 173 2176 173 1356 
C 173 551 768 -64 1466 -64 
C 2163 -64 2758 551 2758 1356 
z
M 1466 51 
C 1165 51 909 230 762 480 
C 602 767 582 1126 582 1408 
C 582 1677 595 2010 762 2298 
C 890 2509 1139 2714 1466 2714 
C 1754 2714 1997 2554 2150 2330 
C 2349 2029 2349 1607 2349 1408 
C 2349 1158 2336 775 2163 467 
C 1984 173 1709 51 1466 51 
z
" transform="scale(0.015625)"/>
       <path id="CMR17-73" d="M 1978 2697 
C 1978 2813 1971 2819 1933 2819 
C 1907 2819 1901 2813 1824 2717 
C 1805 2691 1747 2626 1728 2601 
C 1523 2819 1235 2819 1126 2819 
C 416 2819 160 2447 160 2076 
C 160 1498 813 1365 998 1325 
C 1402 1243 1542 1217 1677 1101 
C 1760 1025 1901 884 1901 654 
C 1901 384 1747 38 1158 38 
C 602 38 403 460 288 1021 
C 269 1110 269 1117 218 1117 
C 166 1117 160 1110 160 983 
L 160 63 
C 160 -51 166 -58 205 -58 
C 237 -58 243 -51 275 0 
C 314 57 410 211 448 276 
C 576 103 800 -64 1158 -64 
C 1792 -64 2131 283 2131 784 
C 2131 1112 1958 1285 1875 1362 
C 1683 1561 1459 1606 1190 1657 
C 838 1735 390 1825 390 2217 
C 390 2383 480 2737 1126 2737 
C 1811 2737 1850 2094 1862 1888 
C 1869 1856 1901 1849 1920 1849 
C 1978 1849 1978 1869 1978 1978 
L 1978 2697 
z
" transform="scale(0.015625)"/>
       <path id="CMR17-64" d="M 1869 4326 
L 1869 4160 
C 2246 4160 2304 4122 2304 3820 
L 2304 2345 
C 2278 2377 2016 2790 1498 2790 
C 845 2790 211 2208 211 1364 
C 211 525 806 -64 1434 -64 
C 1978 -64 2259 337 2291 380 
L 2291 -63 
L 3066 -63 
L 3066 128 
C 2688 128 2630 166 2630 473 
L 2630 4396 
L 1869 4326 
z
M 2291 755 
C 2291 563 2176 390 2029 262 
C 1811 70 1594 38 1472 38 
C 1286 38 621 134 621 1356 
C 621 2612 1363 2688 1530 2688 
C 1824 2688 2061 2522 2208 2291 
C 2291 2157 2291 2138 2291 2023 
L 2291 755 
z
" transform="scale(0.015625)"/>
      </defs>
      <use xlink:href="#CMR17-45" transform="scale(0.996264)"/>
      <use xlink:href="#CMR17-75" transform="translate(62.586301 0) scale(0.996264)"/>
      <use xlink:href="#CMR17-72" transform="translate(113.48167 0) scale(0.996264)"/>
      <use xlink:href="#CMR17-6f" transform="translate(148.762438 0) scale(0.996264)"/>
      <use xlink:href="#CMR17-73" transform="translate(194.452915 0) scale(0.996264)"/>
      <use xlink:href="#CMR17-64" transform="translate(260.330219 0) scale(0.996264)"/>
      <use xlink:href="#CMR17-65" transform="translate(311.225589 0) scale(0.996264)"/>
      <use xlink:href="#CMR17-32" transform="translate(381.787216 0) scale(0.996264)"/>
      <use xlink:href="#CMR17-30" transform="translate(427.477693 0) scale(0.996264)"/>
      <use xlink:href="#CMR17-32" transform="translate(473.16817 0) scale(0.996264)"/>
      <use xlink:href="#CMR17-36" transform="translate(518.858647 0) scale(0.996264)"/>
     </g>
    </g>
   </g>
   <g id="line2d_29">
    <path d="M 106.385707 634.271982 
L 114.470278 632.717735 
L 122.55485 624.473217 
L 130.639421 618.841044 
L 138.723993 602.788767 
L 146.808564 587.368289 
L 154.893135 570.192416 
L 162.977707 559.619877 
L 171.062278 567.074664 
L 179.14685 566.385647 
L 187.231421 555.988487 
L 195.315993 534.89602 
L 203.400564 516.141352 
L 211.485135 501.938471 
L 219.569707 494.464677 
L 227.654278 484.075041 
L 235.73885 473.550433 
L 243.823421 465.476389 
L 251.907993 440.781214 
L 259.992564 425.899243 
L 268.077135 412.308667 
L 276.161707 392.959638 
L 284.246278 375.55848 
L 292.33085 356.321208 
L 300.415421 341.180457 
L 308.499993 324.806112 
L 316.584564 290.915516 
L 324.669135 281.083034 
L 332.753707 259.78176 
L 340.838278 256.039292 
L 348.92285 250.351052 
L 357.007421 250.309636 
L 365.091993 239.982304 
L 373.176564 226.814053 
L 381.261135 219.133114 
L 389.345707 209.919663 
L 397.430278 194.249011 
L 405.51485 190.844092 
L 413.599421 185.649254 
L 421.683993 178.290212 
L 429.768564 172.993473 
L 437.853135 169.364881 
L 445.937707 157.993935 
L 454.022278 145.473762 
L 462.10685 136.693149 
L 470.191421 131.570998 
L 478.275993 127.495861 
L 486.360564 125.053655 
L 494.445135 122.37065 
L 502.529707 108.363682 
L 510.614278 105.636914 
L 518.69885 103.451909 
L 526.783421 102.425338 
L 534.867993 96.731576 
L 542.952564 93.958329 
L 551.037135 85.140523 
L 559.121707 82.361726 
L 567.206278 71.591592 
L 575.29085 69.852205 
L 583.375421 60.407271 
L 591.459993 56.126831 
L 599.544564 53.890235 
L 607.629135 55.918339 
L 615.713707 56.456908 
L 623.798278 49.638975 
L 631.88285 38.989721 
L 639.967421 47.165543 
L 648.051993 39.835487 
L 656.136564 44.051081 
L 664.221135 72.827063 
L 672.305707 51.158257 
" clip-path="url(#p6586921e63)" style="fill: none; stroke: #000000; stroke-width: 2.5; stroke-linecap: square"/>
   </g>
   <g id="line2d_30">
    <path d="M 106.385707 661.041356 
L 114.470278 661.55058 
L 122.55485 655.460977 
L 130.639421 651.278063 
L 138.723993 639.174901 
L 146.808564 626.033957 
L 154.893135 612.586644 
L 162.977707 601.148119 
L 171.062278 607.744622 
L 179.14685 604.599819 
L 187.231421 594.785925 
L 195.315993 584.454403 
L 203.400564 570.766746 
L 211.485135 559.539387 
L 219.569707 553.759057 
L 227.654278 545.083122 
L 235.73885 536.19971 
L 243.823421 529.464412 
L 251.907993 513.767824 
L 259.992564 502.185421 
L 268.077135 491.211305 
L 276.161707 476.005069 
L 284.246278 464.07252 
L 292.33085 449.897322 
L 300.415421 434.644432 
L 308.499993 424.97517 
L 316.584564 403.464402 
L 324.669135 397.88888 
L 332.753707 383.405165 
L 340.838278 383.762948 
L 348.92285 382.045013 
L 357.007421 382.131894 
L 365.091993 375.030278 
L 373.176564 370.075939 
L 381.261135 365.933609 
L 389.345707 360.748008 
L 397.430278 348.429564 
L 405.51485 347.006696 
L 413.599421 344.773587 
L 421.683993 336.075104 
L 429.768564 328.242474 
L 437.853135 323.600183 
L 445.937707 320.800796 
L 454.022278 318.299032 
L 462.10685 317.404931 
L 470.191421 313.718479 
L 478.275993 312.175474 
L 486.360564 306.622618 
L 494.445135 300.153397 
L 502.529707 289.378011 
L 510.614278 287.209102 
L 518.69885 276.709246 
L 526.783421 273.683585 
L 534.867993 272.867728 
L 542.952564 272.180026 
L 551.037135 266.94536 
L 559.121707 264.66883 
L 567.206278 256.172964 
L 575.29085 254.811438 
L 583.375421 248.273812 
L 591.459993 245.676285 
L 599.544564 243.758657 
L 607.629135 245.629364 
L 615.713707 245.920099 
L 623.798278 239.934951 
L 631.88285 231.901279 
L 639.967421 228.44338 
L 648.051993 222.817573 
L 656.136564 222.410986 
L 664.221135 216.226403 
L 672.305707 198.942758 
" clip-path="url(#p6586921e63)" style="fill: none; stroke-dasharray: 9.25,4; stroke-dashoffset: 0; stroke: #000000; stroke-width: 2.5"/>
   </g>
   <g id="line2d_31">
    <path d="M 106.385707 670.029103 
L 114.470278 671.174507 
L 122.55485 665.57382 
L 130.639421 661.726741 
L 138.723993 650.595305 
L 146.808564 638.147175 
L 154.893135 625.87618 
L 162.977707 614.08644 
L 171.062278 620.430919 
L 179.14685 619.888547 
L 187.231421 609.702002 
L 195.315993 602.106286 
L 203.400564 593.26536 
L 211.485135 583.191664 
L 219.569707 577.890717 
L 227.654278 570.521647 
L 235.73885 563.472616 
L 243.823421 558.25241 
L 251.907993 545.835755 
L 259.992564 535.644271 
L 268.077135 526.229736 
L 276.161707 513.514165 
L 284.246278 503.32789 
L 292.33085 491.222814 
L 300.415421 482.255511 
L 308.499993 474.252427 
L 316.584564 458.05634 
L 324.669135 454.472397 
L 332.753707 442.192441 
L 340.838278 449.194373 
L 348.92285 448.043476 
L 357.007421 448.616162 
L 365.091993 442.748859 
L 373.176564 439.728128 
L 381.261135 440.680098 
L 389.345707 436.610831 
L 397.430278 427.723619 
L 405.51485 429.241932 
L 413.599421 428.523236 
L 421.683993 425.829082 
L 429.768564 419.539472 
L 437.853135 418.353609 
L 445.937707 417.297264 
L 454.022278 416.266844 
L 462.10685 416.440898 
L 470.191421 413.541256 
L 478.275993 415.330694 
L 486.360564 412.986888 
L 494.445135 409.619523 
L 502.529707 403.856309 
L 510.614278 402.192018 
L 518.69885 399.56796 
L 526.783421 399.04752 
L 534.867993 398.852655 
L 542.952564 398.335319 
L 551.037135 394.592425 
L 559.121707 393.794799 
L 567.206278 387.371737 
L 575.29085 386.3503 
L 583.375421 381.445675 
L 591.459993 379.496972 
L 599.544564 378.058339 
L 607.629135 379.76899 
L 615.713707 380.702904 
L 623.798278 378.594639 
L 631.88285 374.063143 
L 639.967421 372.414764 
L 648.051993 368.715149 
L 656.136564 367.354762 
L 664.221135 363.008551 
L 672.305707 350.213514 
" clip-path="url(#p6586921e63)" style="fill: none; stroke-dasharray: 16,4,2.5,4; stroke-dashoffset: 0; stroke: #000000; stroke-width: 2.5"/>
   </g>
   <g id="line2d_32">
    <path d="M 106.385707 674.324672 
L 114.470278 674.784143 
L 122.55485 670.373895 
L 130.639421 664.483748 
L 138.723993 653.665249 
L 146.808564 642.241642 
L 154.893135 631.594962 
L 162.977707 621.47866 
L 171.062278 628.696366 
L 179.14685 627.925657 
L 187.231421 618.414518 
L 195.315993 611.680126 
L 203.400564 604.001939 
L 211.485135 595.611567 
L 219.569707 590.611362 
L 227.654278 584.178994 
L 235.73885 579.075013 
L 243.823421 575.446252 
L 251.907993 566.211226 
L 259.992564 557.713763 
L 268.077135 549.926967 
L 276.161707 539.479485 
L 284.246278 531.100906 
L 292.33085 516.757061 
L 300.415421 510.222298 
L 308.499993 504.096405 
L 316.584564 492.15537 
L 324.669135 489.845675 
L 332.753707 480.229079 
L 340.838278 486.419806 
L 348.92285 485.750759 
L 357.007421 486.165041 
L 365.091993 481.516834 
L 373.176564 479.480801 
L 381.261135 480.10198 
L 389.345707 477.15786 
L 397.430278 470.620028 
L 405.51485 469.989232 
L 413.599421 469.477385 
L 421.683993 467.563514 
L 429.768564 462.864307 
L 437.853135 462.074643 
L 445.937707 461.056651 
L 454.022278 453.712361 
L 462.10685 453.84965 
L 470.191421 451.572158 
L 478.275993 449.897243 
L 486.360564 447.981235 
L 494.445135 445.147992 
L 502.529707 438.795379 
L 510.614278 435.215673 
L 518.69885 431.719286 
L 526.783421 429.513112 
L 534.867993 428.595997 
L 542.952564 428.384682 
L 551.037135 425.431133 
L 559.121707 421.140788 
L 567.206278 415.566622 
L 575.29085 414.655391 
L 583.375421 410.301156 
L 591.459993 408.603346 
L 599.544564 407.791266 
L 607.629135 409.690029 
L 615.713707 410.521213 
L 623.798278 408.781291 
L 631.88285 404.725966 
L 639.967421 403.302239 
L 648.051993 400.259758 
L 656.136564 398.915888 
L 664.221135 388.253054 
L 672.305707 379.462198 
" clip-path="url(#p6586921e63)" style="fill: none; stroke: #000000; stroke-width: 1.2; stroke-linecap: square"/>
   </g>
   <g id="patch_3">
    <path d="M 106.385707 781.4196 
L 106.385707 7.2 
" style="fill: none; stroke: #000000; stroke-width: 0.8; stroke-linejoin: miter; stroke-linecap: square"/>
   </g>
   <g id="patch_4">
    <path d="M 106.385707 781.4196 
L 672.305707 781.4196 
" style="fill: none; stroke: #000000; stroke-width: 0.8; stroke-linejoin: miter; stroke-linecap: square"/>
   </g>
   <g id="text_16">
    <!-- \textit{Cotisations retraite} -->
    <g transform="translate(452.70487 336.745716) scale(0.24 -0.24)">
     <defs>
      <path id="CMTI12-43" d="M 5088 4341 
C 5094 4360 5101 4410 5101 4423 
C 5101 4480 5056 4480 5043 4480 
C 5030 4480 5005 4480 4960 4423 
L 4544 3914 
C 4339 4289 4013 4480 3597 4480 
C 2304 4480 947 3056 947 1550 
C 947 469 1651 -128 2464 -128 
C 3162 -128 3667 368 3718 412 
C 4275 959 4378 1518 4378 1531 
C 4378 1588 4326 1588 4288 1588 
C 4237 1588 4211 1582 4192 1524 
C 3904 552 3155 57 2560 57 
C 1978 57 1453 464 1453 1327 
C 1453 1505 1523 2592 2144 3443 
C 2470 3882 3053 4295 3642 4295 
C 4467 4295 4544 3411 4544 3131 
C 4544 3036 4531 2890 4512 2795 
L 4512 2738 
C 4512 2681 4563 2681 4595 2681 
C 4659 2681 4672 2687 4698 2789 
L 5088 4341 
z
" transform="scale(0.015625)"/>
      <path id="CMTI12-6f" d="M 3181 1782 
C 3181 2446 2771 2816 2291 2816 
C 1510 2816 704 1916 704 971 
C 704 281 1133 -64 1594 -64 
C 2374 -64 3181 849 3181 1782 
z
M 1600 64 
C 1331 64 1114 294 1114 728 
C 1114 1022 1267 1724 1478 2088 
C 1715 2497 2042 2689 2278 2689 
C 2605 2689 2771 2389 2771 2024 
C 2771 1750 2618 1028 2413 677 
C 2150 224 1824 64 1600 64 
z
" transform="scale(0.015625)"/>
      <path id="CMTI12-74" d="M 1638 2566 
L 2170 2566 
C 2278 2566 2342 2566 2342 2681 
C 2342 2752 2298 2752 2189 2752 
L 1683 2752 
L 1939 3762 
C 1946 3775 1952 3833 1952 3846 
C 1952 3904 1907 4000 1786 4000 
C 1626 4000 1568 3859 1542 3762 
L 1293 2752 
L 749 2752 
C 634 2752 576 2752 576 2630 
C 576 2566 627 2566 730 2566 
L 1248 2566 
L 787 728 
C 755 600 755 524 755 498 
C 755 204 928 -64 1280 -64 
C 1907 -64 2227 881 2227 913 
C 2227 971 2170 971 2144 971 
C 2074 971 2067 958 2035 888 
C 1958 690 1709 64 1293 64 
C 1197 64 1107 109 1107 319 
C 1107 415 1133 562 1158 658 
L 1638 2566 
z
" transform="scale(0.015625)"/>
      <path id="CMTI12-69" d="M 2042 3969 
C 2042 4090 1952 4160 1843 4160 
C 1728 4160 1562 4058 1562 3879 
C 1562 3739 1664 3688 1760 3688 
C 1888 3688 2042 3803 2042 3969 
z
M 864 722 
C 813 581 813 498 813 441 
C 813 70 1062 -64 1274 -64 
C 1862 -64 2067 888 2067 913 
C 2067 971 2010 971 1984 971 
C 1907 971 1901 952 1875 856 
C 1818 639 1651 64 1286 64 
C 1216 64 1139 96 1139 249 
C 1139 415 1229 645 1344 958 
L 1722 1993 
C 1779 2152 1792 2203 1792 2318 
C 1792 2644 1581 2816 1331 2816 
C 742 2816 531 1871 531 1839 
C 531 1782 589 1782 621 1782 
C 698 1782 704 1801 730 1890 
C 781 2095 947 2689 1318 2689 
C 1459 2689 1459 2567 1459 2497 
C 1459 2331 1421 2222 1376 2108 
L 864 722 
z
" transform="scale(0.015625)"/>
      <path id="CMTI12-73" d="M 2445 2348 
C 2214 2323 2202 2129 2202 2104 
C 2202 2033 2246 1943 2374 1943 
C 2522 1943 2630 2059 2630 2277 
C 2630 2573 2374 2816 1965 2816 
C 1197 2816 973 2165 973 1890 
C 973 1654 1094 1520 1152 1456 
C 1261 1354 1382 1322 1658 1258 
C 1818 1226 2144 1150 2144 798 
C 2144 626 1990 64 1286 64 
C 1056 64 736 152 666 448 
C 973 448 973 713 973 727 
C 973 862 858 914 774 914 
C 723 914 474 888 474 542 
C 474 157 838 -64 1280 -64 
C 2176 -64 2458 645 2458 990 
C 2458 1539 2003 1641 1696 1712 
C 1523 1750 1293 1801 1293 2088 
C 1293 2254 1434 2689 1952 2689 
C 2214 2689 2400 2554 2445 2348 
z
" transform="scale(0.015625)"/>
      <path id="CMTI12-61" d="M 3040 2440 
C 3059 2510 3059 2529 3059 2542 
C 3059 2612 3008 2695 2893 2695 
C 2688 2695 2643 2446 2643 2446 
L 2637 2440 
C 2515 2740 2298 2816 2125 2816 
C 1427 2816 691 1839 691 907 
C 691 338 992 -64 1427 -64 
C 1690 -64 1952 102 2195 390 
C 2266 0 2554 -64 2701 -64 
C 2950 -64 3078 121 3162 307 
C 3270 530 3347 894 3347 913 
C 3347 971 3290 971 3264 971 
C 3187 971 3181 964 3142 817 
C 3014 287 2893 64 2714 64 
C 2573 64 2541 198 2541 319 
C 2541 415 2566 562 2592 658 
L 3040 2440 
z
M 2234 773 
C 2195 607 1811 64 1440 64 
C 1101 64 1088 562 1088 639 
C 1088 958 1293 1712 1395 1967 
C 1562 2363 1850 2689 2125 2689 
C 2509 2689 2554 2120 2554 2076 
C 2554 2069 2534 1999 2534 1986 
L 2234 773 
z
" transform="scale(0.015625)"/>
      <path id="CMTI12-6e" d="M 1587 1731 
C 1626 1871 1971 2689 2586 2689 
C 2880 2689 2880 2369 2880 2261 
C 2880 1865 2598 1098 2490 786 
C 2432 626 2406 568 2406 434 
C 2406 128 2605 -64 2867 -64 
C 3462 -64 3667 888 3667 913 
C 3667 971 3610 971 3584 971 
C 3507 971 3501 952 3475 856 
C 3418 639 3245 64 2886 64 
C 2790 64 2739 109 2739 255 
C 2739 409 2810 607 2861 734 
C 3027 1201 3245 1795 3245 2165 
C 3245 2503 3098 2816 2605 2816 
C 2208 2816 1907 2586 1696 2299 
C 1677 2586 1478 2816 1184 2816 
C 1037 2816 870 2753 736 2478 
C 614 2242 531 1858 531 1846 
C 531 1795 563 1782 621 1782 
C 691 1782 698 1788 736 1935 
C 832 2312 954 2689 1171 2689 
C 1338 2689 1338 2503 1338 2427 
C 1338 2305 1312 2165 1286 2076 
L 819 211 
C 794 121 794 115 794 89 
C 794 13 845 -64 960 -64 
C 1107 -64 1171 51 1197 160 
L 1587 1731 
z
" transform="scale(0.015625)"/>
      <path id="CMTI12-72" d="M 1613 1827 
C 1632 1903 1920 2689 2458 2689 
C 2490 2689 2669 2689 2810 2600 
C 2714 2575 2592 2479 2592 2318 
C 2592 2184 2694 2133 2790 2133 
C 2906 2133 3078 2216 3078 2446 
C 3078 2772 2643 2816 2464 2816 
C 2170 2816 1926 2676 1690 2344 
C 1632 2721 1357 2816 1184 2816 
C 1037 2816 870 2753 736 2478 
C 614 2242 531 1858 531 1846 
C 531 1795 563 1782 621 1782 
C 691 1782 698 1788 736 1935 
C 832 2312 954 2689 1171 2689 
C 1338 2689 1338 2503 1338 2427 
C 1338 2305 1312 2165 1286 2076 
L 819 211 
C 794 121 794 115 794 89 
C 794 13 845 -64 960 -64 
C 1107 -64 1171 57 1197 160 
L 1613 1827 
z
" transform="scale(0.015625)"/>
      <path id="CMTI12-65" d="M 1472 1473 
C 1696 1473 2899 1473 2899 2282 
C 2899 2572 2662 2816 2285 2816 
C 1619 2816 730 2165 730 1041 
C 730 396 1062 -64 1606 -64 
C 2400 -64 2925 577 2925 667 
C 2925 711 2874 762 2835 762 
C 2816 762 2810 756 2758 699 
C 2419 242 1939 64 1613 64 
C 1190 64 1133 565 1133 768 
C 1133 1048 1178 1226 1242 1473 
L 1472 1473 
z
M 1280 1600 
C 1536 2624 2163 2689 2278 2689 
C 2534 2689 2682 2509 2682 2290 
C 2682 1600 1619 1600 1414 1600 
L 1280 1600 
z
" transform="scale(0.015625)"/>
     </defs>
     <use xlink:href="#CMTI12-43" transform="scale(0.996264)"/>
     <use xlink:href="#CMTI12-6f" transform="translate(69.73921 0) scale(0.996264)"/>
     <use xlink:href="#CMTI12-74" transform="translate(119.552882 0) scale(0.996264)"/>
     <use xlink:href="#CMTI12-69" transform="translate(151.931812 0) scale(0.996264)"/>
     <use xlink:href="#CMTI12-73" transform="translate(181.820036 0) scale(0.996264)"/>
     <use xlink:href="#CMTI12-61" transform="translate(221.671129 0) scale(0.996264)"/>
     <use xlink:href="#CMTI12-74" transform="translate(271.484801 0) scale(0.996264)"/>
     <use xlink:href="#CMTI12-69" transform="translate(303.863731 0) scale(0.996264)"/>
     <use xlink:href="#CMTI12-6f" transform="translate(333.751955 0) scale(0.996264)"/>
     <use xlink:href="#CMTI12-6e" transform="translate(383.565627 0) scale(0.996264)"/>
     <use xlink:href="#CMTI12-73" transform="translate(438.360725 0) scale(0.996264)"/>
     <use xlink:href="#CMTI12-72" transform="translate(513.081377 0) scale(0.996264)"/>
     <use xlink:href="#CMTI12-65" transform="translate(549.196419 0) scale(0.996264)"/>
     <use xlink:href="#CMTI12-74" transform="translate(594.028755 0) scale(0.996264)"/>
     <use xlink:href="#CMTI12-72" transform="translate(626.407685 0) scale(0.996264)"/>
     <use xlink:href="#CMTI12-61" transform="translate(662.522727 0) scale(0.996264)"/>
     <use xlink:href="#CMTI12-69" transform="translate(712.336398 0) scale(0.996264)"/>
     <use xlink:href="#CMTI12-74" transform="translate(742.224623 0) scale(0.996264)"/>
     <use xlink:href="#CMTI12-65" transform="translate(774.603553 0) scale(0.996264)"/>
    </g>
   </g>
   <g id="text_17">
    <!-- \textit{Autres cotisations} -->
    <g transform="translate(460.005328 182.019765) scale(0.24 -0.24)">
     <defs>
      <path id="CMTI12-41" d="M 1178 718 
C 979 365 800 218 480 186 
C 410 180 358 173 358 64 
C 358 0 422 0 435 0 
C 589 0 762 0 922 0 
C 1094 0 1280 0 1446 0 
C 1491 0 1562 0 1562 126 
C 1562 186 1510 192 1472 192 
C 1318 192 1229 268 1229 388 
C 1229 477 1280 559 1338 661 
L 1805 1478 
L 3290 1478 
L 3360 463 
C 3366 362 3379 192 2982 192 
C 2893 192 2835 192 2835 66 
C 2835 0 2899 0 2925 0 
C 3136 0 3366 0 3584 0 
C 3795 0 4013 0 4218 0 
C 4256 0 4333 0 4333 119 
C 4333 192 4288 192 4205 192 
C 3891 192 3859 235 3846 394 
L 3565 4422 
C 3558 4557 3552 4576 3462 4576 
C 3373 4576 3354 4538 3309 4461 
L 1178 718 
z
M 1914 1664 
L 3130 3814 
L 3277 1664 
L 1914 1664 
z
" transform="scale(0.015625)"/>
      <path id="CMTI12-75" d="M 3206 2472 
C 3232 2561 3232 2574 3232 2599 
C 3232 2695 3155 2753 3072 2753 
C 2893 2753 2842 2593 2822 2503 
L 2362 658 
C 2362 651 2362 588 2349 556 
C 2221 287 1984 64 1690 64 
C 1402 64 1344 351 1344 562 
C 1344 945 1568 1552 1715 1961 
C 1766 2108 1798 2191 1798 2318 
C 1798 2574 1645 2816 1331 2816 
C 749 2816 531 1878 531 1839 
C 531 1782 589 1782 621 1782 
C 698 1782 704 1801 730 1890 
C 781 2082 947 2689 1318 2689 
C 1395 2689 1466 2657 1466 2503 
C 1466 2344 1402 2178 1267 1807 
C 1062 1239 979 913 979 664 
C 979 89 1357 -64 1670 -64 
C 1939 -64 2163 64 2368 319 
C 2438 70 2637 -64 2861 -64 
C 3110 -64 3238 121 3322 307 
C 3430 530 3507 894 3507 913 
C 3507 971 3450 971 3424 971 
C 3347 971 3341 964 3302 817 
C 3174 287 3053 64 2874 64 
C 2733 64 2701 198 2701 319 
C 2701 415 2726 562 2752 658 
L 3206 2472 
z
" transform="scale(0.015625)"/>
      <path id="CMTI12-63" d="M 2752 2368 
C 2592 2368 2451 2246 2451 2093 
C 2451 1933 2592 1902 2650 1902 
C 2714 1902 2950 1940 2950 2275 
C 2950 2578 2682 2816 2291 2816 
C 1510 2816 704 1916 704 971 
C 704 319 1094 -64 1606 -64 
C 2400 -64 2925 578 2925 668 
C 2925 712 2874 763 2835 763 
C 2816 763 2810 757 2758 700 
C 2419 242 1939 64 1613 64 
C 1286 64 1114 351 1114 728 
C 1114 1022 1267 1724 1478 2088 
C 1696 2472 2010 2689 2285 2689 
C 2323 2689 2662 2689 2752 2368 
z
" transform="scale(0.015625)"/>
     </defs>
     <use xlink:href="#CMTI12-41" transform="scale(0.996264)"/>
     <use xlink:href="#CMTI12-75" transform="translate(69.92373 0) scale(0.996264)"/>
     <use xlink:href="#CMTI12-74" transform="translate(122.228122 0) scale(0.996264)"/>
     <use xlink:href="#CMTI12-72" transform="translate(154.607052 0) scale(0.996264)"/>
     <use xlink:href="#CMTI12-65" transform="translate(190.722094 0) scale(0.996264)"/>
     <use xlink:href="#CMTI12-73" transform="translate(235.55443 0) scale(0.996264)"/>
     <use xlink:href="#CMTI12-63" transform="translate(310.275082 0) scale(0.996264)"/>
     <use xlink:href="#CMTI12-6f" transform="translate(350.126068 0) scale(0.996264)"/>
     <use xlink:href="#CMTI12-74" transform="translate(399.93974 0) scale(0.996264)"/>
     <use xlink:href="#CMTI12-69" transform="translate(432.31867 0) scale(0.996264)"/>
     <use xlink:href="#CMTI12-73" transform="translate(462.206894 0) scale(0.996264)"/>
     <use xlink:href="#CMTI12-61" transform="translate(502.057987 0) scale(0.996264)"/>
     <use xlink:href="#CMTI12-74" transform="translate(551.871659 0) scale(0.996264)"/>
     <use xlink:href="#CMTI12-69" transform="translate(584.250589 0) scale(0.996264)"/>
     <use xlink:href="#CMTI12-6f" transform="translate(614.138813 0) scale(0.996264)"/>
     <use xlink:href="#CMTI12-6e" transform="translate(663.952485 0) scale(0.996264)"/>
     <use xlink:href="#CMTI12-73" transform="translate(718.747583 0) scale(0.996264)"/>
    </g>
   </g>
   <g id="text_18">
    <!-- \textbf{Co\^{u}t employeur} -->
    <g transform="translate(680.305707 56.761527) scale(0.225 -0.225)">
     <defs>
      <path id="CMBX12-43" d="M 4794 4252 
C 4794 4398 4794 4417 4653 4417 
L 4173 3959 
C 3814 4263 3386 4416 2912 4416 
C 1382 4416 397 3497 397 2167 
C 397 862 1350 -81 2918 -81 
C 4058 -81 4794 691 4794 1439 
C 4794 1547 4755 1547 4659 1547 
C 4595 1547 4531 1547 4525 1484 
C 4467 522 3642 192 3066 192 
C 2650 192 2086 307 1728 705 
C 1504 946 1299 1293 1299 2167 
C 1299 2788 1395 3250 1696 3604 
C 2106 4079 2746 4143 3053 4143 
C 3533 4143 4307 3876 4499 2762 
C 4512 2705 4570 2705 4646 2705 
C 4794 2705 4794 2718 4794 2870 
L 4794 4252 
z
" transform="scale(0.015625)"/>
      <path id="CMBX12-6f" d="M 3392 1395 
C 3392 2252 2803 2880 1798 2880 
C 755 2880 198 2220 198 1395 
C 198 565 787 -32 1792 -32 
C 2835 -32 3392 596 3392 1395 
z
M 1798 197 
C 966 197 966 939 966 1459 
C 966 1757 966 2074 1088 2303 
C 1229 2556 1517 2670 1792 2670 
C 2157 2670 2387 2499 2496 2322 
C 2624 2093 2624 1763 2624 1459 
C 2624 932 2624 197 1798 197 
z
" transform="scale(0.015625)"/>
      <path id="CMBX12-5e" d="M 1798 4412 
L 819 3605 
L 986 3389 
L 1798 3929 
L 2605 3389 
L 2771 3605 
L 1798 4412 
z
" transform="scale(0.015625)"/>
      <path id="CMBX12-75" d="M 2259 2859 
L 2259 2560 
C 2656 2560 2701 2560 2701 2312 
L 2701 1056 
C 2701 569 2413 178 1914 178 
C 1434 178 1408 337 1408 684 
L 1408 2859 
L 269 2859 
L 269 2560 
C 666 2560 710 2560 710 2312 
L 710 794 
C 710 153 1139 -32 1824 -32 
C 1978 -32 2451 -32 2726 496 
L 2733 496 
L 2733 0 
L 3840 0 
L 3840 292 
C 3443 292 3398 292 3398 540 
L 3398 2859 
L 2259 2859 
z
" transform="scale(0.015625)"/>
      <path id="CMBX12-74" d="M 1350 2560 
L 2272 2560 
L 2272 2833 
L 1350 2833 
L 1350 4032 
L 1082 4032 
C 1075 3405 768 2776 134 2776 
L 134 2560 
L 653 2560 
L 653 789 
C 653 114 1178 -32 1638 -32 
C 2112 -32 2394 325 2394 795 
L 2394 1133 
L 2125 1133 
L 2125 802 
C 2125 381 1933 197 1734 197 
C 1350 197 1350 624 1350 770 
L 1350 2560 
z
" transform="scale(0.015625)"/>
      <path id="CMBX12-65" d="M 2893 1408 
C 3040 1408 3078 1408 3078 1567 
C 3078 1758 3034 2233 2739 2532 
C 2470 2798 2112 2880 1741 2880 
C 742 2880 198 2233 198 1434 
C 198 545 858 -32 1824 -32 
C 2790 -32 3078 640 3078 748 
C 3078 843 2982 843 2944 843 
C 2842 843 2835 824 2797 742 
C 2630 330 2208 197 1901 197 
C 973 197 966 1053 966 1408 
L 2893 1408 
z
M 966 1593 
C 979 1852 986 2100 1120 2328 
C 1242 2531 1466 2670 1741 2670 
C 2426 2670 2483 1909 2490 1593 
L 966 1593 
z
" transform="scale(0.015625)"/>
      <path id="CMBX12-6d" d="M 5402 1924 
C 5402 2506 5152 2834 4435 2834 
C 3789 2834 3488 2407 3386 2206 
C 3283 2740 2848 2834 2438 2834 
C 1824 2834 1491 2445 1357 2143 
L 1350 2143 
L 1350 2816 
L 269 2816 
L 269 2517 
C 666 2517 710 2517 710 2270 
L 710 260 
L 269 260 
L 269 -13 
C 416 0 877 0 1056 0 
C 1235 0 1702 0 1850 -13 
L 1850 260 
L 1408 260 
L 1408 1607 
C 1408 2296 1926 2624 2330 2624 
C 2566 2624 2707 2485 2707 1993 
L 2707 260 
L 2266 260 
L 2266 -13 
C 2413 0 2874 0 3053 0 
C 3232 0 3699 0 3846 -13 
L 3846 260 
L 3405 260 
L 3405 1607 
C 3405 2296 3923 2624 4326 2624 
C 4563 2624 4704 2485 4704 1993 
L 4704 260 
L 4262 260 
L 4262 -13 
C 4410 0 4870 0 5050 0 
C 5229 0 5696 0 5843 -13 
L 5843 260 
L 5402 260 
L 5402 1924 
z
" transform="scale(0.015625)"/>
      <path id="CMBX12-70" d="M 1805 -955 
L 1363 -955 
L 1363 268 
C 1523 128 1805 -32 2189 -32 
C 3066 -32 3750 493 3750 1417 
C 3750 2290 3155 2853 2291 2853 
C 1914 2853 1587 2738 1331 2554 
L 1331 2859 
L 224 2859 
L 224 2560 
C 621 2560 666 2560 666 2310 
L 666 -955 
L 224 -955 
L 224 -1228 
C 371 -1216 832 -1216 1011 -1216 
C 1190 -1216 1658 -1216 1805 -1228 
L 1805 -955 
z
M 1363 2246 
C 1600 2530 1939 2624 2189 2624 
C 2605 2624 2982 2251 2982 1417 
C 2982 500 2522 178 2112 178 
C 1837 178 1562 319 1363 620 
L 1363 2246 
z
" transform="scale(0.015625)"/>
      <path id="CMBX12-6c" d="M 1389 4416 
L 282 4416 
L 282 4117 
C 678 4117 723 4117 723 3866 
L 723 260 
L 282 260 
L 282 -13 
C 429 0 883 0 1056 0 
C 1229 0 1683 0 1830 -13 
L 1830 260 
L 1389 260 
L 1389 4416 
z
" transform="scale(0.015625)"/>
      <path id="CMBX12-79" d="M 3168 2421 
C 3206 2509 3232 2560 3642 2560 
L 3642 2827 
C 3424 2827 3398 2827 3136 2827 
C 2963 2827 2950 2827 2586 2827 
L 2586 2560 
C 2592 2560 2893 2560 2893 2478 
C 2893 2459 2874 2421 2867 2402 
L 2118 805 
L 1299 2560 
L 1651 2560 
L 1651 2833 
C 1498 2827 1062 2827 883 2827 
C 698 2827 320 2827 154 2833 
L 154 2560 
L 563 2560 
L 1747 20 
C 1715 -56 1626 -240 1594 -316 
C 1459 -601 1254 -1038 806 -1038 
C 781 -1038 704 -1038 634 -1000 
C 646 -993 838 -917 838 -676 
C 838 -468 685 -335 493 -335 
C 294 -335 141 -469 141 -684 
C 141 -982 422 -1248 806 -1248 
C 1331 -1248 1677 -779 1805 -500 
L 3168 2421 
z
" transform="scale(0.015625)"/>
      <path id="CMBX12-72" d="M 1331 1411 
C 1331 1619 1376 2624 2125 2624 
C 2035 2555 1990 2448 1990 2336 
C 1990 2079 2202 1972 2362 1972 
C 2522 1972 2733 2079 2733 2337 
C 2733 2658 2400 2834 2093 2834 
C 1587 2834 1370 2401 1280 2137 
L 1274 2137 
L 1274 2816 
L 224 2816 
L 224 2517 
C 621 2517 666 2517 666 2270 
L 666 260 
L 224 260 
L 224 -13 
C 371 0 851 0 1030 0 
C 1216 0 1734 0 1888 -13 
L 1888 260 
L 1331 260 
L 1331 1411 
z
" transform="scale(0.015625)"/>
     </defs>
     <use xlink:href="#CMBX12-43" transform="scale(0.996264)"/>
     <use xlink:href="#CMBX12-6f" transform="translate(80.946451 0) scale(0.996264)"/>
     <use xlink:href="#CMBX12-5e" transform="translate(140.099626 0) scale(0.996264)"/>
     <use xlink:href="#CMBX12-75" transform="translate(136.986301 0) scale(0.996264)"/>
     <use xlink:href="#CMBX12-74" transform="translate(199.252802 0) scale(0.996264)"/>
     <use xlink:href="#CMBX12-65" transform="translate(280.199253 0) scale(0.996264)"/>
     <use xlink:href="#CMBX12-6d" transform="translate(331.33852 0) scale(0.996264)"/>
     <use xlink:href="#CMBX12-70" transform="translate(424.738271 0) scale(0.996264)"/>
     <use xlink:href="#CMBX12-6c" transform="translate(487.004772 0) scale(0.996264)"/>
     <use xlink:href="#CMBX12-6f" transform="translate(518.138022 0) scale(0.996264)"/>
     <use xlink:href="#CMBX12-79" transform="translate(571.064547 0) scale(0.996264)"/>
     <use xlink:href="#CMBX12-65" transform="translate(627.104398 0) scale(0.996264)"/>
     <use xlink:href="#CMBX12-75" transform="translate(678.243665 0) scale(0.996264)"/>
     <use xlink:href="#CMBX12-72" transform="translate(740.510166 0) scale(0.996264)"/>
    </g>
   </g>
   <g id="text_19">
    <!-- Salaire net + -->
    <g transform="translate(680.305707 193.026012) scale(0.225 -0.225)">
     <defs>
      <path id="CMR17-53" d="M 2803 4290 
C 2803 4404 2797 4411 2758 4411 
C 2720 4411 2707 4385 2682 4328 
L 2490 3907 
C 2246 4257 1875 4416 1472 4416 
C 819 4416 294 3901 294 3253 
C 294 3056 339 2776 557 2510 
C 794 2218 1018 2167 1530 2033 
C 1722 1982 2042 1899 2106 1874 
C 2470 1722 2662 1341 2662 985 
C 2662 527 2336 38 1779 38 
C 1094 38 454 419 410 1311 
C 403 1413 397 1419 352 1419 
C 301 1419 294 1413 294 1285 
L 294 -1 
C 294 -115 301 -122 339 -122 
C 384 -122 397 -90 486 108 
C 493 127 493 140 614 381 
C 934 -39 1472 -128 1779 -128 
C 2477 -128 2970 451 2970 1124 
C 2970 1454 2848 1708 2778 1823 
C 2509 2230 2221 2306 1914 2382 
C 1869 2402 1856 2402 1498 2490 
C 1152 2579 1005 2624 845 2796 
C 666 2992 602 3196 602 3399 
C 602 3812 934 4263 1478 4263 
C 2157 4263 2579 3786 2675 2993 
C 2694 2878 2701 2872 2746 2872 
C 2803 2872 2803 2891 2803 2999 
L 2803 4290 
z
" transform="scale(0.015625)"/>
      <path id="CMR17-61" d="M 2304 1653 
C 2304 2072 2304 2294 2035 2543 
C 1798 2752 1523 2816 1306 2816 
C 800 2816 435 2407 435 1971 
C 435 1728 627 1728 666 1728 
C 749 1728 896 1778 896 1954 
C 896 2112 774 2181 666 2181 
C 640 2181 608 2174 589 2168 
C 723 2592 1069 2714 1293 2714 
C 1613 2714 1965 2429 1965 1885 
L 1965 1600 
C 1587 1600 1133 1549 774 1357 
C 371 1133 256 813 256 570 
C 256 77 832 -64 1171 -64 
C 1523 -64 1850 139 1990 511 
C 2003 233 2182 -18 2464 -18 
C 2598 -18 2938 70 2938 567 
L 2938 920 
L 2822 920 
L 2822 562 
C 2822 178 2650 128 2566 128 
C 2304 128 2304 458 2304 738 
L 2304 1653 
z
M 1965 870 
C 1965 317 1568 38 1216 38 
C 896 38 646 275 646 570 
C 646 761 730 1100 1101 1305 
C 1408 1478 1760 1504 1965 1504 
L 1965 870 
z
" transform="scale(0.015625)"/>
      <path id="CMR17-6c" d="M 979 4396 
L 218 4326 
L 218 4160 
C 595 4160 653 4122 653 3817 
L 653 426 
C 653 184 627 153 218 153 
L 218 -13 
C 371 0 653 0 813 0 
C 979 0 1261 0 1414 -13 
L 1414 153 
C 1005 153 979 178 979 426 
L 979 4396 
z
" transform="scale(0.015625)"/>
      <path id="CMR17-69" d="M 992 3909 
C 992 4049 877 4170 730 4170 
C 589 4170 467 4056 467 3909 
C 467 3769 582 3648 730 3648 
C 870 3648 992 3763 992 3909 
z
M 243 2706 
L 243 2541 
C 602 2541 653 2502 653 2197 
L 653 427 
C 653 184 627 153 218 153 
L 218 -13 
C 371 0 646 0 806 0 
C 960 0 1222 0 1370 -13 
L 1370 153 
C 992 153 979 191 979 420 
L 979 2776 
L 243 2706 
z
" transform="scale(0.015625)"/>
      <path id="CMR17-74" d="M 966 2560 
L 1862 2560 
L 1862 2725 
L 966 2725 
L 966 3904 
L 851 3904 
C 838 3245 614 2668 70 2668 
L 70 2560 
L 627 2560 
L 627 771 
C 627 650 627 -64 1370 -64 
C 1747 -64 1965 306 1965 777 
L 1965 1140 
L 1850 1140 
L 1850 783 
C 1850 344 1677 51 1408 51 
C 1222 51 966 178 966 758 
L 966 2560 
z
" transform="scale(0.015625)"/>
      <path id="CMR17-2b" d="M 2413 1472 
L 4109 1472 
C 4198 1472 4307 1472 4307 1580 
C 4307 1695 4205 1695 4109 1695 
L 2413 1695 
L 2413 3386 
C 2413 3475 2413 3584 2304 3584 
C 2189 3584 2189 3482 2189 3386 
L 2189 1695 
L 493 1695 
C 403 1695 294 1695 294 1587 
C 294 1472 397 1472 493 1472 
L 2189 1472 
L 2189 -218 
C 2189 -307 2189 -416 2298 -416 
C 2413 -416 2413 -314 2413 -218 
L 2413 1472 
z
" transform="scale(0.015625)"/>
     </defs>
     <use xlink:href="#CMR17-53" transform="scale(0.996264)"/>
     <use xlink:href="#CMR17-61" transform="translate(50.89537 0) scale(0.996264)"/>
     <use xlink:href="#CMR17-6c" transform="translate(96.585847 0) scale(0.996264)"/>
     <use xlink:href="#CMR17-61" transform="translate(121.456905 0) scale(0.996264)"/>
     <use xlink:href="#CMR17-69" transform="translate(167.147382 0) scale(0.996264)"/>
     <use xlink:href="#CMR17-72" transform="translate(192.018441 0) scale(0.996264)"/>
     <use xlink:href="#CMR17-65" transform="translate(227.299209 0) scale(0.996264)"/>
     <use xlink:href="#CMR17-6e" transform="translate(297.860836 0) scale(0.996264)"/>
     <use xlink:href="#CMR17-65" transform="translate(348.756205 0) scale(0.996264)"/>
     <use xlink:href="#CMR17-74" transform="translate(389.241866 0) scale(0.996264)"/>
     <use xlink:href="#CMR17-2b" transform="translate(454.5986 0) scale(0.996264)"/>
    </g>
    <!-- cotisations retraite -->
    <g transform="translate(680.305707 216.066046) scale(0.225 -0.225)">
     <defs>
      <path id="CMR17-63" d="M 2234 2240 
C 2112 2240 1933 2240 1933 2017 
C 1933 1838 2080 1787 2163 1787 
C 2208 1787 2394 1807 2394 2024 
C 2394 2467 1958 2803 1466 2803 
C 787 2803 211 2178 211 1363 
C 211 516 813 -64 1466 -64 
C 2259 -64 2458 677 2458 748 
C 2458 774 2451 793 2406 793 
C 2362 793 2355 787 2330 703 
C 2163 180 1798 51 1523 51 
C 1114 51 621 427 621 1369 
C 621 2338 1094 2688 1472 2688 
C 1722 2688 2093 2573 2234 2240 
z
" transform="scale(0.015625)"/>
     </defs>
     <use xlink:href="#CMR17-63" transform="scale(0.996264)"/>
     <use xlink:href="#CMR17-6f" transform="translate(40.48566 0) scale(0.996264)"/>
     <use xlink:href="#CMR17-74" transform="translate(86.176138 0) scale(0.996264)"/>
     <use xlink:href="#CMR17-69" transform="translate(121.456905 0) scale(0.996264)"/>
     <use xlink:href="#CMR17-73" transform="translate(146.327964 0) scale(0.996264)"/>
     <use xlink:href="#CMR17-61" transform="translate(182.129301 0) scale(0.996264)"/>
     <use xlink:href="#CMR17-74" transform="translate(227.819779 0) scale(0.996264)"/>
     <use xlink:href="#CMR17-69" transform="translate(263.100546 0) scale(0.996264)"/>
     <use xlink:href="#CMR17-6f" transform="translate(287.971605 0) scale(0.996264)"/>
     <use xlink:href="#CMR17-6e" transform="translate(333.662082 0) scale(0.996264)"/>
     <use xlink:href="#CMR17-73" transform="translate(384.557452 0) scale(0.996264)"/>
     <use xlink:href="#CMR17-72" transform="translate(450.434756 0) scale(0.996264)"/>
     <use xlink:href="#CMR17-65" transform="translate(485.715524 0) scale(0.996264)"/>
     <use xlink:href="#CMR17-74" transform="translate(526.201184 0) scale(0.996264)"/>
     <use xlink:href="#CMR17-72" transform="translate(561.481952 0) scale(0.996264)"/>
     <use xlink:href="#CMR17-61" transform="translate(596.76272 0) scale(0.996264)"/>
     <use xlink:href="#CMR17-69" transform="translate(642.453197 0) scale(0.996264)"/>
     <use xlink:href="#CMR17-74" transform="translate(667.324255 0) scale(0.996264)"/>
     <use xlink:href="#CMR17-65" transform="translate(702.605023 0) scale(0.996264)"/>
    </g>
   </g>
   <g id="text_20">
    <!-- Salaire net -->
    <g transform="translate(680.305707 339.85343) scale(0.225 -0.225)">
     <use xlink:href="#CMR17-53" transform="scale(0.996264)"/>
     <use xlink:href="#CMR17-61" transform="translate(50.89537 0) scale(0.996264)"/>
     <use xlink:href="#CMR17-6c" transform="translate(96.585847 0) scale(0.996264)"/>
     <use xlink:href="#CMR17-61" transform="translate(121.456905 0) scale(0.996264)"/>
     <use xlink:href="#CMR17-69" transform="translate(167.147382 0) scale(0.996264)"/>
     <use xlink:href="#CMR17-72" transform="translate(192.018441 0) scale(0.996264)"/>
     <use xlink:href="#CMR17-65" transform="translate(227.299209 0) scale(0.996264)"/>
     <use xlink:href="#CMR17-6e" transform="translate(297.860836 0) scale(0.996264)"/>
     <use xlink:href="#CMR17-65" transform="translate(348.756205 0) scale(0.996264)"/>
     <use xlink:href="#CMR17-74" transform="translate(389.241866 0) scale(0.996264)"/>
    </g>
   </g>
   <g id="text_21">
    <!-- Salaire net apr\`{e}s -->
    <g transform="translate(680.305707 401.028823) scale(0.225 -0.225)">
     <defs>
      <path id="CMR17-70" d="M 1408 -1063 
C 998 -1063 973 -1037 973 -789 
L 973 402 
C 1158 134 1427 -38 1766 -38 
C 2406 -38 3053 523 3053 1388 
C 3053 2191 2496 2802 1837 2802 
C 1453 2802 1139 2592 960 2338 
L 960 2802 
L 198 2732 
L 198 2567 
C 576 2567 634 2528 634 2223 
L 634 -789 
C 634 -1031 608 -1063 198 -1063 
L 198 -1228 
C 352 -1216 634 -1216 800 -1216 
C 966 -1216 1254 -1216 1408 -1228 
L 1408 -1063 
z
M 973 2012 
C 973 2102 973 2235 1222 2471 
C 1254 2497 1472 2688 1792 2688 
C 2259 2688 2643 2108 2643 1382 
C 2643 656 2234 64 1728 64 
C 1498 64 1248 172 1056 472 
C 973 612 973 650 973 752 
L 973 2012 
z
" transform="scale(0.015625)"/>
      <path id="CMR17-12" d="M 1651 3244 
C 1670 3263 1715 3314 1728 3320 
L 1005 4244 
C 870 4410 864 4416 787 4416 
C 698 4416 614 4333 614 4244 
C 614 4180 653 4142 659 4129 
C 672 4123 941 3874 1165 3671 
L 1651 3244 
z
" transform="scale(0.015625)"/>
     </defs>
     <use xlink:href="#CMR17-53" transform="scale(0.996264)"/>
     <use xlink:href="#CMR17-61" transform="translate(50.89537 0) scale(0.996264)"/>
     <use xlink:href="#CMR17-6c" transform="translate(96.585847 0) scale(0.996264)"/>
     <use xlink:href="#CMR17-61" transform="translate(121.456905 0) scale(0.996264)"/>
     <use xlink:href="#CMR17-69" transform="translate(167.147382 0) scale(0.996264)"/>
     <use xlink:href="#CMR17-72" transform="translate(192.018441 0) scale(0.996264)"/>
     <use xlink:href="#CMR17-65" transform="translate(227.299209 0) scale(0.996264)"/>
     <use xlink:href="#CMR17-6e" transform="translate(297.860836 0) scale(0.996264)"/>
     <use xlink:href="#CMR17-65" transform="translate(348.756205 0) scale(0.996264)"/>
     <use xlink:href="#CMR17-74" transform="translate(389.241866 0) scale(0.996264)"/>
     <use xlink:href="#CMR17-61" transform="translate(454.5986 0) scale(0.996264)"/>
     <use xlink:href="#CMR17-70" transform="translate(500.289077 0) scale(0.996264)"/>
     <use xlink:href="#CMR17-72" transform="translate(551.184447 0) scale(0.996264)"/>
     <use xlink:href="#CMR17-12" transform="translate(583.862806 0) scale(0.996264)"/>
     <use xlink:href="#CMR17-65" transform="translate(586.465215 0) scale(0.996264)"/>
     <use xlink:href="#CMR17-73" transform="translate(626.950875 0) scale(0.996264)"/>
    </g>
    <!-- imp\^{o}t sur le revenu -->
    <g transform="translate(680.305707 424.068858) scale(0.225 -0.225)">
     <defs>
      <path id="CMR17-6d" d="M 4326 1933 
C 4326 2252 4269 2790 3507 2790 
C 3072 2790 2771 2496 2656 2151 
L 2650 2151 
C 2573 2676 2195 2790 1837 2790 
C 1331 2790 1069 2400 973 2144 
L 966 2144 
L 966 2790 
L 211 2720 
L 211 2554 
C 589 2554 646 2515 646 2208 
L 646 428 
C 646 184 621 153 211 153 
L 211 -13 
C 365 0 646 0 813 0 
C 979 0 1267 0 1421 -13 
L 1421 153 
C 1011 153 986 178 986 428 
L 986 1658 
C 986 2247 1344 2688 1792 2688 
C 2266 2688 2317 2266 2317 1958 
L 2317 428 
C 2317 184 2291 153 1882 153 
L 1882 -13 
C 2035 0 2317 0 2483 0 
C 2650 0 2938 0 3091 -13 
L 3091 153 
C 2682 153 2656 178 2656 428 
L 2656 1658 
C 2656 2247 3014 2688 3462 2688 
C 3936 2688 3987 2266 3987 1958 
L 3987 428 
C 3987 184 3962 153 3552 153 
L 3552 -13 
C 3706 0 3987 0 4154 0 
C 4320 0 4608 0 4762 -13 
L 4762 153 
C 4352 153 4326 178 4326 428 
L 4326 1933 
z
" transform="scale(0.015625)"/>
      <path id="CMR17-5e" d="M 1466 4421 
L 678 3555 
L 755 3478 
L 1466 4166 
L 2176 3478 
L 2253 3555 
L 1466 4421 
z
" transform="scale(0.015625)"/>
      <path id="CMR17-76" d="M 2502 2163 
C 2560 2304 2662 2560 3034 2560 
L 3034 2726 
C 2912 2726 2752 2726 2630 2726 
C 2496 2726 2285 2726 2157 2732 
L 2157 2566 
C 2317 2553 2406 2477 2406 2311 
C 2406 2253 2406 2240 2368 2151 
L 1664 377 
L 902 2286 
C 864 2369 864 2381 864 2407 
C 864 2560 1075 2560 1171 2560 
L 1171 2732 
C 1018 2726 736 2726 576 2726 
C 403 2726 205 2726 64 2732 
L 64 2560 
C 307 2560 442 2560 518 2362 
L 1446 44 
C 1485 -51 1491 -64 1549 -64 
C 1606 -64 1613 -51 1651 44 
L 2502 2163 
z
" transform="scale(0.015625)"/>
     </defs>
     <use xlink:href="#CMR17-69" transform="scale(0.996264)"/>
     <use xlink:href="#CMR17-6d" transform="translate(24.871058 0) scale(0.996264)"/>
     <use xlink:href="#CMR17-70" transform="translate(101.790648 0) scale(0.996264)"/>
     <use xlink:href="#CMR17-5e" transform="translate(152.686018 0) scale(0.996264)"/>
     <use xlink:href="#CMR17-6f" transform="translate(152.686018 0) scale(0.996264)"/>
     <use xlink:href="#CMR17-74" transform="translate(198.376495 0) scale(0.996264)"/>
     <use xlink:href="#CMR17-73" transform="translate(263.733229 0) scale(0.996264)"/>
     <use xlink:href="#CMR17-75" transform="translate(299.534567 0) scale(0.996264)"/>
     <use xlink:href="#CMR17-72" transform="translate(350.429937 0) scale(0.996264)"/>
     <use xlink:href="#CMR17-6c" transform="translate(415.786671 0) scale(0.996264)"/>
     <use xlink:href="#CMR17-65" transform="translate(440.657729 0) scale(0.996264)"/>
     <use xlink:href="#CMR17-72" transform="translate(511.219356 0) scale(0.996264)"/>
     <use xlink:href="#CMR17-65" transform="translate(546.500124 0) scale(0.996264)"/>
     <use xlink:href="#CMR17-76" transform="translate(586.985785 0) scale(0.996264)"/>
     <use xlink:href="#CMR17-65" transform="translate(632.676246 0) scale(0.996264)"/>
     <use xlink:href="#CMR17-6e" transform="translate(673.161907 0) scale(0.996264)"/>
     <use xlink:href="#CMR17-75" transform="translate(721.454823 0) scale(0.996264)"/>
    </g>
   </g>
   <g id="patch_5">
    <path d="M 497.308047 506.3403 
Q 463.538305 474.161851 430.335151 442.52329 
" style="fill: none; stroke: #000000; stroke-width: 0.7; stroke-linecap: round"/>
    <path d="M 433.519055 451.358603 
L 430.335151 442.52329 
L 439.313744 445.277355 
" style="fill: none; stroke: #000000; stroke-width: 0.7; stroke-linecap: round"/>
   </g>
   <g id="text_22">
    <!-- \textit{Imp\^{o}t sur le revenu} -->
    <g transform="translate(422.985093 524.249234) scale(0.21 -0.21)">
     <defs>
      <path id="CMTI12-49" d="M 2419 3911 
C 2470 4128 2534 4173 2918 4173 
C 3053 4173 3104 4173 3104 4294 
C 3104 4352 3040 4352 3014 4352 
C 2778 4352 2528 4352 2291 4352 
C 2048 4352 1798 4352 1562 4352 
C 1510 4352 1440 4352 1440 4241 
C 1440 4173 1485 4173 1594 4173 
C 1971 4173 1971 4128 1971 4058 
C 1971 4045 1971 4007 1946 3904 
L 1082 454 
C 1024 224 986 179 550 179 
C 461 179 397 179 397 62 
C 397 0 461 0 486 0 
C 717 0 966 0 1203 0 
C 1446 0 1702 0 1939 0 
C 1990 0 2061 0 2061 117 
C 2061 179 2016 179 1894 179 
C 1715 179 1530 179 1530 288 
C 1530 326 1530 339 1542 396 
L 2419 3911 
z
" transform="scale(0.015625)"/>
      <path id="CMTI12-6d" d="M 3187 1731 
C 3226 1878 3571 2689 4186 2689 
C 4480 2689 4480 2369 4480 2261 
C 4480 1865 4198 1098 4090 786 
C 4032 626 4006 568 4006 434 
C 4006 128 4205 -64 4467 -64 
C 5062 -64 5267 888 5267 913 
C 5267 971 5210 971 5184 971 
C 5107 971 5101 952 5075 856 
C 5018 639 4845 64 4486 64 
C 4390 64 4339 109 4339 255 
C 4339 409 4410 607 4461 734 
C 4627 1201 4845 1795 4845 2165 
C 4845 2503 4698 2816 4205 2816 
C 3808 2816 3488 2586 3258 2236 
C 3219 2670 2918 2816 2611 2816 
C 2240 2816 1926 2618 1696 2299 
C 1677 2586 1478 2816 1184 2816 
C 1037 2816 870 2753 736 2478 
C 614 2242 531 1858 531 1846 
C 531 1795 563 1782 621 1782 
C 691 1782 698 1788 736 1935 
C 832 2312 954 2689 1171 2689 
C 1338 2689 1338 2503 1338 2427 
C 1338 2305 1312 2165 1286 2076 
L 819 211 
C 794 121 794 115 794 89 
C 794 13 845 -64 960 -64 
C 1037 -64 1139 -19 1184 109 
C 1197 172 1440 1130 1478 1290 
C 1510 1431 1549 1565 1581 1705 
C 1645 1941 1997 2689 2592 2689 
C 2886 2689 2886 2363 2886 2261 
C 2886 2133 2861 1993 2835 1878 
L 2413 192 
C 2394 121 2394 102 2394 89 
C 2394 19 2445 -64 2560 -64 
C 2707 -64 2771 51 2797 160 
L 3187 1731 
z
" transform="scale(0.015625)"/>
      <path id="CMTI12-70" d="M 563 -801 
C 512 -998 467 -1037 224 -1037 
C 154 -1037 90 -1037 90 -1158 
C 90 -1204 134 -1216 166 -1216 
C 333 -1216 518 -1216 691 -1216 
C 883 -1216 1088 -1216 1274 -1216 
C 1312 -1216 1389 -1216 1389 -1105 
C 1389 -1037 1350 -1037 1235 -1037 
C 1094 -1037 928 -1037 928 -942 
C 928 -885 934 -841 1235 319 
C 1299 160 1459 -64 1760 -64 
C 2458 -64 3194 920 3194 1846 
C 3194 2401 2899 2816 2458 2816 
C 2054 2816 1722 2408 1690 2363 
C 1632 2676 1402 2816 1184 2816 
C 1037 2816 870 2753 736 2478 
C 614 2242 531 1858 531 1846 
C 531 1795 563 1782 621 1782 
C 691 1782 698 1788 736 1935 
C 832 2312 954 2689 1171 2689 
C 1338 2689 1338 2504 1338 2428 
C 1338 2307 1312 2173 1286 2079 
L 563 -801 
z
M 1645 1967 
C 1696 2165 2086 2689 2438 2689 
C 2669 2689 2790 2452 2790 2114 
C 2790 1756 2573 958 2445 690 
C 2221 243 1958 64 1760 64 
C 1363 64 1325 664 1325 671 
C 1325 690 1331 709 1344 760 
L 1645 1967 
z
" transform="scale(0.015625)"/>
      <path id="CMTI12-5e" d="M 2778 4363 
C 2739 4427 2726 4440 2694 4440 
C 2662 4440 2643 4427 2611 4395 
L 1754 3641 
C 1715 3610 1690 3584 1690 3552 
C 1690 3520 1734 3456 1779 3456 
C 1792 3456 1805 3456 1862 3507 
L 2637 4127 
L 3085 3527 
C 3130 3469 3136 3456 3168 3456 
C 3200 3456 3277 3501 3277 3552 
C 3277 3565 3277 3578 3232 3648 
L 2778 4363 
z
" transform="scale(0.015625)"/>
      <path id="CMTI12-6c" d="M 1907 4275 
C 1914 4314 1926 4339 1926 4358 
C 1926 4416 1882 4416 1779 4416 
L 1139 4358 
C 1050 4352 992 4346 992 4232 
C 992 4168 1043 4168 1133 4168 
C 1453 4168 1453 4110 1453 4047 
C 1453 4022 1440 3958 1434 3932 
L 627 720 
C 614 663 595 593 595 497 
C 595 160 813 -64 1107 -64 
C 1325 -64 1453 83 1542 261 
C 1658 472 1747 886 1747 905 
C 1747 969 1696 969 1664 969 
C 1638 969 1594 969 1581 930 
C 1574 911 1549 815 1530 758 
C 1446 446 1338 64 1120 64 
C 979 64 947 198 947 318 
C 947 401 979 580 998 663 
L 1907 4275 
z
" transform="scale(0.015625)"/>
      <path id="CMTI12-76" d="M 3098 2408 
C 3098 2733 2970 2816 2854 2816 
C 2733 2816 2573 2695 2573 2548 
C 2573 2491 2586 2459 2643 2395 
C 2790 2222 2810 1986 2810 1884 
C 2810 1718 2515 64 1766 64 
C 1440 64 1350 345 1350 600 
C 1350 971 1568 1565 1715 1954 
C 1766 2108 1798 2191 1798 2318 
C 1798 2574 1645 2816 1331 2816 
C 749 2816 531 1878 531 1839 
C 531 1782 589 1782 621 1782 
C 698 1782 704 1801 730 1890 
C 781 2082 947 2689 1318 2689 
C 1395 2689 1466 2657 1466 2503 
C 1466 2344 1402 2178 1267 1807 
C 1011 1098 986 869 986 690 
C 986 38 1472 -64 1741 -64 
C 2803 -64 3098 2242 3098 2408 
z
" transform="scale(0.015625)"/>
     </defs>
     <use xlink:href="#CMTI12-49" transform="scale(0.996264)"/>
     <use xlink:href="#CMTI12-6d" transform="translate(37.544876 0) scale(0.996264)"/>
     <use xlink:href="#CMTI12-70" transform="translate(117.246772 0) scale(0.996264)"/>
     <use xlink:href="#CMTI12-5e" transform="translate(167.060444 0) scale(0.996264)"/>
     <use xlink:href="#CMTI12-6f" transform="translate(167.060444 0) scale(0.996264)"/>
     <use xlink:href="#CMTI12-74" transform="translate(216.874115 0) scale(0.996264)"/>
     <use xlink:href="#CMTI12-73" transform="translate(284.122605 0) scale(0.996264)"/>
     <use xlink:href="#CMTI12-75" transform="translate(323.973697 0) scale(0.996264)"/>
     <use xlink:href="#CMTI12-72" transform="translate(376.27809 0) scale(0.996264)"/>
     <use xlink:href="#CMTI12-6c" transform="translate(452.244042 0) scale(0.996264)"/>
     <use xlink:href="#CMTI12-65" transform="translate(477.150915 0) scale(0.996264)"/>
     <use xlink:href="#CMTI12-72" transform="translate(556.852811 0) scale(0.996264)"/>
     <use xlink:href="#CMTI12-65" transform="translate(592.967853 0) scale(0.996264)"/>
     <use xlink:href="#CMTI12-76" transform="translate(637.80019 0) scale(0.996264)"/>
     <use xlink:href="#CMTI12-65" transform="translate(682.632526 0) scale(0.996264)"/>
     <use xlink:href="#CMTI12-6e" transform="translate(727.464863 0) scale(0.996264)"/>
     <use xlink:href="#CMTI12-75" transform="translate(782.259961 0) scale(0.996264)"/>
    </g>
   </g>
  </g>
 </g>
 <defs>
  <clipPath id="p6586921e63">
   <rect x="106.385707" y="7.2" width="565.92" height="774.2196"/>
  </clipPath>
 </defs>
</svg>
