<?xml version="1.0" encoding="utf-8" standalone="no"?>
<!DOCTYPE svg PUBLIC "-//W3C//DTD SVG 1.1//EN"
  "http://www.w3.org/Graphics/SVG/1.1/DTD/svg11.dtd">
<svg xmlns:xlink="http://www.w3.org/1999/xlink" width="856.998281pt" height="353.526pt" viewBox="0 0 856.998281 353.526" xmlns="http://www.w3.org/2000/svg" version="1.1">
 <metadata>
  <rdf:RDF xmlns:dc="http://purl.org/dc/elements/1.1/" xmlns:cc="http://creativecommons.org/ns#" xmlns:rdf="http://www.w3.org/1999/02/22-rdf-syntax-ns#">
   <cc:Work>
    <dc:type rdf:resource="http://purl.org/dc/dcmitype/StillImage"/>
    <dc:date>2026-04-18T14:34:34.109987</dc:date>
    <dc:format>image/svg+xml</dc:format>
    <dc:creator>
     <cc:Agent>
      <dc:title>Matplotlib v3.10.8, https://matplotlib.org/</dc:title>
     </cc:Agent>
    </dc:creator>
   </cc:Work>
  </rdf:RDF>
 </metadata>
 <defs>
  <style type="text/css">*{stroke-linejoin: round; stroke-linecap: butt}</style>
 </defs>
 <g id="figure_1">
  <g id="patch_1">
   <path d="M 0 353.526 
L 856.998281 353.526 
L 856.998281 0 
L 0 0 
z
" style="fill: #ffffff"/>
  </g>
  <g id="axes_1">
   <g id="patch_2">
    <path d="M 78.780781 303.388187 
L 830.710781 303.388187 
L 830.710781 52.836187 
L 78.780781 52.836187 
z
" style="fill: #ffffff"/>
   </g>
   <g id="FillBetweenPolyCollection_1">
    <defs>
     <path id="md740e95970" d="M 78.780781 -102.45563 
L 78.780781 -50.137812 
L 89.522638 -50.137812 
L 100.264496 -50.137812 
L 111.006353 -50.137812 
L 121.74821 -50.137812 
L 132.490067 -50.137812 
L 143.231924 -50.137812 
L 153.973781 -50.137812 
L 164.715638 -50.137812 
L 175.457496 -50.137812 
L 186.199353 -50.137812 
L 196.94121 -50.137812 
L 207.683067 -50.137812 
L 218.424924 -50.137812 
L 229.166781 -50.137812 
L 239.908638 -50.137812 
L 250.650496 -50.137812 
L 261.392353 -50.137812 
L 272.13421 -50.137812 
L 282.876067 -50.137812 
L 293.617924 -50.137812 
L 304.359781 -50.137812 
L 315.101638 -50.137812 
L 325.843496 -50.137812 
L 336.585353 -50.137812 
L 347.32721 -50.137812 
L 358.069067 -50.137812 
L 368.810924 -50.137812 
L 379.552781 -50.137812 
L 390.294638 -50.137812 
L 401.036496 -50.137812 
L 411.778353 -50.137812 
L 422.52021 -50.137812 
L 433.262067 -50.137812 
L 444.003924 -50.137812 
L 454.745781 -50.137812 
L 465.487638 -50.137812 
L 476.229496 -50.137812 
L 486.971353 -50.137812 
L 497.71321 -50.137812 
L 508.455067 -50.137812 
L 519.196924 -50.137812 
L 529.938781 -50.137812 
L 540.680638 -50.137812 
L 551.422496 -50.137812 
L 562.164353 -50.137812 
L 572.90621 -50.137812 
L 583.648067 -50.137812 
L 594.389924 -50.137812 
L 605.131781 -50.137812 
L 615.873638 -50.137812 
L 626.615496 -50.137812 
L 637.357353 -50.137812 
L 648.09921 -50.137812 
L 658.841067 -50.137812 
L 669.582924 -50.137812 
L 680.324781 -50.137812 
L 691.066638 -50.137812 
L 701.808496 -50.137812 
L 712.550353 -50.137812 
L 723.29221 -50.137812 
L 734.034067 -50.137812 
L 744.775924 -50.137812 
L 755.517781 -50.137812 
L 766.259638 -50.137812 
L 777.001496 -50.137812 
L 787.743353 -50.137812 
L 798.48521 -50.137812 
L 809.227067 -50.137812 
L 819.968924 -50.137812 
L 830.710781 -50.137812 
L 830.710781 -284.745687 
L 830.710781 -284.745687 
L 819.968924 -282.874217 
L 809.227067 -286.365912 
L 798.48521 -288.758765 
L 787.743353 -287.503095 
L 777.001496 -285.405598 
L 766.259638 -282.107028 
L 755.517781 -276.679006 
L 744.775924 -275.093832 
L 734.034067 -274.217669 
L 723.29221 -273.90482 
L 712.550353 -273.838632 
L 701.808496 -273.718748 
L 691.066638 -273.696122 
L 680.324781 -273.568339 
L 669.582924 -273.671274 
L 658.841067 -272.90717 
L 648.09921 -272.739573 
L 637.357353 -272.219619 
L 626.615496 -269.154689 
L 615.873638 -257.184825 
L 605.131781 -258.429886 
L 594.389924 -253.07292 
L 583.648067 -248.997996 
L 572.90621 -244.112931 
L 562.164353 -238.799695 
L 551.422496 -238.614018 
L 540.680638 -236.503096 
L 529.938781 -237.912381 
L 519.196924 -235.108326 
L 508.455067 -228.80274 
L 497.71321 -228.412954 
L 486.971353 -217.507376 
L 476.229496 -214.750998 
L 465.487638 -209.185682 
L 454.745781 -205.572984 
L 444.003924 -204.782108 
L 433.262067 -193.945956 
L 422.52021 -190.902919 
L 411.778353 -190.512862 
L 401.036496 -189.291878 
L 390.294638 -188.409196 
L 379.552781 -171.815145 
L 368.810924 -171.116507 
L 358.069067 -167.790381 
L 347.32721 -160.909294 
L 336.585353 -159.581394 
L 325.843496 -147.478228 
L 315.101638 -147.900567 
L 304.359781 -146.786588 
L 293.617924 -144.441167 
L 282.876067 -143.377612 
L 272.13421 -143.030046 
L 261.392353 -137.267883 
L 250.650496 -134.162607 
L 239.908638 -130.539143 
L 229.166781 -128.979827 
L 218.424924 -129.493144 
L 207.683067 -129.192304 
L 196.94121 -114.967781 
L 186.199353 -107.183273 
L 175.457496 -112.231542 
L 164.715638 -101.922026 
L 153.973781 -100.567456 
L 143.231924 -105.433875 
L 132.490067 -104.394925 
L 121.74821 -105.865806 
L 111.006353 -105.841155 
L 100.264496 -106.910461 
L 89.522638 -106.400223 
L 78.780781 -102.45563 
z
" style="stroke: #000000; stroke-opacity: 0.15"/>
    </defs>
    <g clip-path="url(#pbde66b12c3)">
     <use xlink:href="#md740e95970" x="0" y="353.526" style="fill-opacity: 0.15; stroke: #000000; stroke-opacity: 0.15"/>
    </g>
   </g>
   <g id="matplotlib.axis_1">
    <g id="xtick_1">
     <g id="line2d_1">
      <path d="M 78.780781 303.388187 
L 78.780781 52.836187 
" clip-path="url(#pbde66b12c3)" style="fill: none; stroke: #b0b0b0; stroke-opacity: 0.3; stroke-width: 0.8; stroke-linecap: square"/>
     </g>
     <g id="line2d_2">
      <defs>
       <path id="m98bea8da2a" d="M 0 0 
L 0 3.5 
" style="stroke: #000000; stroke-width: 0.8"/>
      </defs>
      <g>
       <use xlink:href="#m98bea8da2a" x="78.780781" y="303.388187" style="stroke: #000000; stroke-width: 0.8"/>
      </g>
     </g>
     <g id="text_1">
      <!-- 1950 -->
      <g transform="translate(59.693281 321.785844) scale(0.15 -0.15)">
       <defs>
        <path id="DejaVuSans-31" d="M 794 531 
L 1825 531 
L 1825 4091 
L 703 3866 
L 703 4441 
L 1819 4666 
L 2450 4666 
L 2450 531 
L 3481 531 
L 3481 0 
L 794 0 
L 794 531 
z
" transform="scale(0.015625)"/>
        <path id="DejaVuSans-39" d="M 703 97 
L 703 672 
Q 941 559 1184 500 
Q 1428 441 1663 441 
Q 2288 441 2617 861 
Q 2947 1281 2994 2138 
Q 2813 1869 2534 1725 
Q 2256 1581 1919 1581 
Q 1219 1581 811 2004 
Q 403 2428 403 3163 
Q 403 3881 828 4315 
Q 1253 4750 1959 4750 
Q 2769 4750 3195 4129 
Q 3622 3509 3622 2328 
Q 3622 1225 3098 567 
Q 2575 -91 1691 -91 
Q 1453 -91 1209 -44 
Q 966 3 703 97 
z
M 1959 2075 
Q 2384 2075 2632 2365 
Q 2881 2656 2881 3163 
Q 2881 3666 2632 3958 
Q 2384 4250 1959 4250 
Q 1534 4250 1286 3958 
Q 1038 3666 1038 3163 
Q 1038 2656 1286 2365 
Q 1534 2075 1959 2075 
z
" transform="scale(0.015625)"/>
        <path id="DejaVuSans-35" d="M 691 4666 
L 3169 4666 
L 3169 4134 
L 1269 4134 
L 1269 2991 
Q 1406 3038 1543 3061 
Q 1681 3084 1819 3084 
Q 2600 3084 3056 2656 
Q 3513 2228 3513 1497 
Q 3513 744 3044 326 
Q 2575 -91 1722 -91 
Q 1428 -91 1123 -41 
Q 819 9 494 109 
L 494 744 
Q 775 591 1075 516 
Q 1375 441 1709 441 
Q 2250 441 2565 725 
Q 2881 1009 2881 1497 
Q 2881 1984 2565 2268 
Q 2250 2553 1709 2553 
Q 1456 2553 1204 2497 
Q 953 2441 691 2322 
L 691 4666 
z
" transform="scale(0.015625)"/>
        <path id="DejaVuSans-30" d="M 2034 4250 
Q 1547 4250 1301 3770 
Q 1056 3291 1056 2328 
Q 1056 1369 1301 889 
Q 1547 409 2034 409 
Q 2525 409 2770 889 
Q 3016 1369 3016 2328 
Q 3016 3291 2770 3770 
Q 2525 4250 2034 4250 
z
M 2034 4750 
Q 2819 4750 3233 4129 
Q 3647 3509 3647 2328 
Q 3647 1150 3233 529 
Q 2819 -91 2034 -91 
Q 1250 -91 836 529 
Q 422 1150 422 2328 
Q 422 3509 836 4129 
Q 1250 4750 2034 4750 
z
" transform="scale(0.015625)"/>
       </defs>
       <use xlink:href="#DejaVuSans-31"/>
       <use xlink:href="#DejaVuSans-39" transform="translate(63.623047 0)"/>
       <use xlink:href="#DejaVuSans-35" transform="translate(127.246094 0)"/>
       <use xlink:href="#DejaVuSans-30" transform="translate(190.869141 0)"/>
      </g>
     </g>
    </g>
    <g id="xtick_2">
     <g id="line2d_3">
      <path d="M 186.199353 303.388187 
L 186.199353 52.836187 
" clip-path="url(#pbde66b12c3)" style="fill: none; stroke: #b0b0b0; stroke-opacity: 0.3; stroke-width: 0.8; stroke-linecap: square"/>
     </g>
     <g id="line2d_4">
      <g>
       <use xlink:href="#m98bea8da2a" x="186.199353" y="303.388187" style="stroke: #000000; stroke-width: 0.8"/>
      </g>
     </g>
     <g id="text_2">
      <!-- 1960 -->
      <g transform="translate(167.111853 321.785844) scale(0.15 -0.15)">
       <defs>
        <path id="DejaVuSans-36" d="M 2113 2584 
Q 1688 2584 1439 2293 
Q 1191 2003 1191 1497 
Q 1191 994 1439 701 
Q 1688 409 2113 409 
Q 2538 409 2786 701 
Q 3034 994 3034 1497 
Q 3034 2003 2786 2293 
Q 2538 2584 2113 2584 
z
M 3366 4563 
L 3366 3988 
Q 3128 4100 2886 4159 
Q 2644 4219 2406 4219 
Q 1781 4219 1451 3797 
Q 1122 3375 1075 2522 
Q 1259 2794 1537 2939 
Q 1816 3084 2150 3084 
Q 2853 3084 3261 2657 
Q 3669 2231 3669 1497 
Q 3669 778 3244 343 
Q 2819 -91 2113 -91 
Q 1303 -91 875 529 
Q 447 1150 447 2328 
Q 447 3434 972 4092 
Q 1497 4750 2381 4750 
Q 2619 4750 2861 4703 
Q 3103 4656 3366 4563 
z
" transform="scale(0.015625)"/>
       </defs>
       <use xlink:href="#DejaVuSans-31"/>
       <use xlink:href="#DejaVuSans-39" transform="translate(63.623047 0)"/>
       <use xlink:href="#DejaVuSans-36" transform="translate(127.246094 0)"/>
       <use xlink:href="#DejaVuSans-30" transform="translate(190.869141 0)"/>
      </g>
     </g>
    </g>
    <g id="xtick_3">
     <g id="line2d_5">
      <path d="M 293.617924 303.388187 
L 293.617924 52.836187 
" clip-path="url(#pbde66b12c3)" style="fill: none; stroke: #b0b0b0; stroke-opacity: 0.3; stroke-width: 0.8; stroke-linecap: square"/>
     </g>
     <g id="line2d_6">
      <g>
       <use xlink:href="#m98bea8da2a" x="293.617924" y="303.388187" style="stroke: #000000; stroke-width: 0.8"/>
      </g>
     </g>
     <g id="text_3">
      <!-- 1970 -->
      <g transform="translate(274.530424 321.785844) scale(0.15 -0.15)">
       <defs>
        <path id="DejaVuSans-37" d="M 525 4666 
L 3525 4666 
L 3525 4397 
L 1831 0 
L 1172 0 
L 2766 4134 
L 525 4134 
L 525 4666 
z
" transform="scale(0.015625)"/>
       </defs>
       <use xlink:href="#DejaVuSans-31"/>
       <use xlink:href="#DejaVuSans-39" transform="translate(63.623047 0)"/>
       <use xlink:href="#DejaVuSans-37" transform="translate(127.246094 0)"/>
       <use xlink:href="#DejaVuSans-30" transform="translate(190.869141 0)"/>
      </g>
     </g>
    </g>
    <g id="xtick_4">
     <g id="line2d_7">
      <path d="M 401.036496 303.388187 
L 401.036496 52.836187 
" clip-path="url(#pbde66b12c3)" style="fill: none; stroke: #b0b0b0; stroke-opacity: 0.3; stroke-width: 0.8; stroke-linecap: square"/>
     </g>
     <g id="line2d_8">
      <g>
       <use xlink:href="#m98bea8da2a" x="401.036496" y="303.388187" style="stroke: #000000; stroke-width: 0.8"/>
      </g>
     </g>
     <g id="text_4">
      <!-- 1980 -->
      <g transform="translate(381.948996 321.785844) scale(0.15 -0.15)">
       <defs>
        <path id="DejaVuSans-38" d="M 2034 2216 
Q 1584 2216 1326 1975 
Q 1069 1734 1069 1313 
Q 1069 891 1326 650 
Q 1584 409 2034 409 
Q 2484 409 2743 651 
Q 3003 894 3003 1313 
Q 3003 1734 2745 1975 
Q 2488 2216 2034 2216 
z
M 1403 2484 
Q 997 2584 770 2862 
Q 544 3141 544 3541 
Q 544 4100 942 4425 
Q 1341 4750 2034 4750 
Q 2731 4750 3128 4425 
Q 3525 4100 3525 3541 
Q 3525 3141 3298 2862 
Q 3072 2584 2669 2484 
Q 3125 2378 3379 2068 
Q 3634 1759 3634 1313 
Q 3634 634 3220 271 
Q 2806 -91 2034 -91 
Q 1263 -91 848 271 
Q 434 634 434 1313 
Q 434 1759 690 2068 
Q 947 2378 1403 2484 
z
M 1172 3481 
Q 1172 3119 1398 2916 
Q 1625 2713 2034 2713 
Q 2441 2713 2670 2916 
Q 2900 3119 2900 3481 
Q 2900 3844 2670 4047 
Q 2441 4250 2034 4250 
Q 1625 4250 1398 4047 
Q 1172 3844 1172 3481 
z
" transform="scale(0.015625)"/>
       </defs>
       <use xlink:href="#DejaVuSans-31"/>
       <use xlink:href="#DejaVuSans-39" transform="translate(63.623047 0)"/>
       <use xlink:href="#DejaVuSans-38" transform="translate(127.246094 0)"/>
       <use xlink:href="#DejaVuSans-30" transform="translate(190.869141 0)"/>
      </g>
     </g>
    </g>
    <g id="xtick_5">
     <g id="line2d_9">
      <path d="M 508.455067 303.388187 
L 508.455067 52.836187 
" clip-path="url(#pbde66b12c3)" style="fill: none; stroke: #b0b0b0; stroke-opacity: 0.3; stroke-width: 0.8; stroke-linecap: square"/>
     </g>
     <g id="line2d_10">
      <g>
       <use xlink:href="#m98bea8da2a" x="508.455067" y="303.388187" style="stroke: #000000; stroke-width: 0.8"/>
      </g>
     </g>
     <g id="text_5">
      <!-- 1990 -->
      <g transform="translate(489.367567 321.785844) scale(0.15 -0.15)">
       <use xlink:href="#DejaVuSans-31"/>
       <use xlink:href="#DejaVuSans-39" transform="translate(63.623047 0)"/>
       <use xlink:href="#DejaVuSans-39" transform="translate(127.246094 0)"/>
       <use xlink:href="#DejaVuSans-30" transform="translate(190.869141 0)"/>
      </g>
     </g>
    </g>
    <g id="xtick_6">
     <g id="line2d_11">
      <path d="M 615.873638 303.388187 
L 615.873638 52.836187 
" clip-path="url(#pbde66b12c3)" style="fill: none; stroke: #b0b0b0; stroke-opacity: 0.3; stroke-width: 0.8; stroke-linecap: square"/>
     </g>
     <g id="line2d_12">
      <g>
       <use xlink:href="#m98bea8da2a" x="615.873638" y="303.388187" style="stroke: #000000; stroke-width: 0.8"/>
      </g>
     </g>
     <g id="text_6">
      <!-- 2000 -->
      <g transform="translate(596.786138 321.785844) scale(0.15 -0.15)">
       <defs>
        <path id="DejaVuSans-32" d="M 1228 531 
L 3431 531 
L 3431 0 
L 469 0 
L 469 531 
Q 828 903 1448 1529 
Q 2069 2156 2228 2338 
Q 2531 2678 2651 2914 
Q 2772 3150 2772 3378 
Q 2772 3750 2511 3984 
Q 2250 4219 1831 4219 
Q 1534 4219 1204 4116 
Q 875 4013 500 3803 
L 500 4441 
Q 881 4594 1212 4672 
Q 1544 4750 1819 4750 
Q 2544 4750 2975 4387 
Q 3406 4025 3406 3419 
Q 3406 3131 3298 2873 
Q 3191 2616 2906 2266 
Q 2828 2175 2409 1742 
Q 1991 1309 1228 531 
z
" transform="scale(0.015625)"/>
       </defs>
       <use xlink:href="#DejaVuSans-32"/>
       <use xlink:href="#DejaVuSans-30" transform="translate(63.623047 0)"/>
       <use xlink:href="#DejaVuSans-30" transform="translate(127.246094 0)"/>
       <use xlink:href="#DejaVuSans-30" transform="translate(190.869141 0)"/>
      </g>
     </g>
    </g>
    <g id="xtick_7">
     <g id="line2d_13">
      <path d="M 723.29221 303.388187 
L 723.29221 52.836187 
" clip-path="url(#pbde66b12c3)" style="fill: none; stroke: #b0b0b0; stroke-opacity: 0.3; stroke-width: 0.8; stroke-linecap: square"/>
     </g>
     <g id="line2d_14">
      <g>
       <use xlink:href="#m98bea8da2a" x="723.29221" y="303.388187" style="stroke: #000000; stroke-width: 0.8"/>
      </g>
     </g>
     <g id="text_7">
      <!-- 2010 -->
      <g transform="translate(704.20471 321.785844) scale(0.15 -0.15)">
       <use xlink:href="#DejaVuSans-32"/>
       <use xlink:href="#DejaVuSans-30" transform="translate(63.623047 0)"/>
       <use xlink:href="#DejaVuSans-31" transform="translate(127.246094 0)"/>
       <use xlink:href="#DejaVuSans-30" transform="translate(190.869141 0)"/>
      </g>
     </g>
    </g>
    <g id="xtick_8">
     <g id="line2d_15">
      <path d="M 830.710781 303.388187 
L 830.710781 52.836187 
" clip-path="url(#pbde66b12c3)" style="fill: none; stroke: #b0b0b0; stroke-opacity: 0.3; stroke-width: 0.8; stroke-linecap: square"/>
     </g>
     <g id="line2d_16">
      <g>
       <use xlink:href="#m98bea8da2a" x="830.710781" y="303.388187" style="stroke: #000000; stroke-width: 0.8"/>
      </g>
     </g>
     <g id="text_8">
      <!-- 2020 -->
      <g transform="translate(811.623281 321.785844) scale(0.15 -0.15)">
       <use xlink:href="#DejaVuSans-32"/>
       <use xlink:href="#DejaVuSans-30" transform="translate(63.623047 0)"/>
       <use xlink:href="#DejaVuSans-32" transform="translate(127.246094 0)"/>
       <use xlink:href="#DejaVuSans-30" transform="translate(190.869141 0)"/>
      </g>
     </g>
    </g>
    <g id="text_9">
     <!-- Année -->
     <g transform="translate(426.106094 342.582562) scale(0.18 -0.18)">
      <defs>
       <path id="DejaVuSans-41" d="M 2188 4044 
L 1331 1722 
L 3047 1722 
L 2188 4044 
z
M 1831 4666 
L 2547 4666 
L 4325 0 
L 3669 0 
L 3244 1197 
L 1141 1197 
L 716 0 
L 50 0 
L 1831 4666 
z
" transform="scale(0.015625)"/>
       <path id="DejaVuSans-6e" d="M 3513 2113 
L 3513 0 
L 2938 0 
L 2938 2094 
Q 2938 2591 2744 2837 
Q 2550 3084 2163 3084 
Q 1697 3084 1428 2787 
Q 1159 2491 1159 1978 
L 1159 0 
L 581 0 
L 581 3500 
L 1159 3500 
L 1159 2956 
Q 1366 3272 1645 3428 
Q 1925 3584 2291 3584 
Q 2894 3584 3203 3211 
Q 3513 2838 3513 2113 
z
" transform="scale(0.015625)"/>
       <path id="DejaVuSans-e9" d="M 3597 1894 
L 3597 1613 
L 953 1613 
Q 991 1019 1311 708 
Q 1631 397 2203 397 
Q 2534 397 2845 478 
Q 3156 559 3463 722 
L 3463 178 
Q 3153 47 2828 -22 
Q 2503 -91 2169 -91 
Q 1331 -91 842 396 
Q 353 884 353 1716 
Q 353 2575 817 3079 
Q 1281 3584 2069 3584 
Q 2775 3584 3186 3129 
Q 3597 2675 3597 1894 
z
M 3022 2063 
Q 3016 2534 2758 2815 
Q 2500 3097 2075 3097 
Q 1594 3097 1305 2825 
Q 1016 2553 972 2059 
L 3022 2063 
z
M 2466 5119 
L 3088 5119 
L 2070 3944 
L 1591 3944 
L 2466 5119 
z
" transform="scale(0.015625)"/>
       <path id="DejaVuSans-65" d="M 3597 1894 
L 3597 1613 
L 953 1613 
Q 991 1019 1311 708 
Q 1631 397 2203 397 
Q 2534 397 2845 478 
Q 3156 559 3463 722 
L 3463 178 
Q 3153 47 2828 -22 
Q 2503 -91 2169 -91 
Q 1331 -91 842 396 
Q 353 884 353 1716 
Q 353 2575 817 3079 
Q 1281 3584 2069 3584 
Q 2775 3584 3186 3129 
Q 3597 2675 3597 1894 
z
M 3022 2063 
Q 3016 2534 2758 2815 
Q 2500 3097 2075 3097 
Q 1594 3097 1305 2825 
Q 1016 2553 972 2059 
L 3022 2063 
z
" transform="scale(0.015625)"/>
      </defs>
      <use xlink:href="#DejaVuSans-41"/>
      <use xlink:href="#DejaVuSans-6e" transform="translate(68.408203 0)"/>
      <use xlink:href="#DejaVuSans-6e" transform="translate(131.787109 0)"/>
      <use xlink:href="#DejaVuSans-e9" transform="translate(195.166016 0)"/>
      <use xlink:href="#DejaVuSans-65" transform="translate(256.689453 0)"/>
     </g>
    </g>
   </g>
   <g id="matplotlib.axis_2">
    <g id="ytick_1">
     <g id="line2d_17">
      <path d="M 78.780781 303.388187 
L 830.710781 303.388187 
" clip-path="url(#pbde66b12c3)" style="fill: none; stroke: #b0b0b0; stroke-opacity: 0.3; stroke-width: 0.8; stroke-linecap: square"/>
     </g>
     <g id="line2d_18">
      <defs>
       <path id="m8769aaa2b1" d="M 0 0 
L -3.5 0 
" style="stroke: #000000; stroke-width: 0.8"/>
      </defs>
      <g>
       <use xlink:href="#m8769aaa2b1" x="78.780781" y="303.388187" style="stroke: #000000; stroke-width: 0.8"/>
      </g>
     </g>
     <g id="text_10">
      <!-- 0 \% -->
      <g transform="translate(38.164375 309.087016) scale(0.15 -0.15)">
       <defs>
        <path id="DejaVuSans-a0" transform="scale(0.015625)"/>
        <path id="DejaVuSans-5c" d="M 531 4666 
L 2156 -594 
L 1625 -594 
L 0 4666 
L 531 4666 
z
" transform="scale(0.015625)"/>
        <path id="DejaVuSans-25" d="M 4653 2053 
Q 4381 2053 4226 1822 
Q 4072 1591 4072 1178 
Q 4072 772 4226 539 
Q 4381 306 4653 306 
Q 4919 306 5073 539 
Q 5228 772 5228 1178 
Q 5228 1588 5073 1820 
Q 4919 2053 4653 2053 
z
M 4653 2450 
Q 5147 2450 5437 2106 
Q 5728 1763 5728 1178 
Q 5728 594 5436 251 
Q 5144 -91 4653 -91 
Q 4153 -91 3862 251 
Q 3572 594 3572 1178 
Q 3572 1766 3864 2108 
Q 4156 2450 4653 2450 
z
M 1428 4353 
Q 1159 4353 1004 4120 
Q 850 3888 850 3481 
Q 850 3069 1003 2837 
Q 1156 2606 1428 2606 
Q 1700 2606 1854 2837 
Q 2009 3069 2009 3481 
Q 2009 3884 1853 4118 
Q 1697 4353 1428 4353 
z
M 4250 4750 
L 4750 4750 
L 1831 -91 
L 1331 -91 
L 4250 4750 
z
M 1428 4750 
Q 1922 4750 2215 4408 
Q 2509 4066 2509 3481 
Q 2509 2891 2217 2550 
Q 1925 2209 1428 2209 
Q 931 2209 642 2551 
Q 353 2894 353 3481 
Q 353 4063 643 4406 
Q 934 4750 1428 4750 
z
" transform="scale(0.015625)"/>
       </defs>
       <use xlink:href="#DejaVuSans-30"/>
       <use xlink:href="#DejaVuSans-a0" transform="translate(63.623047 0)"/>
       <use xlink:href="#DejaVuSans-5c" transform="translate(95.410156 0)"/>
       <use xlink:href="#DejaVuSans-25" transform="translate(129.101562 0)"/>
      </g>
     </g>
    </g>
    <g id="ytick_2">
     <g id="line2d_19">
      <path d="M 78.780781 241.048067 
L 830.710781 241.048067 
" clip-path="url(#pbde66b12c3)" style="fill: none; stroke: #b0b0b0; stroke-opacity: 0.3; stroke-width: 0.8; stroke-linecap: square"/>
     </g>
     <g id="line2d_20">
      <g>
       <use xlink:href="#m8769aaa2b1" x="78.780781" y="241.048067" style="stroke: #000000; stroke-width: 0.8"/>
      </g>
     </g>
     <g id="text_11">
      <!-- 10 \% -->
      <g transform="translate(28.620625 246.746895) scale(0.15 -0.15)">
       <use xlink:href="#DejaVuSans-31"/>
       <use xlink:href="#DejaVuSans-30" transform="translate(63.623047 0)"/>
       <use xlink:href="#DejaVuSans-a0" transform="translate(127.246094 0)"/>
       <use xlink:href="#DejaVuSans-5c" transform="translate(159.033203 0)"/>
       <use xlink:href="#DejaVuSans-25" transform="translate(192.724609 0)"/>
      </g>
     </g>
    </g>
    <g id="ytick_3">
     <g id="line2d_21">
      <path d="M 78.780781 178.707946 
L 830.710781 178.707946 
" clip-path="url(#pbde66b12c3)" style="fill: none; stroke: #b0b0b0; stroke-opacity: 0.3; stroke-width: 0.8; stroke-linecap: square"/>
     </g>
     <g id="line2d_22">
      <g>
       <use xlink:href="#m8769aaa2b1" x="78.780781" y="178.707946" style="stroke: #000000; stroke-width: 0.8"/>
      </g>
     </g>
     <g id="text_12">
      <!-- 20 \% -->
      <g transform="translate(28.620625 184.406774) scale(0.15 -0.15)">
       <use xlink:href="#DejaVuSans-32"/>
       <use xlink:href="#DejaVuSans-30" transform="translate(63.623047 0)"/>
       <use xlink:href="#DejaVuSans-a0" transform="translate(127.246094 0)"/>
       <use xlink:href="#DejaVuSans-5c" transform="translate(159.033203 0)"/>
       <use xlink:href="#DejaVuSans-25" transform="translate(192.724609 0)"/>
      </g>
     </g>
    </g>
    <g id="ytick_4">
     <g id="line2d_23">
      <path d="M 78.780781 116.367826 
L 830.710781 116.367826 
" clip-path="url(#pbde66b12c3)" style="fill: none; stroke: #b0b0b0; stroke-opacity: 0.3; stroke-width: 0.8; stroke-linecap: square"/>
     </g>
     <g id="line2d_24">
      <g>
       <use xlink:href="#m8769aaa2b1" x="78.780781" y="116.367826" style="stroke: #000000; stroke-width: 0.8"/>
      </g>
     </g>
     <g id="text_13">
      <!-- 30 \% -->
      <g transform="translate(28.620625 122.066654) scale(0.15 -0.15)">
       <defs>
        <path id="DejaVuSans-33" d="M 2597 2516 
Q 3050 2419 3304 2112 
Q 3559 1806 3559 1356 
Q 3559 666 3084 287 
Q 2609 -91 1734 -91 
Q 1441 -91 1130 -33 
Q 819 25 488 141 
L 488 750 
Q 750 597 1062 519 
Q 1375 441 1716 441 
Q 2309 441 2620 675 
Q 2931 909 2931 1356 
Q 2931 1769 2642 2001 
Q 2353 2234 1838 2234 
L 1294 2234 
L 1294 2753 
L 1863 2753 
Q 2328 2753 2575 2939 
Q 2822 3125 2822 3475 
Q 2822 3834 2567 4026 
Q 2313 4219 1838 4219 
Q 1578 4219 1281 4162 
Q 984 4106 628 3988 
L 628 4550 
Q 988 4650 1302 4700 
Q 1616 4750 1894 4750 
Q 2613 4750 3031 4423 
Q 3450 4097 3450 3541 
Q 3450 3153 3228 2886 
Q 3006 2619 2597 2516 
z
" transform="scale(0.015625)"/>
       </defs>
       <use xlink:href="#DejaVuSans-33"/>
       <use xlink:href="#DejaVuSans-30" transform="translate(63.623047 0)"/>
       <use xlink:href="#DejaVuSans-a0" transform="translate(127.246094 0)"/>
       <use xlink:href="#DejaVuSans-5c" transform="translate(159.033203 0)"/>
       <use xlink:href="#DejaVuSans-25" transform="translate(192.724609 0)"/>
      </g>
     </g>
    </g>
    <g id="ytick_5">
     <g id="line2d_25">
      <path d="M 78.780781 54.027705 
L 830.710781 54.027705 
" clip-path="url(#pbde66b12c3)" style="fill: none; stroke: #b0b0b0; stroke-opacity: 0.3; stroke-width: 0.8; stroke-linecap: square"/>
     </g>
     <g id="line2d_26">
      <g>
       <use xlink:href="#m8769aaa2b1" x="78.780781" y="54.027705" style="stroke: #000000; stroke-width: 0.8"/>
      </g>
     </g>
     <g id="text_14">
      <!-- 40 \% -->
      <g transform="translate(28.620625 59.726533) scale(0.15 -0.15)">
       <defs>
        <path id="DejaVuSans-34" d="M 2419 4116 
L 825 1625 
L 2419 1625 
L 2419 4116 
z
M 2253 4666 
L 3047 4666 
L 3047 1625 
L 3713 1625 
L 3713 1100 
L 3047 1100 
L 3047 0 
L 2419 0 
L 2419 1100 
L 313 1100 
L 313 1709 
L 2253 4666 
z
" transform="scale(0.015625)"/>
       </defs>
       <use xlink:href="#DejaVuSans-34"/>
       <use xlink:href="#DejaVuSans-30" transform="translate(63.623047 0)"/>
       <use xlink:href="#DejaVuSans-a0" transform="translate(127.246094 0)"/>
       <use xlink:href="#DejaVuSans-5c" transform="translate(159.033203 0)"/>
       <use xlink:href="#DejaVuSans-25" transform="translate(192.724609 0)"/>
      </g>
     </g>
    </g>
    <g id="text_15">
     <!-- \% du revenu net d'imp\^{o}t -->
     <g transform="translate(20.877187 314.860156) rotate(-90) scale(0.18 -0.18)">
      <defs>
       <path id="DejaVuSans-20" transform="scale(0.015625)"/>
       <path id="DejaVuSans-64" d="M 2906 2969 
L 2906 4863 
L 3481 4863 
L 3481 0 
L 2906 0 
L 2906 525 
Q 2725 213 2448 61 
Q 2172 -91 1784 -91 
Q 1150 -91 751 415 
Q 353 922 353 1747 
Q 353 2572 751 3078 
Q 1150 3584 1784 3584 
Q 2172 3584 2448 3432 
Q 2725 3281 2906 2969 
z
M 947 1747 
Q 947 1113 1208 752 
Q 1469 391 1925 391 
Q 2381 391 2643 752 
Q 2906 1113 2906 1747 
Q 2906 2381 2643 2742 
Q 2381 3103 1925 3103 
Q 1469 3103 1208 2742 
Q 947 2381 947 1747 
z
" transform="scale(0.015625)"/>
       <path id="DejaVuSans-75" d="M 544 1381 
L 544 3500 
L 1119 3500 
L 1119 1403 
Q 1119 906 1312 657 
Q 1506 409 1894 409 
Q 2359 409 2629 706 
Q 2900 1003 2900 1516 
L 2900 3500 
L 3475 3500 
L 3475 0 
L 2900 0 
L 2900 538 
Q 2691 219 2414 64 
Q 2138 -91 1772 -91 
Q 1169 -91 856 284 
Q 544 659 544 1381 
z
M 1991 3584 
L 1991 3584 
z
" transform="scale(0.015625)"/>
       <path id="DejaVuSans-72" d="M 2631 2963 
Q 2534 3019 2420 3045 
Q 2306 3072 2169 3072 
Q 1681 3072 1420 2755 
Q 1159 2438 1159 1844 
L 1159 0 
L 581 0 
L 581 3500 
L 1159 3500 
L 1159 2956 
Q 1341 3275 1631 3429 
Q 1922 3584 2338 3584 
Q 2397 3584 2469 3576 
Q 2541 3569 2628 3553 
L 2631 2963 
z
" transform="scale(0.015625)"/>
       <path id="DejaVuSans-76" d="M 191 3500 
L 800 3500 
L 1894 563 
L 2988 3500 
L 3597 3500 
L 2284 0 
L 1503 0 
L 191 3500 
z
" transform="scale(0.015625)"/>
       <path id="DejaVuSans-74" d="M 1172 4494 
L 1172 3500 
L 2356 3500 
L 2356 3053 
L 1172 3053 
L 1172 1153 
Q 1172 725 1289 603 
Q 1406 481 1766 481 
L 2356 481 
L 2356 0 
L 1766 0 
Q 1100 0 847 248 
Q 594 497 594 1153 
L 594 3053 
L 172 3053 
L 172 3500 
L 594 3500 
L 594 4494 
L 1172 4494 
z
" transform="scale(0.015625)"/>
       <path id="DejaVuSans-27" d="M 1147 4666 
L 1147 2931 
L 616 2931 
L 616 4666 
L 1147 4666 
z
" transform="scale(0.015625)"/>
       <path id="DejaVuSans-69" d="M 603 3500 
L 1178 3500 
L 1178 0 
L 603 0 
L 603 3500 
z
M 603 4863 
L 1178 4863 
L 1178 4134 
L 603 4134 
L 603 4863 
z
" transform="scale(0.015625)"/>
       <path id="DejaVuSans-6d" d="M 3328 2828 
Q 3544 3216 3844 3400 
Q 4144 3584 4550 3584 
Q 5097 3584 5394 3201 
Q 5691 2819 5691 2113 
L 5691 0 
L 5113 0 
L 5113 2094 
Q 5113 2597 4934 2840 
Q 4756 3084 4391 3084 
Q 3944 3084 3684 2787 
Q 3425 2491 3425 1978 
L 3425 0 
L 2847 0 
L 2847 2094 
Q 2847 2600 2669 2842 
Q 2491 3084 2119 3084 
Q 1678 3084 1418 2786 
Q 1159 2488 1159 1978 
L 1159 0 
L 581 0 
L 581 3500 
L 1159 3500 
L 1159 2956 
Q 1356 3278 1631 3431 
Q 1906 3584 2284 3584 
Q 2666 3584 2933 3390 
Q 3200 3197 3328 2828 
z
" transform="scale(0.015625)"/>
       <path id="DejaVuSans-70" d="M 1159 525 
L 1159 -1331 
L 581 -1331 
L 581 3500 
L 1159 3500 
L 1159 2969 
Q 1341 3281 1617 3432 
Q 1894 3584 2278 3584 
Q 2916 3584 3314 3078 
Q 3713 2572 3713 1747 
Q 3713 922 3314 415 
Q 2916 -91 2278 -91 
Q 1894 -91 1617 61 
Q 1341 213 1159 525 
z
M 3116 1747 
Q 3116 2381 2855 2742 
Q 2594 3103 2138 3103 
Q 1681 3103 1420 2742 
Q 1159 2381 1159 1747 
Q 1159 1113 1420 752 
Q 1681 391 2138 391 
Q 2594 391 2855 752 
Q 3116 1113 3116 1747 
z
" transform="scale(0.015625)"/>
       <path id="DejaVuSans-5e" d="M 2988 4666 
L 4684 2925 
L 4056 2925 
L 2681 4159 
L 1306 2925 
L 678 2925 
L 2375 4666 
L 2988 4666 
z
" transform="scale(0.015625)"/>
       <path id="DejaVuSans-7b" d="M 3272 -594 
L 3272 -1044 
L 3078 -1044 
Q 2300 -1044 2036 -812 
Q 1772 -581 1772 109 
L 1772 856 
Q 1772 1328 1603 1509 
Q 1434 1691 991 1691 
L 800 1691 
L 800 2138 
L 991 2138 
Q 1438 2138 1605 2317 
Q 1772 2497 1772 2963 
L 1772 3713 
Q 1772 4403 2036 4633 
Q 2300 4863 3078 4863 
L 3272 4863 
L 3272 4416 
L 3059 4416 
Q 2619 4416 2484 4278 
Q 2350 4141 2350 3700 
L 2350 2925 
Q 2350 2434 2208 2212 
Q 2066 1991 1722 1913 
Q 2069 1828 2209 1606 
Q 2350 1384 2350 897 
L 2350 122 
Q 2350 -319 2484 -456 
Q 2619 -594 3059 -594 
L 3272 -594 
z
" transform="scale(0.015625)"/>
       <path id="DejaVuSans-6f" d="M 1959 3097 
Q 1497 3097 1228 2736 
Q 959 2375 959 1747 
Q 959 1119 1226 758 
Q 1494 397 1959 397 
Q 2419 397 2687 759 
Q 2956 1122 2956 1747 
Q 2956 2369 2687 2733 
Q 2419 3097 1959 3097 
z
M 1959 3584 
Q 2709 3584 3137 3096 
Q 3566 2609 3566 1747 
Q 3566 888 3137 398 
Q 2709 -91 1959 -91 
Q 1206 -91 779 398 
Q 353 888 353 1747 
Q 353 2609 779 3096 
Q 1206 3584 1959 3584 
z
" transform="scale(0.015625)"/>
       <path id="DejaVuSans-7d" d="M 800 -594 
L 1019 -594 
Q 1456 -594 1589 -459 
Q 1722 -325 1722 122 
L 1722 897 
Q 1722 1384 1862 1606 
Q 2003 1828 2350 1913 
Q 2003 1991 1862 2212 
Q 1722 2434 1722 2925 
L 1722 3700 
Q 1722 4144 1589 4280 
Q 1456 4416 1019 4416 
L 800 4416 
L 800 4863 
L 997 4863 
Q 1775 4863 2036 4633 
Q 2297 4403 2297 3713 
L 2297 2963 
Q 2297 2497 2465 2317 
Q 2634 2138 3078 2138 
L 3272 2138 
L 3272 1691 
L 3078 1691 
Q 2634 1691 2465 1509 
Q 2297 1328 2297 856 
L 2297 109 
Q 2297 -581 2036 -812 
Q 1775 -1044 997 -1044 
L 800 -1044 
L 800 -594 
z
" transform="scale(0.015625)"/>
      </defs>
      <use xlink:href="#DejaVuSans-5c"/>
      <use xlink:href="#DejaVuSans-25" transform="translate(33.691406 0)"/>
      <use xlink:href="#DejaVuSans-20" transform="translate(128.710938 0)"/>
      <use xlink:href="#DejaVuSans-64" transform="translate(160.498047 0)"/>
      <use xlink:href="#DejaVuSans-75" transform="translate(223.974609 0)"/>
      <use xlink:href="#DejaVuSans-20" transform="translate(287.353516 0)"/>
      <use xlink:href="#DejaVuSans-72" transform="translate(319.140625 0)"/>
      <use xlink:href="#DejaVuSans-65" transform="translate(358.003906 0)"/>
      <use xlink:href="#DejaVuSans-76" transform="translate(419.527344 0)"/>
      <use xlink:href="#DejaVuSans-65" transform="translate(478.707031 0)"/>
      <use xlink:href="#DejaVuSans-6e" transform="translate(540.230469 0)"/>
      <use xlink:href="#DejaVuSans-75" transform="translate(603.609375 0)"/>
      <use xlink:href="#DejaVuSans-20" transform="translate(666.988281 0)"/>
      <use xlink:href="#DejaVuSans-6e" transform="translate(698.775391 0)"/>
      <use xlink:href="#DejaVuSans-65" transform="translate(762.154297 0)"/>
      <use xlink:href="#DejaVuSans-74" transform="translate(823.677734 0)"/>
      <use xlink:href="#DejaVuSans-20" transform="translate(862.886719 0)"/>
      <use xlink:href="#DejaVuSans-64" transform="translate(894.673828 0)"/>
      <use xlink:href="#DejaVuSans-27" transform="translate(958.150391 0)"/>
      <use xlink:href="#DejaVuSans-69" transform="translate(985.640625 0)"/>
      <use xlink:href="#DejaVuSans-6d" transform="translate(1013.423828 0)"/>
      <use xlink:href="#DejaVuSans-70" transform="translate(1110.835938 0)"/>
      <use xlink:href="#DejaVuSans-5c" transform="translate(1174.3125 0)"/>
      <use xlink:href="#DejaVuSans-5e" transform="translate(1208.003906 0)"/>
      <use xlink:href="#DejaVuSans-7b" transform="translate(1291.792969 0)"/>
      <use xlink:href="#DejaVuSans-6f" transform="translate(1355.416016 0)"/>
      <use xlink:href="#DejaVuSans-7d" transform="translate(1416.597656 0)"/>
      <use xlink:href="#DejaVuSans-74" transform="translate(1480.220703 0)"/>
     </g>
    </g>
   </g>
   <g id="line2d_27">
    <path d="M 78.780781 251.07037 
L 89.522638 247.125777 
L 100.264496 246.615539 
L 111.006353 247.684845 
L 121.74821 247.660194 
L 132.490067 249.131075 
L 143.231924 248.092125 
L 153.973781 252.958544 
L 164.715638 251.603974 
L 175.457496 241.294458 
L 186.199353 246.342727 
L 196.94121 238.558219 
L 207.683067 224.333696 
L 218.424924 224.032856 
L 229.166781 224.546173 
L 239.908638 222.986857 
L 250.650496 219.363393 
L 261.392353 216.258117 
L 272.13421 210.495954 
L 282.876067 210.148388 
L 293.617924 209.084833 
L 304.359781 206.739412 
L 315.101638 205.625433 
L 325.843496 206.047772 
L 336.585353 193.944606 
L 347.32721 192.616706 
L 358.069067 185.735619 
L 368.810924 182.409493 
L 379.552781 181.710855 
L 390.294638 165.116804 
L 401.036496 164.234122 
L 411.778353 163.013138 
L 422.52021 162.623081 
L 433.262067 159.580044 
L 444.003924 148.743892 
L 454.745781 147.953016 
L 465.487638 144.340318 
L 476.229496 138.775002 
L 486.971353 136.018624 
L 497.71321 125.113046 
L 508.455067 124.72326 
L 519.196924 118.417674 
L 529.938781 115.613619 
L 540.680638 117.022904 
L 551.422496 114.911982 
L 562.164353 114.726305 
L 572.90621 109.413069 
L 583.648067 104.528004 
L 594.389924 100.45308 
L 605.131781 95.096114 
L 615.873638 96.341175 
L 626.615496 84.371311 
L 637.357353 81.306381 
L 648.09921 80.786427 
L 658.841067 80.61883 
L 669.582924 79.854726 
L 680.324781 79.957661 
L 691.066638 79.829878 
L 701.808496 79.807252 
L 712.550353 79.687368 
L 723.29221 79.62118 
L 734.034067 79.308331 
L 744.775924 78.432168 
L 755.517781 76.846994 
L 766.259638 71.418972 
L 777.001496 68.120402 
L 787.743353 66.022905 
L 798.48521 64.767235 
L 809.227067 67.160088 
L 819.968924 70.651783 
L 830.710781 68.780313 
" clip-path="url(#pbde66b12c3)" style="fill: none; stroke: #000000; stroke-width: 2; stroke-linecap: square"/>
   </g>
   <g id="patch_3">
    <path d="M 78.780781 303.388187 
L 78.780781 52.836187 
" style="fill: none; stroke: #000000; stroke-width: 0.8; stroke-linejoin: miter; stroke-linecap: square"/>
   </g>
   <g id="patch_4">
    <path d="M 78.780781 303.388187 
L 830.710781 303.388187 
" style="fill: none; stroke: #000000; stroke-width: 0.8; stroke-linejoin: miter; stroke-linecap: square"/>
   </g>
   <g id="text_16">
    <!-- Cotisations retraite en pourcentage du revenu net d'imp\^{o}t -->
    <g transform="translate(79.441328 23.156719) scale(0.21 -0.21)">
     <defs>
      <path id="DejaVuSans-Bold-43" d="M 4288 256 
Q 3956 84 3597 -3 
Q 3238 -91 2847 -91 
Q 1681 -91 1000 561 
Q 319 1213 319 2328 
Q 319 3447 1000 4098 
Q 1681 4750 2847 4750 
Q 3238 4750 3597 4662 
Q 3956 4575 4288 4403 
L 4288 3438 
Q 3953 3666 3628 3772 
Q 3303 3878 2944 3878 
Q 2300 3878 1931 3465 
Q 1563 3053 1563 2328 
Q 1563 1606 1931 1193 
Q 2300 781 2944 781 
Q 3303 781 3628 887 
Q 3953 994 4288 1222 
L 4288 256 
z
" transform="scale(0.015625)"/>
      <path id="DejaVuSans-Bold-6f" d="M 2203 2784 
Q 1831 2784 1636 2517 
Q 1441 2250 1441 1747 
Q 1441 1244 1636 976 
Q 1831 709 2203 709 
Q 2569 709 2762 976 
Q 2956 1244 2956 1747 
Q 2956 2250 2762 2517 
Q 2569 2784 2203 2784 
z
M 2203 3584 
Q 3106 3584 3614 3096 
Q 4122 2609 4122 1747 
Q 4122 884 3614 396 
Q 3106 -91 2203 -91 
Q 1297 -91 786 396 
Q 275 884 275 1747 
Q 275 2609 786 3096 
Q 1297 3584 2203 3584 
z
" transform="scale(0.015625)"/>
      <path id="DejaVuSans-Bold-74" d="M 1759 4494 
L 1759 3500 
L 2913 3500 
L 2913 2700 
L 1759 2700 
L 1759 1216 
Q 1759 972 1856 886 
Q 1953 800 2241 800 
L 2816 800 
L 2816 0 
L 1856 0 
Q 1194 0 917 276 
Q 641 553 641 1216 
L 641 2700 
L 84 2700 
L 84 3500 
L 641 3500 
L 641 4494 
L 1759 4494 
z
" transform="scale(0.015625)"/>
      <path id="DejaVuSans-Bold-69" d="M 538 3500 
L 1656 3500 
L 1656 0 
L 538 0 
L 538 3500 
z
M 538 4863 
L 1656 4863 
L 1656 3950 
L 538 3950 
L 538 4863 
z
" transform="scale(0.015625)"/>
      <path id="DejaVuSans-Bold-73" d="M 3272 3391 
L 3272 2541 
Q 2913 2691 2578 2766 
Q 2244 2841 1947 2841 
Q 1628 2841 1473 2761 
Q 1319 2681 1319 2516 
Q 1319 2381 1436 2309 
Q 1553 2238 1856 2203 
L 2053 2175 
Q 2913 2066 3209 1816 
Q 3506 1566 3506 1031 
Q 3506 472 3093 190 
Q 2681 -91 1863 -91 
Q 1516 -91 1145 -36 
Q 775 19 384 128 
L 384 978 
Q 719 816 1070 734 
Q 1422 653 1784 653 
Q 2113 653 2278 743 
Q 2444 834 2444 1013 
Q 2444 1163 2330 1236 
Q 2216 1309 1875 1350 
L 1678 1375 
Q 931 1469 631 1722 
Q 331 1975 331 2491 
Q 331 3047 712 3315 
Q 1094 3584 1881 3584 
Q 2191 3584 2531 3537 
Q 2872 3491 3272 3391 
z
" transform="scale(0.015625)"/>
      <path id="DejaVuSans-Bold-61" d="M 2106 1575 
Q 1756 1575 1579 1456 
Q 1403 1338 1403 1106 
Q 1403 894 1545 773 
Q 1688 653 1941 653 
Q 2256 653 2472 879 
Q 2688 1106 2688 1447 
L 2688 1575 
L 2106 1575 
z
M 3816 1997 
L 3816 0 
L 2688 0 
L 2688 519 
Q 2463 200 2181 54 
Q 1900 -91 1497 -91 
Q 953 -91 614 226 
Q 275 544 275 1050 
Q 275 1666 698 1953 
Q 1122 2241 2028 2241 
L 2688 2241 
L 2688 2328 
Q 2688 2594 2478 2717 
Q 2269 2841 1825 2841 
Q 1466 2841 1156 2769 
Q 847 2697 581 2553 
L 581 3406 
Q 941 3494 1303 3539 
Q 1666 3584 2028 3584 
Q 2975 3584 3395 3211 
Q 3816 2838 3816 1997 
z
" transform="scale(0.015625)"/>
      <path id="DejaVuSans-Bold-6e" d="M 4056 2131 
L 4056 0 
L 2931 0 
L 2931 347 
L 2931 1631 
Q 2931 2084 2911 2256 
Q 2891 2428 2841 2509 
Q 2775 2619 2662 2680 
Q 2550 2741 2406 2741 
Q 2056 2741 1856 2470 
Q 1656 2200 1656 1722 
L 1656 0 
L 538 0 
L 538 3500 
L 1656 3500 
L 1656 2988 
Q 1909 3294 2193 3439 
Q 2478 3584 2822 3584 
Q 3428 3584 3742 3212 
Q 4056 2841 4056 2131 
z
" transform="scale(0.015625)"/>
      <path id="DejaVuSans-Bold-20" transform="scale(0.015625)"/>
      <path id="DejaVuSans-Bold-72" d="M 3138 2547 
Q 2991 2616 2845 2648 
Q 2700 2681 2553 2681 
Q 2122 2681 1889 2404 
Q 1656 2128 1656 1613 
L 1656 0 
L 538 0 
L 538 3500 
L 1656 3500 
L 1656 2925 
Q 1872 3269 2151 3426 
Q 2431 3584 2822 3584 
Q 2878 3584 2943 3579 
Q 3009 3575 3134 3559 
L 3138 2547 
z
" transform="scale(0.015625)"/>
      <path id="DejaVuSans-Bold-65" d="M 4031 1759 
L 4031 1441 
L 1416 1441 
Q 1456 1047 1700 850 
Q 1944 653 2381 653 
Q 2734 653 3104 758 
Q 3475 863 3866 1075 
L 3866 213 
Q 3469 63 3072 -14 
Q 2675 -91 2278 -91 
Q 1328 -91 801 392 
Q 275 875 275 1747 
Q 275 2603 792 3093 
Q 1309 3584 2216 3584 
Q 3041 3584 3536 3087 
Q 4031 2591 4031 1759 
z
M 2881 2131 
Q 2881 2450 2695 2645 
Q 2509 2841 2209 2841 
Q 1884 2841 1681 2658 
Q 1478 2475 1428 2131 
L 2881 2131 
z
" transform="scale(0.015625)"/>
      <path id="DejaVuSans-Bold-70" d="M 1656 506 
L 1656 -1331 
L 538 -1331 
L 538 3500 
L 1656 3500 
L 1656 2988 
Q 1888 3294 2169 3439 
Q 2450 3584 2816 3584 
Q 3463 3584 3878 3070 
Q 4294 2556 4294 1747 
Q 4294 938 3878 423 
Q 3463 -91 2816 -91 
Q 2450 -91 2169 54 
Q 1888 200 1656 506 
z
M 2400 2772 
Q 2041 2772 1848 2508 
Q 1656 2244 1656 1747 
Q 1656 1250 1848 986 
Q 2041 722 2400 722 
Q 2759 722 2948 984 
Q 3138 1247 3138 1747 
Q 3138 2247 2948 2509 
Q 2759 2772 2400 2772 
z
" transform="scale(0.015625)"/>
      <path id="DejaVuSans-Bold-75" d="M 500 1363 
L 500 3500 
L 1625 3500 
L 1625 3150 
Q 1625 2866 1622 2436 
Q 1619 2006 1619 1863 
Q 1619 1441 1641 1255 
Q 1663 1069 1716 984 
Q 1784 875 1895 815 
Q 2006 756 2150 756 
Q 2500 756 2700 1025 
Q 2900 1294 2900 1772 
L 2900 3500 
L 4019 3500 
L 4019 0 
L 2900 0 
L 2900 506 
Q 2647 200 2364 54 
Q 2081 -91 1741 -91 
Q 1134 -91 817 281 
Q 500 653 500 1363 
z
" transform="scale(0.015625)"/>
      <path id="DejaVuSans-Bold-63" d="M 3366 3391 
L 3366 2478 
Q 3138 2634 2908 2709 
Q 2678 2784 2431 2784 
Q 1963 2784 1702 2511 
Q 1441 2238 1441 1747 
Q 1441 1256 1702 982 
Q 1963 709 2431 709 
Q 2694 709 2930 787 
Q 3166 866 3366 1019 
L 3366 103 
Q 3103 6 2833 -42 
Q 2563 -91 2291 -91 
Q 1344 -91 809 395 
Q 275 881 275 1747 
Q 275 2613 809 3098 
Q 1344 3584 2291 3584 
Q 2566 3584 2833 3536 
Q 3100 3488 3366 3391 
z
" transform="scale(0.015625)"/>
      <path id="DejaVuSans-Bold-67" d="M 2919 594 
Q 2688 288 2409 144 
Q 2131 0 1766 0 
Q 1125 0 706 504 
Q 288 1009 288 1791 
Q 288 2575 706 3076 
Q 1125 3578 1766 3578 
Q 2131 3578 2409 3434 
Q 2688 3291 2919 2981 
L 2919 3500 
L 4044 3500 
L 4044 353 
Q 4044 -491 3511 -936 
Q 2978 -1381 1966 -1381 
Q 1638 -1381 1331 -1331 
Q 1025 -1281 716 -1178 
L 716 -306 
Q 1009 -475 1290 -558 
Q 1572 -641 1856 -641 
Q 2406 -641 2662 -400 
Q 2919 -159 2919 353 
L 2919 594 
z
M 2181 2772 
Q 1834 2772 1640 2515 
Q 1447 2259 1447 1791 
Q 1447 1309 1634 1061 
Q 1822 813 2181 813 
Q 2531 813 2725 1069 
Q 2919 1325 2919 1791 
Q 2919 2259 2725 2515 
Q 2531 2772 2181 2772 
z
" transform="scale(0.015625)"/>
      <path id="DejaVuSans-Bold-64" d="M 2919 2988 
L 2919 4863 
L 4044 4863 
L 4044 0 
L 2919 0 
L 2919 506 
Q 2688 197 2409 53 
Q 2131 -91 1766 -91 
Q 1119 -91 703 423 
Q 288 938 288 1747 
Q 288 2556 703 3070 
Q 1119 3584 1766 3584 
Q 2128 3584 2408 3439 
Q 2688 3294 2919 2988 
z
M 2181 722 
Q 2541 722 2730 984 
Q 2919 1247 2919 1747 
Q 2919 2247 2730 2509 
Q 2541 2772 2181 2772 
Q 1825 2772 1636 2509 
Q 1447 2247 1447 1747 
Q 1447 1247 1636 984 
Q 1825 722 2181 722 
z
" transform="scale(0.015625)"/>
      <path id="DejaVuSans-Bold-76" d="M 97 3500 
L 1216 3500 
L 2088 1081 
L 2956 3500 
L 4078 3500 
L 2700 0 
L 1472 0 
L 97 3500 
z
" transform="scale(0.015625)"/>
      <path id="DejaVuSans-Bold-27" d="M 1350 4666 
L 1350 2931 
L 609 2931 
L 609 4666 
L 1350 4666 
z
" transform="scale(0.015625)"/>
      <path id="DejaVuSans-Bold-6d" d="M 3781 2919 
Q 3994 3244 4286 3414 
Q 4578 3584 4928 3584 
Q 5531 3584 5847 3212 
Q 6163 2841 6163 2131 
L 6163 0 
L 5038 0 
L 5038 1825 
Q 5041 1866 5042 1909 
Q 5044 1953 5044 2034 
Q 5044 2406 4934 2573 
Q 4825 2741 4581 2741 
Q 4263 2741 4089 2478 
Q 3916 2216 3909 1719 
L 3909 0 
L 2784 0 
L 2784 1825 
Q 2784 2406 2684 2573 
Q 2584 2741 2328 2741 
Q 2006 2741 1831 2477 
Q 1656 2213 1656 1722 
L 1656 0 
L 531 0 
L 531 3500 
L 1656 3500 
L 1656 2988 
Q 1863 3284 2130 3434 
Q 2397 3584 2719 3584 
Q 3081 3584 3359 3409 
Q 3638 3234 3781 2919 
z
" transform="scale(0.015625)"/>
      <path id="DejaVuSans-Bold-5c" d="M 1644 -594 
L 0 4666 
L 691 4666 
L 2338 -594 
L 1644 -594 
z
" transform="scale(0.015625)"/>
      <path id="DejaVuSans-Bold-5e" d="M 3066 4666 
L 4716 2925 
L 3963 2925 
L 2681 3866 
L 1403 2925 
L 647 2925 
L 2297 4666 
L 3066 4666 
z
" transform="scale(0.015625)"/>
      <path id="DejaVuSans-Bold-7b" d="M 3756 -341 
L 3756 -1044 
L 3078 -1044 
Q 2397 -1044 2084 -769 
Q 1772 -494 1772 109 
L 1772 709 
Q 1772 1178 1603 1361 
Q 1434 1544 991 1544 
L 800 1544 
L 800 2241 
L 991 2241 
Q 1434 2241 1603 2422 
Q 1772 2603 1772 3072 
L 1772 3713 
Q 1772 4316 2084 4589 
Q 2397 4863 3078 4863 
L 3756 4863 
L 3756 4159 
L 3541 4159 
Q 3100 4159 2967 4023 
Q 2834 3888 2834 3444 
L 2834 2925 
Q 2834 2434 2693 2212 
Q 2553 1991 2209 1913 
Q 2556 1828 2695 1606 
Q 2834 1384 2834 897 
L 2834 378 
Q 2834 -69 2967 -205 
Q 3100 -341 3541 -341 
L 3756 -341 
z
" transform="scale(0.015625)"/>
      <path id="DejaVuSans-Bold-7d" d="M 800 -341 
L 1019 -341 
Q 1456 -341 1589 -205 
Q 1722 -69 1722 378 
L 1722 897 
Q 1722 1384 1862 1606 
Q 2003 1828 2350 1913 
Q 2003 1991 1862 2212 
Q 1722 2434 1722 2925 
L 1722 3444 
Q 1722 3888 1589 4023 
Q 1456 4159 1019 4159 
L 800 4159 
L 800 4863 
L 1478 4863 
Q 2159 4863 2471 4589 
Q 2784 4316 2784 3713 
L 2784 3072 
Q 2784 2603 2953 2422 
Q 3122 2241 3566 2241 
L 3756 2241 
L 3756 1544 
L 3566 1544 
Q 3122 1544 2953 1361 
Q 2784 1178 2784 709 
L 2784 109 
Q 2784 -494 2471 -769 
Q 2159 -1044 1478 -1044 
L 800 -1044 
L 800 -341 
z
" transform="scale(0.015625)"/>
     </defs>
     <use xlink:href="#DejaVuSans-Bold-43"/>
     <use xlink:href="#DejaVuSans-Bold-6f" transform="translate(73.388672 0)"/>
     <use xlink:href="#DejaVuSans-Bold-74" transform="translate(142.089844 0)"/>
     <use xlink:href="#DejaVuSans-Bold-69" transform="translate(189.892578 0)"/>
     <use xlink:href="#DejaVuSans-Bold-73" transform="translate(224.169922 0)"/>
     <use xlink:href="#DejaVuSans-Bold-61" transform="translate(283.691406 0)"/>
     <use xlink:href="#DejaVuSans-Bold-74" transform="translate(351.171875 0)"/>
     <use xlink:href="#DejaVuSans-Bold-69" transform="translate(398.974609 0)"/>
     <use xlink:href="#DejaVuSans-Bold-6f" transform="translate(433.251953 0)"/>
     <use xlink:href="#DejaVuSans-Bold-6e" transform="translate(501.953125 0)"/>
     <use xlink:href="#DejaVuSans-Bold-73" transform="translate(573.144531 0)"/>
     <use xlink:href="#DejaVuSans-Bold-20" transform="translate(632.666016 0)"/>
     <use xlink:href="#DejaVuSans-Bold-72" transform="translate(667.480469 0)"/>
     <use xlink:href="#DejaVuSans-Bold-65" transform="translate(716.796875 0)"/>
     <use xlink:href="#DejaVuSans-Bold-74" transform="translate(784.619141 0)"/>
     <use xlink:href="#DejaVuSans-Bold-72" transform="translate(832.421875 0)"/>
     <use xlink:href="#DejaVuSans-Bold-61" transform="translate(881.738281 0)"/>
     <use xlink:href="#DejaVuSans-Bold-69" transform="translate(949.21875 0)"/>
     <use xlink:href="#DejaVuSans-Bold-74" transform="translate(983.496094 0)"/>
     <use xlink:href="#DejaVuSans-Bold-65" transform="translate(1031.298828 0)"/>
     <use xlink:href="#DejaVuSans-Bold-20" transform="translate(1099.121094 0)"/>
     <use xlink:href="#DejaVuSans-Bold-65" transform="translate(1133.935547 0)"/>
     <use xlink:href="#DejaVuSans-Bold-6e" transform="translate(1201.757812 0)"/>
     <use xlink:href="#DejaVuSans-Bold-20" transform="translate(1272.949219 0)"/>
     <use xlink:href="#DejaVuSans-Bold-70" transform="translate(1307.763672 0)"/>
     <use xlink:href="#DejaVuSans-Bold-6f" transform="translate(1379.345703 0)"/>
     <use xlink:href="#DejaVuSans-Bold-75" transform="translate(1448.046875 0)"/>
     <use xlink:href="#DejaVuSans-Bold-72" transform="translate(1519.238281 0)"/>
     <use xlink:href="#DejaVuSans-Bold-63" transform="translate(1568.554688 0)"/>
     <use xlink:href="#DejaVuSans-Bold-65" transform="translate(1627.832031 0)"/>
     <use xlink:href="#DejaVuSans-Bold-6e" transform="translate(1695.654297 0)"/>
     <use xlink:href="#DejaVuSans-Bold-74" transform="translate(1766.845703 0)"/>
     <use xlink:href="#DejaVuSans-Bold-61" transform="translate(1814.648438 0)"/>
     <use xlink:href="#DejaVuSans-Bold-67" transform="translate(1882.128906 0)"/>
     <use xlink:href="#DejaVuSans-Bold-65" transform="translate(1953.710938 0)"/>
     <use xlink:href="#DejaVuSans-Bold-20" transform="translate(2021.533203 0)"/>
     <use xlink:href="#DejaVuSans-Bold-64" transform="translate(2056.347656 0)"/>
     <use xlink:href="#DejaVuSans-Bold-75" transform="translate(2127.929688 0)"/>
     <use xlink:href="#DejaVuSans-Bold-20" transform="translate(2199.121094 0)"/>
     <use xlink:href="#DejaVuSans-Bold-72" transform="translate(2233.935547 0)"/>
     <use xlink:href="#DejaVuSans-Bold-65" transform="translate(2283.251953 0)"/>
     <use xlink:href="#DejaVuSans-Bold-76" transform="translate(2351.074219 0)"/>
     <use xlink:href="#DejaVuSans-Bold-65" transform="translate(2416.259766 0)"/>
     <use xlink:href="#DejaVuSans-Bold-6e" transform="translate(2484.082031 0)"/>
     <use xlink:href="#DejaVuSans-Bold-75" transform="translate(2555.273438 0)"/>
     <use xlink:href="#DejaVuSans-Bold-20" transform="translate(2626.464844 0)"/>
     <use xlink:href="#DejaVuSans-Bold-6e" transform="translate(2661.279297 0)"/>
     <use xlink:href="#DejaVuSans-Bold-65" transform="translate(2732.470703 0)"/>
     <use xlink:href="#DejaVuSans-Bold-74" transform="translate(2800.292969 0)"/>
     <use xlink:href="#DejaVuSans-Bold-20" transform="translate(2848.095703 0)"/>
     <use xlink:href="#DejaVuSans-Bold-64" transform="translate(2882.910156 0)"/>
     <use xlink:href="#DejaVuSans-Bold-27" transform="translate(2954.492188 0)"/>
     <use xlink:href="#DejaVuSans-Bold-69" transform="translate(2985.107422 0)"/>
     <use xlink:href="#DejaVuSans-Bold-6d" transform="translate(3019.384766 0)"/>
     <use xlink:href="#DejaVuSans-Bold-70" transform="translate(3123.583984 0)"/>
     <use xlink:href="#DejaVuSans-Bold-5c" transform="translate(3195.166016 0)"/>
     <use xlink:href="#DejaVuSans-Bold-5e" transform="translate(3231.689453 0)"/>
     <use xlink:href="#DejaVuSans-Bold-7b" transform="translate(3315.478516 0)"/>
     <use xlink:href="#DejaVuSans-Bold-6f" transform="translate(3386.669922 0)"/>
     <use xlink:href="#DejaVuSans-Bold-7d" transform="translate(3455.371094 0)"/>
     <use xlink:href="#DejaVuSans-Bold-74" transform="translate(3526.5625 0)"/>
    </g>
    <!-- (temps complet, c\'{e}libataire) -->
    <g transform="translate(264.216719 46.836187) scale(0.21 -0.21)">
     <defs>
      <path id="DejaVuSans-Bold-28" d="M 2413 -844 
L 1484 -844 
Q 1006 -72 778 623 
Q 550 1319 550 2003 
Q 550 2688 779 3389 
Q 1009 4091 1484 4856 
L 2413 4856 
Q 2013 4116 1813 3408 
Q 1613 2700 1613 2009 
Q 1613 1319 1811 609 
Q 2009 -100 2413 -844 
z
" transform="scale(0.015625)"/>
      <path id="DejaVuSans-Bold-6c" d="M 538 4863 
L 1656 4863 
L 1656 0 
L 538 0 
L 538 4863 
z
" transform="scale(0.015625)"/>
      <path id="DejaVuSans-Bold-2c" d="M 653 1209 
L 1778 1209 
L 1778 256 
L 1006 -909 
L 341 -909 
L 653 256 
L 653 1209 
z
" transform="scale(0.015625)"/>
      <path id="DejaVuSans-Bold-62" d="M 2400 722 
Q 2759 722 2948 984 
Q 3138 1247 3138 1747 
Q 3138 2247 2948 2509 
Q 2759 2772 2400 2772 
Q 2041 2772 1848 2508 
Q 1656 2244 1656 1747 
Q 1656 1250 1848 986 
Q 2041 722 2400 722 
z
M 1656 2988 
Q 1888 3294 2169 3439 
Q 2450 3584 2816 3584 
Q 3463 3584 3878 3070 
Q 4294 2556 4294 1747 
Q 4294 938 3878 423 
Q 3463 -91 2816 -91 
Q 2450 -91 2169 54 
Q 1888 200 1656 506 
L 1656 0 
L 538 0 
L 538 4863 
L 1656 4863 
L 1656 2988 
z
" transform="scale(0.015625)"/>
      <path id="DejaVuSans-Bold-29" d="M 513 -844 
Q 913 -100 1113 609 
Q 1313 1319 1313 2009 
Q 1313 2700 1113 3408 
Q 913 4116 513 4856 
L 1441 4856 
Q 1916 4091 2145 3389 
Q 2375 2688 2375 2003 
Q 2375 1319 2147 623 
Q 1919 -72 1441 -844 
L 513 -844 
z
" transform="scale(0.015625)"/>
     </defs>
     <use xlink:href="#DejaVuSans-Bold-28"/>
     <use xlink:href="#DejaVuSans-Bold-74" transform="translate(45.703125 0)"/>
     <use xlink:href="#DejaVuSans-Bold-65" transform="translate(93.505859 0)"/>
     <use xlink:href="#DejaVuSans-Bold-6d" transform="translate(161.328125 0)"/>
     <use xlink:href="#DejaVuSans-Bold-70" transform="translate(265.527344 0)"/>
     <use xlink:href="#DejaVuSans-Bold-73" transform="translate(337.109375 0)"/>
     <use xlink:href="#DejaVuSans-Bold-20" transform="translate(396.630859 0)"/>
     <use xlink:href="#DejaVuSans-Bold-63" transform="translate(431.445312 0)"/>
     <use xlink:href="#DejaVuSans-Bold-6f" transform="translate(490.722656 0)"/>
     <use xlink:href="#DejaVuSans-Bold-6d" transform="translate(559.423828 0)"/>
     <use xlink:href="#DejaVuSans-Bold-70" transform="translate(663.623047 0)"/>
     <use xlink:href="#DejaVuSans-Bold-6c" transform="translate(735.205078 0)"/>
     <use xlink:href="#DejaVuSans-Bold-65" transform="translate(769.482422 0)"/>
     <use xlink:href="#DejaVuSans-Bold-74" transform="translate(837.304688 0)"/>
     <use xlink:href="#DejaVuSans-Bold-2c" transform="translate(885.107422 0)"/>
     <use xlink:href="#DejaVuSans-Bold-20" transform="translate(923.095703 0)"/>
     <use xlink:href="#DejaVuSans-Bold-63" transform="translate(957.910156 0)"/>
     <use xlink:href="#DejaVuSans-Bold-5c" transform="translate(1017.1875 0)"/>
     <use xlink:href="#DejaVuSans-Bold-27" transform="translate(1053.710938 0)"/>
     <use xlink:href="#DejaVuSans-Bold-7b" transform="translate(1084.326172 0)"/>
     <use xlink:href="#DejaVuSans-Bold-65" transform="translate(1155.517578 0)"/>
     <use xlink:href="#DejaVuSans-Bold-7d" transform="translate(1223.339844 0)"/>
     <use xlink:href="#DejaVuSans-Bold-6c" transform="translate(1294.53125 0)"/>
     <use xlink:href="#DejaVuSans-Bold-69" transform="translate(1328.808594 0)"/>
     <use xlink:href="#DejaVuSans-Bold-62" transform="translate(1363.085938 0)"/>
     <use xlink:href="#DejaVuSans-Bold-61" transform="translate(1434.667969 0)"/>
     <use xlink:href="#DejaVuSans-Bold-74" transform="translate(1502.148438 0)"/>
     <use xlink:href="#DejaVuSans-Bold-61" transform="translate(1549.951172 0)"/>
     <use xlink:href="#DejaVuSans-Bold-69" transform="translate(1617.431641 0)"/>
     <use xlink:href="#DejaVuSans-Bold-72" transform="translate(1651.708984 0)"/>
     <use xlink:href="#DejaVuSans-Bold-65" transform="translate(1701.025391 0)"/>
     <use xlink:href="#DejaVuSans-Bold-29" transform="translate(1768.847656 0)"/>
    </g>
   </g>
  </g>
 </g>
 <defs>
  <clipPath id="pbde66b12c3">
   <rect x="78.780781" y="52.836187" width="751.93" height="250.552"/>
  </clipPath>
 </defs>
</svg>
