<?xml version="1.0" encoding="utf-8" standalone="no"?>
<!DOCTYPE svg PUBLIC "-//W3C//DTD SVG 1.1//EN"
  "http://www.w3.org/Graphics/SVG/1.1/DTD/svg11.dtd">
<svg xmlns:xlink="http://www.w3.org/1999/xlink" width="864pt" height="432pt" viewBox="0 0 864 432" xmlns="http://www.w3.org/2000/svg" version="1.1">
 <metadata>
  <rdf:RDF xmlns:dc="http://purl.org/dc/elements/1.1/" xmlns:cc="http://creativecommons.org/ns#" xmlns:rdf="http://www.w3.org/1999/02/22-rdf-syntax-ns#">
   <cc:Work>
    <dc:type rdf:resource="http://purl.org/dc/dcmitype/StillImage"/>
    <dc:date>2026-04-16T22:34:32.232120</dc:date>
    <dc:format>image/svg+xml</dc:format>
    <dc:creator>
     <cc:Agent>
      <dc:title>Matplotlib v3.10.8, https://matplotlib.org/</dc:title>
     </cc:Agent>
    </dc:creator>
   </cc:Work>
  </rdf:RDF>
 </metadata>
 <defs>
  <style type="text/css">*{stroke-linejoin: round; stroke-linecap: butt}</style>
 </defs>
 <g id="figure_1">
  <g id="patch_1">
   <path d="M 0 432 
L 864 432 
L 864 0 
L 0 0 
z
" style="fill: #ffffff"/>
  </g>
  <g id="axes_1">
   <g id="patch_2">
    <path d="M 51.05 387.16 
L 853.2 387.16 
L 853.2 42.288 
L 51.05 42.288 
z
" style="fill: #ffffff"/>
   </g>
   <g id="matplotlib.axis_1">
    <g id="xtick_1">
     <g id="line2d_1">
      <path d="M 51.05 387.16 
L 51.05 42.288 
" clip-path="url(#p14d9e056eb)" style="fill: none; stroke: #b0b0b0; stroke-opacity: 0.3; stroke-width: 0.8; stroke-linecap: square"/>
     </g>
     <g id="line2d_2">
      <defs>
       <path id="m31bf6fd8a7" d="M 0 0 
L 0 3.5 
" style="stroke: #000000; stroke-width: 0.8"/>
      </defs>
      <g>
       <use xlink:href="#m31bf6fd8a7" x="51.05" y="387.16" style="stroke: #000000; stroke-width: 0.8"/>
      </g>
     </g>
     <g id="text_1">
      <!-- 1945 -->
      <g transform="translate(38.325 401.758438) scale(0.1 -0.1)">
       <defs>
        <path id="DejaVuSans-31" d="M 794 531 
L 1825 531 
L 1825 4091 
L 703 3866 
L 703 4441 
L 1819 4666 
L 2450 4666 
L 2450 531 
L 3481 531 
L 3481 0 
L 794 0 
L 794 531 
z
" transform="scale(0.015625)"/>
        <path id="DejaVuSans-39" d="M 703 97 
L 703 672 
Q 941 559 1184 500 
Q 1428 441 1663 441 
Q 2288 441 2617 861 
Q 2947 1281 2994 2138 
Q 2813 1869 2534 1725 
Q 2256 1581 1919 1581 
Q 1219 1581 811 2004 
Q 403 2428 403 3163 
Q 403 3881 828 4315 
Q 1253 4750 1959 4750 
Q 2769 4750 3195 4129 
Q 3622 3509 3622 2328 
Q 3622 1225 3098 567 
Q 2575 -91 1691 -91 
Q 1453 -91 1209 -44 
Q 966 3 703 97 
z
M 1959 2075 
Q 2384 2075 2632 2365 
Q 2881 2656 2881 3163 
Q 2881 3666 2632 3958 
Q 2384 4250 1959 4250 
Q 1534 4250 1286 3958 
Q 1038 3666 1038 3163 
Q 1038 2656 1286 2365 
Q 1534 2075 1959 2075 
z
" transform="scale(0.015625)"/>
        <path id="DejaVuSans-34" d="M 2419 4116 
L 825 1625 
L 2419 1625 
L 2419 4116 
z
M 2253 4666 
L 3047 4666 
L 3047 1625 
L 3713 1625 
L 3713 1100 
L 3047 1100 
L 3047 0 
L 2419 0 
L 2419 1100 
L 313 1100 
L 313 1709 
L 2253 4666 
z
" transform="scale(0.015625)"/>
        <path id="DejaVuSans-35" d="M 691 4666 
L 3169 4666 
L 3169 4134 
L 1269 4134 
L 1269 2991 
Q 1406 3038 1543 3061 
Q 1681 3084 1819 3084 
Q 2600 3084 3056 2656 
Q 3513 2228 3513 1497 
Q 3513 744 3044 326 
Q 2575 -91 1722 -91 
Q 1428 -91 1123 -41 
Q 819 9 494 109 
L 494 744 
Q 775 591 1075 516 
Q 1375 441 1709 441 
Q 2250 441 2565 725 
Q 2881 1009 2881 1497 
Q 2881 1984 2565 2268 
Q 2250 2553 1709 2553 
Q 1456 2553 1204 2497 
Q 953 2441 691 2322 
L 691 4666 
z
" transform="scale(0.015625)"/>
       </defs>
       <use xlink:href="#DejaVuSans-31"/>
       <use xlink:href="#DejaVuSans-39" transform="translate(63.623047 0)"/>
       <use xlink:href="#DejaVuSans-34" transform="translate(127.246094 0)"/>
       <use xlink:href="#DejaVuSans-35" transform="translate(190.869141 0)"/>
      </g>
     </g>
    </g>
    <g id="xtick_2">
     <g id="line2d_3">
      <path d="M 162.459722 387.16 
L 162.459722 42.288 
" clip-path="url(#p14d9e056eb)" style="fill: none; stroke: #b0b0b0; stroke-opacity: 0.3; stroke-width: 0.8; stroke-linecap: square"/>
     </g>
     <g id="line2d_4">
      <g>
       <use xlink:href="#m31bf6fd8a7" x="162.459722" y="387.16" style="stroke: #000000; stroke-width: 0.8"/>
      </g>
     </g>
     <g id="text_2">
      <!-- 1950 -->
      <g transform="translate(149.734722 401.758438) scale(0.1 -0.1)">
       <defs>
        <path id="DejaVuSans-30" d="M 2034 4250 
Q 1547 4250 1301 3770 
Q 1056 3291 1056 2328 
Q 1056 1369 1301 889 
Q 1547 409 2034 409 
Q 2525 409 2770 889 
Q 3016 1369 3016 2328 
Q 3016 3291 2770 3770 
Q 2525 4250 2034 4250 
z
M 2034 4750 
Q 2819 4750 3233 4129 
Q 3647 3509 3647 2328 
Q 3647 1150 3233 529 
Q 2819 -91 2034 -91 
Q 1250 -91 836 529 
Q 422 1150 422 2328 
Q 422 3509 836 4129 
Q 1250 4750 2034 4750 
z
" transform="scale(0.015625)"/>
       </defs>
       <use xlink:href="#DejaVuSans-31"/>
       <use xlink:href="#DejaVuSans-39" transform="translate(63.623047 0)"/>
       <use xlink:href="#DejaVuSans-35" transform="translate(127.246094 0)"/>
       <use xlink:href="#DejaVuSans-30" transform="translate(190.869141 0)"/>
      </g>
     </g>
    </g>
    <g id="xtick_3">
     <g id="line2d_5">
      <path d="M 273.869444 387.16 
L 273.869444 42.288 
" clip-path="url(#p14d9e056eb)" style="fill: none; stroke: #b0b0b0; stroke-opacity: 0.3; stroke-width: 0.8; stroke-linecap: square"/>
     </g>
     <g id="line2d_6">
      <g>
       <use xlink:href="#m31bf6fd8a7" x="273.869444" y="387.16" style="stroke: #000000; stroke-width: 0.8"/>
      </g>
     </g>
     <g id="text_3">
      <!-- 1955 -->
      <g transform="translate(261.144444 401.758438) scale(0.1 -0.1)">
       <use xlink:href="#DejaVuSans-31"/>
       <use xlink:href="#DejaVuSans-39" transform="translate(63.623047 0)"/>
       <use xlink:href="#DejaVuSans-35" transform="translate(127.246094 0)"/>
       <use xlink:href="#DejaVuSans-35" transform="translate(190.869141 0)"/>
      </g>
     </g>
    </g>
    <g id="xtick_4">
     <g id="line2d_7">
      <path d="M 385.279167 387.16 
L 385.279167 42.288 
" clip-path="url(#p14d9e056eb)" style="fill: none; stroke: #b0b0b0; stroke-opacity: 0.3; stroke-width: 0.8; stroke-linecap: square"/>
     </g>
     <g id="line2d_8">
      <g>
       <use xlink:href="#m31bf6fd8a7" x="385.279167" y="387.16" style="stroke: #000000; stroke-width: 0.8"/>
      </g>
     </g>
     <g id="text_4">
      <!-- 1960 -->
      <g transform="translate(372.554167 401.758438) scale(0.1 -0.1)">
       <defs>
        <path id="DejaVuSans-36" d="M 2113 2584 
Q 1688 2584 1439 2293 
Q 1191 2003 1191 1497 
Q 1191 994 1439 701 
Q 1688 409 2113 409 
Q 2538 409 2786 701 
Q 3034 994 3034 1497 
Q 3034 2003 2786 2293 
Q 2538 2584 2113 2584 
z
M 3366 4563 
L 3366 3988 
Q 3128 4100 2886 4159 
Q 2644 4219 2406 4219 
Q 1781 4219 1451 3797 
Q 1122 3375 1075 2522 
Q 1259 2794 1537 2939 
Q 1816 3084 2150 3084 
Q 2853 3084 3261 2657 
Q 3669 2231 3669 1497 
Q 3669 778 3244 343 
Q 2819 -91 2113 -91 
Q 1303 -91 875 529 
Q 447 1150 447 2328 
Q 447 3434 972 4092 
Q 1497 4750 2381 4750 
Q 2619 4750 2861 4703 
Q 3103 4656 3366 4563 
z
" transform="scale(0.015625)"/>
       </defs>
       <use xlink:href="#DejaVuSans-31"/>
       <use xlink:href="#DejaVuSans-39" transform="translate(63.623047 0)"/>
       <use xlink:href="#DejaVuSans-36" transform="translate(127.246094 0)"/>
       <use xlink:href="#DejaVuSans-30" transform="translate(190.869141 0)"/>
      </g>
     </g>
    </g>
    <g id="xtick_5">
     <g id="line2d_9">
      <path d="M 496.688889 387.16 
L 496.688889 42.288 
" clip-path="url(#p14d9e056eb)" style="fill: none; stroke: #b0b0b0; stroke-opacity: 0.3; stroke-width: 0.8; stroke-linecap: square"/>
     </g>
     <g id="line2d_10">
      <g>
       <use xlink:href="#m31bf6fd8a7" x="496.688889" y="387.16" style="stroke: #000000; stroke-width: 0.8"/>
      </g>
     </g>
     <g id="text_5">
      <!-- 1965 -->
      <g transform="translate(483.963889 401.758438) scale(0.1 -0.1)">
       <use xlink:href="#DejaVuSans-31"/>
       <use xlink:href="#DejaVuSans-39" transform="translate(63.623047 0)"/>
       <use xlink:href="#DejaVuSans-36" transform="translate(127.246094 0)"/>
       <use xlink:href="#DejaVuSans-35" transform="translate(190.869141 0)"/>
      </g>
     </g>
    </g>
    <g id="xtick_6">
     <g id="line2d_11">
      <path d="M 608.098611 387.16 
L 608.098611 42.288 
" clip-path="url(#p14d9e056eb)" style="fill: none; stroke: #b0b0b0; stroke-opacity: 0.3; stroke-width: 0.8; stroke-linecap: square"/>
     </g>
     <g id="line2d_12">
      <g>
       <use xlink:href="#m31bf6fd8a7" x="608.098611" y="387.16" style="stroke: #000000; stroke-width: 0.8"/>
      </g>
     </g>
     <g id="text_6">
      <!-- 1970 -->
      <g transform="translate(595.373611 401.758438) scale(0.1 -0.1)">
       <defs>
        <path id="DejaVuSans-37" d="M 525 4666 
L 3525 4666 
L 3525 4397 
L 1831 0 
L 1172 0 
L 2766 4134 
L 525 4134 
L 525 4666 
z
" transform="scale(0.015625)"/>
       </defs>
       <use xlink:href="#DejaVuSans-31"/>
       <use xlink:href="#DejaVuSans-39" transform="translate(63.623047 0)"/>
       <use xlink:href="#DejaVuSans-37" transform="translate(127.246094 0)"/>
       <use xlink:href="#DejaVuSans-30" transform="translate(190.869141 0)"/>
      </g>
     </g>
    </g>
    <g id="xtick_7">
     <g id="line2d_13">
      <path d="M 719.508333 387.16 
L 719.508333 42.288 
" clip-path="url(#p14d9e056eb)" style="fill: none; stroke: #b0b0b0; stroke-opacity: 0.3; stroke-width: 0.8; stroke-linecap: square"/>
     </g>
     <g id="line2d_14">
      <g>
       <use xlink:href="#m31bf6fd8a7" x="719.508333" y="387.16" style="stroke: #000000; stroke-width: 0.8"/>
      </g>
     </g>
     <g id="text_7">
      <!-- 1975 -->
      <g transform="translate(706.783333 401.758438) scale(0.1 -0.1)">
       <use xlink:href="#DejaVuSans-31"/>
       <use xlink:href="#DejaVuSans-39" transform="translate(63.623047 0)"/>
       <use xlink:href="#DejaVuSans-37" transform="translate(127.246094 0)"/>
       <use xlink:href="#DejaVuSans-35" transform="translate(190.869141 0)"/>
      </g>
     </g>
    </g>
    <g id="xtick_8">
     <g id="line2d_15">
      <path d="M 830.918056 387.16 
L 830.918056 42.288 
" clip-path="url(#p14d9e056eb)" style="fill: none; stroke: #b0b0b0; stroke-opacity: 0.3; stroke-width: 0.8; stroke-linecap: square"/>
     </g>
     <g id="line2d_16">
      <g>
       <use xlink:href="#m31bf6fd8a7" x="830.918056" y="387.16" style="stroke: #000000; stroke-width: 0.8"/>
      </g>
     </g>
     <g id="text_8">
      <!-- 1980 -->
      <g transform="translate(818.193056 401.758438) scale(0.1 -0.1)">
       <defs>
        <path id="DejaVuSans-38" d="M 2034 2216 
Q 1584 2216 1326 1975 
Q 1069 1734 1069 1313 
Q 1069 891 1326 650 
Q 1584 409 2034 409 
Q 2484 409 2743 651 
Q 3003 894 3003 1313 
Q 3003 1734 2745 1975 
Q 2488 2216 2034 2216 
z
M 1403 2484 
Q 997 2584 770 2862 
Q 544 3141 544 3541 
Q 544 4100 942 4425 
Q 1341 4750 2034 4750 
Q 2731 4750 3128 4425 
Q 3525 4100 3525 3541 
Q 3525 3141 3298 2862 
Q 3072 2584 2669 2484 
Q 3125 2378 3379 2068 
Q 3634 1759 3634 1313 
Q 3634 634 3220 271 
Q 2806 -91 2034 -91 
Q 1263 -91 848 271 
Q 434 634 434 1313 
Q 434 1759 690 2068 
Q 947 2378 1403 2484 
z
M 1172 3481 
Q 1172 3119 1398 2916 
Q 1625 2713 2034 2713 
Q 2441 2713 2670 2916 
Q 2900 3119 2900 3481 
Q 2900 3844 2670 4047 
Q 2441 4250 2034 4250 
Q 1625 4250 1398 4047 
Q 1172 3844 1172 3481 
z
" transform="scale(0.015625)"/>
       </defs>
       <use xlink:href="#DejaVuSans-31"/>
       <use xlink:href="#DejaVuSans-39" transform="translate(63.623047 0)"/>
       <use xlink:href="#DejaVuSans-38" transform="translate(127.246094 0)"/>
       <use xlink:href="#DejaVuSans-30" transform="translate(190.869141 0)"/>
      </g>
     </g>
    </g>
    <g id="text_9">
     <!-- Année de début -->
     <g transform="translate(404.2525 416.95625) scale(0.12 -0.12)">
      <defs>
       <path id="DejaVuSans-41" d="M 2188 4044 
L 1331 1722 
L 3047 1722 
L 2188 4044 
z
M 1831 4666 
L 2547 4666 
L 4325 0 
L 3669 0 
L 3244 1197 
L 1141 1197 
L 716 0 
L 50 0 
L 1831 4666 
z
" transform="scale(0.015625)"/>
       <path id="DejaVuSans-6e" d="M 3513 2113 
L 3513 0 
L 2938 0 
L 2938 2094 
Q 2938 2591 2744 2837 
Q 2550 3084 2163 3084 
Q 1697 3084 1428 2787 
Q 1159 2491 1159 1978 
L 1159 0 
L 581 0 
L 581 3500 
L 1159 3500 
L 1159 2956 
Q 1366 3272 1645 3428 
Q 1925 3584 2291 3584 
Q 2894 3584 3203 3211 
Q 3513 2838 3513 2113 
z
" transform="scale(0.015625)"/>
       <path id="DejaVuSans-e9" d="M 3597 1894 
L 3597 1613 
L 953 1613 
Q 991 1019 1311 708 
Q 1631 397 2203 397 
Q 2534 397 2845 478 
Q 3156 559 3463 722 
L 3463 178 
Q 3153 47 2828 -22 
Q 2503 -91 2169 -91 
Q 1331 -91 842 396 
Q 353 884 353 1716 
Q 353 2575 817 3079 
Q 1281 3584 2069 3584 
Q 2775 3584 3186 3129 
Q 3597 2675 3597 1894 
z
M 3022 2063 
Q 3016 2534 2758 2815 
Q 2500 3097 2075 3097 
Q 1594 3097 1305 2825 
Q 1016 2553 972 2059 
L 3022 2063 
z
M 2466 5119 
L 3088 5119 
L 2070 3944 
L 1591 3944 
L 2466 5119 
z
" transform="scale(0.015625)"/>
       <path id="DejaVuSans-65" d="M 3597 1894 
L 3597 1613 
L 953 1613 
Q 991 1019 1311 708 
Q 1631 397 2203 397 
Q 2534 397 2845 478 
Q 3156 559 3463 722 
L 3463 178 
Q 3153 47 2828 -22 
Q 2503 -91 2169 -91 
Q 1331 -91 842 396 
Q 353 884 353 1716 
Q 353 2575 817 3079 
Q 1281 3584 2069 3584 
Q 2775 3584 3186 3129 
Q 3597 2675 3597 1894 
z
M 3022 2063 
Q 3016 2534 2758 2815 
Q 2500 3097 2075 3097 
Q 1594 3097 1305 2825 
Q 1016 2553 972 2059 
L 3022 2063 
z
" transform="scale(0.015625)"/>
       <path id="DejaVuSans-20" transform="scale(0.015625)"/>
       <path id="DejaVuSans-64" d="M 2906 2969 
L 2906 4863 
L 3481 4863 
L 3481 0 
L 2906 0 
L 2906 525 
Q 2725 213 2448 61 
Q 2172 -91 1784 -91 
Q 1150 -91 751 415 
Q 353 922 353 1747 
Q 353 2572 751 3078 
Q 1150 3584 1784 3584 
Q 2172 3584 2448 3432 
Q 2725 3281 2906 2969 
z
M 947 1747 
Q 947 1113 1208 752 
Q 1469 391 1925 391 
Q 2381 391 2643 752 
Q 2906 1113 2906 1747 
Q 2906 2381 2643 2742 
Q 2381 3103 1925 3103 
Q 1469 3103 1208 2742 
Q 947 2381 947 1747 
z
" transform="scale(0.015625)"/>
       <path id="DejaVuSans-62" d="M 3116 1747 
Q 3116 2381 2855 2742 
Q 2594 3103 2138 3103 
Q 1681 3103 1420 2742 
Q 1159 2381 1159 1747 
Q 1159 1113 1420 752 
Q 1681 391 2138 391 
Q 2594 391 2855 752 
Q 3116 1113 3116 1747 
z
M 1159 2969 
Q 1341 3281 1617 3432 
Q 1894 3584 2278 3584 
Q 2916 3584 3314 3078 
Q 3713 2572 3713 1747 
Q 3713 922 3314 415 
Q 2916 -91 2278 -91 
Q 1894 -91 1617 61 
Q 1341 213 1159 525 
L 1159 0 
L 581 0 
L 581 4863 
L 1159 4863 
L 1159 2969 
z
" transform="scale(0.015625)"/>
       <path id="DejaVuSans-75" d="M 544 1381 
L 544 3500 
L 1119 3500 
L 1119 1403 
Q 1119 906 1312 657 
Q 1506 409 1894 409 
Q 2359 409 2629 706 
Q 2900 1003 2900 1516 
L 2900 3500 
L 3475 3500 
L 3475 0 
L 2900 0 
L 2900 538 
Q 2691 219 2414 64 
Q 2138 -91 1772 -91 
Q 1169 -91 856 284 
Q 544 659 544 1381 
z
M 1991 3584 
L 1991 3584 
z
" transform="scale(0.015625)"/>
       <path id="DejaVuSans-74" d="M 1172 4494 
L 1172 3500 
L 2356 3500 
L 2356 3053 
L 1172 3053 
L 1172 1153 
Q 1172 725 1289 603 
Q 1406 481 1766 481 
L 2356 481 
L 2356 0 
L 1766 0 
Q 1100 0 847 248 
Q 594 497 594 1153 
L 594 3053 
L 172 3053 
L 172 3500 
L 594 3500 
L 594 4494 
L 1172 4494 
z
" transform="scale(0.015625)"/>
      </defs>
      <use xlink:href="#DejaVuSans-41"/>
      <use xlink:href="#DejaVuSans-6e" transform="translate(68.408203 0)"/>
      <use xlink:href="#DejaVuSans-6e" transform="translate(131.787109 0)"/>
      <use xlink:href="#DejaVuSans-e9" transform="translate(195.166016 0)"/>
      <use xlink:href="#DejaVuSans-65" transform="translate(256.689453 0)"/>
      <use xlink:href="#DejaVuSans-20" transform="translate(318.212891 0)"/>
      <use xlink:href="#DejaVuSans-64" transform="translate(350 0)"/>
      <use xlink:href="#DejaVuSans-65" transform="translate(413.476562 0)"/>
      <use xlink:href="#DejaVuSans-20" transform="translate(475 0)"/>
      <use xlink:href="#DejaVuSans-64" transform="translate(506.787109 0)"/>
      <use xlink:href="#DejaVuSans-e9" transform="translate(570.263672 0)"/>
      <use xlink:href="#DejaVuSans-62" transform="translate(631.787109 0)"/>
      <use xlink:href="#DejaVuSans-75" transform="translate(695.263672 0)"/>
      <use xlink:href="#DejaVuSans-74" transform="translate(758.642578 0)"/>
     </g>
    </g>
   </g>
   <g id="matplotlib.axis_2">
    <g id="ytick_1">
     <g id="line2d_17">
      <path d="M 51.05 371.484 
L 853.2 371.484 
" clip-path="url(#p14d9e056eb)" style="fill: none; stroke: #b0b0b0; stroke-opacity: 0.3; stroke-width: 0.8; stroke-linecap: square"/>
     </g>
     <g id="line2d_18">
      <defs>
       <path id="m1a5c88f8e4" d="M 0 0 
L -3.5 0 
" style="stroke: #000000; stroke-width: 0.8"/>
      </defs>
      <g>
       <use xlink:href="#m1a5c88f8e4" x="51.05" y="371.484" style="stroke: #000000; stroke-width: 0.8"/>
      </g>
     </g>
     <g id="text_10">
      <!-- 1.0 -->
      <g transform="translate(28.146875 375.283219) scale(0.1 -0.1)">
       <defs>
        <path id="DejaVuSans-2e" d="M 684 794 
L 1344 794 
L 1344 0 
L 684 0 
L 684 794 
z
" transform="scale(0.015625)"/>
       </defs>
       <use xlink:href="#DejaVuSans-31"/>
       <use xlink:href="#DejaVuSans-2e" transform="translate(63.623047 0)"/>
       <use xlink:href="#DejaVuSans-30" transform="translate(95.410156 0)"/>
      </g>
     </g>
    </g>
    <g id="ytick_2">
     <g id="line2d_19">
      <path d="M 51.05 315.139613 
L 853.2 315.139613 
" clip-path="url(#p14d9e056eb)" style="fill: none; stroke: #b0b0b0; stroke-opacity: 0.3; stroke-width: 0.8; stroke-linecap: square"/>
     </g>
     <g id="line2d_20">
      <g>
       <use xlink:href="#m1a5c88f8e4" x="51.05" y="315.139613" style="stroke: #000000; stroke-width: 0.8"/>
      </g>
     </g>
     <g id="text_11">
      <!-- 1.2 -->
      <g transform="translate(28.146875 318.938832) scale(0.1 -0.1)">
       <defs>
        <path id="DejaVuSans-32" d="M 1228 531 
L 3431 531 
L 3431 0 
L 469 0 
L 469 531 
Q 828 903 1448 1529 
Q 2069 2156 2228 2338 
Q 2531 2678 2651 2914 
Q 2772 3150 2772 3378 
Q 2772 3750 2511 3984 
Q 2250 4219 1831 4219 
Q 1534 4219 1204 4116 
Q 875 4013 500 3803 
L 500 4441 
Q 881 4594 1212 4672 
Q 1544 4750 1819 4750 
Q 2544 4750 2975 4387 
Q 3406 4025 3406 3419 
Q 3406 3131 3298 2873 
Q 3191 2616 2906 2266 
Q 2828 2175 2409 1742 
Q 1991 1309 1228 531 
z
" transform="scale(0.015625)"/>
       </defs>
       <use xlink:href="#DejaVuSans-31"/>
       <use xlink:href="#DejaVuSans-2e" transform="translate(63.623047 0)"/>
       <use xlink:href="#DejaVuSans-32" transform="translate(95.410156 0)"/>
      </g>
     </g>
    </g>
    <g id="ytick_3">
     <g id="line2d_21">
      <path d="M 51.05 258.795226 
L 853.2 258.795226 
" clip-path="url(#p14d9e056eb)" style="fill: none; stroke: #b0b0b0; stroke-opacity: 0.3; stroke-width: 0.8; stroke-linecap: square"/>
     </g>
     <g id="line2d_22">
      <g>
       <use xlink:href="#m1a5c88f8e4" x="51.05" y="258.795226" style="stroke: #000000; stroke-width: 0.8"/>
      </g>
     </g>
     <g id="text_12">
      <!-- 1.4 -->
      <g transform="translate(28.146875 262.594444) scale(0.1 -0.1)">
       <use xlink:href="#DejaVuSans-31"/>
       <use xlink:href="#DejaVuSans-2e" transform="translate(63.623047 0)"/>
       <use xlink:href="#DejaVuSans-34" transform="translate(95.410156 0)"/>
      </g>
     </g>
    </g>
    <g id="ytick_4">
     <g id="line2d_23">
      <path d="M 51.05 202.450839 
L 853.2 202.450839 
" clip-path="url(#p14d9e056eb)" style="fill: none; stroke: #b0b0b0; stroke-opacity: 0.3; stroke-width: 0.8; stroke-linecap: square"/>
     </g>
     <g id="line2d_24">
      <g>
       <use xlink:href="#m1a5c88f8e4" x="51.05" y="202.450839" style="stroke: #000000; stroke-width: 0.8"/>
      </g>
     </g>
     <g id="text_13">
      <!-- 1.6 -->
      <g transform="translate(28.146875 206.250057) scale(0.1 -0.1)">
       <use xlink:href="#DejaVuSans-31"/>
       <use xlink:href="#DejaVuSans-2e" transform="translate(63.623047 0)"/>
       <use xlink:href="#DejaVuSans-36" transform="translate(95.410156 0)"/>
      </g>
     </g>
    </g>
    <g id="ytick_5">
     <g id="line2d_25">
      <path d="M 51.05 146.106451 
L 853.2 146.106451 
" clip-path="url(#p14d9e056eb)" style="fill: none; stroke: #b0b0b0; stroke-opacity: 0.3; stroke-width: 0.8; stroke-linecap: square"/>
     </g>
     <g id="line2d_26">
      <g>
       <use xlink:href="#m1a5c88f8e4" x="51.05" y="146.106451" style="stroke: #000000; stroke-width: 0.8"/>
      </g>
     </g>
     <g id="text_14">
      <!-- 1.8 -->
      <g transform="translate(28.146875 149.90567) scale(0.1 -0.1)">
       <use xlink:href="#DejaVuSans-31"/>
       <use xlink:href="#DejaVuSans-2e" transform="translate(63.623047 0)"/>
       <use xlink:href="#DejaVuSans-38" transform="translate(95.410156 0)"/>
      </g>
     </g>
    </g>
    <g id="ytick_6">
     <g id="line2d_27">
      <path d="M 51.05 89.762064 
L 853.2 89.762064 
" clip-path="url(#p14d9e056eb)" style="fill: none; stroke: #b0b0b0; stroke-opacity: 0.3; stroke-width: 0.8; stroke-linecap: square"/>
     </g>
     <g id="line2d_28">
      <g>
       <use xlink:href="#m1a5c88f8e4" x="51.05" y="89.762064" style="stroke: #000000; stroke-width: 0.8"/>
      </g>
     </g>
     <g id="text_15">
      <!-- 2.0 -->
      <g transform="translate(28.146875 93.561283) scale(0.1 -0.1)">
       <use xlink:href="#DejaVuSans-32"/>
       <use xlink:href="#DejaVuSans-2e" transform="translate(63.623047 0)"/>
       <use xlink:href="#DejaVuSans-30" transform="translate(95.410156 0)"/>
      </g>
     </g>
    </g>
    <g id="text_16">
     <!-- Capital total / Investissement cumulé (réel) -->
     <g transform="translate(21.65125 344.803063) rotate(-90) scale(0.12 -0.12)">
      <defs>
       <path id="DejaVuSans-43" d="M 4122 4306 
L 4122 3641 
Q 3803 3938 3442 4084 
Q 3081 4231 2675 4231 
Q 1875 4231 1450 3742 
Q 1025 3253 1025 2328 
Q 1025 1406 1450 917 
Q 1875 428 2675 428 
Q 3081 428 3442 575 
Q 3803 722 4122 1019 
L 4122 359 
Q 3791 134 3420 21 
Q 3050 -91 2638 -91 
Q 1578 -91 968 557 
Q 359 1206 359 2328 
Q 359 3453 968 4101 
Q 1578 4750 2638 4750 
Q 3056 4750 3426 4639 
Q 3797 4528 4122 4306 
z
" transform="scale(0.015625)"/>
       <path id="DejaVuSans-61" d="M 2194 1759 
Q 1497 1759 1228 1600 
Q 959 1441 959 1056 
Q 959 750 1161 570 
Q 1363 391 1709 391 
Q 2188 391 2477 730 
Q 2766 1069 2766 1631 
L 2766 1759 
L 2194 1759 
z
M 3341 1997 
L 3341 0 
L 2766 0 
L 2766 531 
Q 2569 213 2275 61 
Q 1981 -91 1556 -91 
Q 1019 -91 701 211 
Q 384 513 384 1019 
Q 384 1609 779 1909 
Q 1175 2209 1959 2209 
L 2766 2209 
L 2766 2266 
Q 2766 2663 2505 2880 
Q 2244 3097 1772 3097 
Q 1472 3097 1187 3025 
Q 903 2953 641 2809 
L 641 3341 
Q 956 3463 1253 3523 
Q 1550 3584 1831 3584 
Q 2591 3584 2966 3190 
Q 3341 2797 3341 1997 
z
" transform="scale(0.015625)"/>
       <path id="DejaVuSans-70" d="M 1159 525 
L 1159 -1331 
L 581 -1331 
L 581 3500 
L 1159 3500 
L 1159 2969 
Q 1341 3281 1617 3432 
Q 1894 3584 2278 3584 
Q 2916 3584 3314 3078 
Q 3713 2572 3713 1747 
Q 3713 922 3314 415 
Q 2916 -91 2278 -91 
Q 1894 -91 1617 61 
Q 1341 213 1159 525 
z
M 3116 1747 
Q 3116 2381 2855 2742 
Q 2594 3103 2138 3103 
Q 1681 3103 1420 2742 
Q 1159 2381 1159 1747 
Q 1159 1113 1420 752 
Q 1681 391 2138 391 
Q 2594 391 2855 752 
Q 3116 1113 3116 1747 
z
" transform="scale(0.015625)"/>
       <path id="DejaVuSans-69" d="M 603 3500 
L 1178 3500 
L 1178 0 
L 603 0 
L 603 3500 
z
M 603 4863 
L 1178 4863 
L 1178 4134 
L 603 4134 
L 603 4863 
z
" transform="scale(0.015625)"/>
       <path id="DejaVuSans-6c" d="M 603 4863 
L 1178 4863 
L 1178 0 
L 603 0 
L 603 4863 
z
" transform="scale(0.015625)"/>
       <path id="DejaVuSans-6f" d="M 1959 3097 
Q 1497 3097 1228 2736 
Q 959 2375 959 1747 
Q 959 1119 1226 758 
Q 1494 397 1959 397 
Q 2419 397 2687 759 
Q 2956 1122 2956 1747 
Q 2956 2369 2687 2733 
Q 2419 3097 1959 3097 
z
M 1959 3584 
Q 2709 3584 3137 3096 
Q 3566 2609 3566 1747 
Q 3566 888 3137 398 
Q 2709 -91 1959 -91 
Q 1206 -91 779 398 
Q 353 888 353 1747 
Q 353 2609 779 3096 
Q 1206 3584 1959 3584 
z
" transform="scale(0.015625)"/>
       <path id="DejaVuSans-2f" d="M 1625 4666 
L 2156 4666 
L 531 -594 
L 0 -594 
L 1625 4666 
z
" transform="scale(0.015625)"/>
       <path id="DejaVuSans-49" d="M 628 4666 
L 1259 4666 
L 1259 0 
L 628 0 
L 628 4666 
z
" transform="scale(0.015625)"/>
       <path id="DejaVuSans-76" d="M 191 3500 
L 800 3500 
L 1894 563 
L 2988 3500 
L 3597 3500 
L 2284 0 
L 1503 0 
L 191 3500 
z
" transform="scale(0.015625)"/>
       <path id="DejaVuSans-73" d="M 2834 3397 
L 2834 2853 
Q 2591 2978 2328 3040 
Q 2066 3103 1784 3103 
Q 1356 3103 1142 2972 
Q 928 2841 928 2578 
Q 928 2378 1081 2264 
Q 1234 2150 1697 2047 
L 1894 2003 
Q 2506 1872 2764 1633 
Q 3022 1394 3022 966 
Q 3022 478 2636 193 
Q 2250 -91 1575 -91 
Q 1294 -91 989 -36 
Q 684 19 347 128 
L 347 722 
Q 666 556 975 473 
Q 1284 391 1588 391 
Q 1994 391 2212 530 
Q 2431 669 2431 922 
Q 2431 1156 2273 1281 
Q 2116 1406 1581 1522 
L 1381 1569 
Q 847 1681 609 1914 
Q 372 2147 372 2553 
Q 372 3047 722 3315 
Q 1072 3584 1716 3584 
Q 2034 3584 2315 3537 
Q 2597 3491 2834 3397 
z
" transform="scale(0.015625)"/>
       <path id="DejaVuSans-6d" d="M 3328 2828 
Q 3544 3216 3844 3400 
Q 4144 3584 4550 3584 
Q 5097 3584 5394 3201 
Q 5691 2819 5691 2113 
L 5691 0 
L 5113 0 
L 5113 2094 
Q 5113 2597 4934 2840 
Q 4756 3084 4391 3084 
Q 3944 3084 3684 2787 
Q 3425 2491 3425 1978 
L 3425 0 
L 2847 0 
L 2847 2094 
Q 2847 2600 2669 2842 
Q 2491 3084 2119 3084 
Q 1678 3084 1418 2786 
Q 1159 2488 1159 1978 
L 1159 0 
L 581 0 
L 581 3500 
L 1159 3500 
L 1159 2956 
Q 1356 3278 1631 3431 
Q 1906 3584 2284 3584 
Q 2666 3584 2933 3390 
Q 3200 3197 3328 2828 
z
" transform="scale(0.015625)"/>
       <path id="DejaVuSans-63" d="M 3122 3366 
L 3122 2828 
Q 2878 2963 2633 3030 
Q 2388 3097 2138 3097 
Q 1578 3097 1268 2742 
Q 959 2388 959 1747 
Q 959 1106 1268 751 
Q 1578 397 2138 397 
Q 2388 397 2633 464 
Q 2878 531 3122 666 
L 3122 134 
Q 2881 22 2623 -34 
Q 2366 -91 2075 -91 
Q 1284 -91 818 406 
Q 353 903 353 1747 
Q 353 2603 823 3093 
Q 1294 3584 2113 3584 
Q 2378 3584 2631 3529 
Q 2884 3475 3122 3366 
z
" transform="scale(0.015625)"/>
       <path id="DejaVuSans-28" d="M 1984 4856 
Q 1566 4138 1362 3434 
Q 1159 2731 1159 2009 
Q 1159 1288 1364 580 
Q 1569 -128 1984 -844 
L 1484 -844 
Q 1016 -109 783 600 
Q 550 1309 550 2009 
Q 550 2706 781 3412 
Q 1013 4119 1484 4856 
L 1984 4856 
z
" transform="scale(0.015625)"/>
       <path id="DejaVuSans-72" d="M 2631 2963 
Q 2534 3019 2420 3045 
Q 2306 3072 2169 3072 
Q 1681 3072 1420 2755 
Q 1159 2438 1159 1844 
L 1159 0 
L 581 0 
L 581 3500 
L 1159 3500 
L 1159 2956 
Q 1341 3275 1631 3429 
Q 1922 3584 2338 3584 
Q 2397 3584 2469 3576 
Q 2541 3569 2628 3553 
L 2631 2963 
z
" transform="scale(0.015625)"/>
       <path id="DejaVuSans-29" d="M 513 4856 
L 1013 4856 
Q 1481 4119 1714 3412 
Q 1947 2706 1947 2009 
Q 1947 1309 1714 600 
Q 1481 -109 1013 -844 
L 513 -844 
Q 928 -128 1133 580 
Q 1338 1288 1338 2009 
Q 1338 2731 1133 3434 
Q 928 4138 513 4856 
z
" transform="scale(0.015625)"/>
      </defs>
      <use xlink:href="#DejaVuSans-43"/>
      <use xlink:href="#DejaVuSans-61" transform="translate(69.824219 0)"/>
      <use xlink:href="#DejaVuSans-70" transform="translate(131.103516 0)"/>
      <use xlink:href="#DejaVuSans-69" transform="translate(194.580078 0)"/>
      <use xlink:href="#DejaVuSans-74" transform="translate(222.363281 0)"/>
      <use xlink:href="#DejaVuSans-61" transform="translate(261.572266 0)"/>
      <use xlink:href="#DejaVuSans-6c" transform="translate(322.851562 0)"/>
      <use xlink:href="#DejaVuSans-20" transform="translate(350.634766 0)"/>
      <use xlink:href="#DejaVuSans-74" transform="translate(382.421875 0)"/>
      <use xlink:href="#DejaVuSans-6f" transform="translate(421.630859 0)"/>
      <use xlink:href="#DejaVuSans-74" transform="translate(482.8125 0)"/>
      <use xlink:href="#DejaVuSans-61" transform="translate(522.021484 0)"/>
      <use xlink:href="#DejaVuSans-6c" transform="translate(583.300781 0)"/>
      <use xlink:href="#DejaVuSans-20" transform="translate(611.083984 0)"/>
      <use xlink:href="#DejaVuSans-2f" transform="translate(642.871094 0)"/>
      <use xlink:href="#DejaVuSans-20" transform="translate(676.5625 0)"/>
      <use xlink:href="#DejaVuSans-49" transform="translate(708.349609 0)"/>
      <use xlink:href="#DejaVuSans-6e" transform="translate(737.841797 0)"/>
      <use xlink:href="#DejaVuSans-76" transform="translate(801.220703 0)"/>
      <use xlink:href="#DejaVuSans-65" transform="translate(860.400391 0)"/>
      <use xlink:href="#DejaVuSans-73" transform="translate(921.923828 0)"/>
      <use xlink:href="#DejaVuSans-74" transform="translate(974.023438 0)"/>
      <use xlink:href="#DejaVuSans-69" transform="translate(1013.232422 0)"/>
      <use xlink:href="#DejaVuSans-73" transform="translate(1041.015625 0)"/>
      <use xlink:href="#DejaVuSans-73" transform="translate(1093.115234 0)"/>
      <use xlink:href="#DejaVuSans-65" transform="translate(1145.214844 0)"/>
      <use xlink:href="#DejaVuSans-6d" transform="translate(1206.738281 0)"/>
      <use xlink:href="#DejaVuSans-65" transform="translate(1304.150391 0)"/>
      <use xlink:href="#DejaVuSans-6e" transform="translate(1365.673828 0)"/>
      <use xlink:href="#DejaVuSans-74" transform="translate(1429.052734 0)"/>
      <use xlink:href="#DejaVuSans-20" transform="translate(1468.261719 0)"/>
      <use xlink:href="#DejaVuSans-63" transform="translate(1500.048828 0)"/>
      <use xlink:href="#DejaVuSans-75" transform="translate(1555.029297 0)"/>
      <use xlink:href="#DejaVuSans-6d" transform="translate(1618.408203 0)"/>
      <use xlink:href="#DejaVuSans-75" transform="translate(1715.820312 0)"/>
      <use xlink:href="#DejaVuSans-6c" transform="translate(1779.199219 0)"/>
      <use xlink:href="#DejaVuSans-e9" transform="translate(1806.982422 0)"/>
      <use xlink:href="#DejaVuSans-20" transform="translate(1868.505859 0)"/>
      <use xlink:href="#DejaVuSans-28" transform="translate(1900.292969 0)"/>
      <use xlink:href="#DejaVuSans-72" transform="translate(1939.306641 0)"/>
      <use xlink:href="#DejaVuSans-e9" transform="translate(1978.169922 0)"/>
      <use xlink:href="#DejaVuSans-65" transform="translate(2039.693359 0)"/>
      <use xlink:href="#DejaVuSans-6c" transform="translate(2101.216797 0)"/>
      <use xlink:href="#DejaVuSans-29" transform="translate(2129 0)"/>
     </g>
    </g>
   </g>
   <g id="line2d_29">
    <path d="M 73.331944 57.964 
L 95.613889 62.812794 
L 117.895833 74.679736 
L 140.177778 93.826749 
L 162.459722 107.236357 
L 184.741667 130.869254 
L 207.023611 138.066863 
L 229.305556 146.519389 
L 251.5875 158.176178 
L 273.869444 164.684526 
L 296.151389 165.030144 
L 318.433333 165.195347 
L 340.715278 162.217244 
L 362.997222 168.412132 
L 385.279167 178.415633 
L 407.561111 188.824121 
L 429.843056 189.787919 
L 452.125 195.460636 
L 474.406944 197.650028 
L 496.688889 199.693253 
L 518.970833 210.834078 
L 541.252778 234.536904 
L 563.534722 236.724461 
L 585.816667 238.165585 
L 608.098611 246.448572 
L 630.380556 253.00667 
L 652.6625 257.592879 
L 674.944444 261.2007 
L 697.226389 264.441078 
L 719.508333 263.03521 
L 741.790278 263.497871 
L 764.072222 263.816385 
L 786.354167 299.849184 
L 808.636111 282.170248 
L 830.918056 279.077559 
" clip-path="url(#p14d9e056eb)" style="fill: none; stroke: #0000ff; stroke-width: 1.5; stroke-linecap: square"/>
    <defs>
     <path id="m99c3aca741" d="M 0 1.5 
C 0.397805 1.5 0.77937 1.341951 1.06066 1.06066 
C 1.341951 0.77937 1.5 0.397805 1.5 0 
C 1.5 -0.397805 1.341951 -0.77937 1.06066 -1.06066 
C 0.77937 -1.341951 0.397805 -1.5 0 -1.5 
C -0.397805 -1.5 -0.77937 -1.341951 -1.06066 -1.06066 
C -1.341951 -0.77937 -1.5 -0.397805 -1.5 0 
C -1.5 0.397805 -1.341951 0.77937 -1.06066 1.06066 
C -0.77937 1.341951 -0.397805 1.5 0 1.5 
z
" style="stroke: #0000ff"/>
    </defs>
    <g clip-path="url(#p14d9e056eb)">
     <use xlink:href="#m99c3aca741" x="73.331944" y="57.964" style="fill: #0000ff; stroke: #0000ff"/>
     <use xlink:href="#m99c3aca741" x="95.613889" y="62.812794" style="fill: #0000ff; stroke: #0000ff"/>
     <use xlink:href="#m99c3aca741" x="117.895833" y="74.679736" style="fill: #0000ff; stroke: #0000ff"/>
     <use xlink:href="#m99c3aca741" x="140.177778" y="93.826749" style="fill: #0000ff; stroke: #0000ff"/>
     <use xlink:href="#m99c3aca741" x="162.459722" y="107.236357" style="fill: #0000ff; stroke: #0000ff"/>
     <use xlink:href="#m99c3aca741" x="184.741667" y="130.869254" style="fill: #0000ff; stroke: #0000ff"/>
     <use xlink:href="#m99c3aca741" x="207.023611" y="138.066863" style="fill: #0000ff; stroke: #0000ff"/>
     <use xlink:href="#m99c3aca741" x="229.305556" y="146.519389" style="fill: #0000ff; stroke: #0000ff"/>
     <use xlink:href="#m99c3aca741" x="251.5875" y="158.176178" style="fill: #0000ff; stroke: #0000ff"/>
     <use xlink:href="#m99c3aca741" x="273.869444" y="164.684526" style="fill: #0000ff; stroke: #0000ff"/>
     <use xlink:href="#m99c3aca741" x="296.151389" y="165.030144" style="fill: #0000ff; stroke: #0000ff"/>
     <use xlink:href="#m99c3aca741" x="318.433333" y="165.195347" style="fill: #0000ff; stroke: #0000ff"/>
     <use xlink:href="#m99c3aca741" x="340.715278" y="162.217244" style="fill: #0000ff; stroke: #0000ff"/>
     <use xlink:href="#m99c3aca741" x="362.997222" y="168.412132" style="fill: #0000ff; stroke: #0000ff"/>
     <use xlink:href="#m99c3aca741" x="385.279167" y="178.415633" style="fill: #0000ff; stroke: #0000ff"/>
     <use xlink:href="#m99c3aca741" x="407.561111" y="188.824121" style="fill: #0000ff; stroke: #0000ff"/>
     <use xlink:href="#m99c3aca741" x="429.843056" y="189.787919" style="fill: #0000ff; stroke: #0000ff"/>
     <use xlink:href="#m99c3aca741" x="452.125" y="195.460636" style="fill: #0000ff; stroke: #0000ff"/>
     <use xlink:href="#m99c3aca741" x="474.406944" y="197.650028" style="fill: #0000ff; stroke: #0000ff"/>
     <use xlink:href="#m99c3aca741" x="496.688889" y="199.693253" style="fill: #0000ff; stroke: #0000ff"/>
     <use xlink:href="#m99c3aca741" x="518.970833" y="210.834078" style="fill: #0000ff; stroke: #0000ff"/>
     <use xlink:href="#m99c3aca741" x="541.252778" y="234.536904" style="fill: #0000ff; stroke: #0000ff"/>
     <use xlink:href="#m99c3aca741" x="563.534722" y="236.724461" style="fill: #0000ff; stroke: #0000ff"/>
     <use xlink:href="#m99c3aca741" x="585.816667" y="238.165585" style="fill: #0000ff; stroke: #0000ff"/>
     <use xlink:href="#m99c3aca741" x="608.098611" y="246.448572" style="fill: #0000ff; stroke: #0000ff"/>
     <use xlink:href="#m99c3aca741" x="630.380556" y="253.00667" style="fill: #0000ff; stroke: #0000ff"/>
     <use xlink:href="#m99c3aca741" x="652.6625" y="257.592879" style="fill: #0000ff; stroke: #0000ff"/>
     <use xlink:href="#m99c3aca741" x="674.944444" y="261.2007" style="fill: #0000ff; stroke: #0000ff"/>
     <use xlink:href="#m99c3aca741" x="697.226389" y="264.441078" style="fill: #0000ff; stroke: #0000ff"/>
     <use xlink:href="#m99c3aca741" x="719.508333" y="263.03521" style="fill: #0000ff; stroke: #0000ff"/>
     <use xlink:href="#m99c3aca741" x="741.790278" y="263.497871" style="fill: #0000ff; stroke: #0000ff"/>
     <use xlink:href="#m99c3aca741" x="764.072222" y="263.816385" style="fill: #0000ff; stroke: #0000ff"/>
     <use xlink:href="#m99c3aca741" x="786.354167" y="299.849184" style="fill: #0000ff; stroke: #0000ff"/>
     <use xlink:href="#m99c3aca741" x="808.636111" y="282.170248" style="fill: #0000ff; stroke: #0000ff"/>
     <use xlink:href="#m99c3aca741" x="830.918056" y="279.077559" style="fill: #0000ff; stroke: #0000ff"/>
    </g>
   </g>
   <g id="line2d_30">
    <path d="M 51.05 371.484 
L 853.2 371.484 
" clip-path="url(#p14d9e056eb)" style="fill: none; stroke-dasharray: 2.96,1.28; stroke-dashoffset: 0; stroke: #808080; stroke-width: 0.8"/>
   </g>
   <g id="patch_3">
    <path d="M 51.05 387.16 
L 51.05 42.288 
" style="fill: none; stroke: #000000; stroke-width: 0.8; stroke-linejoin: miter; stroke-linecap: square"/>
   </g>
   <g id="patch_4">
    <path d="M 853.2 387.16 
L 853.2 42.288 
" style="fill: none; stroke: #000000; stroke-width: 0.8; stroke-linejoin: miter; stroke-linecap: square"/>
   </g>
   <g id="patch_5">
    <path d="M 51.05 387.16 
L 853.2 387.16 
" style="fill: none; stroke: #000000; stroke-width: 0.8; stroke-linejoin: miter; stroke-linecap: square"/>
   </g>
   <g id="patch_6">
    <path d="M 51.05 42.288 
L 853.2 42.288 
" style="fill: none; stroke: #000000; stroke-width: 0.8; stroke-linejoin: miter; stroke-linecap: square"/>
   </g>
   <g id="text_17">
    <!-- Compte notionnel (croissance du PIB) : simulation sur 43 ans -->
    <g transform="translate(253.584531 21.106844) scale(0.13 -0.13)">
     <defs>
      <path id="DejaVuSans-50" d="M 1259 4147 
L 1259 2394 
L 2053 2394 
Q 2494 2394 2734 2622 
Q 2975 2850 2975 3272 
Q 2975 3691 2734 3919 
Q 2494 4147 2053 4147 
L 1259 4147 
z
M 628 4666 
L 2053 4666 
Q 2838 4666 3239 4311 
Q 3641 3956 3641 3272 
Q 3641 2581 3239 2228 
Q 2838 1875 2053 1875 
L 1259 1875 
L 1259 0 
L 628 0 
L 628 4666 
z
" transform="scale(0.015625)"/>
      <path id="DejaVuSans-42" d="M 1259 2228 
L 1259 519 
L 2272 519 
Q 2781 519 3026 730 
Q 3272 941 3272 1375 
Q 3272 1813 3026 2020 
Q 2781 2228 2272 2228 
L 1259 2228 
z
M 1259 4147 
L 1259 2741 
L 2194 2741 
Q 2656 2741 2882 2914 
Q 3109 3088 3109 3444 
Q 3109 3797 2882 3972 
Q 2656 4147 2194 4147 
L 1259 4147 
z
M 628 4666 
L 2241 4666 
Q 2963 4666 3353 4366 
Q 3744 4066 3744 3513 
Q 3744 3084 3544 2831 
Q 3344 2578 2956 2516 
Q 3422 2416 3680 2098 
Q 3938 1781 3938 1306 
Q 3938 681 3513 340 
Q 3088 0 2303 0 
L 628 0 
L 628 4666 
z
" transform="scale(0.015625)"/>
      <path id="DejaVuSans-3a" d="M 750 794 
L 1409 794 
L 1409 0 
L 750 0 
L 750 794 
z
M 750 3309 
L 1409 3309 
L 1409 2516 
L 750 2516 
L 750 3309 
z
" transform="scale(0.015625)"/>
      <path id="DejaVuSans-33" d="M 2597 2516 
Q 3050 2419 3304 2112 
Q 3559 1806 3559 1356 
Q 3559 666 3084 287 
Q 2609 -91 1734 -91 
Q 1441 -91 1130 -33 
Q 819 25 488 141 
L 488 750 
Q 750 597 1062 519 
Q 1375 441 1716 441 
Q 2309 441 2620 675 
Q 2931 909 2931 1356 
Q 2931 1769 2642 2001 
Q 2353 2234 1838 2234 
L 1294 2234 
L 1294 2753 
L 1863 2753 
Q 2328 2753 2575 2939 
Q 2822 3125 2822 3475 
Q 2822 3834 2567 4026 
Q 2313 4219 1838 4219 
Q 1578 4219 1281 4162 
Q 984 4106 628 3988 
L 628 4550 
Q 988 4650 1302 4700 
Q 1616 4750 1894 4750 
Q 2613 4750 3031 4423 
Q 3450 4097 3450 3541 
Q 3450 3153 3228 2886 
Q 3006 2619 2597 2516 
z
" transform="scale(0.015625)"/>
     </defs>
     <use xlink:href="#DejaVuSans-43"/>
     <use xlink:href="#DejaVuSans-6f" transform="translate(69.824219 0)"/>
     <use xlink:href="#DejaVuSans-6d" transform="translate(131.005859 0)"/>
     <use xlink:href="#DejaVuSans-70" transform="translate(228.417969 0)"/>
     <use xlink:href="#DejaVuSans-74" transform="translate(291.894531 0)"/>
     <use xlink:href="#DejaVuSans-65" transform="translate(331.103516 0)"/>
     <use xlink:href="#DejaVuSans-20" transform="translate(392.626953 0)"/>
     <use xlink:href="#DejaVuSans-6e" transform="translate(424.414062 0)"/>
     <use xlink:href="#DejaVuSans-6f" transform="translate(487.792969 0)"/>
     <use xlink:href="#DejaVuSans-74" transform="translate(548.974609 0)"/>
     <use xlink:href="#DejaVuSans-69" transform="translate(588.183594 0)"/>
     <use xlink:href="#DejaVuSans-6f" transform="translate(615.966797 0)"/>
     <use xlink:href="#DejaVuSans-6e" transform="translate(677.148438 0)"/>
     <use xlink:href="#DejaVuSans-6e" transform="translate(740.527344 0)"/>
     <use xlink:href="#DejaVuSans-65" transform="translate(803.90625 0)"/>
     <use xlink:href="#DejaVuSans-6c" transform="translate(865.429688 0)"/>
     <use xlink:href="#DejaVuSans-20" transform="translate(893.212891 0)"/>
     <use xlink:href="#DejaVuSans-28" transform="translate(925 0)"/>
     <use xlink:href="#DejaVuSans-63" transform="translate(964.013672 0)"/>
     <use xlink:href="#DejaVuSans-72" transform="translate(1018.994141 0)"/>
     <use xlink:href="#DejaVuSans-6f" transform="translate(1057.857422 0)"/>
     <use xlink:href="#DejaVuSans-69" transform="translate(1119.039062 0)"/>
     <use xlink:href="#DejaVuSans-73" transform="translate(1146.822266 0)"/>
     <use xlink:href="#DejaVuSans-73" transform="translate(1198.921875 0)"/>
     <use xlink:href="#DejaVuSans-61" transform="translate(1251.021484 0)"/>
     <use xlink:href="#DejaVuSans-6e" transform="translate(1312.300781 0)"/>
     <use xlink:href="#DejaVuSans-63" transform="translate(1375.679688 0)"/>
     <use xlink:href="#DejaVuSans-65" transform="translate(1430.660156 0)"/>
     <use xlink:href="#DejaVuSans-20" transform="translate(1492.183594 0)"/>
     <use xlink:href="#DejaVuSans-64" transform="translate(1523.970703 0)"/>
     <use xlink:href="#DejaVuSans-75" transform="translate(1587.447266 0)"/>
     <use xlink:href="#DejaVuSans-20" transform="translate(1650.826172 0)"/>
     <use xlink:href="#DejaVuSans-50" transform="translate(1682.613281 0)"/>
     <use xlink:href="#DejaVuSans-49" transform="translate(1742.916016 0)"/>
     <use xlink:href="#DejaVuSans-42" transform="translate(1772.408203 0)"/>
     <use xlink:href="#DejaVuSans-29" transform="translate(1841.011719 0)"/>
     <use xlink:href="#DejaVuSans-20" transform="translate(1880.025391 0)"/>
     <use xlink:href="#DejaVuSans-3a" transform="translate(1911.8125 0)"/>
     <use xlink:href="#DejaVuSans-20" transform="translate(1945.503906 0)"/>
     <use xlink:href="#DejaVuSans-73" transform="translate(1977.291016 0)"/>
     <use xlink:href="#DejaVuSans-69" transform="translate(2029.390625 0)"/>
     <use xlink:href="#DejaVuSans-6d" transform="translate(2057.173828 0)"/>
     <use xlink:href="#DejaVuSans-75" transform="translate(2154.585938 0)"/>
     <use xlink:href="#DejaVuSans-6c" transform="translate(2217.964844 0)"/>
     <use xlink:href="#DejaVuSans-61" transform="translate(2245.748047 0)"/>
     <use xlink:href="#DejaVuSans-74" transform="translate(2307.027344 0)"/>
     <use xlink:href="#DejaVuSans-69" transform="translate(2346.236328 0)"/>
     <use xlink:href="#DejaVuSans-6f" transform="translate(2374.019531 0)"/>
     <use xlink:href="#DejaVuSans-6e" transform="translate(2435.201172 0)"/>
     <use xlink:href="#DejaVuSans-20" transform="translate(2498.580078 0)"/>
     <use xlink:href="#DejaVuSans-73" transform="translate(2530.367188 0)"/>
     <use xlink:href="#DejaVuSans-75" transform="translate(2582.466797 0)"/>
     <use xlink:href="#DejaVuSans-72" transform="translate(2645.845703 0)"/>
     <use xlink:href="#DejaVuSans-20" transform="translate(2686.958984 0)"/>
     <use xlink:href="#DejaVuSans-34" transform="translate(2718.746094 0)"/>
     <use xlink:href="#DejaVuSans-33" transform="translate(2782.369141 0)"/>
     <use xlink:href="#DejaVuSans-20" transform="translate(2845.992188 0)"/>
     <use xlink:href="#DejaVuSans-61" transform="translate(2877.779297 0)"/>
     <use xlink:href="#DejaVuSans-6e" transform="translate(2939.058594 0)"/>
     <use xlink:href="#DejaVuSans-73" transform="translate(3002.4375 0)"/>
    </g>
    <!-- (cotisations croissant de 2%/an en réel, capitalisées à la croissance réelle du PIB) -->
    <g transform="translate(187.415547 36.288) scale(0.13 -0.13)">
     <defs>
      <path id="DejaVuSans-25" d="M 4653 2053 
Q 4381 2053 4226 1822 
Q 4072 1591 4072 1178 
Q 4072 772 4226 539 
Q 4381 306 4653 306 
Q 4919 306 5073 539 
Q 5228 772 5228 1178 
Q 5228 1588 5073 1820 
Q 4919 2053 4653 2053 
z
M 4653 2450 
Q 5147 2450 5437 2106 
Q 5728 1763 5728 1178 
Q 5728 594 5436 251 
Q 5144 -91 4653 -91 
Q 4153 -91 3862 251 
Q 3572 594 3572 1178 
Q 3572 1766 3864 2108 
Q 4156 2450 4653 2450 
z
M 1428 4353 
Q 1159 4353 1004 4120 
Q 850 3888 850 3481 
Q 850 3069 1003 2837 
Q 1156 2606 1428 2606 
Q 1700 2606 1854 2837 
Q 2009 3069 2009 3481 
Q 2009 3884 1853 4118 
Q 1697 4353 1428 4353 
z
M 4250 4750 
L 4750 4750 
L 1831 -91 
L 1331 -91 
L 4250 4750 
z
M 1428 4750 
Q 1922 4750 2215 4408 
Q 2509 4066 2509 3481 
Q 2509 2891 2217 2550 
Q 1925 2209 1428 2209 
Q 931 2209 642 2551 
Q 353 2894 353 3481 
Q 353 4063 643 4406 
Q 934 4750 1428 4750 
z
" transform="scale(0.015625)"/>
      <path id="DejaVuSans-2c" d="M 750 794 
L 1409 794 
L 1409 256 
L 897 -744 
L 494 -744 
L 750 256 
L 750 794 
z
" transform="scale(0.015625)"/>
      <path id="DejaVuSans-e0" d="M 2194 1759 
Q 1497 1759 1228 1600 
Q 959 1441 959 1056 
Q 959 750 1161 570 
Q 1363 391 1709 391 
Q 2188 391 2477 730 
Q 2766 1069 2766 1631 
L 2766 1759 
L 2194 1759 
z
M 3341 1997 
L 3341 0 
L 2766 0 
L 2766 531 
Q 2569 213 2275 61 
Q 1981 -91 1556 -91 
Q 1019 -91 701 211 
Q 384 513 384 1019 
Q 384 1609 779 1909 
Q 1175 2209 1959 2209 
L 2766 2209 
L 2766 2266 
Q 2766 2663 2505 2880 
Q 2244 3097 1772 3097 
Q 1472 3097 1187 3025 
Q 903 2953 641 2809 
L 641 3341 
Q 956 3463 1253 3523 
Q 1550 3584 1831 3584 
Q 2591 3584 2966 3190 
Q 3341 2797 3341 1997 
z
M 1403 5119 
L 2284 3950 
L 1806 3950 
L 787 5119 
L 1403 5119 
z
" transform="scale(0.015625)"/>
     </defs>
     <use xlink:href="#DejaVuSans-28"/>
     <use xlink:href="#DejaVuSans-63" transform="translate(39.013672 0)"/>
     <use xlink:href="#DejaVuSans-6f" transform="translate(93.994141 0)"/>
     <use xlink:href="#DejaVuSans-74" transform="translate(155.175781 0)"/>
     <use xlink:href="#DejaVuSans-69" transform="translate(194.384766 0)"/>
     <use xlink:href="#DejaVuSans-73" transform="translate(222.167969 0)"/>
     <use xlink:href="#DejaVuSans-61" transform="translate(274.267578 0)"/>
     <use xlink:href="#DejaVuSans-74" transform="translate(335.546875 0)"/>
     <use xlink:href="#DejaVuSans-69" transform="translate(374.755859 0)"/>
     <use xlink:href="#DejaVuSans-6f" transform="translate(402.539062 0)"/>
     <use xlink:href="#DejaVuSans-6e" transform="translate(463.720703 0)"/>
     <use xlink:href="#DejaVuSans-73" transform="translate(527.099609 0)"/>
     <use xlink:href="#DejaVuSans-20" transform="translate(579.199219 0)"/>
     <use xlink:href="#DejaVuSans-63" transform="translate(610.986328 0)"/>
     <use xlink:href="#DejaVuSans-72" transform="translate(665.966797 0)"/>
     <use xlink:href="#DejaVuSans-6f" transform="translate(704.830078 0)"/>
     <use xlink:href="#DejaVuSans-69" transform="translate(766.011719 0)"/>
     <use xlink:href="#DejaVuSans-73" transform="translate(793.794922 0)"/>
     <use xlink:href="#DejaVuSans-73" transform="translate(845.894531 0)"/>
     <use xlink:href="#DejaVuSans-61" transform="translate(897.994141 0)"/>
     <use xlink:href="#DejaVuSans-6e" transform="translate(959.273438 0)"/>
     <use xlink:href="#DejaVuSans-74" transform="translate(1022.652344 0)"/>
     <use xlink:href="#DejaVuSans-20" transform="translate(1061.861328 0)"/>
     <use xlink:href="#DejaVuSans-64" transform="translate(1093.648438 0)"/>
     <use xlink:href="#DejaVuSans-65" transform="translate(1157.125 0)"/>
     <use xlink:href="#DejaVuSans-20" transform="translate(1218.648438 0)"/>
     <use xlink:href="#DejaVuSans-32" transform="translate(1250.435547 0)"/>
     <use xlink:href="#DejaVuSans-25" transform="translate(1314.058594 0)"/>
     <use xlink:href="#DejaVuSans-2f" transform="translate(1409.078125 0)"/>
     <use xlink:href="#DejaVuSans-61" transform="translate(1442.769531 0)"/>
     <use xlink:href="#DejaVuSans-6e" transform="translate(1504.048828 0)"/>
     <use xlink:href="#DejaVuSans-20" transform="translate(1567.427734 0)"/>
     <use xlink:href="#DejaVuSans-65" transform="translate(1599.214844 0)"/>
     <use xlink:href="#DejaVuSans-6e" transform="translate(1660.738281 0)"/>
     <use xlink:href="#DejaVuSans-20" transform="translate(1724.117188 0)"/>
     <use xlink:href="#DejaVuSans-72" transform="translate(1755.904297 0)"/>
     <use xlink:href="#DejaVuSans-e9" transform="translate(1794.767578 0)"/>
     <use xlink:href="#DejaVuSans-65" transform="translate(1856.291016 0)"/>
     <use xlink:href="#DejaVuSans-6c" transform="translate(1917.814453 0)"/>
     <use xlink:href="#DejaVuSans-2c" transform="translate(1945.597656 0)"/>
     <use xlink:href="#DejaVuSans-20" transform="translate(1977.384766 0)"/>
     <use xlink:href="#DejaVuSans-63" transform="translate(2009.171875 0)"/>
     <use xlink:href="#DejaVuSans-61" transform="translate(2064.152344 0)"/>
     <use xlink:href="#DejaVuSans-70" transform="translate(2125.431641 0)"/>
     <use xlink:href="#DejaVuSans-69" transform="translate(2188.908203 0)"/>
     <use xlink:href="#DejaVuSans-74" transform="translate(2216.691406 0)"/>
     <use xlink:href="#DejaVuSans-61" transform="translate(2255.900391 0)"/>
     <use xlink:href="#DejaVuSans-6c" transform="translate(2317.179688 0)"/>
     <use xlink:href="#DejaVuSans-69" transform="translate(2344.962891 0)"/>
     <use xlink:href="#DejaVuSans-73" transform="translate(2372.746094 0)"/>
     <use xlink:href="#DejaVuSans-e9" transform="translate(2424.845703 0)"/>
     <use xlink:href="#DejaVuSans-65" transform="translate(2486.369141 0)"/>
     <use xlink:href="#DejaVuSans-73" transform="translate(2547.892578 0)"/>
     <use xlink:href="#DejaVuSans-20" transform="translate(2599.992188 0)"/>
     <use xlink:href="#DejaVuSans-e0" transform="translate(2631.779297 0)"/>
     <use xlink:href="#DejaVuSans-20" transform="translate(2693.058594 0)"/>
     <use xlink:href="#DejaVuSans-6c" transform="translate(2724.845703 0)"/>
     <use xlink:href="#DejaVuSans-61" transform="translate(2752.628906 0)"/>
     <use xlink:href="#DejaVuSans-20" transform="translate(2813.908203 0)"/>
     <use xlink:href="#DejaVuSans-63" transform="translate(2845.695312 0)"/>
     <use xlink:href="#DejaVuSans-72" transform="translate(2900.675781 0)"/>
     <use xlink:href="#DejaVuSans-6f" transform="translate(2939.539062 0)"/>
     <use xlink:href="#DejaVuSans-69" transform="translate(3000.720703 0)"/>
     <use xlink:href="#DejaVuSans-73" transform="translate(3028.503906 0)"/>
     <use xlink:href="#DejaVuSans-73" transform="translate(3080.603516 0)"/>
     <use xlink:href="#DejaVuSans-61" transform="translate(3132.703125 0)"/>
     <use xlink:href="#DejaVuSans-6e" transform="translate(3193.982422 0)"/>
     <use xlink:href="#DejaVuSans-63" transform="translate(3257.361328 0)"/>
     <use xlink:href="#DejaVuSans-65" transform="translate(3312.341797 0)"/>
     <use xlink:href="#DejaVuSans-20" transform="translate(3373.865234 0)"/>
     <use xlink:href="#DejaVuSans-72" transform="translate(3405.652344 0)"/>
     <use xlink:href="#DejaVuSans-e9" transform="translate(3444.515625 0)"/>
     <use xlink:href="#DejaVuSans-65" transform="translate(3506.039062 0)"/>
     <use xlink:href="#DejaVuSans-6c" transform="translate(3567.5625 0)"/>
     <use xlink:href="#DejaVuSans-6c" transform="translate(3595.345703 0)"/>
     <use xlink:href="#DejaVuSans-65" transform="translate(3623.128906 0)"/>
     <use xlink:href="#DejaVuSans-20" transform="translate(3684.652344 0)"/>
     <use xlink:href="#DejaVuSans-64" transform="translate(3716.439453 0)"/>
     <use xlink:href="#DejaVuSans-75" transform="translate(3779.916016 0)"/>
     <use xlink:href="#DejaVuSans-20" transform="translate(3843.294922 0)"/>
     <use xlink:href="#DejaVuSans-50" transform="translate(3875.082031 0)"/>
     <use xlink:href="#DejaVuSans-49" transform="translate(3935.384766 0)"/>
     <use xlink:href="#DejaVuSans-42" transform="translate(3964.876953 0)"/>
     <use xlink:href="#DejaVuSans-29" transform="translate(4033.480469 0)"/>
    </g>
   </g>
   <g id="legend_1">
    <g id="patch_7">
     <path d="M 633.416563 83.819875 
L 845.5 83.819875 
Q 847.7 83.819875 847.7 81.619875 
L 847.7 49.988 
Q 847.7 47.788 845.5 47.788 
L 633.416563 47.788 
Q 631.216563 47.788 631.216563 49.988 
L 631.216563 81.619875 
Q 631.216563 83.819875 633.416563 83.819875 
z
" style="fill: #ffffff; opacity: 0.8; stroke: #cccccc; stroke-linejoin: miter"/>
    </g>
    <g id="line2d_31">
     <path d="M 635.616562 57.136281 
L 646.616562 57.136281 
L 657.616562 57.136281 
" style="fill: none; stroke: #0000ff; stroke-width: 1.5; stroke-linecap: square"/>
     <g>
      <use xlink:href="#m99c3aca741" x="646.616562" y="57.136281" style="fill: #0000ff; stroke: #0000ff"/>
     </g>
    </g>
    <g id="text_18">
     <!-- Capital / Investissement cumulé -->
     <g transform="translate(666.416562 60.986281) scale(0.11 -0.11)">
      <use xlink:href="#DejaVuSans-43"/>
      <use xlink:href="#DejaVuSans-61" transform="translate(69.824219 0)"/>
      <use xlink:href="#DejaVuSans-70" transform="translate(131.103516 0)"/>
      <use xlink:href="#DejaVuSans-69" transform="translate(194.580078 0)"/>
      <use xlink:href="#DejaVuSans-74" transform="translate(222.363281 0)"/>
      <use xlink:href="#DejaVuSans-61" transform="translate(261.572266 0)"/>
      <use xlink:href="#DejaVuSans-6c" transform="translate(322.851562 0)"/>
      <use xlink:href="#DejaVuSans-20" transform="translate(350.634766 0)"/>
      <use xlink:href="#DejaVuSans-2f" transform="translate(382.421875 0)"/>
      <use xlink:href="#DejaVuSans-20" transform="translate(416.113281 0)"/>
      <use xlink:href="#DejaVuSans-49" transform="translate(447.900391 0)"/>
      <use xlink:href="#DejaVuSans-6e" transform="translate(477.392578 0)"/>
      <use xlink:href="#DejaVuSans-76" transform="translate(540.771484 0)"/>
      <use xlink:href="#DejaVuSans-65" transform="translate(599.951172 0)"/>
      <use xlink:href="#DejaVuSans-73" transform="translate(661.474609 0)"/>
      <use xlink:href="#DejaVuSans-74" transform="translate(713.574219 0)"/>
      <use xlink:href="#DejaVuSans-69" transform="translate(752.783203 0)"/>
      <use xlink:href="#DejaVuSans-73" transform="translate(780.566406 0)"/>
      <use xlink:href="#DejaVuSans-73" transform="translate(832.666016 0)"/>
      <use xlink:href="#DejaVuSans-65" transform="translate(884.765625 0)"/>
      <use xlink:href="#DejaVuSans-6d" transform="translate(946.289062 0)"/>
      <use xlink:href="#DejaVuSans-65" transform="translate(1043.701172 0)"/>
      <use xlink:href="#DejaVuSans-6e" transform="translate(1105.224609 0)"/>
      <use xlink:href="#DejaVuSans-74" transform="translate(1168.603516 0)"/>
      <use xlink:href="#DejaVuSans-20" transform="translate(1207.8125 0)"/>
      <use xlink:href="#DejaVuSans-63" transform="translate(1239.599609 0)"/>
      <use xlink:href="#DejaVuSans-75" transform="translate(1294.580078 0)"/>
      <use xlink:href="#DejaVuSans-6d" transform="translate(1357.958984 0)"/>
      <use xlink:href="#DejaVuSans-75" transform="translate(1455.371094 0)"/>
      <use xlink:href="#DejaVuSans-6c" transform="translate(1518.75 0)"/>
      <use xlink:href="#DejaVuSans-e9" transform="translate(1546.533203 0)"/>
     </g>
    </g>
    <g id="line2d_32">
     <path d="M 635.616562 73.282219 
L 646.616562 73.282219 
L 657.616562 73.282219 
" style="fill: none; stroke-dasharray: 2.96,1.28; stroke-dashoffset: 0; stroke: #808080; stroke-width: 0.8"/>
    </g>
    <g id="text_19">
     <!-- Seuil de rentabilité -->
     <g transform="translate(666.416562 77.132219) scale(0.11 -0.11)">
      <defs>
       <path id="DejaVuSans-53" d="M 3425 4513 
L 3425 3897 
Q 3066 4069 2747 4153 
Q 2428 4238 2131 4238 
Q 1616 4238 1336 4038 
Q 1056 3838 1056 3469 
Q 1056 3159 1242 3001 
Q 1428 2844 1947 2747 
L 2328 2669 
Q 3034 2534 3370 2195 
Q 3706 1856 3706 1288 
Q 3706 609 3251 259 
Q 2797 -91 1919 -91 
Q 1588 -91 1214 -16 
Q 841 59 441 206 
L 441 856 
Q 825 641 1194 531 
Q 1563 422 1919 422 
Q 2459 422 2753 634 
Q 3047 847 3047 1241 
Q 3047 1584 2836 1778 
Q 2625 1972 2144 2069 
L 1759 2144 
Q 1053 2284 737 2584 
Q 422 2884 422 3419 
Q 422 4038 858 4394 
Q 1294 4750 2059 4750 
Q 2388 4750 2728 4690 
Q 3069 4631 3425 4513 
z
" transform="scale(0.015625)"/>
      </defs>
      <use xlink:href="#DejaVuSans-53"/>
      <use xlink:href="#DejaVuSans-65" transform="translate(63.476562 0)"/>
      <use xlink:href="#DejaVuSans-75" transform="translate(125 0)"/>
      <use xlink:href="#DejaVuSans-69" transform="translate(188.378906 0)"/>
      <use xlink:href="#DejaVuSans-6c" transform="translate(216.162109 0)"/>
      <use xlink:href="#DejaVuSans-20" transform="translate(243.945312 0)"/>
      <use xlink:href="#DejaVuSans-64" transform="translate(275.732422 0)"/>
      <use xlink:href="#DejaVuSans-65" transform="translate(339.208984 0)"/>
      <use xlink:href="#DejaVuSans-20" transform="translate(400.732422 0)"/>
      <use xlink:href="#DejaVuSans-72" transform="translate(432.519531 0)"/>
      <use xlink:href="#DejaVuSans-65" transform="translate(471.382812 0)"/>
      <use xlink:href="#DejaVuSans-6e" transform="translate(532.90625 0)"/>
      <use xlink:href="#DejaVuSans-74" transform="translate(596.285156 0)"/>
      <use xlink:href="#DejaVuSans-61" transform="translate(635.494141 0)"/>
      <use xlink:href="#DejaVuSans-62" transform="translate(696.773438 0)"/>
      <use xlink:href="#DejaVuSans-69" transform="translate(760.25 0)"/>
      <use xlink:href="#DejaVuSans-6c" transform="translate(788.033203 0)"/>
      <use xlink:href="#DejaVuSans-69" transform="translate(815.816406 0)"/>
      <use xlink:href="#DejaVuSans-74" transform="translate(843.599609 0)"/>
      <use xlink:href="#DejaVuSans-e9" transform="translate(882.808594 0)"/>
     </g>
    </g>
   </g>
  </g>
 </g>
 <defs>
  <clipPath id="p14d9e056eb">
   <rect x="51.05" y="42.288" width="802.15" height="344.872"/>
  </clipPath>
 </defs>
</svg>
