<?xml version="1.0" encoding="utf-8" standalone="no"?>
<!DOCTYPE svg PUBLIC "-//W3C//DTD SVG 1.1//EN"
  "http://www.w3.org/Graphics/SVG/1.1/DTD/svg11.dtd">
<svg xmlns:xlink="http://www.w3.org/1999/xlink" width="864pt" height="576pt" viewBox="0 0 864 576" xmlns="http://www.w3.org/2000/svg" version="1.1">
 <metadata>
  <rdf:RDF xmlns:dc="http://purl.org/dc/elements/1.1/" xmlns:cc="http://creativecommons.org/ns#" xmlns:rdf="http://www.w3.org/1999/02/22-rdf-syntax-ns#">
   <cc:Work>
    <dc:type rdf:resource="http://purl.org/dc/dcmitype/StillImage"/>
    <dc:date>2026-04-16T22:34:32.729845</dc:date>
    <dc:format>image/svg+xml</dc:format>
    <dc:creator>
     <cc:Agent>
      <dc:title>Matplotlib v3.10.8, https://matplotlib.org/</dc:title>
     </cc:Agent>
    </dc:creator>
   </cc:Work>
  </rdf:RDF>
 </metadata>
 <defs>
  <style type="text/css">*{stroke-linejoin: round; stroke-linecap: butt}</style>
 </defs>
 <g id="figure_1">
  <g id="patch_1">
   <path d="M 0 576 
L 864 576 
L 864 0 
L 0 0 
z
" style="fill: #ffffff"/>
  </g>
  <g id="axes_1">
   <g id="patch_2">
    <path d="M 47.45 531.16 
L 845.325 531.16 
L 845.325 42.648 
L 47.45 42.648 
z
" style="fill: #ffffff"/>
   </g>
   <g id="patch_3">
    <path d="M 617.360714 531.16 
L 731.342857 531.16 
L 731.342857 492.928626 
L 617.360714 492.928626 
z
" clip-path="url(#pe030af3df1)" style="fill: #4682b4; stroke: #ffffff; stroke-width: 1.5; stroke-linejoin: miter"/>
   </g>
   <g id="patch_4">
    <path d="M 503.378571 531.16 
L 617.360714 531.16 
L 617.360714 492.928626 
L 503.378571 492.928626 
z
" clip-path="url(#pe030af3df1)" style="fill: #4682b4; stroke: #ffffff; stroke-width: 1.5; stroke-linejoin: miter"/>
   </g>
   <g id="patch_5">
    <path d="M 503.378571 488.680696 
L 617.360714 488.680696 
L 617.360714 450.449322 
L 503.378571 450.449322 
z
" clip-path="url(#pe030af3df1)" style="fill: #4682b4; stroke: #ffffff; stroke-width: 1.5; stroke-linejoin: miter"/>
   </g>
   <g id="patch_6">
    <path d="M 503.378571 446.201391 
L 617.360714 446.201391 
L 617.360714 407.970017 
L 503.378571 407.970017 
z
" clip-path="url(#pe030af3df1)" style="fill: #4682b4; stroke: #ffffff; stroke-width: 1.5; stroke-linejoin: miter"/>
   </g>
   <g id="patch_7">
    <path d="M 503.378571 403.722087 
L 617.360714 403.722087 
L 617.360714 365.490713 
L 503.378571 365.490713 
z
" clip-path="url(#pe030af3df1)" style="fill: #4682b4; stroke: #ffffff; stroke-width: 1.5; stroke-linejoin: miter"/>
   </g>
   <g id="patch_8">
    <path d="M 389.396429 531.16 
L 503.378571 531.16 
L 503.378571 492.928626 
L 389.396429 492.928626 
z
" clip-path="url(#pe030af3df1)" style="fill: #4682b4; stroke: #ffffff; stroke-width: 1.5; stroke-linejoin: miter"/>
   </g>
   <g id="patch_9">
    <path d="M 389.396429 488.680696 
L 503.378571 488.680696 
L 503.378571 450.449322 
L 389.396429 450.449322 
z
" clip-path="url(#pe030af3df1)" style="fill: #4682b4; stroke: #ffffff; stroke-width: 1.5; stroke-linejoin: miter"/>
   </g>
   <g id="patch_10">
    <path d="M 389.396429 446.201391 
L 503.378571 446.201391 
L 503.378571 407.970017 
L 389.396429 407.970017 
z
" clip-path="url(#pe030af3df1)" style="fill: #4682b4; stroke: #ffffff; stroke-width: 1.5; stroke-linejoin: miter"/>
   </g>
   <g id="patch_11">
    <path d="M 389.396429 403.722087 
L 503.378571 403.722087 
L 503.378571 365.490713 
L 389.396429 365.490713 
z
" clip-path="url(#pe030af3df1)" style="fill: #4682b4; stroke: #ffffff; stroke-width: 1.5; stroke-linejoin: miter"/>
   </g>
   <g id="patch_12">
    <path d="M 389.396429 361.242783 
L 503.378571 361.242783 
L 503.378571 323.011409 
L 389.396429 323.011409 
z
" clip-path="url(#pe030af3df1)" style="fill: #4682b4; stroke: #ffffff; stroke-width: 1.5; stroke-linejoin: miter"/>
   </g>
   <g id="patch_13">
    <path d="M 389.396429 318.763478 
L 503.378571 318.763478 
L 503.378571 280.532104 
L 389.396429 280.532104 
z
" clip-path="url(#pe030af3df1)" style="fill: #4682b4; stroke: #ffffff; stroke-width: 1.5; stroke-linejoin: miter"/>
   </g>
   <g id="patch_14">
    <path d="M 389.396429 276.284174 
L 503.378571 276.284174 
L 503.378571 238.0528 
L 389.396429 238.0528 
z
" clip-path="url(#pe030af3df1)" style="fill: #4682b4; stroke: #ffffff; stroke-width: 1.5; stroke-linejoin: miter"/>
   </g>
   <g id="patch_15">
    <path d="M 389.396429 233.80487 
L 503.378571 233.80487 
L 503.378571 195.573496 
L 389.396429 195.573496 
z
" clip-path="url(#pe030af3df1)" style="fill: #4682b4; stroke: #ffffff; stroke-width: 1.5; stroke-linejoin: miter"/>
   </g>
   <g id="patch_16">
    <path d="M 389.396429 191.325565 
L 503.378571 191.325565 
L 503.378571 153.094191 
L 389.396429 153.094191 
z
" clip-path="url(#pe030af3df1)" style="fill: #4682b4; stroke: #ffffff; stroke-width: 1.5; stroke-linejoin: miter"/>
   </g>
   <g id="patch_17">
    <path d="M 389.396429 148.846261 
L 503.378571 148.846261 
L 503.378571 110.614887 
L 389.396429 110.614887 
z
" clip-path="url(#pe030af3df1)" style="fill: #4682b4; stroke: #ffffff; stroke-width: 1.5; stroke-linejoin: miter"/>
   </g>
   <g id="patch_18">
    <path d="M 275.414286 531.16 
L 389.396429 531.16 
L 389.396429 492.928626 
L 275.414286 492.928626 
z
" clip-path="url(#pe030af3df1)" style="fill: #4682b4; stroke: #ffffff; stroke-width: 1.5; stroke-linejoin: miter"/>
   </g>
   <g id="patch_19">
    <path d="M 275.414286 488.680696 
L 389.396429 488.680696 
L 389.396429 450.449322 
L 275.414286 450.449322 
z
" clip-path="url(#pe030af3df1)" style="fill: #4682b4; stroke: #ffffff; stroke-width: 1.5; stroke-linejoin: miter"/>
   </g>
   <g id="patch_20">
    <path d="M 275.414286 446.201391 
L 389.396429 446.201391 
L 389.396429 407.970017 
L 275.414286 407.970017 
z
" clip-path="url(#pe030af3df1)" style="fill: #4682b4; stroke: #ffffff; stroke-width: 1.5; stroke-linejoin: miter"/>
   </g>
   <g id="patch_21">
    <path d="M 275.414286 403.722087 
L 389.396429 403.722087 
L 389.396429 365.490713 
L 275.414286 365.490713 
z
" clip-path="url(#pe030af3df1)" style="fill: #4682b4; stroke: #ffffff; stroke-width: 1.5; stroke-linejoin: miter"/>
   </g>
   <g id="patch_22">
    <path d="M 275.414286 361.242783 
L 389.396429 361.242783 
L 389.396429 323.011409 
L 275.414286 323.011409 
z
" clip-path="url(#pe030af3df1)" style="fill: #4682b4; stroke: #ffffff; stroke-width: 1.5; stroke-linejoin: miter"/>
   </g>
   <g id="patch_23">
    <path d="M 275.414286 318.763478 
L 389.396429 318.763478 
L 389.396429 280.532104 
L 275.414286 280.532104 
z
" clip-path="url(#pe030af3df1)" style="fill: #4682b4; stroke: #ffffff; stroke-width: 1.5; stroke-linejoin: miter"/>
   </g>
   <g id="patch_24">
    <path d="M 161.432143 531.16 
L 275.414286 531.16 
L 275.414286 492.928626 
L 161.432143 492.928626 
z
" clip-path="url(#pe030af3df1)" style="fill: #4682b4; stroke: #ffffff; stroke-width: 1.5; stroke-linejoin: miter"/>
   </g>
   <g id="patch_25">
    <path d="M 161.432143 488.680696 
L 275.414286 488.680696 
L 275.414286 450.449322 
L 161.432143 450.449322 
z
" clip-path="url(#pe030af3df1)" style="fill: #4682b4; stroke: #ffffff; stroke-width: 1.5; stroke-linejoin: miter"/>
   </g>
   <g id="patch_26">
    <path d="M 161.432143 446.201391 
L 275.414286 446.201391 
L 275.414286 407.970017 
L 161.432143 407.970017 
z
" clip-path="url(#pe030af3df1)" style="fill: #4682b4; stroke: #ffffff; stroke-width: 1.5; stroke-linejoin: miter"/>
   </g>
   <g id="patch_27">
    <path d="M 161.432143 403.722087 
L 275.414286 403.722087 
L 275.414286 365.490713 
L 161.432143 365.490713 
z
" clip-path="url(#pe030af3df1)" style="fill: #4682b4; stroke: #ffffff; stroke-width: 1.5; stroke-linejoin: miter"/>
   </g>
   <g id="patch_28">
    <path d="M 161.432143 361.242783 
L 275.414286 361.242783 
L 275.414286 323.011409 
L 161.432143 323.011409 
z
" clip-path="url(#pe030af3df1)" style="fill: #4682b4; stroke: #ffffff; stroke-width: 1.5; stroke-linejoin: miter"/>
   </g>
   <g id="patch_29">
    <path d="M 161.432143 318.763478 
L 275.414286 318.763478 
L 275.414286 280.532104 
L 161.432143 280.532104 
z
" clip-path="url(#pe030af3df1)" style="fill: #4682b4; stroke: #ffffff; stroke-width: 1.5; stroke-linejoin: miter"/>
   </g>
   <g id="patch_30">
    <path d="M 161.432143 276.284174 
L 275.414286 276.284174 
L 275.414286 238.0528 
L 161.432143 238.0528 
z
" clip-path="url(#pe030af3df1)" style="fill: #4682b4; stroke: #ffffff; stroke-width: 1.5; stroke-linejoin: miter"/>
   </g>
   <g id="patch_31">
    <path d="M 161.432143 233.80487 
L 275.414286 233.80487 
L 275.414286 195.573496 
L 161.432143 195.573496 
z
" clip-path="url(#pe030af3df1)" style="fill: #4682b4; stroke: #ffffff; stroke-width: 1.5; stroke-linejoin: miter"/>
   </g>
   <g id="patch_32">
    <path d="M 161.432143 191.325565 
L 275.414286 191.325565 
L 275.414286 153.094191 
L 161.432143 153.094191 
z
" clip-path="url(#pe030af3df1)" style="fill: #4682b4; stroke: #ffffff; stroke-width: 1.5; stroke-linejoin: miter"/>
   </g>
   <g id="patch_33">
    <path d="M 161.432143 148.846261 
L 275.414286 148.846261 
L 275.414286 110.614887 
L 161.432143 110.614887 
z
" clip-path="url(#pe030af3df1)" style="fill: #4682b4; stroke: #ffffff; stroke-width: 1.5; stroke-linejoin: miter"/>
   </g>
   <g id="patch_34">
    <path d="M 161.432143 106.366957 
L 275.414286 106.366957 
L 275.414286 68.135583 
L 161.432143 68.135583 
z
" clip-path="url(#pe030af3df1)" style="fill: #4682b4; stroke: #ffffff; stroke-width: 1.5; stroke-linejoin: miter"/>
   </g>
   <g id="patch_35">
    <path d="M 47.45 531.16 
L 161.432143 531.16 
L 161.432143 492.928626 
L 47.45 492.928626 
z
" clip-path="url(#pe030af3df1)" style="fill: #4682b4; stroke: #ffffff; stroke-width: 1.5; stroke-linejoin: miter"/>
   </g>
   <g id="patch_36">
    <path d="M 47.45 488.680696 
L 161.432143 488.680696 
L 161.432143 450.449322 
L 47.45 450.449322 
z
" clip-path="url(#pe030af3df1)" style="fill: #4682b4; stroke: #ffffff; stroke-width: 1.5; stroke-linejoin: miter"/>
   </g>
   <g id="patch_37">
    <path d="M 47.45 446.201391 
L 161.432143 446.201391 
L 161.432143 407.970017 
L 47.45 407.970017 
z
" clip-path="url(#pe030af3df1)" style="fill: #4682b4; stroke: #ffffff; stroke-width: 1.5; stroke-linejoin: miter"/>
   </g>
   <g id="matplotlib.axis_1">
    <g id="xtick_1">
     <g id="line2d_1">
      <defs>
       <path id="mc62c00a7aa" d="M 0 0 
L 0 3.5 
" style="stroke: #000000; stroke-width: 0.8"/>
      </defs>
      <g>
       <use xlink:href="#mc62c00a7aa" x="47.45" y="531.16" style="stroke: #000000; stroke-width: 0.8"/>
      </g>
     </g>
     <g id="text_1">
      <!-- 1.0 -->
      <g transform="translate(39.498438 545.758438) scale(0.1 -0.1)">
       <defs>
        <path id="DejaVuSans-31" d="M 794 531 
L 1825 531 
L 1825 4091 
L 703 3866 
L 703 4441 
L 1819 4666 
L 2450 4666 
L 2450 531 
L 3481 531 
L 3481 0 
L 794 0 
L 794 531 
z
" transform="scale(0.015625)"/>
        <path id="DejaVuSans-2e" d="M 684 794 
L 1344 794 
L 1344 0 
L 684 0 
L 684 794 
z
" transform="scale(0.015625)"/>
        <path id="DejaVuSans-30" d="M 2034 4250 
Q 1547 4250 1301 3770 
Q 1056 3291 1056 2328 
Q 1056 1369 1301 889 
Q 1547 409 2034 409 
Q 2525 409 2770 889 
Q 3016 1369 3016 2328 
Q 3016 3291 2770 3770 
Q 2525 4250 2034 4250 
z
M 2034 4750 
Q 2819 4750 3233 4129 
Q 3647 3509 3647 2328 
Q 3647 1150 3233 529 
Q 2819 -91 2034 -91 
Q 1250 -91 836 529 
Q 422 1150 422 2328 
Q 422 3509 836 4129 
Q 1250 4750 2034 4750 
z
" transform="scale(0.015625)"/>
       </defs>
       <use xlink:href="#DejaVuSans-31"/>
       <use xlink:href="#DejaVuSans-2e" transform="translate(63.623047 0)"/>
       <use xlink:href="#DejaVuSans-30" transform="translate(95.410156 0)"/>
      </g>
     </g>
    </g>
    <g id="xtick_2">
     <g id="line2d_2">
      <g>
       <use xlink:href="#mc62c00a7aa" x="161.432143" y="531.16" style="stroke: #000000; stroke-width: 0.8"/>
      </g>
     </g>
     <g id="text_2">
      <!-- 1.5 -->
      <g transform="translate(153.48058 545.758438) scale(0.1 -0.1)">
       <defs>
        <path id="DejaVuSans-35" d="M 691 4666 
L 3169 4666 
L 3169 4134 
L 1269 4134 
L 1269 2991 
Q 1406 3038 1543 3061 
Q 1681 3084 1819 3084 
Q 2600 3084 3056 2656 
Q 3513 2228 3513 1497 
Q 3513 744 3044 326 
Q 2575 -91 1722 -91 
Q 1428 -91 1123 -41 
Q 819 9 494 109 
L 494 744 
Q 775 591 1075 516 
Q 1375 441 1709 441 
Q 2250 441 2565 725 
Q 2881 1009 2881 1497 
Q 2881 1984 2565 2268 
Q 2250 2553 1709 2553 
Q 1456 2553 1204 2497 
Q 953 2441 691 2322 
L 691 4666 
z
" transform="scale(0.015625)"/>
       </defs>
       <use xlink:href="#DejaVuSans-31"/>
       <use xlink:href="#DejaVuSans-2e" transform="translate(63.623047 0)"/>
       <use xlink:href="#DejaVuSans-35" transform="translate(95.410156 0)"/>
      </g>
     </g>
    </g>
    <g id="xtick_3">
     <g id="line2d_3">
      <g>
       <use xlink:href="#mc62c00a7aa" x="275.414286" y="531.16" style="stroke: #000000; stroke-width: 0.8"/>
      </g>
     </g>
     <g id="text_3">
      <!-- 2.0 -->
      <g transform="translate(267.462723 545.758438) scale(0.1 -0.1)">
       <defs>
        <path id="DejaVuSans-32" d="M 1228 531 
L 3431 531 
L 3431 0 
L 469 0 
L 469 531 
Q 828 903 1448 1529 
Q 2069 2156 2228 2338 
Q 2531 2678 2651 2914 
Q 2772 3150 2772 3378 
Q 2772 3750 2511 3984 
Q 2250 4219 1831 4219 
Q 1534 4219 1204 4116 
Q 875 4013 500 3803 
L 500 4441 
Q 881 4594 1212 4672 
Q 1544 4750 1819 4750 
Q 2544 4750 2975 4387 
Q 3406 4025 3406 3419 
Q 3406 3131 3298 2873 
Q 3191 2616 2906 2266 
Q 2828 2175 2409 1742 
Q 1991 1309 1228 531 
z
" transform="scale(0.015625)"/>
       </defs>
       <use xlink:href="#DejaVuSans-32"/>
       <use xlink:href="#DejaVuSans-2e" transform="translate(63.623047 0)"/>
       <use xlink:href="#DejaVuSans-30" transform="translate(95.410156 0)"/>
      </g>
     </g>
    </g>
    <g id="xtick_4">
     <g id="line2d_4">
      <g>
       <use xlink:href="#mc62c00a7aa" x="389.396429" y="531.16" style="stroke: #000000; stroke-width: 0.8"/>
      </g>
     </g>
     <g id="text_4">
      <!-- 2.5 -->
      <g transform="translate(381.444866 545.758438) scale(0.1 -0.1)">
       <use xlink:href="#DejaVuSans-32"/>
       <use xlink:href="#DejaVuSans-2e" transform="translate(63.623047 0)"/>
       <use xlink:href="#DejaVuSans-35" transform="translate(95.410156 0)"/>
      </g>
     </g>
    </g>
    <g id="xtick_5">
     <g id="line2d_5">
      <g>
       <use xlink:href="#mc62c00a7aa" x="503.378571" y="531.16" style="stroke: #000000; stroke-width: 0.8"/>
      </g>
     </g>
     <g id="text_5">
      <!-- 3.0 -->
      <g transform="translate(495.427009 545.758438) scale(0.1 -0.1)">
       <defs>
        <path id="DejaVuSans-33" d="M 2597 2516 
Q 3050 2419 3304 2112 
Q 3559 1806 3559 1356 
Q 3559 666 3084 287 
Q 2609 -91 1734 -91 
Q 1441 -91 1130 -33 
Q 819 25 488 141 
L 488 750 
Q 750 597 1062 519 
Q 1375 441 1716 441 
Q 2309 441 2620 675 
Q 2931 909 2931 1356 
Q 2931 1769 2642 2001 
Q 2353 2234 1838 2234 
L 1294 2234 
L 1294 2753 
L 1863 2753 
Q 2328 2753 2575 2939 
Q 2822 3125 2822 3475 
Q 2822 3834 2567 4026 
Q 2313 4219 1838 4219 
Q 1578 4219 1281 4162 
Q 984 4106 628 3988 
L 628 4550 
Q 988 4650 1302 4700 
Q 1616 4750 1894 4750 
Q 2613 4750 3031 4423 
Q 3450 4097 3450 3541 
Q 3450 3153 3228 2886 
Q 3006 2619 2597 2516 
z
" transform="scale(0.015625)"/>
       </defs>
       <use xlink:href="#DejaVuSans-33"/>
       <use xlink:href="#DejaVuSans-2e" transform="translate(63.623047 0)"/>
       <use xlink:href="#DejaVuSans-30" transform="translate(95.410156 0)"/>
      </g>
     </g>
    </g>
    <g id="xtick_6">
     <g id="line2d_6">
      <g>
       <use xlink:href="#mc62c00a7aa" x="617.360714" y="531.16" style="stroke: #000000; stroke-width: 0.8"/>
      </g>
     </g>
     <g id="text_6">
      <!-- 3.5 -->
      <g transform="translate(609.409152 545.758438) scale(0.1 -0.1)">
       <use xlink:href="#DejaVuSans-33"/>
       <use xlink:href="#DejaVuSans-2e" transform="translate(63.623047 0)"/>
       <use xlink:href="#DejaVuSans-35" transform="translate(95.410156 0)"/>
      </g>
     </g>
    </g>
    <g id="xtick_7">
     <g id="line2d_7">
      <g>
       <use xlink:href="#mc62c00a7aa" x="731.342857" y="531.16" style="stroke: #000000; stroke-width: 0.8"/>
      </g>
     </g>
     <g id="text_7">
      <!-- 4.0 -->
      <g transform="translate(723.391295 545.758438) scale(0.1 -0.1)">
       <defs>
        <path id="DejaVuSans-34" d="M 2419 4116 
L 825 1625 
L 2419 1625 
L 2419 4116 
z
M 2253 4666 
L 3047 4666 
L 3047 1625 
L 3713 1625 
L 3713 1100 
L 3047 1100 
L 3047 0 
L 2419 0 
L 2419 1100 
L 313 1100 
L 313 1709 
L 2253 4666 
z
" transform="scale(0.015625)"/>
       </defs>
       <use xlink:href="#DejaVuSans-34"/>
       <use xlink:href="#DejaVuSans-2e" transform="translate(63.623047 0)"/>
       <use xlink:href="#DejaVuSans-30" transform="translate(95.410156 0)"/>
      </g>
     </g>
    </g>
    <g id="xtick_8">
     <g id="line2d_8">
      <g>
       <use xlink:href="#mc62c00a7aa" x="845.325" y="531.16" style="stroke: #000000; stroke-width: 0.8"/>
      </g>
     </g>
     <g id="text_8">
      <!-- 4.5 -->
      <g transform="translate(837.373437 545.758438) scale(0.1 -0.1)">
       <use xlink:href="#DejaVuSans-34"/>
       <use xlink:href="#DejaVuSans-2e" transform="translate(63.623047 0)"/>
       <use xlink:href="#DejaVuSans-35" transform="translate(95.410156 0)"/>
      </g>
     </g>
    </g>
    <g id="text_9">
     <!-- Taux de rendement interne réel (%) -->
     <g transform="translate(339.494687 560.95625) scale(0.12 -0.12)">
      <defs>
       <path id="DejaVuSans-54" d="M -19 4666 
L 3928 4666 
L 3928 4134 
L 2272 4134 
L 2272 0 
L 1638 0 
L 1638 4134 
L -19 4134 
L -19 4666 
z
" transform="scale(0.015625)"/>
       <path id="DejaVuSans-61" d="M 2194 1759 
Q 1497 1759 1228 1600 
Q 959 1441 959 1056 
Q 959 750 1161 570 
Q 1363 391 1709 391 
Q 2188 391 2477 730 
Q 2766 1069 2766 1631 
L 2766 1759 
L 2194 1759 
z
M 3341 1997 
L 3341 0 
L 2766 0 
L 2766 531 
Q 2569 213 2275 61 
Q 1981 -91 1556 -91 
Q 1019 -91 701 211 
Q 384 513 384 1019 
Q 384 1609 779 1909 
Q 1175 2209 1959 2209 
L 2766 2209 
L 2766 2266 
Q 2766 2663 2505 2880 
Q 2244 3097 1772 3097 
Q 1472 3097 1187 3025 
Q 903 2953 641 2809 
L 641 3341 
Q 956 3463 1253 3523 
Q 1550 3584 1831 3584 
Q 2591 3584 2966 3190 
Q 3341 2797 3341 1997 
z
" transform="scale(0.015625)"/>
       <path id="DejaVuSans-75" d="M 544 1381 
L 544 3500 
L 1119 3500 
L 1119 1403 
Q 1119 906 1312 657 
Q 1506 409 1894 409 
Q 2359 409 2629 706 
Q 2900 1003 2900 1516 
L 2900 3500 
L 3475 3500 
L 3475 0 
L 2900 0 
L 2900 538 
Q 2691 219 2414 64 
Q 2138 -91 1772 -91 
Q 1169 -91 856 284 
Q 544 659 544 1381 
z
M 1991 3584 
L 1991 3584 
z
" transform="scale(0.015625)"/>
       <path id="DejaVuSans-78" d="M 3513 3500 
L 2247 1797 
L 3578 0 
L 2900 0 
L 1881 1375 
L 863 0 
L 184 0 
L 1544 1831 
L 300 3500 
L 978 3500 
L 1906 2253 
L 2834 3500 
L 3513 3500 
z
" transform="scale(0.015625)"/>
       <path id="DejaVuSans-20" transform="scale(0.015625)"/>
       <path id="DejaVuSans-64" d="M 2906 2969 
L 2906 4863 
L 3481 4863 
L 3481 0 
L 2906 0 
L 2906 525 
Q 2725 213 2448 61 
Q 2172 -91 1784 -91 
Q 1150 -91 751 415 
Q 353 922 353 1747 
Q 353 2572 751 3078 
Q 1150 3584 1784 3584 
Q 2172 3584 2448 3432 
Q 2725 3281 2906 2969 
z
M 947 1747 
Q 947 1113 1208 752 
Q 1469 391 1925 391 
Q 2381 391 2643 752 
Q 2906 1113 2906 1747 
Q 2906 2381 2643 2742 
Q 2381 3103 1925 3103 
Q 1469 3103 1208 2742 
Q 947 2381 947 1747 
z
" transform="scale(0.015625)"/>
       <path id="DejaVuSans-65" d="M 3597 1894 
L 3597 1613 
L 953 1613 
Q 991 1019 1311 708 
Q 1631 397 2203 397 
Q 2534 397 2845 478 
Q 3156 559 3463 722 
L 3463 178 
Q 3153 47 2828 -22 
Q 2503 -91 2169 -91 
Q 1331 -91 842 396 
Q 353 884 353 1716 
Q 353 2575 817 3079 
Q 1281 3584 2069 3584 
Q 2775 3584 3186 3129 
Q 3597 2675 3597 1894 
z
M 3022 2063 
Q 3016 2534 2758 2815 
Q 2500 3097 2075 3097 
Q 1594 3097 1305 2825 
Q 1016 2553 972 2059 
L 3022 2063 
z
" transform="scale(0.015625)"/>
       <path id="DejaVuSans-72" d="M 2631 2963 
Q 2534 3019 2420 3045 
Q 2306 3072 2169 3072 
Q 1681 3072 1420 2755 
Q 1159 2438 1159 1844 
L 1159 0 
L 581 0 
L 581 3500 
L 1159 3500 
L 1159 2956 
Q 1341 3275 1631 3429 
Q 1922 3584 2338 3584 
Q 2397 3584 2469 3576 
Q 2541 3569 2628 3553 
L 2631 2963 
z
" transform="scale(0.015625)"/>
       <path id="DejaVuSans-6e" d="M 3513 2113 
L 3513 0 
L 2938 0 
L 2938 2094 
Q 2938 2591 2744 2837 
Q 2550 3084 2163 3084 
Q 1697 3084 1428 2787 
Q 1159 2491 1159 1978 
L 1159 0 
L 581 0 
L 581 3500 
L 1159 3500 
L 1159 2956 
Q 1366 3272 1645 3428 
Q 1925 3584 2291 3584 
Q 2894 3584 3203 3211 
Q 3513 2838 3513 2113 
z
" transform="scale(0.015625)"/>
       <path id="DejaVuSans-6d" d="M 3328 2828 
Q 3544 3216 3844 3400 
Q 4144 3584 4550 3584 
Q 5097 3584 5394 3201 
Q 5691 2819 5691 2113 
L 5691 0 
L 5113 0 
L 5113 2094 
Q 5113 2597 4934 2840 
Q 4756 3084 4391 3084 
Q 3944 3084 3684 2787 
Q 3425 2491 3425 1978 
L 3425 0 
L 2847 0 
L 2847 2094 
Q 2847 2600 2669 2842 
Q 2491 3084 2119 3084 
Q 1678 3084 1418 2786 
Q 1159 2488 1159 1978 
L 1159 0 
L 581 0 
L 581 3500 
L 1159 3500 
L 1159 2956 
Q 1356 3278 1631 3431 
Q 1906 3584 2284 3584 
Q 2666 3584 2933 3390 
Q 3200 3197 3328 2828 
z
" transform="scale(0.015625)"/>
       <path id="DejaVuSans-74" d="M 1172 4494 
L 1172 3500 
L 2356 3500 
L 2356 3053 
L 1172 3053 
L 1172 1153 
Q 1172 725 1289 603 
Q 1406 481 1766 481 
L 2356 481 
L 2356 0 
L 1766 0 
Q 1100 0 847 248 
Q 594 497 594 1153 
L 594 3053 
L 172 3053 
L 172 3500 
L 594 3500 
L 594 4494 
L 1172 4494 
z
" transform="scale(0.015625)"/>
       <path id="DejaVuSans-69" d="M 603 3500 
L 1178 3500 
L 1178 0 
L 603 0 
L 603 3500 
z
M 603 4863 
L 1178 4863 
L 1178 4134 
L 603 4134 
L 603 4863 
z
" transform="scale(0.015625)"/>
       <path id="DejaVuSans-e9" d="M 3597 1894 
L 3597 1613 
L 953 1613 
Q 991 1019 1311 708 
Q 1631 397 2203 397 
Q 2534 397 2845 478 
Q 3156 559 3463 722 
L 3463 178 
Q 3153 47 2828 -22 
Q 2503 -91 2169 -91 
Q 1331 -91 842 396 
Q 353 884 353 1716 
Q 353 2575 817 3079 
Q 1281 3584 2069 3584 
Q 2775 3584 3186 3129 
Q 3597 2675 3597 1894 
z
M 3022 2063 
Q 3016 2534 2758 2815 
Q 2500 3097 2075 3097 
Q 1594 3097 1305 2825 
Q 1016 2553 972 2059 
L 3022 2063 
z
M 2466 5119 
L 3088 5119 
L 2070 3944 
L 1591 3944 
L 2466 5119 
z
" transform="scale(0.015625)"/>
       <path id="DejaVuSans-6c" d="M 603 4863 
L 1178 4863 
L 1178 0 
L 603 0 
L 603 4863 
z
" transform="scale(0.015625)"/>
       <path id="DejaVuSans-28" d="M 1984 4856 
Q 1566 4138 1362 3434 
Q 1159 2731 1159 2009 
Q 1159 1288 1364 580 
Q 1569 -128 1984 -844 
L 1484 -844 
Q 1016 -109 783 600 
Q 550 1309 550 2009 
Q 550 2706 781 3412 
Q 1013 4119 1484 4856 
L 1984 4856 
z
" transform="scale(0.015625)"/>
       <path id="DejaVuSans-25" d="M 4653 2053 
Q 4381 2053 4226 1822 
Q 4072 1591 4072 1178 
Q 4072 772 4226 539 
Q 4381 306 4653 306 
Q 4919 306 5073 539 
Q 5228 772 5228 1178 
Q 5228 1588 5073 1820 
Q 4919 2053 4653 2053 
z
M 4653 2450 
Q 5147 2450 5437 2106 
Q 5728 1763 5728 1178 
Q 5728 594 5436 251 
Q 5144 -91 4653 -91 
Q 4153 -91 3862 251 
Q 3572 594 3572 1178 
Q 3572 1766 3864 2108 
Q 4156 2450 4653 2450 
z
M 1428 4353 
Q 1159 4353 1004 4120 
Q 850 3888 850 3481 
Q 850 3069 1003 2837 
Q 1156 2606 1428 2606 
Q 1700 2606 1854 2837 
Q 2009 3069 2009 3481 
Q 2009 3884 1853 4118 
Q 1697 4353 1428 4353 
z
M 4250 4750 
L 4750 4750 
L 1831 -91 
L 1331 -91 
L 4250 4750 
z
M 1428 4750 
Q 1922 4750 2215 4408 
Q 2509 4066 2509 3481 
Q 2509 2891 2217 2550 
Q 1925 2209 1428 2209 
Q 931 2209 642 2551 
Q 353 2894 353 3481 
Q 353 4063 643 4406 
Q 934 4750 1428 4750 
z
" transform="scale(0.015625)"/>
       <path id="DejaVuSans-29" d="M 513 4856 
L 1013 4856 
Q 1481 4119 1714 3412 
Q 1947 2706 1947 2009 
Q 1947 1309 1714 600 
Q 1481 -109 1013 -844 
L 513 -844 
Q 928 -128 1133 580 
Q 1338 1288 1338 2009 
Q 1338 2731 1133 3434 
Q 928 4138 513 4856 
z
" transform="scale(0.015625)"/>
      </defs>
      <use xlink:href="#DejaVuSans-54"/>
      <use xlink:href="#DejaVuSans-61" transform="translate(44.583984 0)"/>
      <use xlink:href="#DejaVuSans-75" transform="translate(105.863281 0)"/>
      <use xlink:href="#DejaVuSans-78" transform="translate(169.242188 0)"/>
      <use xlink:href="#DejaVuSans-20" transform="translate(228.421875 0)"/>
      <use xlink:href="#DejaVuSans-64" transform="translate(260.208984 0)"/>
      <use xlink:href="#DejaVuSans-65" transform="translate(323.685547 0)"/>
      <use xlink:href="#DejaVuSans-20" transform="translate(385.208984 0)"/>
      <use xlink:href="#DejaVuSans-72" transform="translate(416.996094 0)"/>
      <use xlink:href="#DejaVuSans-65" transform="translate(455.859375 0)"/>
      <use xlink:href="#DejaVuSans-6e" transform="translate(517.382812 0)"/>
      <use xlink:href="#DejaVuSans-64" transform="translate(580.761719 0)"/>
      <use xlink:href="#DejaVuSans-65" transform="translate(644.238281 0)"/>
      <use xlink:href="#DejaVuSans-6d" transform="translate(705.761719 0)"/>
      <use xlink:href="#DejaVuSans-65" transform="translate(803.173828 0)"/>
      <use xlink:href="#DejaVuSans-6e" transform="translate(864.697266 0)"/>
      <use xlink:href="#DejaVuSans-74" transform="translate(928.076172 0)"/>
      <use xlink:href="#DejaVuSans-20" transform="translate(967.285156 0)"/>
      <use xlink:href="#DejaVuSans-69" transform="translate(999.072266 0)"/>
      <use xlink:href="#DejaVuSans-6e" transform="translate(1026.855469 0)"/>
      <use xlink:href="#DejaVuSans-74" transform="translate(1090.234375 0)"/>
      <use xlink:href="#DejaVuSans-65" transform="translate(1129.443359 0)"/>
      <use xlink:href="#DejaVuSans-72" transform="translate(1190.966797 0)"/>
      <use xlink:href="#DejaVuSans-6e" transform="translate(1230.330078 0)"/>
      <use xlink:href="#DejaVuSans-65" transform="translate(1293.708984 0)"/>
      <use xlink:href="#DejaVuSans-20" transform="translate(1355.232422 0)"/>
      <use xlink:href="#DejaVuSans-72" transform="translate(1387.019531 0)"/>
      <use xlink:href="#DejaVuSans-e9" transform="translate(1425.882812 0)"/>
      <use xlink:href="#DejaVuSans-65" transform="translate(1487.40625 0)"/>
      <use xlink:href="#DejaVuSans-6c" transform="translate(1548.929688 0)"/>
      <use xlink:href="#DejaVuSans-20" transform="translate(1576.712891 0)"/>
      <use xlink:href="#DejaVuSans-28" transform="translate(1608.5 0)"/>
      <use xlink:href="#DejaVuSans-25" transform="translate(1647.513672 0)"/>
      <use xlink:href="#DejaVuSans-29" transform="translate(1742.533203 0)"/>
     </g>
    </g>
   </g>
   <g id="matplotlib.axis_2">
    <g id="ytick_1">
     <g id="line2d_9">
      <path d="M 47.45 531.16 
L 845.325 531.16 
" clip-path="url(#pe030af3df1)" style="fill: none; stroke: #b0b0b0; stroke-opacity: 0.3; stroke-width: 0.8; stroke-linecap: square"/>
     </g>
     <g id="line2d_10">
      <defs>
       <path id="m87a71558a6" d="M 0 0 
L -3.5 0 
" style="stroke: #000000; stroke-width: 0.8"/>
      </defs>
      <g>
       <use xlink:href="#m87a71558a6" x="47.45" y="531.16" style="stroke: #000000; stroke-width: 0.8"/>
      </g>
     </g>
     <g id="text_10">
      <!-- 0 -->
      <g transform="translate(34.0875 534.959219) scale(0.1 -0.1)">
       <use xlink:href="#DejaVuSans-30"/>
      </g>
     </g>
    </g>
    <g id="ytick_2">
     <g id="line2d_11">
      <path d="M 47.45 446.201391 
L 845.325 446.201391 
" clip-path="url(#pe030af3df1)" style="fill: none; stroke: #b0b0b0; stroke-opacity: 0.3; stroke-width: 0.8; stroke-linecap: square"/>
     </g>
     <g id="line2d_12">
      <g>
       <use xlink:href="#m87a71558a6" x="47.45" y="446.201391" style="stroke: #000000; stroke-width: 0.8"/>
      </g>
     </g>
     <g id="text_11">
      <!-- 2 -->
      <g transform="translate(34.0875 450.00061) scale(0.1 -0.1)">
       <use xlink:href="#DejaVuSans-32"/>
      </g>
     </g>
    </g>
    <g id="ytick_3">
     <g id="line2d_13">
      <path d="M 47.45 361.242783 
L 845.325 361.242783 
" clip-path="url(#pe030af3df1)" style="fill: none; stroke: #b0b0b0; stroke-opacity: 0.3; stroke-width: 0.8; stroke-linecap: square"/>
     </g>
     <g id="line2d_14">
      <g>
       <use xlink:href="#m87a71558a6" x="47.45" y="361.242783" style="stroke: #000000; stroke-width: 0.8"/>
      </g>
     </g>
     <g id="text_12">
      <!-- 4 -->
      <g transform="translate(34.0875 365.042001) scale(0.1 -0.1)">
       <use xlink:href="#DejaVuSans-34"/>
      </g>
     </g>
    </g>
    <g id="ytick_4">
     <g id="line2d_15">
      <path d="M 47.45 276.284174 
L 845.325 276.284174 
" clip-path="url(#pe030af3df1)" style="fill: none; stroke: #b0b0b0; stroke-opacity: 0.3; stroke-width: 0.8; stroke-linecap: square"/>
     </g>
     <g id="line2d_16">
      <g>
       <use xlink:href="#m87a71558a6" x="47.45" y="276.284174" style="stroke: #000000; stroke-width: 0.8"/>
      </g>
     </g>
     <g id="text_13">
      <!-- 6 -->
      <g transform="translate(34.0875 280.083393) scale(0.1 -0.1)">
       <defs>
        <path id="DejaVuSans-36" d="M 2113 2584 
Q 1688 2584 1439 2293 
Q 1191 2003 1191 1497 
Q 1191 994 1439 701 
Q 1688 409 2113 409 
Q 2538 409 2786 701 
Q 3034 994 3034 1497 
Q 3034 2003 2786 2293 
Q 2538 2584 2113 2584 
z
M 3366 4563 
L 3366 3988 
Q 3128 4100 2886 4159 
Q 2644 4219 2406 4219 
Q 1781 4219 1451 3797 
Q 1122 3375 1075 2522 
Q 1259 2794 1537 2939 
Q 1816 3084 2150 3084 
Q 2853 3084 3261 2657 
Q 3669 2231 3669 1497 
Q 3669 778 3244 343 
Q 2819 -91 2113 -91 
Q 1303 -91 875 529 
Q 447 1150 447 2328 
Q 447 3434 972 4092 
Q 1497 4750 2381 4750 
Q 2619 4750 2861 4703 
Q 3103 4656 3366 4563 
z
" transform="scale(0.015625)"/>
       </defs>
       <use xlink:href="#DejaVuSans-36"/>
      </g>
     </g>
    </g>
    <g id="ytick_5">
     <g id="line2d_17">
      <path d="M 47.45 191.325565 
L 845.325 191.325565 
" clip-path="url(#pe030af3df1)" style="fill: none; stroke: #b0b0b0; stroke-opacity: 0.3; stroke-width: 0.8; stroke-linecap: square"/>
     </g>
     <g id="line2d_18">
      <g>
       <use xlink:href="#m87a71558a6" x="47.45" y="191.325565" style="stroke: #000000; stroke-width: 0.8"/>
      </g>
     </g>
     <g id="text_14">
      <!-- 8 -->
      <g transform="translate(34.0875 195.124784) scale(0.1 -0.1)">
       <defs>
        <path id="DejaVuSans-38" d="M 2034 2216 
Q 1584 2216 1326 1975 
Q 1069 1734 1069 1313 
Q 1069 891 1326 650 
Q 1584 409 2034 409 
Q 2484 409 2743 651 
Q 3003 894 3003 1313 
Q 3003 1734 2745 1975 
Q 2488 2216 2034 2216 
z
M 1403 2484 
Q 997 2584 770 2862 
Q 544 3141 544 3541 
Q 544 4100 942 4425 
Q 1341 4750 2034 4750 
Q 2731 4750 3128 4425 
Q 3525 4100 3525 3541 
Q 3525 3141 3298 2862 
Q 3072 2584 2669 2484 
Q 3125 2378 3379 2068 
Q 3634 1759 3634 1313 
Q 3634 634 3220 271 
Q 2806 -91 2034 -91 
Q 1263 -91 848 271 
Q 434 634 434 1313 
Q 434 1759 690 2068 
Q 947 2378 1403 2484 
z
M 1172 3481 
Q 1172 3119 1398 2916 
Q 1625 2713 2034 2713 
Q 2441 2713 2670 2916 
Q 2900 3119 2900 3481 
Q 2900 3844 2670 4047 
Q 2441 4250 2034 4250 
Q 1625 4250 1398 4047 
Q 1172 3844 1172 3481 
z
" transform="scale(0.015625)"/>
       </defs>
       <use xlink:href="#DejaVuSans-38"/>
      </g>
     </g>
    </g>
    <g id="ytick_6">
     <g id="line2d_19">
      <path d="M 47.45 106.366957 
L 845.325 106.366957 
" clip-path="url(#pe030af3df1)" style="fill: none; stroke: #b0b0b0; stroke-opacity: 0.3; stroke-width: 0.8; stroke-linecap: square"/>
     </g>
     <g id="line2d_20">
      <g>
       <use xlink:href="#m87a71558a6" x="47.45" y="106.366957" style="stroke: #000000; stroke-width: 0.8"/>
      </g>
     </g>
     <g id="text_15">
      <!-- 10 -->
      <g transform="translate(27.725 110.166175) scale(0.1 -0.1)">
       <use xlink:href="#DejaVuSans-31"/>
       <use xlink:href="#DejaVuSans-30" transform="translate(63.623047 0)"/>
      </g>
     </g>
    </g>
    <g id="text_16">
     <!-- Nombre de cohortes -->
     <g transform="translate(21.229375 348.135875) rotate(-90) scale(0.12 -0.12)">
      <defs>
       <path id="DejaVuSans-4e" d="M 628 4666 
L 1478 4666 
L 3547 763 
L 3547 4666 
L 4159 4666 
L 4159 0 
L 3309 0 
L 1241 3903 
L 1241 0 
L 628 0 
L 628 4666 
z
" transform="scale(0.015625)"/>
       <path id="DejaVuSans-6f" d="M 1959 3097 
Q 1497 3097 1228 2736 
Q 959 2375 959 1747 
Q 959 1119 1226 758 
Q 1494 397 1959 397 
Q 2419 397 2687 759 
Q 2956 1122 2956 1747 
Q 2956 2369 2687 2733 
Q 2419 3097 1959 3097 
z
M 1959 3584 
Q 2709 3584 3137 3096 
Q 3566 2609 3566 1747 
Q 3566 888 3137 398 
Q 2709 -91 1959 -91 
Q 1206 -91 779 398 
Q 353 888 353 1747 
Q 353 2609 779 3096 
Q 1206 3584 1959 3584 
z
" transform="scale(0.015625)"/>
       <path id="DejaVuSans-62" d="M 3116 1747 
Q 3116 2381 2855 2742 
Q 2594 3103 2138 3103 
Q 1681 3103 1420 2742 
Q 1159 2381 1159 1747 
Q 1159 1113 1420 752 
Q 1681 391 2138 391 
Q 2594 391 2855 752 
Q 3116 1113 3116 1747 
z
M 1159 2969 
Q 1341 3281 1617 3432 
Q 1894 3584 2278 3584 
Q 2916 3584 3314 3078 
Q 3713 2572 3713 1747 
Q 3713 922 3314 415 
Q 2916 -91 2278 -91 
Q 1894 -91 1617 61 
Q 1341 213 1159 525 
L 1159 0 
L 581 0 
L 581 4863 
L 1159 4863 
L 1159 2969 
z
" transform="scale(0.015625)"/>
       <path id="DejaVuSans-63" d="M 3122 3366 
L 3122 2828 
Q 2878 2963 2633 3030 
Q 2388 3097 2138 3097 
Q 1578 3097 1268 2742 
Q 959 2388 959 1747 
Q 959 1106 1268 751 
Q 1578 397 2138 397 
Q 2388 397 2633 464 
Q 2878 531 3122 666 
L 3122 134 
Q 2881 22 2623 -34 
Q 2366 -91 2075 -91 
Q 1284 -91 818 406 
Q 353 903 353 1747 
Q 353 2603 823 3093 
Q 1294 3584 2113 3584 
Q 2378 3584 2631 3529 
Q 2884 3475 3122 3366 
z
" transform="scale(0.015625)"/>
       <path id="DejaVuSans-68" d="M 3513 2113 
L 3513 0 
L 2938 0 
L 2938 2094 
Q 2938 2591 2744 2837 
Q 2550 3084 2163 3084 
Q 1697 3084 1428 2787 
Q 1159 2491 1159 1978 
L 1159 0 
L 581 0 
L 581 4863 
L 1159 4863 
L 1159 2956 
Q 1366 3272 1645 3428 
Q 1925 3584 2291 3584 
Q 2894 3584 3203 3211 
Q 3513 2838 3513 2113 
z
" transform="scale(0.015625)"/>
       <path id="DejaVuSans-73" d="M 2834 3397 
L 2834 2853 
Q 2591 2978 2328 3040 
Q 2066 3103 1784 3103 
Q 1356 3103 1142 2972 
Q 928 2841 928 2578 
Q 928 2378 1081 2264 
Q 1234 2150 1697 2047 
L 1894 2003 
Q 2506 1872 2764 1633 
Q 3022 1394 3022 966 
Q 3022 478 2636 193 
Q 2250 -91 1575 -91 
Q 1294 -91 989 -36 
Q 684 19 347 128 
L 347 722 
Q 666 556 975 473 
Q 1284 391 1588 391 
Q 1994 391 2212 530 
Q 2431 669 2431 922 
Q 2431 1156 2273 1281 
Q 2116 1406 1581 1522 
L 1381 1569 
Q 847 1681 609 1914 
Q 372 2147 372 2553 
Q 372 3047 722 3315 
Q 1072 3584 1716 3584 
Q 2034 3584 2315 3537 
Q 2597 3491 2834 3397 
z
" transform="scale(0.015625)"/>
      </defs>
      <use xlink:href="#DejaVuSans-4e"/>
      <use xlink:href="#DejaVuSans-6f" transform="translate(74.804688 0)"/>
      <use xlink:href="#DejaVuSans-6d" transform="translate(135.986328 0)"/>
      <use xlink:href="#DejaVuSans-62" transform="translate(233.398438 0)"/>
      <use xlink:href="#DejaVuSans-72" transform="translate(296.875 0)"/>
      <use xlink:href="#DejaVuSans-65" transform="translate(335.738281 0)"/>
      <use xlink:href="#DejaVuSans-20" transform="translate(397.261719 0)"/>
      <use xlink:href="#DejaVuSans-64" transform="translate(429.048828 0)"/>
      <use xlink:href="#DejaVuSans-65" transform="translate(492.525391 0)"/>
      <use xlink:href="#DejaVuSans-20" transform="translate(554.048828 0)"/>
      <use xlink:href="#DejaVuSans-63" transform="translate(585.835938 0)"/>
      <use xlink:href="#DejaVuSans-6f" transform="translate(640.816406 0)"/>
      <use xlink:href="#DejaVuSans-68" transform="translate(701.998047 0)"/>
      <use xlink:href="#DejaVuSans-6f" transform="translate(765.376953 0)"/>
      <use xlink:href="#DejaVuSans-72" transform="translate(826.558594 0)"/>
      <use xlink:href="#DejaVuSans-74" transform="translate(867.671875 0)"/>
      <use xlink:href="#DejaVuSans-65" transform="translate(906.880859 0)"/>
      <use xlink:href="#DejaVuSans-73" transform="translate(968.404297 0)"/>
     </g>
    </g>
   </g>
   <g id="line2d_21">
    <path d="M 358.80952 531.16 
L 358.80952 42.648 
" clip-path="url(#pe030af3df1)" style="fill: none; stroke-dasharray: 5.55,2.4; stroke-dashoffset: 0; stroke: #ff0000; stroke-width: 1.5"/>
   </g>
   <g id="line2d_22">
    <path d="M 348.561933 531.16 
L 348.561933 42.648 
" clip-path="url(#pe030af3df1)" style="fill: none; stroke-dasharray: 5.55,2.4; stroke-dashoffset: 0; stroke: #ffa500; stroke-width: 1.5"/>
   </g>
   <g id="patch_38">
    <path d="M 47.45 531.16 
L 47.45 42.648 
" style="fill: none; stroke: #000000; stroke-width: 0.8; stroke-linejoin: miter; stroke-linecap: square"/>
   </g>
   <g id="patch_39">
    <path d="M 845.325 531.16 
L 845.325 42.648 
" style="fill: none; stroke: #000000; stroke-width: 0.8; stroke-linejoin: miter; stroke-linecap: square"/>
   </g>
   <g id="patch_40">
    <path d="M 47.45 531.16 
L 845.325 531.16 
" style="fill: none; stroke: #000000; stroke-width: 0.8; stroke-linejoin: miter; stroke-linecap: square"/>
   </g>
   <g id="patch_41">
    <path d="M 47.45 42.648 
L 845.325 42.648 
" style="fill: none; stroke: #000000; stroke-width: 0.8; stroke-linejoin: miter; stroke-linecap: square"/>
   </g>
   <g id="text_17">
    <!-- 1946 -->
    <g style="fill: #ffffff" transform="translate(664.610848 513.975876) scale(0.07 -0.07)">
     <defs>
      <path id="DejaVuSans-Bold-31" d="M 750 831 
L 1813 831 
L 1813 3847 
L 722 3622 
L 722 4441 
L 1806 4666 
L 2950 4666 
L 2950 831 
L 4013 831 
L 4013 0 
L 750 0 
L 750 831 
z
" transform="scale(0.015625)"/>
      <path id="DejaVuSans-Bold-39" d="M 641 103 
L 641 966 
Q 928 831 1190 764 
Q 1453 697 1709 697 
Q 2247 697 2547 995 
Q 2847 1294 2900 1881 
Q 2688 1725 2447 1647 
Q 2206 1569 1925 1569 
Q 1209 1569 770 1986 
Q 331 2403 331 3084 
Q 331 3838 820 4291 
Q 1309 4744 2131 4744 
Q 3044 4744 3544 4128 
Q 4044 3513 4044 2388 
Q 4044 1231 3459 570 
Q 2875 -91 1856 -91 
Q 1528 -91 1228 -42 
Q 928 6 641 103 
z
M 2125 2350 
Q 2441 2350 2600 2554 
Q 2759 2759 2759 3169 
Q 2759 3575 2600 3781 
Q 2441 3988 2125 3988 
Q 1809 3988 1650 3781 
Q 1491 3575 1491 3169 
Q 1491 2759 1650 2554 
Q 1809 2350 2125 2350 
z
" transform="scale(0.015625)"/>
      <path id="DejaVuSans-Bold-34" d="M 2356 3675 
L 1038 1722 
L 2356 1722 
L 2356 3675 
z
M 2156 4666 
L 3494 4666 
L 3494 1722 
L 4159 1722 
L 4159 850 
L 3494 850 
L 3494 0 
L 2356 0 
L 2356 850 
L 288 850 
L 288 1881 
L 2156 4666 
z
" transform="scale(0.015625)"/>
      <path id="DejaVuSans-Bold-36" d="M 2316 2303 
Q 2000 2303 1842 2098 
Q 1684 1894 1684 1484 
Q 1684 1075 1842 870 
Q 2000 666 2316 666 
Q 2634 666 2792 870 
Q 2950 1075 2950 1484 
Q 2950 1894 2792 2098 
Q 2634 2303 2316 2303 
z
M 3803 4544 
L 3803 3681 
Q 3506 3822 3243 3889 
Q 2981 3956 2731 3956 
Q 2194 3956 1894 3657 
Q 1594 3359 1544 2772 
Q 1750 2925 1990 3001 
Q 2231 3078 2516 3078 
Q 3231 3078 3670 2659 
Q 4109 2241 4109 1563 
Q 4109 813 3618 361 
Q 3128 -91 2303 -91 
Q 1394 -91 895 523 
Q 397 1138 397 2266 
Q 397 3422 980 4083 
Q 1563 4744 2578 4744 
Q 2900 4744 3203 4694 
Q 3506 4644 3803 4544 
z
" transform="scale(0.015625)"/>
     </defs>
     <use xlink:href="#DejaVuSans-Bold-31"/>
     <use xlink:href="#DejaVuSans-Bold-39" transform="translate(69.580078 0)"/>
     <use xlink:href="#DejaVuSans-Bold-34" transform="translate(139.160156 0)"/>
     <use xlink:href="#DejaVuSans-Bold-36" transform="translate(208.740234 0)"/>
    </g>
   </g>
   <g id="text_18">
    <!-- 1947 -->
    <g style="fill: #ffffff" transform="translate(550.628705 513.975876) scale(0.07 -0.07)">
     <defs>
      <path id="DejaVuSans-Bold-37" d="M 428 4666 
L 3944 4666 
L 3944 3988 
L 2125 0 
L 953 0 
L 2675 3781 
L 428 3781 
L 428 4666 
z
" transform="scale(0.015625)"/>
     </defs>
     <use xlink:href="#DejaVuSans-Bold-31"/>
     <use xlink:href="#DejaVuSans-Bold-39" transform="translate(69.580078 0)"/>
     <use xlink:href="#DejaVuSans-Bold-34" transform="translate(139.160156 0)"/>
     <use xlink:href="#DejaVuSans-Bold-37" transform="translate(208.740234 0)"/>
    </g>
   </g>
   <g id="text_19">
    <!-- 1948 -->
    <g style="fill: #ffffff" transform="translate(550.628705 471.496571) scale(0.07 -0.07)">
     <defs>
      <path id="DejaVuSans-Bold-38" d="M 2228 2088 
Q 1891 2088 1709 1903 
Q 1528 1719 1528 1375 
Q 1528 1031 1709 848 
Q 1891 666 2228 666 
Q 2563 666 2741 848 
Q 2919 1031 2919 1375 
Q 2919 1722 2741 1905 
Q 2563 2088 2228 2088 
z
M 1350 2484 
Q 925 2613 709 2878 
Q 494 3144 494 3541 
Q 494 4131 934 4440 
Q 1375 4750 2228 4750 
Q 3075 4750 3515 4442 
Q 3956 4134 3956 3541 
Q 3956 3144 3739 2878 
Q 3522 2613 3097 2484 
Q 3572 2353 3814 2058 
Q 4056 1763 4056 1313 
Q 4056 619 3595 264 
Q 3134 -91 2228 -91 
Q 1319 -91 855 264 
Q 391 619 391 1313 
Q 391 1763 633 2058 
Q 875 2353 1350 2484 
z
M 1631 3419 
Q 1631 3141 1786 2991 
Q 1941 2841 2228 2841 
Q 2509 2841 2662 2991 
Q 2816 3141 2816 3419 
Q 2816 3697 2662 3845 
Q 2509 3994 2228 3994 
Q 1941 3994 1786 3844 
Q 1631 3694 1631 3419 
z
" transform="scale(0.015625)"/>
     </defs>
     <use xlink:href="#DejaVuSans-Bold-31"/>
     <use xlink:href="#DejaVuSans-Bold-39" transform="translate(69.580078 0)"/>
     <use xlink:href="#DejaVuSans-Bold-34" transform="translate(139.160156 0)"/>
     <use xlink:href="#DejaVuSans-Bold-38" transform="translate(208.740234 0)"/>
    </g>
   </g>
   <g id="text_20">
    <!-- 1949 -->
    <g style="fill: #ffffff" transform="translate(550.628705 429.017267) scale(0.07 -0.07)">
     <use xlink:href="#DejaVuSans-Bold-31"/>
     <use xlink:href="#DejaVuSans-Bold-39" transform="translate(69.580078 0)"/>
     <use xlink:href="#DejaVuSans-Bold-34" transform="translate(139.160156 0)"/>
     <use xlink:href="#DejaVuSans-Bold-39" transform="translate(208.740234 0)"/>
    </g>
   </g>
   <g id="text_21">
    <!-- 1950 -->
    <g style="fill: #ffffff" transform="translate(550.628705 386.537962) scale(0.07 -0.07)">
     <defs>
      <path id="DejaVuSans-Bold-35" d="M 678 4666 
L 3669 4666 
L 3669 3781 
L 1638 3781 
L 1638 3059 
Q 1775 3097 1914 3117 
Q 2053 3138 2203 3138 
Q 3056 3138 3531 2711 
Q 4006 2284 4006 1522 
Q 4006 766 3489 337 
Q 2972 -91 2053 -91 
Q 1656 -91 1267 -14 
Q 878 63 494 219 
L 494 1166 
Q 875 947 1217 837 
Q 1559 728 1863 728 
Q 2300 728 2551 942 
Q 2803 1156 2803 1522 
Q 2803 1891 2551 2103 
Q 2300 2316 1863 2316 
Q 1603 2316 1309 2248 
Q 1016 2181 678 2041 
L 678 4666 
z
" transform="scale(0.015625)"/>
      <path id="DejaVuSans-Bold-30" d="M 2944 2338 
Q 2944 3213 2780 3570 
Q 2616 3928 2228 3928 
Q 1841 3928 1675 3570 
Q 1509 3213 1509 2338 
Q 1509 1453 1675 1090 
Q 1841 728 2228 728 
Q 2613 728 2778 1090 
Q 2944 1453 2944 2338 
z
M 4147 2328 
Q 4147 1169 3647 539 
Q 3147 -91 2228 -91 
Q 1306 -91 806 539 
Q 306 1169 306 2328 
Q 306 3491 806 4120 
Q 1306 4750 2228 4750 
Q 3147 4750 3647 4120 
Q 4147 3491 4147 2328 
z
" transform="scale(0.015625)"/>
     </defs>
     <use xlink:href="#DejaVuSans-Bold-31"/>
     <use xlink:href="#DejaVuSans-Bold-39" transform="translate(69.580078 0)"/>
     <use xlink:href="#DejaVuSans-Bold-35" transform="translate(139.160156 0)"/>
     <use xlink:href="#DejaVuSans-Bold-30" transform="translate(208.740234 0)"/>
    </g>
   </g>
   <g id="text_22">
    <!-- 1951 -->
    <g style="fill: #ffffff" transform="translate(436.646562 513.975876) scale(0.07 -0.07)">
     <use xlink:href="#DejaVuSans-Bold-31"/>
     <use xlink:href="#DejaVuSans-Bold-39" transform="translate(69.580078 0)"/>
     <use xlink:href="#DejaVuSans-Bold-35" transform="translate(139.160156 0)"/>
     <use xlink:href="#DejaVuSans-Bold-31" transform="translate(208.740234 0)"/>
    </g>
   </g>
   <g id="text_23">
    <!-- 1952 -->
    <g style="fill: #ffffff" transform="translate(436.646562 471.496571) scale(0.07 -0.07)">
     <defs>
      <path id="DejaVuSans-Bold-32" d="M 1844 884 
L 3897 884 
L 3897 0 
L 506 0 
L 506 884 
L 2209 2388 
Q 2438 2594 2547 2791 
Q 2656 2988 2656 3200 
Q 2656 3528 2436 3728 
Q 2216 3928 1850 3928 
Q 1569 3928 1234 3808 
Q 900 3688 519 3450 
L 519 4475 
Q 925 4609 1322 4679 
Q 1719 4750 2100 4750 
Q 2938 4750 3402 4381 
Q 3866 4013 3866 3353 
Q 3866 2972 3669 2642 
Q 3472 2313 2841 1759 
L 1844 884 
z
" transform="scale(0.015625)"/>
     </defs>
     <use xlink:href="#DejaVuSans-Bold-31"/>
     <use xlink:href="#DejaVuSans-Bold-39" transform="translate(69.580078 0)"/>
     <use xlink:href="#DejaVuSans-Bold-35" transform="translate(139.160156 0)"/>
     <use xlink:href="#DejaVuSans-Bold-32" transform="translate(208.740234 0)"/>
    </g>
   </g>
   <g id="text_24">
    <!-- 1953 -->
    <g style="fill: #ffffff" transform="translate(436.646562 429.017267) scale(0.07 -0.07)">
     <defs>
      <path id="DejaVuSans-Bold-33" d="M 2981 2516 
Q 3453 2394 3698 2092 
Q 3944 1791 3944 1325 
Q 3944 631 3412 270 
Q 2881 -91 1863 -91 
Q 1503 -91 1142 -33 
Q 781 25 428 141 
L 428 1069 
Q 766 900 1098 814 
Q 1431 728 1753 728 
Q 2231 728 2486 893 
Q 2741 1059 2741 1369 
Q 2741 1688 2480 1852 
Q 2219 2016 1709 2016 
L 1228 2016 
L 1228 2791 
L 1734 2791 
Q 2188 2791 2409 2933 
Q 2631 3075 2631 3366 
Q 2631 3634 2415 3781 
Q 2200 3928 1806 3928 
Q 1516 3928 1219 3862 
Q 922 3797 628 3669 
L 628 4550 
Q 984 4650 1334 4700 
Q 1684 4750 2022 4750 
Q 2931 4750 3382 4451 
Q 3834 4153 3834 3553 
Q 3834 3144 3618 2883 
Q 3403 2622 2981 2516 
z
" transform="scale(0.015625)"/>
     </defs>
     <use xlink:href="#DejaVuSans-Bold-31"/>
     <use xlink:href="#DejaVuSans-Bold-39" transform="translate(69.580078 0)"/>
     <use xlink:href="#DejaVuSans-Bold-35" transform="translate(139.160156 0)"/>
     <use xlink:href="#DejaVuSans-Bold-33" transform="translate(208.740234 0)"/>
    </g>
   </g>
   <g id="text_25">
    <!-- 1954 -->
    <g style="fill: #ffffff" transform="translate(436.646562 386.537962) scale(0.07 -0.07)">
     <use xlink:href="#DejaVuSans-Bold-31"/>
     <use xlink:href="#DejaVuSans-Bold-39" transform="translate(69.580078 0)"/>
     <use xlink:href="#DejaVuSans-Bold-35" transform="translate(139.160156 0)"/>
     <use xlink:href="#DejaVuSans-Bold-34" transform="translate(208.740234 0)"/>
    </g>
   </g>
   <g id="text_26">
    <!-- 1955 -->
    <g style="fill: #ffffff" transform="translate(436.646562 344.058658) scale(0.07 -0.07)">
     <use xlink:href="#DejaVuSans-Bold-31"/>
     <use xlink:href="#DejaVuSans-Bold-39" transform="translate(69.580078 0)"/>
     <use xlink:href="#DejaVuSans-Bold-35" transform="translate(139.160156 0)"/>
     <use xlink:href="#DejaVuSans-Bold-35" transform="translate(208.740234 0)"/>
    </g>
   </g>
   <g id="text_27">
    <!-- 1956 -->
    <g style="fill: #ffffff" transform="translate(436.646562 301.579354) scale(0.07 -0.07)">
     <use xlink:href="#DejaVuSans-Bold-31"/>
     <use xlink:href="#DejaVuSans-Bold-39" transform="translate(69.580078 0)"/>
     <use xlink:href="#DejaVuSans-Bold-35" transform="translate(139.160156 0)"/>
     <use xlink:href="#DejaVuSans-Bold-36" transform="translate(208.740234 0)"/>
    </g>
   </g>
   <g id="text_28">
    <!-- 1957 -->
    <g style="fill: #ffffff" transform="translate(436.646562 259.100049) scale(0.07 -0.07)">
     <use xlink:href="#DejaVuSans-Bold-31"/>
     <use xlink:href="#DejaVuSans-Bold-39" transform="translate(69.580078 0)"/>
     <use xlink:href="#DejaVuSans-Bold-35" transform="translate(139.160156 0)"/>
     <use xlink:href="#DejaVuSans-Bold-37" transform="translate(208.740234 0)"/>
    </g>
   </g>
   <g id="text_29">
    <!-- 1958 -->
    <g style="fill: #ffffff" transform="translate(436.646562 216.620745) scale(0.07 -0.07)">
     <use xlink:href="#DejaVuSans-Bold-31"/>
     <use xlink:href="#DejaVuSans-Bold-39" transform="translate(69.580078 0)"/>
     <use xlink:href="#DejaVuSans-Bold-35" transform="translate(139.160156 0)"/>
     <use xlink:href="#DejaVuSans-Bold-38" transform="translate(208.740234 0)"/>
    </g>
   </g>
   <g id="text_30">
    <!-- 1959 -->
    <g style="fill: #ffffff" transform="translate(436.646562 174.141441) scale(0.07 -0.07)">
     <use xlink:href="#DejaVuSans-Bold-31"/>
     <use xlink:href="#DejaVuSans-Bold-39" transform="translate(69.580078 0)"/>
     <use xlink:href="#DejaVuSans-Bold-35" transform="translate(139.160156 0)"/>
     <use xlink:href="#DejaVuSans-Bold-39" transform="translate(208.740234 0)"/>
    </g>
   </g>
   <g id="text_31">
    <!-- 1960 -->
    <g style="fill: #ffffff" transform="translate(436.646562 131.662136) scale(0.07 -0.07)">
     <use xlink:href="#DejaVuSans-Bold-31"/>
     <use xlink:href="#DejaVuSans-Bold-39" transform="translate(69.580078 0)"/>
     <use xlink:href="#DejaVuSans-Bold-36" transform="translate(139.160156 0)"/>
     <use xlink:href="#DejaVuSans-Bold-30" transform="translate(208.740234 0)"/>
    </g>
   </g>
   <g id="text_32">
    <!-- 1961 -->
    <g style="fill: #ffffff" transform="translate(322.66442 513.975876) scale(0.07 -0.07)">
     <use xlink:href="#DejaVuSans-Bold-31"/>
     <use xlink:href="#DejaVuSans-Bold-39" transform="translate(69.580078 0)"/>
     <use xlink:href="#DejaVuSans-Bold-36" transform="translate(139.160156 0)"/>
     <use xlink:href="#DejaVuSans-Bold-31" transform="translate(208.740234 0)"/>
    </g>
   </g>
   <g id="text_33">
    <!-- 1962 -->
    <g style="fill: #ffffff" transform="translate(322.66442 471.496571) scale(0.07 -0.07)">
     <use xlink:href="#DejaVuSans-Bold-31"/>
     <use xlink:href="#DejaVuSans-Bold-39" transform="translate(69.580078 0)"/>
     <use xlink:href="#DejaVuSans-Bold-36" transform="translate(139.160156 0)"/>
     <use xlink:href="#DejaVuSans-Bold-32" transform="translate(208.740234 0)"/>
    </g>
   </g>
   <g id="text_34">
    <!-- 1963 -->
    <g style="fill: #ffffff" transform="translate(322.66442 429.017267) scale(0.07 -0.07)">
     <use xlink:href="#DejaVuSans-Bold-31"/>
     <use xlink:href="#DejaVuSans-Bold-39" transform="translate(69.580078 0)"/>
     <use xlink:href="#DejaVuSans-Bold-36" transform="translate(139.160156 0)"/>
     <use xlink:href="#DejaVuSans-Bold-33" transform="translate(208.740234 0)"/>
    </g>
   </g>
   <g id="text_35">
    <!-- 1964 -->
    <g style="fill: #ffffff" transform="translate(322.66442 386.537962) scale(0.07 -0.07)">
     <use xlink:href="#DejaVuSans-Bold-31"/>
     <use xlink:href="#DejaVuSans-Bold-39" transform="translate(69.580078 0)"/>
     <use xlink:href="#DejaVuSans-Bold-36" transform="translate(139.160156 0)"/>
     <use xlink:href="#DejaVuSans-Bold-34" transform="translate(208.740234 0)"/>
    </g>
   </g>
   <g id="text_36">
    <!-- 1965 -->
    <g style="fill: #ffffff" transform="translate(322.66442 344.058658) scale(0.07 -0.07)">
     <use xlink:href="#DejaVuSans-Bold-31"/>
     <use xlink:href="#DejaVuSans-Bold-39" transform="translate(69.580078 0)"/>
     <use xlink:href="#DejaVuSans-Bold-36" transform="translate(139.160156 0)"/>
     <use xlink:href="#DejaVuSans-Bold-35" transform="translate(208.740234 0)"/>
    </g>
   </g>
   <g id="text_37">
    <!-- 1966 -->
    <g style="fill: #ffffff" transform="translate(322.66442 301.579354) scale(0.07 -0.07)">
     <use xlink:href="#DejaVuSans-Bold-31"/>
     <use xlink:href="#DejaVuSans-Bold-39" transform="translate(69.580078 0)"/>
     <use xlink:href="#DejaVuSans-Bold-36" transform="translate(139.160156 0)"/>
     <use xlink:href="#DejaVuSans-Bold-36" transform="translate(208.740234 0)"/>
    </g>
   </g>
   <g id="text_38">
    <!-- 1967 -->
    <g style="fill: #ffffff" transform="translate(208.682277 513.975876) scale(0.07 -0.07)">
     <use xlink:href="#DejaVuSans-Bold-31"/>
     <use xlink:href="#DejaVuSans-Bold-39" transform="translate(69.580078 0)"/>
     <use xlink:href="#DejaVuSans-Bold-36" transform="translate(139.160156 0)"/>
     <use xlink:href="#DejaVuSans-Bold-37" transform="translate(208.740234 0)"/>
    </g>
   </g>
   <g id="text_39">
    <!-- 1968 -->
    <g style="fill: #ffffff" transform="translate(208.682277 471.496571) scale(0.07 -0.07)">
     <use xlink:href="#DejaVuSans-Bold-31"/>
     <use xlink:href="#DejaVuSans-Bold-39" transform="translate(69.580078 0)"/>
     <use xlink:href="#DejaVuSans-Bold-36" transform="translate(139.160156 0)"/>
     <use xlink:href="#DejaVuSans-Bold-38" transform="translate(208.740234 0)"/>
    </g>
   </g>
   <g id="text_40">
    <!-- 1969 -->
    <g style="fill: #ffffff" transform="translate(208.682277 429.017267) scale(0.07 -0.07)">
     <use xlink:href="#DejaVuSans-Bold-31"/>
     <use xlink:href="#DejaVuSans-Bold-39" transform="translate(69.580078 0)"/>
     <use xlink:href="#DejaVuSans-Bold-36" transform="translate(139.160156 0)"/>
     <use xlink:href="#DejaVuSans-Bold-39" transform="translate(208.740234 0)"/>
    </g>
   </g>
   <g id="text_41">
    <!-- 1970 -->
    <g style="fill: #ffffff" transform="translate(208.682277 386.537962) scale(0.07 -0.07)">
     <use xlink:href="#DejaVuSans-Bold-31"/>
     <use xlink:href="#DejaVuSans-Bold-39" transform="translate(69.580078 0)"/>
     <use xlink:href="#DejaVuSans-Bold-37" transform="translate(139.160156 0)"/>
     <use xlink:href="#DejaVuSans-Bold-30" transform="translate(208.740234 0)"/>
    </g>
   </g>
   <g id="text_42">
    <!-- 1971 -->
    <g style="fill: #ffffff" transform="translate(208.682277 344.058658) scale(0.07 -0.07)">
     <use xlink:href="#DejaVuSans-Bold-31"/>
     <use xlink:href="#DejaVuSans-Bold-39" transform="translate(69.580078 0)"/>
     <use xlink:href="#DejaVuSans-Bold-37" transform="translate(139.160156 0)"/>
     <use xlink:href="#DejaVuSans-Bold-31" transform="translate(208.740234 0)"/>
    </g>
   </g>
   <g id="text_43">
    <!-- 1972 -->
    <g style="fill: #ffffff" transform="translate(208.682277 301.579354) scale(0.07 -0.07)">
     <use xlink:href="#DejaVuSans-Bold-31"/>
     <use xlink:href="#DejaVuSans-Bold-39" transform="translate(69.580078 0)"/>
     <use xlink:href="#DejaVuSans-Bold-37" transform="translate(139.160156 0)"/>
     <use xlink:href="#DejaVuSans-Bold-32" transform="translate(208.740234 0)"/>
    </g>
   </g>
   <g id="text_44">
    <!-- 1973 -->
    <g style="fill: #ffffff" transform="translate(208.682277 259.100049) scale(0.07 -0.07)">
     <use xlink:href="#DejaVuSans-Bold-31"/>
     <use xlink:href="#DejaVuSans-Bold-39" transform="translate(69.580078 0)"/>
     <use xlink:href="#DejaVuSans-Bold-37" transform="translate(139.160156 0)"/>
     <use xlink:href="#DejaVuSans-Bold-33" transform="translate(208.740234 0)"/>
    </g>
   </g>
   <g id="text_45">
    <!-- 1974 -->
    <g style="fill: #ffffff" transform="translate(208.682277 216.620745) scale(0.07 -0.07)">
     <use xlink:href="#DejaVuSans-Bold-31"/>
     <use xlink:href="#DejaVuSans-Bold-39" transform="translate(69.580078 0)"/>
     <use xlink:href="#DejaVuSans-Bold-37" transform="translate(139.160156 0)"/>
     <use xlink:href="#DejaVuSans-Bold-34" transform="translate(208.740234 0)"/>
    </g>
   </g>
   <g id="text_46">
    <!-- 1975 -->
    <g style="fill: #ffffff" transform="translate(208.682277 174.141441) scale(0.07 -0.07)">
     <use xlink:href="#DejaVuSans-Bold-31"/>
     <use xlink:href="#DejaVuSans-Bold-39" transform="translate(69.580078 0)"/>
     <use xlink:href="#DejaVuSans-Bold-37" transform="translate(139.160156 0)"/>
     <use xlink:href="#DejaVuSans-Bold-35" transform="translate(208.740234 0)"/>
    </g>
   </g>
   <g id="text_47">
    <!-- 1976 -->
    <g style="fill: #ffffff" transform="translate(208.682277 131.662136) scale(0.07 -0.07)">
     <use xlink:href="#DejaVuSans-Bold-31"/>
     <use xlink:href="#DejaVuSans-Bold-39" transform="translate(69.580078 0)"/>
     <use xlink:href="#DejaVuSans-Bold-37" transform="translate(139.160156 0)"/>
     <use xlink:href="#DejaVuSans-Bold-36" transform="translate(208.740234 0)"/>
    </g>
   </g>
   <g id="text_48">
    <!-- 1977 -->
    <g style="fill: #ffffff" transform="translate(208.682277 89.182832) scale(0.07 -0.07)">
     <use xlink:href="#DejaVuSans-Bold-31"/>
     <use xlink:href="#DejaVuSans-Bold-39" transform="translate(69.580078 0)"/>
     <use xlink:href="#DejaVuSans-Bold-37" transform="translate(139.160156 0)"/>
     <use xlink:href="#DejaVuSans-Bold-37" transform="translate(208.740234 0)"/>
    </g>
   </g>
   <g id="text_49">
    <!-- 1978 -->
    <g style="fill: #ffffff" transform="translate(94.700134 513.975876) scale(0.07 -0.07)">
     <use xlink:href="#DejaVuSans-Bold-31"/>
     <use xlink:href="#DejaVuSans-Bold-39" transform="translate(69.580078 0)"/>
     <use xlink:href="#DejaVuSans-Bold-37" transform="translate(139.160156 0)"/>
     <use xlink:href="#DejaVuSans-Bold-38" transform="translate(208.740234 0)"/>
    </g>
   </g>
   <g id="text_50">
    <!-- 1979 -->
    <g style="fill: #ffffff" transform="translate(94.700134 471.496571) scale(0.07 -0.07)">
     <use xlink:href="#DejaVuSans-Bold-31"/>
     <use xlink:href="#DejaVuSans-Bold-39" transform="translate(69.580078 0)"/>
     <use xlink:href="#DejaVuSans-Bold-37" transform="translate(139.160156 0)"/>
     <use xlink:href="#DejaVuSans-Bold-39" transform="translate(208.740234 0)"/>
    </g>
   </g>
   <g id="text_51">
    <!-- 1980 -->
    <g style="fill: #ffffff" transform="translate(94.700134 429.017267) scale(0.07 -0.07)">
     <use xlink:href="#DejaVuSans-Bold-31"/>
     <use xlink:href="#DejaVuSans-Bold-39" transform="translate(69.580078 0)"/>
     <use xlink:href="#DejaVuSans-Bold-38" transform="translate(139.160156 0)"/>
     <use xlink:href="#DejaVuSans-Bold-30" transform="translate(208.740234 0)"/>
    </g>
   </g>
   <g id="text_52">
    <!-- Distribution du TRI réel d’un compte notionnel sur 43 ans -->
    <g transform="translate(259.498281 21.466844) scale(0.13 -0.13)">
     <defs>
      <path id="DejaVuSans-44" d="M 1259 4147 
L 1259 519 
L 2022 519 
Q 2988 519 3436 956 
Q 3884 1394 3884 2338 
Q 3884 3275 3436 3711 
Q 2988 4147 2022 4147 
L 1259 4147 
z
M 628 4666 
L 1925 4666 
Q 3281 4666 3915 4102 
Q 4550 3538 4550 2338 
Q 4550 1131 3912 565 
Q 3275 0 1925 0 
L 628 0 
L 628 4666 
z
" transform="scale(0.015625)"/>
      <path id="DejaVuSans-52" d="M 2841 2188 
Q 3044 2119 3236 1894 
Q 3428 1669 3622 1275 
L 4263 0 
L 3584 0 
L 2988 1197 
Q 2756 1666 2539 1819 
Q 2322 1972 1947 1972 
L 1259 1972 
L 1259 0 
L 628 0 
L 628 4666 
L 2053 4666 
Q 2853 4666 3247 4331 
Q 3641 3997 3641 3322 
Q 3641 2881 3436 2590 
Q 3231 2300 2841 2188 
z
M 1259 4147 
L 1259 2491 
L 2053 2491 
Q 2509 2491 2742 2702 
Q 2975 2913 2975 3322 
Q 2975 3731 2742 3939 
Q 2509 4147 2053 4147 
L 1259 4147 
z
" transform="scale(0.015625)"/>
      <path id="DejaVuSans-49" d="M 628 4666 
L 1259 4666 
L 1259 0 
L 628 0 
L 628 4666 
z
" transform="scale(0.015625)"/>
      <path id="DejaVuSans-2019" d="M 813 4666 
L 1472 4666 
L 1472 4191 
L 959 3194 
L 556 3194 
L 813 4191 
L 813 4666 
z
" transform="scale(0.015625)"/>
      <path id="DejaVuSans-70" d="M 1159 525 
L 1159 -1331 
L 581 -1331 
L 581 3500 
L 1159 3500 
L 1159 2969 
Q 1341 3281 1617 3432 
Q 1894 3584 2278 3584 
Q 2916 3584 3314 3078 
Q 3713 2572 3713 1747 
Q 3713 922 3314 415 
Q 2916 -91 2278 -91 
Q 1894 -91 1617 61 
Q 1341 213 1159 525 
z
M 3116 1747 
Q 3116 2381 2855 2742 
Q 2594 3103 2138 3103 
Q 1681 3103 1420 2742 
Q 1159 2381 1159 1747 
Q 1159 1113 1420 752 
Q 1681 391 2138 391 
Q 2594 391 2855 752 
Q 3116 1113 3116 1747 
z
" transform="scale(0.015625)"/>
     </defs>
     <use xlink:href="#DejaVuSans-44"/>
     <use xlink:href="#DejaVuSans-69" transform="translate(77.001953 0)"/>
     <use xlink:href="#DejaVuSans-73" transform="translate(104.785156 0)"/>
     <use xlink:href="#DejaVuSans-74" transform="translate(156.884766 0)"/>
     <use xlink:href="#DejaVuSans-72" transform="translate(196.09375 0)"/>
     <use xlink:href="#DejaVuSans-69" transform="translate(237.207031 0)"/>
     <use xlink:href="#DejaVuSans-62" transform="translate(264.990234 0)"/>
     <use xlink:href="#DejaVuSans-75" transform="translate(328.466797 0)"/>
     <use xlink:href="#DejaVuSans-74" transform="translate(391.845703 0)"/>
     <use xlink:href="#DejaVuSans-69" transform="translate(431.054688 0)"/>
     <use xlink:href="#DejaVuSans-6f" transform="translate(458.837891 0)"/>
     <use xlink:href="#DejaVuSans-6e" transform="translate(520.019531 0)"/>
     <use xlink:href="#DejaVuSans-20" transform="translate(583.398438 0)"/>
     <use xlink:href="#DejaVuSans-64" transform="translate(615.185547 0)"/>
     <use xlink:href="#DejaVuSans-75" transform="translate(678.662109 0)"/>
     <use xlink:href="#DejaVuSans-20" transform="translate(742.041016 0)"/>
     <use xlink:href="#DejaVuSans-54" transform="translate(773.828125 0)"/>
     <use xlink:href="#DejaVuSans-52" transform="translate(834.912109 0)"/>
     <use xlink:href="#DejaVuSans-49" transform="translate(904.394531 0)"/>
     <use xlink:href="#DejaVuSans-20" transform="translate(933.886719 0)"/>
     <use xlink:href="#DejaVuSans-72" transform="translate(965.673828 0)"/>
     <use xlink:href="#DejaVuSans-e9" transform="translate(1004.537109 0)"/>
     <use xlink:href="#DejaVuSans-65" transform="translate(1066.060547 0)"/>
     <use xlink:href="#DejaVuSans-6c" transform="translate(1127.583984 0)"/>
     <use xlink:href="#DejaVuSans-20" transform="translate(1155.367188 0)"/>
     <use xlink:href="#DejaVuSans-64" transform="translate(1187.154297 0)"/>
     <use xlink:href="#DejaVuSans-2019" transform="translate(1250.630859 0)"/>
     <use xlink:href="#DejaVuSans-75" transform="translate(1282.417969 0)"/>
     <use xlink:href="#DejaVuSans-6e" transform="translate(1345.796875 0)"/>
     <use xlink:href="#DejaVuSans-20" transform="translate(1409.175781 0)"/>
     <use xlink:href="#DejaVuSans-63" transform="translate(1440.962891 0)"/>
     <use xlink:href="#DejaVuSans-6f" transform="translate(1495.943359 0)"/>
     <use xlink:href="#DejaVuSans-6d" transform="translate(1557.125 0)"/>
     <use xlink:href="#DejaVuSans-70" transform="translate(1654.537109 0)"/>
     <use xlink:href="#DejaVuSans-74" transform="translate(1718.013672 0)"/>
     <use xlink:href="#DejaVuSans-65" transform="translate(1757.222656 0)"/>
     <use xlink:href="#DejaVuSans-20" transform="translate(1818.746094 0)"/>
     <use xlink:href="#DejaVuSans-6e" transform="translate(1850.533203 0)"/>
     <use xlink:href="#DejaVuSans-6f" transform="translate(1913.912109 0)"/>
     <use xlink:href="#DejaVuSans-74" transform="translate(1975.09375 0)"/>
     <use xlink:href="#DejaVuSans-69" transform="translate(2014.302734 0)"/>
     <use xlink:href="#DejaVuSans-6f" transform="translate(2042.085938 0)"/>
     <use xlink:href="#DejaVuSans-6e" transform="translate(2103.267578 0)"/>
     <use xlink:href="#DejaVuSans-6e" transform="translate(2166.646484 0)"/>
     <use xlink:href="#DejaVuSans-65" transform="translate(2230.025391 0)"/>
     <use xlink:href="#DejaVuSans-6c" transform="translate(2291.548828 0)"/>
     <use xlink:href="#DejaVuSans-20" transform="translate(2319.332031 0)"/>
     <use xlink:href="#DejaVuSans-73" transform="translate(2351.119141 0)"/>
     <use xlink:href="#DejaVuSans-75" transform="translate(2403.21875 0)"/>
     <use xlink:href="#DejaVuSans-72" transform="translate(2466.597656 0)"/>
     <use xlink:href="#DejaVuSans-20" transform="translate(2507.710938 0)"/>
     <use xlink:href="#DejaVuSans-34" transform="translate(2539.498047 0)"/>
     <use xlink:href="#DejaVuSans-33" transform="translate(2603.121094 0)"/>
     <use xlink:href="#DejaVuSans-20" transform="translate(2666.744141 0)"/>
     <use xlink:href="#DejaVuSans-61" transform="translate(2698.53125 0)"/>
     <use xlink:href="#DejaVuSans-6e" transform="translate(2759.810547 0)"/>
     <use xlink:href="#DejaVuSans-73" transform="translate(2823.189453 0)"/>
    </g>
    <!-- (Compte notionnel indexé sur la croissance réelle du PIB, cotisations croissant de 2%/an en réel, années de début 1946–1980, 35 cohortes) -->
    <g transform="translate(-7.857891 36.648) scale(0.13 -0.13)">
     <defs>
      <path id="DejaVuSans-43" d="M 4122 4306 
L 4122 3641 
Q 3803 3938 3442 4084 
Q 3081 4231 2675 4231 
Q 1875 4231 1450 3742 
Q 1025 3253 1025 2328 
Q 1025 1406 1450 917 
Q 1875 428 2675 428 
Q 3081 428 3442 575 
Q 3803 722 4122 1019 
L 4122 359 
Q 3791 134 3420 21 
Q 3050 -91 2638 -91 
Q 1578 -91 968 557 
Q 359 1206 359 2328 
Q 359 3453 968 4101 
Q 1578 4750 2638 4750 
Q 3056 4750 3426 4639 
Q 3797 4528 4122 4306 
z
" transform="scale(0.015625)"/>
      <path id="DejaVuSans-50" d="M 1259 4147 
L 1259 2394 
L 2053 2394 
Q 2494 2394 2734 2622 
Q 2975 2850 2975 3272 
Q 2975 3691 2734 3919 
Q 2494 4147 2053 4147 
L 1259 4147 
z
M 628 4666 
L 2053 4666 
Q 2838 4666 3239 4311 
Q 3641 3956 3641 3272 
Q 3641 2581 3239 2228 
Q 2838 1875 2053 1875 
L 1259 1875 
L 1259 0 
L 628 0 
L 628 4666 
z
" transform="scale(0.015625)"/>
      <path id="DejaVuSans-42" d="M 1259 2228 
L 1259 519 
L 2272 519 
Q 2781 519 3026 730 
Q 3272 941 3272 1375 
Q 3272 1813 3026 2020 
Q 2781 2228 2272 2228 
L 1259 2228 
z
M 1259 4147 
L 1259 2741 
L 2194 2741 
Q 2656 2741 2882 2914 
Q 3109 3088 3109 3444 
Q 3109 3797 2882 3972 
Q 2656 4147 2194 4147 
L 1259 4147 
z
M 628 4666 
L 2241 4666 
Q 2963 4666 3353 4366 
Q 3744 4066 3744 3513 
Q 3744 3084 3544 2831 
Q 3344 2578 2956 2516 
Q 3422 2416 3680 2098 
Q 3938 1781 3938 1306 
Q 3938 681 3513 340 
Q 3088 0 2303 0 
L 628 0 
L 628 4666 
z
" transform="scale(0.015625)"/>
      <path id="DejaVuSans-2c" d="M 750 794 
L 1409 794 
L 1409 256 
L 897 -744 
L 494 -744 
L 750 256 
L 750 794 
z
" transform="scale(0.015625)"/>
      <path id="DejaVuSans-2f" d="M 1625 4666 
L 2156 4666 
L 531 -594 
L 0 -594 
L 1625 4666 
z
" transform="scale(0.015625)"/>
      <path id="DejaVuSans-39" d="M 703 97 
L 703 672 
Q 941 559 1184 500 
Q 1428 441 1663 441 
Q 2288 441 2617 861 
Q 2947 1281 2994 2138 
Q 2813 1869 2534 1725 
Q 2256 1581 1919 1581 
Q 1219 1581 811 2004 
Q 403 2428 403 3163 
Q 403 3881 828 4315 
Q 1253 4750 1959 4750 
Q 2769 4750 3195 4129 
Q 3622 3509 3622 2328 
Q 3622 1225 3098 567 
Q 2575 -91 1691 -91 
Q 1453 -91 1209 -44 
Q 966 3 703 97 
z
M 1959 2075 
Q 2384 2075 2632 2365 
Q 2881 2656 2881 3163 
Q 2881 3666 2632 3958 
Q 2384 4250 1959 4250 
Q 1534 4250 1286 3958 
Q 1038 3666 1038 3163 
Q 1038 2656 1286 2365 
Q 1534 2075 1959 2075 
z
" transform="scale(0.015625)"/>
      <path id="DejaVuSans-2013" d="M 313 1978 
L 2888 1978 
L 2888 1528 
L 313 1528 
L 313 1978 
z
" transform="scale(0.015625)"/>
     </defs>
     <use xlink:href="#DejaVuSans-28"/>
     <use xlink:href="#DejaVuSans-43" transform="translate(39.013672 0)"/>
     <use xlink:href="#DejaVuSans-6f" transform="translate(108.837891 0)"/>
     <use xlink:href="#DejaVuSans-6d" transform="translate(170.019531 0)"/>
     <use xlink:href="#DejaVuSans-70" transform="translate(267.431641 0)"/>
     <use xlink:href="#DejaVuSans-74" transform="translate(330.908203 0)"/>
     <use xlink:href="#DejaVuSans-65" transform="translate(370.117188 0)"/>
     <use xlink:href="#DejaVuSans-20" transform="translate(431.640625 0)"/>
     <use xlink:href="#DejaVuSans-6e" transform="translate(463.427734 0)"/>
     <use xlink:href="#DejaVuSans-6f" transform="translate(526.806641 0)"/>
     <use xlink:href="#DejaVuSans-74" transform="translate(587.988281 0)"/>
     <use xlink:href="#DejaVuSans-69" transform="translate(627.197266 0)"/>
     <use xlink:href="#DejaVuSans-6f" transform="translate(654.980469 0)"/>
     <use xlink:href="#DejaVuSans-6e" transform="translate(716.162109 0)"/>
     <use xlink:href="#DejaVuSans-6e" transform="translate(779.541016 0)"/>
     <use xlink:href="#DejaVuSans-65" transform="translate(842.919922 0)"/>
     <use xlink:href="#DejaVuSans-6c" transform="translate(904.443359 0)"/>
     <use xlink:href="#DejaVuSans-20" transform="translate(932.226562 0)"/>
     <use xlink:href="#DejaVuSans-69" transform="translate(964.013672 0)"/>
     <use xlink:href="#DejaVuSans-6e" transform="translate(991.796875 0)"/>
     <use xlink:href="#DejaVuSans-64" transform="translate(1055.175781 0)"/>
     <use xlink:href="#DejaVuSans-65" transform="translate(1118.652344 0)"/>
     <use xlink:href="#DejaVuSans-78" transform="translate(1178.425781 0)"/>
     <use xlink:href="#DejaVuSans-e9" transform="translate(1234.480469 0)"/>
     <use xlink:href="#DejaVuSans-20" transform="translate(1296.003906 0)"/>
     <use xlink:href="#DejaVuSans-73" transform="translate(1327.791016 0)"/>
     <use xlink:href="#DejaVuSans-75" transform="translate(1379.890625 0)"/>
     <use xlink:href="#DejaVuSans-72" transform="translate(1443.269531 0)"/>
     <use xlink:href="#DejaVuSans-20" transform="translate(1484.382812 0)"/>
     <use xlink:href="#DejaVuSans-6c" transform="translate(1516.169922 0)"/>
     <use xlink:href="#DejaVuSans-61" transform="translate(1543.953125 0)"/>
     <use xlink:href="#DejaVuSans-20" transform="translate(1605.232422 0)"/>
     <use xlink:href="#DejaVuSans-63" transform="translate(1637.019531 0)"/>
     <use xlink:href="#DejaVuSans-72" transform="translate(1692 0)"/>
     <use xlink:href="#DejaVuSans-6f" transform="translate(1730.863281 0)"/>
     <use xlink:href="#DejaVuSans-69" transform="translate(1792.044922 0)"/>
     <use xlink:href="#DejaVuSans-73" transform="translate(1819.828125 0)"/>
     <use xlink:href="#DejaVuSans-73" transform="translate(1871.927734 0)"/>
     <use xlink:href="#DejaVuSans-61" transform="translate(1924.027344 0)"/>
     <use xlink:href="#DejaVuSans-6e" transform="translate(1985.306641 0)"/>
     <use xlink:href="#DejaVuSans-63" transform="translate(2048.685547 0)"/>
     <use xlink:href="#DejaVuSans-65" transform="translate(2103.666016 0)"/>
     <use xlink:href="#DejaVuSans-20" transform="translate(2165.189453 0)"/>
     <use xlink:href="#DejaVuSans-72" transform="translate(2196.976562 0)"/>
     <use xlink:href="#DejaVuSans-e9" transform="translate(2235.839844 0)"/>
     <use xlink:href="#DejaVuSans-65" transform="translate(2297.363281 0)"/>
     <use xlink:href="#DejaVuSans-6c" transform="translate(2358.886719 0)"/>
     <use xlink:href="#DejaVuSans-6c" transform="translate(2386.669922 0)"/>
     <use xlink:href="#DejaVuSans-65" transform="translate(2414.453125 0)"/>
     <use xlink:href="#DejaVuSans-20" transform="translate(2475.976562 0)"/>
     <use xlink:href="#DejaVuSans-64" transform="translate(2507.763672 0)"/>
     <use xlink:href="#DejaVuSans-75" transform="translate(2571.240234 0)"/>
     <use xlink:href="#DejaVuSans-20" transform="translate(2634.619141 0)"/>
     <use xlink:href="#DejaVuSans-50" transform="translate(2666.40625 0)"/>
     <use xlink:href="#DejaVuSans-49" transform="translate(2726.708984 0)"/>
     <use xlink:href="#DejaVuSans-42" transform="translate(2756.201172 0)"/>
     <use xlink:href="#DejaVuSans-2c" transform="translate(2824.804688 0)"/>
     <use xlink:href="#DejaVuSans-20" transform="translate(2856.591797 0)"/>
     <use xlink:href="#DejaVuSans-63" transform="translate(2888.378906 0)"/>
     <use xlink:href="#DejaVuSans-6f" transform="translate(2943.359375 0)"/>
     <use xlink:href="#DejaVuSans-74" transform="translate(3004.541016 0)"/>
     <use xlink:href="#DejaVuSans-69" transform="translate(3043.75 0)"/>
     <use xlink:href="#DejaVuSans-73" transform="translate(3071.533203 0)"/>
     <use xlink:href="#DejaVuSans-61" transform="translate(3123.632812 0)"/>
     <use xlink:href="#DejaVuSans-74" transform="translate(3184.912109 0)"/>
     <use xlink:href="#DejaVuSans-69" transform="translate(3224.121094 0)"/>
     <use xlink:href="#DejaVuSans-6f" transform="translate(3251.904297 0)"/>
     <use xlink:href="#DejaVuSans-6e" transform="translate(3313.085938 0)"/>
     <use xlink:href="#DejaVuSans-73" transform="translate(3376.464844 0)"/>
     <use xlink:href="#DejaVuSans-20" transform="translate(3428.564453 0)"/>
     <use xlink:href="#DejaVuSans-63" transform="translate(3460.351562 0)"/>
     <use xlink:href="#DejaVuSans-72" transform="translate(3515.332031 0)"/>
     <use xlink:href="#DejaVuSans-6f" transform="translate(3554.195312 0)"/>
     <use xlink:href="#DejaVuSans-69" transform="translate(3615.376953 0)"/>
     <use xlink:href="#DejaVuSans-73" transform="translate(3643.160156 0)"/>
     <use xlink:href="#DejaVuSans-73" transform="translate(3695.259766 0)"/>
     <use xlink:href="#DejaVuSans-61" transform="translate(3747.359375 0)"/>
     <use xlink:href="#DejaVuSans-6e" transform="translate(3808.638672 0)"/>
     <use xlink:href="#DejaVuSans-74" transform="translate(3872.017578 0)"/>
     <use xlink:href="#DejaVuSans-20" transform="translate(3911.226562 0)"/>
     <use xlink:href="#DejaVuSans-64" transform="translate(3943.013672 0)"/>
     <use xlink:href="#DejaVuSans-65" transform="translate(4006.490234 0)"/>
     <use xlink:href="#DejaVuSans-20" transform="translate(4068.013672 0)"/>
     <use xlink:href="#DejaVuSans-32" transform="translate(4099.800781 0)"/>
     <use xlink:href="#DejaVuSans-25" transform="translate(4163.423828 0)"/>
     <use xlink:href="#DejaVuSans-2f" transform="translate(4258.443359 0)"/>
     <use xlink:href="#DejaVuSans-61" transform="translate(4292.134766 0)"/>
     <use xlink:href="#DejaVuSans-6e" transform="translate(4353.414062 0)"/>
     <use xlink:href="#DejaVuSans-20" transform="translate(4416.792969 0)"/>
     <use xlink:href="#DejaVuSans-65" transform="translate(4448.580078 0)"/>
     <use xlink:href="#DejaVuSans-6e" transform="translate(4510.103516 0)"/>
     <use xlink:href="#DejaVuSans-20" transform="translate(4573.482422 0)"/>
     <use xlink:href="#DejaVuSans-72" transform="translate(4605.269531 0)"/>
     <use xlink:href="#DejaVuSans-e9" transform="translate(4644.132812 0)"/>
     <use xlink:href="#DejaVuSans-65" transform="translate(4705.65625 0)"/>
     <use xlink:href="#DejaVuSans-6c" transform="translate(4767.179688 0)"/>
     <use xlink:href="#DejaVuSans-2c" transform="translate(4794.962891 0)"/>
     <use xlink:href="#DejaVuSans-20" transform="translate(4826.75 0)"/>
     <use xlink:href="#DejaVuSans-61" transform="translate(4858.537109 0)"/>
     <use xlink:href="#DejaVuSans-6e" transform="translate(4919.816406 0)"/>
     <use xlink:href="#DejaVuSans-6e" transform="translate(4983.195312 0)"/>
     <use xlink:href="#DejaVuSans-e9" transform="translate(5046.574219 0)"/>
     <use xlink:href="#DejaVuSans-65" transform="translate(5108.097656 0)"/>
     <use xlink:href="#DejaVuSans-73" transform="translate(5169.621094 0)"/>
     <use xlink:href="#DejaVuSans-20" transform="translate(5221.720703 0)"/>
     <use xlink:href="#DejaVuSans-64" transform="translate(5253.507812 0)"/>
     <use xlink:href="#DejaVuSans-65" transform="translate(5316.984375 0)"/>
     <use xlink:href="#DejaVuSans-20" transform="translate(5378.507812 0)"/>
     <use xlink:href="#DejaVuSans-64" transform="translate(5410.294922 0)"/>
     <use xlink:href="#DejaVuSans-e9" transform="translate(5473.771484 0)"/>
     <use xlink:href="#DejaVuSans-62" transform="translate(5535.294922 0)"/>
     <use xlink:href="#DejaVuSans-75" transform="translate(5598.771484 0)"/>
     <use xlink:href="#DejaVuSans-74" transform="translate(5662.150391 0)"/>
     <use xlink:href="#DejaVuSans-20" transform="translate(5701.359375 0)"/>
     <use xlink:href="#DejaVuSans-31" transform="translate(5733.146484 0)"/>
     <use xlink:href="#DejaVuSans-39" transform="translate(5796.769531 0)"/>
     <use xlink:href="#DejaVuSans-34" transform="translate(5860.392578 0)"/>
     <use xlink:href="#DejaVuSans-36" transform="translate(5924.015625 0)"/>
     <use xlink:href="#DejaVuSans-2013" transform="translate(5987.638672 0)"/>
     <use xlink:href="#DejaVuSans-31" transform="translate(6037.638672 0)"/>
     <use xlink:href="#DejaVuSans-39" transform="translate(6101.261719 0)"/>
     <use xlink:href="#DejaVuSans-38" transform="translate(6164.884766 0)"/>
     <use xlink:href="#DejaVuSans-30" transform="translate(6228.507812 0)"/>
     <use xlink:href="#DejaVuSans-2c" transform="translate(6292.130859 0)"/>
     <use xlink:href="#DejaVuSans-20" transform="translate(6323.917969 0)"/>
     <use xlink:href="#DejaVuSans-33" transform="translate(6355.705078 0)"/>
     <use xlink:href="#DejaVuSans-35" transform="translate(6419.328125 0)"/>
     <use xlink:href="#DejaVuSans-20" transform="translate(6482.951172 0)"/>
     <use xlink:href="#DejaVuSans-63" transform="translate(6514.738281 0)"/>
     <use xlink:href="#DejaVuSans-6f" transform="translate(6569.71875 0)"/>
     <use xlink:href="#DejaVuSans-68" transform="translate(6630.900391 0)"/>
     <use xlink:href="#DejaVuSans-6f" transform="translate(6694.279297 0)"/>
     <use xlink:href="#DejaVuSans-72" transform="translate(6755.460938 0)"/>
     <use xlink:href="#DejaVuSans-74" transform="translate(6796.574219 0)"/>
     <use xlink:href="#DejaVuSans-65" transform="translate(6835.783203 0)"/>
     <use xlink:href="#DejaVuSans-73" transform="translate(6897.306641 0)"/>
     <use xlink:href="#DejaVuSans-29" transform="translate(6949.40625 0)"/>
    </g>
   </g>
   <g id="legend_1">
    <g id="patch_42">
     <path d="M 710.074844 83.739875 
L 837.625 83.739875 
Q 839.825 83.739875 839.825 81.539875 
L 839.825 50.348 
Q 839.825 48.148 837.625 48.148 
L 710.074844 48.148 
Q 707.874844 48.148 707.874844 50.348 
L 707.874844 81.539875 
Q 707.874844 83.739875 710.074844 83.739875 
z
" style="fill: #ffffff; opacity: 0.8; stroke: #cccccc; stroke-linejoin: miter"/>
    </g>
    <g id="line2d_23">
     <path d="M 712.274844 57.056281 
L 723.274844 57.056281 
L 734.274844 57.056281 
" style="fill: none; stroke-dasharray: 5.55,2.4; stroke-dashoffset: 0; stroke: #ff0000; stroke-width: 1.5"/>
    </g>
    <g id="text_53">
     <!-- Médiane : 2.4 % -->
     <g transform="translate(743.074844 60.906281) scale(0.11 -0.11)">
      <defs>
       <path id="DejaVuSans-4d" d="M 628 4666 
L 1569 4666 
L 2759 1491 
L 3956 4666 
L 4897 4666 
L 4897 0 
L 4281 0 
L 4281 4097 
L 3078 897 
L 2444 897 
L 1241 4097 
L 1241 0 
L 628 0 
L 628 4666 
z
" transform="scale(0.015625)"/>
       <path id="DejaVuSans-3a" d="M 750 794 
L 1409 794 
L 1409 0 
L 750 0 
L 750 794 
z
M 750 3309 
L 1409 3309 
L 1409 2516 
L 750 2516 
L 750 3309 
z
" transform="scale(0.015625)"/>
      </defs>
      <use xlink:href="#DejaVuSans-4d"/>
      <use xlink:href="#DejaVuSans-e9" transform="translate(86.279297 0)"/>
      <use xlink:href="#DejaVuSans-64" transform="translate(147.802734 0)"/>
      <use xlink:href="#DejaVuSans-69" transform="translate(211.279297 0)"/>
      <use xlink:href="#DejaVuSans-61" transform="translate(239.0625 0)"/>
      <use xlink:href="#DejaVuSans-6e" transform="translate(300.341797 0)"/>
      <use xlink:href="#DejaVuSans-65" transform="translate(363.720703 0)"/>
      <use xlink:href="#DejaVuSans-20" transform="translate(425.244141 0)"/>
      <use xlink:href="#DejaVuSans-3a" transform="translate(457.03125 0)"/>
      <use xlink:href="#DejaVuSans-20" transform="translate(490.722656 0)"/>
      <use xlink:href="#DejaVuSans-32" transform="translate(522.509766 0)"/>
      <use xlink:href="#DejaVuSans-2e" transform="translate(586.132812 0)"/>
      <use xlink:href="#DejaVuSans-34" transform="translate(617.919922 0)"/>
      <use xlink:href="#DejaVuSans-20" transform="translate(681.542969 0)"/>
      <use xlink:href="#DejaVuSans-25" transform="translate(713.330078 0)"/>
     </g>
    </g>
    <g id="line2d_24">
     <path d="M 712.274844 73.202219 
L 723.274844 73.202219 
L 734.274844 73.202219 
" style="fill: none; stroke-dasharray: 5.55,2.4; stroke-dashoffset: 0; stroke: #ffa500; stroke-width: 1.5"/>
    </g>
    <g id="text_54">
     <!-- Moyenne : 2.3 % -->
     <g transform="translate(743.074844 77.052219) scale(0.11 -0.11)">
      <defs>
       <path id="DejaVuSans-79" d="M 2059 -325 
Q 1816 -950 1584 -1140 
Q 1353 -1331 966 -1331 
L 506 -1331 
L 506 -850 
L 844 -850 
Q 1081 -850 1212 -737 
Q 1344 -625 1503 -206 
L 1606 56 
L 191 3500 
L 800 3500 
L 1894 763 
L 2988 3500 
L 3597 3500 
L 2059 -325 
z
" transform="scale(0.015625)"/>
      </defs>
      <use xlink:href="#DejaVuSans-4d"/>
      <use xlink:href="#DejaVuSans-6f" transform="translate(86.279297 0)"/>
      <use xlink:href="#DejaVuSans-79" transform="translate(147.460938 0)"/>
      <use xlink:href="#DejaVuSans-65" transform="translate(206.640625 0)"/>
      <use xlink:href="#DejaVuSans-6e" transform="translate(268.164062 0)"/>
      <use xlink:href="#DejaVuSans-6e" transform="translate(331.542969 0)"/>
      <use xlink:href="#DejaVuSans-65" transform="translate(394.921875 0)"/>
      <use xlink:href="#DejaVuSans-20" transform="translate(456.445312 0)"/>
      <use xlink:href="#DejaVuSans-3a" transform="translate(488.232422 0)"/>
      <use xlink:href="#DejaVuSans-20" transform="translate(521.923828 0)"/>
      <use xlink:href="#DejaVuSans-32" transform="translate(553.710938 0)"/>
      <use xlink:href="#DejaVuSans-2e" transform="translate(617.333984 0)"/>
      <use xlink:href="#DejaVuSans-33" transform="translate(649.121094 0)"/>
      <use xlink:href="#DejaVuSans-20" transform="translate(712.744141 0)"/>
      <use xlink:href="#DejaVuSans-25" transform="translate(744.53125 0)"/>
     </g>
    </g>
   </g>
  </g>
 </g>
 <defs>
  <clipPath id="pe030af3df1">
   <rect x="47.45" y="42.648" width="797.875" height="488.512"/>
  </clipPath>
 </defs>
</svg>
