<?xml version="1.0" encoding="utf-8" standalone="no"?>
<!DOCTYPE svg PUBLIC "-//W3C//DTD SVG 1.1//EN"
  "http://www.w3.org/Graphics/SVG/1.1/DTD/svg11.dtd">
<svg xmlns:xlink="http://www.w3.org/1999/xlink" width="936pt" height="504pt" viewBox="0 0 936 504" xmlns="http://www.w3.org/2000/svg" version="1.1">
 <metadata>
  <rdf:RDF xmlns:dc="http://purl.org/dc/elements/1.1/" xmlns:cc="http://creativecommons.org/ns#" xmlns:rdf="http://www.w3.org/1999/02/22-rdf-syntax-ns#">
   <cc:Work>
    <dc:type rdf:resource="http://purl.org/dc/dcmitype/StillImage"/>
    <dc:date>2026-04-18T10:59:23.565490</dc:date>
    <dc:format>image/svg+xml</dc:format>
    <dc:creator>
     <cc:Agent>
      <dc:title>Matplotlib v3.10.8, https://matplotlib.org/</dc:title>
     </cc:Agent>
    </dc:creator>
   </cc:Work>
  </rdf:RDF>
 </metadata>
 <defs>
  <style type="text/css">*{stroke-linejoin: round; stroke-linecap: butt}</style>
 </defs>
 <g id="figure_1">
  <g id="patch_1">
   <path d="M 0 504 
L 936 504 
L 936 0 
L 0 0 
z
" style="fill: #ffffff"/>
  </g>
  <g id="axes_1">
   <g id="patch_2">
    <path d="M 41.15 459.16 
L 925.2 459.16 
L 925.2 42.648 
L 41.15 42.648 
z
" style="fill: #ffffff"/>
   </g>
   <g id="matplotlib.axis_1">
    <g id="xtick_1">
     <g id="line2d_1">
      <path d="M 41.15 459.16 
L 41.15 42.648 
" clip-path="url(#p11f048f7ee)" style="fill: none; stroke: #b0b0b0; stroke-opacity: 0.3; stroke-width: 0.8; stroke-linecap: square"/>
     </g>
     <g id="line2d_2">
      <defs>
       <path id="m987b7f8e03" d="M 0 0 
L 0 3.5 
" style="stroke: #000000; stroke-width: 0.8"/>
      </defs>
      <g>
       <use xlink:href="#m987b7f8e03" x="41.15" y="459.16" style="stroke: #000000; stroke-width: 0.8"/>
      </g>
     </g>
     <g id="text_1">
      <!-- 1945 -->
      <g transform="translate(28.425 473.758437) scale(0.1 -0.1)">
       <defs>
        <path id="DejaVuSans-31" d="M 794 531 
L 1825 531 
L 1825 4091 
L 703 3866 
L 703 4441 
L 1819 4666 
L 2450 4666 
L 2450 531 
L 3481 531 
L 3481 0 
L 794 0 
L 794 531 
z
" transform="scale(0.015625)"/>
        <path id="DejaVuSans-39" d="M 703 97 
L 703 672 
Q 941 559 1184 500 
Q 1428 441 1663 441 
Q 2288 441 2617 861 
Q 2947 1281 2994 2138 
Q 2813 1869 2534 1725 
Q 2256 1581 1919 1581 
Q 1219 1581 811 2004 
Q 403 2428 403 3163 
Q 403 3881 828 4315 
Q 1253 4750 1959 4750 
Q 2769 4750 3195 4129 
Q 3622 3509 3622 2328 
Q 3622 1225 3098 567 
Q 2575 -91 1691 -91 
Q 1453 -91 1209 -44 
Q 966 3 703 97 
z
M 1959 2075 
Q 2384 2075 2632 2365 
Q 2881 2656 2881 3163 
Q 2881 3666 2632 3958 
Q 2384 4250 1959 4250 
Q 1534 4250 1286 3958 
Q 1038 3666 1038 3163 
Q 1038 2656 1286 2365 
Q 1534 2075 1959 2075 
z
" transform="scale(0.015625)"/>
        <path id="DejaVuSans-34" d="M 2419 4116 
L 825 1625 
L 2419 1625 
L 2419 4116 
z
M 2253 4666 
L 3047 4666 
L 3047 1625 
L 3713 1625 
L 3713 1100 
L 3047 1100 
L 3047 0 
L 2419 0 
L 2419 1100 
L 313 1100 
L 313 1709 
L 2253 4666 
z
" transform="scale(0.015625)"/>
        <path id="DejaVuSans-35" d="M 691 4666 
L 3169 4666 
L 3169 4134 
L 1269 4134 
L 1269 2991 
Q 1406 3038 1543 3061 
Q 1681 3084 1819 3084 
Q 2600 3084 3056 2656 
Q 3513 2228 3513 1497 
Q 3513 744 3044 326 
Q 2575 -91 1722 -91 
Q 1428 -91 1123 -41 
Q 819 9 494 109 
L 494 744 
Q 775 591 1075 516 
Q 1375 441 1709 441 
Q 2250 441 2565 725 
Q 2881 1009 2881 1497 
Q 2881 1984 2565 2268 
Q 2250 2553 1709 2553 
Q 1456 2553 1204 2497 
Q 953 2441 691 2322 
L 691 4666 
z
" transform="scale(0.015625)"/>
       </defs>
       <use xlink:href="#DejaVuSans-31"/>
       <use xlink:href="#DejaVuSans-39" transform="translate(63.623047 0)"/>
       <use xlink:href="#DejaVuSans-34" transform="translate(127.246094 0)"/>
       <use xlink:href="#DejaVuSans-35" transform="translate(190.869141 0)"/>
      </g>
     </g>
    </g>
    <g id="xtick_2">
     <g id="line2d_3">
      <path d="M 163.934722 459.16 
L 163.934722 42.648 
" clip-path="url(#p11f048f7ee)" style="fill: none; stroke: #b0b0b0; stroke-opacity: 0.3; stroke-width: 0.8; stroke-linecap: square"/>
     </g>
     <g id="line2d_4">
      <g>
       <use xlink:href="#m987b7f8e03" x="163.934722" y="459.16" style="stroke: #000000; stroke-width: 0.8"/>
      </g>
     </g>
     <g id="text_2">
      <!-- 1950 -->
      <g transform="translate(151.209722 473.758437) scale(0.1 -0.1)">
       <defs>
        <path id="DejaVuSans-30" d="M 2034 4250 
Q 1547 4250 1301 3770 
Q 1056 3291 1056 2328 
Q 1056 1369 1301 889 
Q 1547 409 2034 409 
Q 2525 409 2770 889 
Q 3016 1369 3016 2328 
Q 3016 3291 2770 3770 
Q 2525 4250 2034 4250 
z
M 2034 4750 
Q 2819 4750 3233 4129 
Q 3647 3509 3647 2328 
Q 3647 1150 3233 529 
Q 2819 -91 2034 -91 
Q 1250 -91 836 529 
Q 422 1150 422 2328 
Q 422 3509 836 4129 
Q 1250 4750 2034 4750 
z
" transform="scale(0.015625)"/>
       </defs>
       <use xlink:href="#DejaVuSans-31"/>
       <use xlink:href="#DejaVuSans-39" transform="translate(63.623047 0)"/>
       <use xlink:href="#DejaVuSans-35" transform="translate(127.246094 0)"/>
       <use xlink:href="#DejaVuSans-30" transform="translate(190.869141 0)"/>
      </g>
     </g>
    </g>
    <g id="xtick_3">
     <g id="line2d_5">
      <path d="M 286.719444 459.16 
L 286.719444 42.648 
" clip-path="url(#p11f048f7ee)" style="fill: none; stroke: #b0b0b0; stroke-opacity: 0.3; stroke-width: 0.8; stroke-linecap: square"/>
     </g>
     <g id="line2d_6">
      <g>
       <use xlink:href="#m987b7f8e03" x="286.719444" y="459.16" style="stroke: #000000; stroke-width: 0.8"/>
      </g>
     </g>
     <g id="text_3">
      <!-- 1955 -->
      <g transform="translate(273.994444 473.758437) scale(0.1 -0.1)">
       <use xlink:href="#DejaVuSans-31"/>
       <use xlink:href="#DejaVuSans-39" transform="translate(63.623047 0)"/>
       <use xlink:href="#DejaVuSans-35" transform="translate(127.246094 0)"/>
       <use xlink:href="#DejaVuSans-35" transform="translate(190.869141 0)"/>
      </g>
     </g>
    </g>
    <g id="xtick_4">
     <g id="line2d_7">
      <path d="M 409.504167 459.16 
L 409.504167 42.648 
" clip-path="url(#p11f048f7ee)" style="fill: none; stroke: #b0b0b0; stroke-opacity: 0.3; stroke-width: 0.8; stroke-linecap: square"/>
     </g>
     <g id="line2d_8">
      <g>
       <use xlink:href="#m987b7f8e03" x="409.504167" y="459.16" style="stroke: #000000; stroke-width: 0.8"/>
      </g>
     </g>
     <g id="text_4">
      <!-- 1960 -->
      <g transform="translate(396.779167 473.758437) scale(0.1 -0.1)">
       <defs>
        <path id="DejaVuSans-36" d="M 2113 2584 
Q 1688 2584 1439 2293 
Q 1191 2003 1191 1497 
Q 1191 994 1439 701 
Q 1688 409 2113 409 
Q 2538 409 2786 701 
Q 3034 994 3034 1497 
Q 3034 2003 2786 2293 
Q 2538 2584 2113 2584 
z
M 3366 4563 
L 3366 3988 
Q 3128 4100 2886 4159 
Q 2644 4219 2406 4219 
Q 1781 4219 1451 3797 
Q 1122 3375 1075 2522 
Q 1259 2794 1537 2939 
Q 1816 3084 2150 3084 
Q 2853 3084 3261 2657 
Q 3669 2231 3669 1497 
Q 3669 778 3244 343 
Q 2819 -91 2113 -91 
Q 1303 -91 875 529 
Q 447 1150 447 2328 
Q 447 3434 972 4092 
Q 1497 4750 2381 4750 
Q 2619 4750 2861 4703 
Q 3103 4656 3366 4563 
z
" transform="scale(0.015625)"/>
       </defs>
       <use xlink:href="#DejaVuSans-31"/>
       <use xlink:href="#DejaVuSans-39" transform="translate(63.623047 0)"/>
       <use xlink:href="#DejaVuSans-36" transform="translate(127.246094 0)"/>
       <use xlink:href="#DejaVuSans-30" transform="translate(190.869141 0)"/>
      </g>
     </g>
    </g>
    <g id="xtick_5">
     <g id="line2d_9">
      <path d="M 532.288889 459.16 
L 532.288889 42.648 
" clip-path="url(#p11f048f7ee)" style="fill: none; stroke: #b0b0b0; stroke-opacity: 0.3; stroke-width: 0.8; stroke-linecap: square"/>
     </g>
     <g id="line2d_10">
      <g>
       <use xlink:href="#m987b7f8e03" x="532.288889" y="459.16" style="stroke: #000000; stroke-width: 0.8"/>
      </g>
     </g>
     <g id="text_5">
      <!-- 1965 -->
      <g transform="translate(519.563889 473.758437) scale(0.1 -0.1)">
       <use xlink:href="#DejaVuSans-31"/>
       <use xlink:href="#DejaVuSans-39" transform="translate(63.623047 0)"/>
       <use xlink:href="#DejaVuSans-36" transform="translate(127.246094 0)"/>
       <use xlink:href="#DejaVuSans-35" transform="translate(190.869141 0)"/>
      </g>
     </g>
    </g>
    <g id="xtick_6">
     <g id="line2d_11">
      <path d="M 655.073611 459.16 
L 655.073611 42.648 
" clip-path="url(#p11f048f7ee)" style="fill: none; stroke: #b0b0b0; stroke-opacity: 0.3; stroke-width: 0.8; stroke-linecap: square"/>
     </g>
     <g id="line2d_12">
      <g>
       <use xlink:href="#m987b7f8e03" x="655.073611" y="459.16" style="stroke: #000000; stroke-width: 0.8"/>
      </g>
     </g>
     <g id="text_6">
      <!-- 1970 -->
      <g transform="translate(642.348611 473.758437) scale(0.1 -0.1)">
       <defs>
        <path id="DejaVuSans-37" d="M 525 4666 
L 3525 4666 
L 3525 4397 
L 1831 0 
L 1172 0 
L 2766 4134 
L 525 4134 
L 525 4666 
z
" transform="scale(0.015625)"/>
       </defs>
       <use xlink:href="#DejaVuSans-31"/>
       <use xlink:href="#DejaVuSans-39" transform="translate(63.623047 0)"/>
       <use xlink:href="#DejaVuSans-37" transform="translate(127.246094 0)"/>
       <use xlink:href="#DejaVuSans-30" transform="translate(190.869141 0)"/>
      </g>
     </g>
    </g>
    <g id="xtick_7">
     <g id="line2d_13">
      <path d="M 777.858333 459.16 
L 777.858333 42.648 
" clip-path="url(#p11f048f7ee)" style="fill: none; stroke: #b0b0b0; stroke-opacity: 0.3; stroke-width: 0.8; stroke-linecap: square"/>
     </g>
     <g id="line2d_14">
      <g>
       <use xlink:href="#m987b7f8e03" x="777.858333" y="459.16" style="stroke: #000000; stroke-width: 0.8"/>
      </g>
     </g>
     <g id="text_7">
      <!-- 1975 -->
      <g transform="translate(765.133333 473.758437) scale(0.1 -0.1)">
       <use xlink:href="#DejaVuSans-31"/>
       <use xlink:href="#DejaVuSans-39" transform="translate(63.623047 0)"/>
       <use xlink:href="#DejaVuSans-37" transform="translate(127.246094 0)"/>
       <use xlink:href="#DejaVuSans-35" transform="translate(190.869141 0)"/>
      </g>
     </g>
    </g>
    <g id="xtick_8">
     <g id="line2d_15">
      <path d="M 900.643056 459.16 
L 900.643056 42.648 
" clip-path="url(#p11f048f7ee)" style="fill: none; stroke: #b0b0b0; stroke-opacity: 0.3; stroke-width: 0.8; stroke-linecap: square"/>
     </g>
     <g id="line2d_16">
      <g>
       <use xlink:href="#m987b7f8e03" x="900.643056" y="459.16" style="stroke: #000000; stroke-width: 0.8"/>
      </g>
     </g>
     <g id="text_8">
      <!-- 1980 -->
      <g transform="translate(887.918056 473.758437) scale(0.1 -0.1)">
       <defs>
        <path id="DejaVuSans-38" d="M 2034 2216 
Q 1584 2216 1326 1975 
Q 1069 1734 1069 1313 
Q 1069 891 1326 650 
Q 1584 409 2034 409 
Q 2484 409 2743 651 
Q 3003 894 3003 1313 
Q 3003 1734 2745 1975 
Q 2488 2216 2034 2216 
z
M 1403 2484 
Q 997 2584 770 2862 
Q 544 3141 544 3541 
Q 544 4100 942 4425 
Q 1341 4750 2034 4750 
Q 2731 4750 3128 4425 
Q 3525 4100 3525 3541 
Q 3525 3141 3298 2862 
Q 3072 2584 2669 2484 
Q 3125 2378 3379 2068 
Q 3634 1759 3634 1313 
Q 3634 634 3220 271 
Q 2806 -91 2034 -91 
Q 1263 -91 848 271 
Q 434 634 434 1313 
Q 434 1759 690 2068 
Q 947 2378 1403 2484 
z
M 1172 3481 
Q 1172 3119 1398 2916 
Q 1625 2713 2034 2713 
Q 2441 2713 2670 2916 
Q 2900 3119 2900 3481 
Q 2900 3844 2670 4047 
Q 2441 4250 2034 4250 
Q 1625 4250 1398 4047 
Q 1172 3844 1172 3481 
z
" transform="scale(0.015625)"/>
       </defs>
       <use xlink:href="#DejaVuSans-31"/>
       <use xlink:href="#DejaVuSans-39" transform="translate(63.623047 0)"/>
       <use xlink:href="#DejaVuSans-38" transform="translate(127.246094 0)"/>
       <use xlink:href="#DejaVuSans-30" transform="translate(190.869141 0)"/>
      </g>
     </g>
    </g>
    <g id="text_9">
     <!-- Année de début -->
     <g transform="translate(435.3025 488.95625) scale(0.12 -0.12)">
      <defs>
       <path id="DejaVuSans-41" d="M 2188 4044 
L 1331 1722 
L 3047 1722 
L 2188 4044 
z
M 1831 4666 
L 2547 4666 
L 4325 0 
L 3669 0 
L 3244 1197 
L 1141 1197 
L 716 0 
L 50 0 
L 1831 4666 
z
" transform="scale(0.015625)"/>
       <path id="DejaVuSans-6e" d="M 3513 2113 
L 3513 0 
L 2938 0 
L 2938 2094 
Q 2938 2591 2744 2837 
Q 2550 3084 2163 3084 
Q 1697 3084 1428 2787 
Q 1159 2491 1159 1978 
L 1159 0 
L 581 0 
L 581 3500 
L 1159 3500 
L 1159 2956 
Q 1366 3272 1645 3428 
Q 1925 3584 2291 3584 
Q 2894 3584 3203 3211 
Q 3513 2838 3513 2113 
z
" transform="scale(0.015625)"/>
       <path id="DejaVuSans-e9" d="M 3597 1894 
L 3597 1613 
L 953 1613 
Q 991 1019 1311 708 
Q 1631 397 2203 397 
Q 2534 397 2845 478 
Q 3156 559 3463 722 
L 3463 178 
Q 3153 47 2828 -22 
Q 2503 -91 2169 -91 
Q 1331 -91 842 396 
Q 353 884 353 1716 
Q 353 2575 817 3079 
Q 1281 3584 2069 3584 
Q 2775 3584 3186 3129 
Q 3597 2675 3597 1894 
z
M 3022 2063 
Q 3016 2534 2758 2815 
Q 2500 3097 2075 3097 
Q 1594 3097 1305 2825 
Q 1016 2553 972 2059 
L 3022 2063 
z
M 2466 5119 
L 3088 5119 
L 2070 3944 
L 1591 3944 
L 2466 5119 
z
" transform="scale(0.015625)"/>
       <path id="DejaVuSans-65" d="M 3597 1894 
L 3597 1613 
L 953 1613 
Q 991 1019 1311 708 
Q 1631 397 2203 397 
Q 2534 397 2845 478 
Q 3156 559 3463 722 
L 3463 178 
Q 3153 47 2828 -22 
Q 2503 -91 2169 -91 
Q 1331 -91 842 396 
Q 353 884 353 1716 
Q 353 2575 817 3079 
Q 1281 3584 2069 3584 
Q 2775 3584 3186 3129 
Q 3597 2675 3597 1894 
z
M 3022 2063 
Q 3016 2534 2758 2815 
Q 2500 3097 2075 3097 
Q 1594 3097 1305 2825 
Q 1016 2553 972 2059 
L 3022 2063 
z
" transform="scale(0.015625)"/>
       <path id="DejaVuSans-20" transform="scale(0.015625)"/>
       <path id="DejaVuSans-64" d="M 2906 2969 
L 2906 4863 
L 3481 4863 
L 3481 0 
L 2906 0 
L 2906 525 
Q 2725 213 2448 61 
Q 2172 -91 1784 -91 
Q 1150 -91 751 415 
Q 353 922 353 1747 
Q 353 2572 751 3078 
Q 1150 3584 1784 3584 
Q 2172 3584 2448 3432 
Q 2725 3281 2906 2969 
z
M 947 1747 
Q 947 1113 1208 752 
Q 1469 391 1925 391 
Q 2381 391 2643 752 
Q 2906 1113 2906 1747 
Q 2906 2381 2643 2742 
Q 2381 3103 1925 3103 
Q 1469 3103 1208 2742 
Q 947 2381 947 1747 
z
" transform="scale(0.015625)"/>
       <path id="DejaVuSans-62" d="M 3116 1747 
Q 3116 2381 2855 2742 
Q 2594 3103 2138 3103 
Q 1681 3103 1420 2742 
Q 1159 2381 1159 1747 
Q 1159 1113 1420 752 
Q 1681 391 2138 391 
Q 2594 391 2855 752 
Q 3116 1113 3116 1747 
z
M 1159 2969 
Q 1341 3281 1617 3432 
Q 1894 3584 2278 3584 
Q 2916 3584 3314 3078 
Q 3713 2572 3713 1747 
Q 3713 922 3314 415 
Q 2916 -91 2278 -91 
Q 1894 -91 1617 61 
Q 1341 213 1159 525 
L 1159 0 
L 581 0 
L 581 4863 
L 1159 4863 
L 1159 2969 
z
" transform="scale(0.015625)"/>
       <path id="DejaVuSans-75" d="M 544 1381 
L 544 3500 
L 1119 3500 
L 1119 1403 
Q 1119 906 1312 657 
Q 1506 409 1894 409 
Q 2359 409 2629 706 
Q 2900 1003 2900 1516 
L 2900 3500 
L 3475 3500 
L 3475 0 
L 2900 0 
L 2900 538 
Q 2691 219 2414 64 
Q 2138 -91 1772 -91 
Q 1169 -91 856 284 
Q 544 659 544 1381 
z
M 1991 3584 
L 1991 3584 
z
" transform="scale(0.015625)"/>
       <path id="DejaVuSans-74" d="M 1172 4494 
L 1172 3500 
L 2356 3500 
L 2356 3053 
L 1172 3053 
L 1172 1153 
Q 1172 725 1289 603 
Q 1406 481 1766 481 
L 2356 481 
L 2356 0 
L 1766 0 
Q 1100 0 847 248 
Q 594 497 594 1153 
L 594 3053 
L 172 3053 
L 172 3500 
L 594 3500 
L 594 4494 
L 1172 4494 
z
" transform="scale(0.015625)"/>
      </defs>
      <use xlink:href="#DejaVuSans-41"/>
      <use xlink:href="#DejaVuSans-6e" transform="translate(68.408203 0)"/>
      <use xlink:href="#DejaVuSans-6e" transform="translate(131.787109 0)"/>
      <use xlink:href="#DejaVuSans-e9" transform="translate(195.166016 0)"/>
      <use xlink:href="#DejaVuSans-65" transform="translate(256.689453 0)"/>
      <use xlink:href="#DejaVuSans-20" transform="translate(318.212891 0)"/>
      <use xlink:href="#DejaVuSans-64" transform="translate(350 0)"/>
      <use xlink:href="#DejaVuSans-65" transform="translate(413.476562 0)"/>
      <use xlink:href="#DejaVuSans-20" transform="translate(475 0)"/>
      <use xlink:href="#DejaVuSans-64" transform="translate(506.787109 0)"/>
      <use xlink:href="#DejaVuSans-e9" transform="translate(570.263672 0)"/>
      <use xlink:href="#DejaVuSans-62" transform="translate(631.787109 0)"/>
      <use xlink:href="#DejaVuSans-75" transform="translate(695.263672 0)"/>
      <use xlink:href="#DejaVuSans-74" transform="translate(758.642578 0)"/>
     </g>
    </g>
   </g>
   <g id="matplotlib.axis_2">
    <g id="ytick_1">
     <g id="line2d_17">
      <path d="M 41.15 440.227636 
L 925.2 440.227636 
" clip-path="url(#p11f048f7ee)" style="fill: none; stroke: #b0b0b0; stroke-opacity: 0.3; stroke-width: 0.8; stroke-linecap: square"/>
     </g>
     <g id="line2d_18">
      <defs>
       <path id="m3b6c395e91" d="M 0 0 
L -3.5 0 
" style="stroke: #000000; stroke-width: 0.8"/>
      </defs>
      <g>
       <use xlink:href="#m3b6c395e91" x="41.15" y="440.227636" style="stroke: #000000; stroke-width: 0.8"/>
      </g>
     </g>
     <g id="text_10">
      <!-- 1 -->
      <g transform="translate(27.7875 444.026855) scale(0.1 -0.1)">
       <use xlink:href="#DejaVuSans-31"/>
      </g>
     </g>
    </g>
    <g id="ytick_2">
     <g id="line2d_19">
      <path d="M 41.15 379.917668 
L 925.2 379.917668 
" clip-path="url(#p11f048f7ee)" style="fill: none; stroke: #b0b0b0; stroke-opacity: 0.3; stroke-width: 0.8; stroke-linecap: square"/>
     </g>
     <g id="line2d_20">
      <g>
       <use xlink:href="#m3b6c395e91" x="41.15" y="379.917668" style="stroke: #000000; stroke-width: 0.8"/>
      </g>
     </g>
     <g id="text_11">
      <!-- 2 -->
      <g transform="translate(27.7875 383.716886) scale(0.1 -0.1)">
       <defs>
        <path id="DejaVuSans-32" d="M 1228 531 
L 3431 531 
L 3431 0 
L 469 0 
L 469 531 
Q 828 903 1448 1529 
Q 2069 2156 2228 2338 
Q 2531 2678 2651 2914 
Q 2772 3150 2772 3378 
Q 2772 3750 2511 3984 
Q 2250 4219 1831 4219 
Q 1534 4219 1204 4116 
Q 875 4013 500 3803 
L 500 4441 
Q 881 4594 1212 4672 
Q 1544 4750 1819 4750 
Q 2544 4750 2975 4387 
Q 3406 4025 3406 3419 
Q 3406 3131 3298 2873 
Q 3191 2616 2906 2266 
Q 2828 2175 2409 1742 
Q 1991 1309 1228 531 
z
" transform="scale(0.015625)"/>
       </defs>
       <use xlink:href="#DejaVuSans-32"/>
      </g>
     </g>
    </g>
    <g id="ytick_3">
     <g id="line2d_21">
      <path d="M 41.15 319.607699 
L 925.2 319.607699 
" clip-path="url(#p11f048f7ee)" style="fill: none; stroke: #b0b0b0; stroke-opacity: 0.3; stroke-width: 0.8; stroke-linecap: square"/>
     </g>
     <g id="line2d_22">
      <g>
       <use xlink:href="#m3b6c395e91" x="41.15" y="319.607699" style="stroke: #000000; stroke-width: 0.8"/>
      </g>
     </g>
     <g id="text_12">
      <!-- 3 -->
      <g transform="translate(27.7875 323.406918) scale(0.1 -0.1)">
       <defs>
        <path id="DejaVuSans-33" d="M 2597 2516 
Q 3050 2419 3304 2112 
Q 3559 1806 3559 1356 
Q 3559 666 3084 287 
Q 2609 -91 1734 -91 
Q 1441 -91 1130 -33 
Q 819 25 488 141 
L 488 750 
Q 750 597 1062 519 
Q 1375 441 1716 441 
Q 2309 441 2620 675 
Q 2931 909 2931 1356 
Q 2931 1769 2642 2001 
Q 2353 2234 1838 2234 
L 1294 2234 
L 1294 2753 
L 1863 2753 
Q 2328 2753 2575 2939 
Q 2822 3125 2822 3475 
Q 2822 3834 2567 4026 
Q 2313 4219 1838 4219 
Q 1578 4219 1281 4162 
Q 984 4106 628 3988 
L 628 4550 
Q 988 4650 1302 4700 
Q 1616 4750 1894 4750 
Q 2613 4750 3031 4423 
Q 3450 4097 3450 3541 
Q 3450 3153 3228 2886 
Q 3006 2619 2597 2516 
z
" transform="scale(0.015625)"/>
       </defs>
       <use xlink:href="#DejaVuSans-33"/>
      </g>
     </g>
    </g>
    <g id="ytick_4">
     <g id="line2d_23">
      <path d="M 41.15 259.29773 
L 925.2 259.29773 
" clip-path="url(#p11f048f7ee)" style="fill: none; stroke: #b0b0b0; stroke-opacity: 0.3; stroke-width: 0.8; stroke-linecap: square"/>
     </g>
     <g id="line2d_24">
      <g>
       <use xlink:href="#m3b6c395e91" x="41.15" y="259.29773" style="stroke: #000000; stroke-width: 0.8"/>
      </g>
     </g>
     <g id="text_13">
      <!-- 4 -->
      <g transform="translate(27.7875 263.096949) scale(0.1 -0.1)">
       <use xlink:href="#DejaVuSans-34"/>
      </g>
     </g>
    </g>
    <g id="ytick_5">
     <g id="line2d_25">
      <path d="M 41.15 198.987762 
L 925.2 198.987762 
" clip-path="url(#p11f048f7ee)" style="fill: none; stroke: #b0b0b0; stroke-opacity: 0.3; stroke-width: 0.8; stroke-linecap: square"/>
     </g>
     <g id="line2d_26">
      <g>
       <use xlink:href="#m3b6c395e91" x="41.15" y="198.987762" style="stroke: #000000; stroke-width: 0.8"/>
      </g>
     </g>
     <g id="text_14">
      <!-- 5 -->
      <g transform="translate(27.7875 202.786981) scale(0.1 -0.1)">
       <use xlink:href="#DejaVuSans-35"/>
      </g>
     </g>
    </g>
    <g id="ytick_6">
     <g id="line2d_27">
      <path d="M 41.15 138.677793 
L 925.2 138.677793 
" clip-path="url(#p11f048f7ee)" style="fill: none; stroke: #b0b0b0; stroke-opacity: 0.3; stroke-width: 0.8; stroke-linecap: square"/>
     </g>
     <g id="line2d_28">
      <g>
       <use xlink:href="#m3b6c395e91" x="41.15" y="138.677793" style="stroke: #000000; stroke-width: 0.8"/>
      </g>
     </g>
     <g id="text_15">
      <!-- 6 -->
      <g transform="translate(27.7875 142.477012) scale(0.1 -0.1)">
       <use xlink:href="#DejaVuSans-36"/>
      </g>
     </g>
    </g>
    <g id="ytick_7">
     <g id="line2d_29">
      <path d="M 41.15 78.367825 
L 925.2 78.367825 
" clip-path="url(#p11f048f7ee)" style="fill: none; stroke: #b0b0b0; stroke-opacity: 0.3; stroke-width: 0.8; stroke-linecap: square"/>
     </g>
     <g id="line2d_30">
      <g>
       <use xlink:href="#m3b6c395e91" x="41.15" y="78.367825" style="stroke: #000000; stroke-width: 0.8"/>
      </g>
     </g>
     <g id="text_16">
      <!-- 7 -->
      <g transform="translate(27.7875 82.167043) scale(0.1 -0.1)">
       <use xlink:href="#DejaVuSans-37"/>
      </g>
     </g>
    </g>
    <g id="text_17">
     <!-- Total des rentes versées / Cotisations cumulées (réel) -->
     <g transform="translate(21.291875 411.541812) rotate(-90) scale(0.12 -0.12)">
      <defs>
       <path id="DejaVuSans-54" d="M -19 4666 
L 3928 4666 
L 3928 4134 
L 2272 4134 
L 2272 0 
L 1638 0 
L 1638 4134 
L -19 4134 
L -19 4666 
z
" transform="scale(0.015625)"/>
       <path id="DejaVuSans-6f" d="M 1959 3097 
Q 1497 3097 1228 2736 
Q 959 2375 959 1747 
Q 959 1119 1226 758 
Q 1494 397 1959 397 
Q 2419 397 2687 759 
Q 2956 1122 2956 1747 
Q 2956 2369 2687 2733 
Q 2419 3097 1959 3097 
z
M 1959 3584 
Q 2709 3584 3137 3096 
Q 3566 2609 3566 1747 
Q 3566 888 3137 398 
Q 2709 -91 1959 -91 
Q 1206 -91 779 398 
Q 353 888 353 1747 
Q 353 2609 779 3096 
Q 1206 3584 1959 3584 
z
" transform="scale(0.015625)"/>
       <path id="DejaVuSans-61" d="M 2194 1759 
Q 1497 1759 1228 1600 
Q 959 1441 959 1056 
Q 959 750 1161 570 
Q 1363 391 1709 391 
Q 2188 391 2477 730 
Q 2766 1069 2766 1631 
L 2766 1759 
L 2194 1759 
z
M 3341 1997 
L 3341 0 
L 2766 0 
L 2766 531 
Q 2569 213 2275 61 
Q 1981 -91 1556 -91 
Q 1019 -91 701 211 
Q 384 513 384 1019 
Q 384 1609 779 1909 
Q 1175 2209 1959 2209 
L 2766 2209 
L 2766 2266 
Q 2766 2663 2505 2880 
Q 2244 3097 1772 3097 
Q 1472 3097 1187 3025 
Q 903 2953 641 2809 
L 641 3341 
Q 956 3463 1253 3523 
Q 1550 3584 1831 3584 
Q 2591 3584 2966 3190 
Q 3341 2797 3341 1997 
z
" transform="scale(0.015625)"/>
       <path id="DejaVuSans-6c" d="M 603 4863 
L 1178 4863 
L 1178 0 
L 603 0 
L 603 4863 
z
" transform="scale(0.015625)"/>
       <path id="DejaVuSans-73" d="M 2834 3397 
L 2834 2853 
Q 2591 2978 2328 3040 
Q 2066 3103 1784 3103 
Q 1356 3103 1142 2972 
Q 928 2841 928 2578 
Q 928 2378 1081 2264 
Q 1234 2150 1697 2047 
L 1894 2003 
Q 2506 1872 2764 1633 
Q 3022 1394 3022 966 
Q 3022 478 2636 193 
Q 2250 -91 1575 -91 
Q 1294 -91 989 -36 
Q 684 19 347 128 
L 347 722 
Q 666 556 975 473 
Q 1284 391 1588 391 
Q 1994 391 2212 530 
Q 2431 669 2431 922 
Q 2431 1156 2273 1281 
Q 2116 1406 1581 1522 
L 1381 1569 
Q 847 1681 609 1914 
Q 372 2147 372 2553 
Q 372 3047 722 3315 
Q 1072 3584 1716 3584 
Q 2034 3584 2315 3537 
Q 2597 3491 2834 3397 
z
" transform="scale(0.015625)"/>
       <path id="DejaVuSans-72" d="M 2631 2963 
Q 2534 3019 2420 3045 
Q 2306 3072 2169 3072 
Q 1681 3072 1420 2755 
Q 1159 2438 1159 1844 
L 1159 0 
L 581 0 
L 581 3500 
L 1159 3500 
L 1159 2956 
Q 1341 3275 1631 3429 
Q 1922 3584 2338 3584 
Q 2397 3584 2469 3576 
Q 2541 3569 2628 3553 
L 2631 2963 
z
" transform="scale(0.015625)"/>
       <path id="DejaVuSans-76" d="M 191 3500 
L 800 3500 
L 1894 563 
L 2988 3500 
L 3597 3500 
L 2284 0 
L 1503 0 
L 191 3500 
z
" transform="scale(0.015625)"/>
       <path id="DejaVuSans-2f" d="M 1625 4666 
L 2156 4666 
L 531 -594 
L 0 -594 
L 1625 4666 
z
" transform="scale(0.015625)"/>
       <path id="DejaVuSans-43" d="M 4122 4306 
L 4122 3641 
Q 3803 3938 3442 4084 
Q 3081 4231 2675 4231 
Q 1875 4231 1450 3742 
Q 1025 3253 1025 2328 
Q 1025 1406 1450 917 
Q 1875 428 2675 428 
Q 3081 428 3442 575 
Q 3803 722 4122 1019 
L 4122 359 
Q 3791 134 3420 21 
Q 3050 -91 2638 -91 
Q 1578 -91 968 557 
Q 359 1206 359 2328 
Q 359 3453 968 4101 
Q 1578 4750 2638 4750 
Q 3056 4750 3426 4639 
Q 3797 4528 4122 4306 
z
" transform="scale(0.015625)"/>
       <path id="DejaVuSans-69" d="M 603 3500 
L 1178 3500 
L 1178 0 
L 603 0 
L 603 3500 
z
M 603 4863 
L 1178 4863 
L 1178 4134 
L 603 4134 
L 603 4863 
z
" transform="scale(0.015625)"/>
       <path id="DejaVuSans-63" d="M 3122 3366 
L 3122 2828 
Q 2878 2963 2633 3030 
Q 2388 3097 2138 3097 
Q 1578 3097 1268 2742 
Q 959 2388 959 1747 
Q 959 1106 1268 751 
Q 1578 397 2138 397 
Q 2388 397 2633 464 
Q 2878 531 3122 666 
L 3122 134 
Q 2881 22 2623 -34 
Q 2366 -91 2075 -91 
Q 1284 -91 818 406 
Q 353 903 353 1747 
Q 353 2603 823 3093 
Q 1294 3584 2113 3584 
Q 2378 3584 2631 3529 
Q 2884 3475 3122 3366 
z
" transform="scale(0.015625)"/>
       <path id="DejaVuSans-6d" d="M 3328 2828 
Q 3544 3216 3844 3400 
Q 4144 3584 4550 3584 
Q 5097 3584 5394 3201 
Q 5691 2819 5691 2113 
L 5691 0 
L 5113 0 
L 5113 2094 
Q 5113 2597 4934 2840 
Q 4756 3084 4391 3084 
Q 3944 3084 3684 2787 
Q 3425 2491 3425 1978 
L 3425 0 
L 2847 0 
L 2847 2094 
Q 2847 2600 2669 2842 
Q 2491 3084 2119 3084 
Q 1678 3084 1418 2786 
Q 1159 2488 1159 1978 
L 1159 0 
L 581 0 
L 581 3500 
L 1159 3500 
L 1159 2956 
Q 1356 3278 1631 3431 
Q 1906 3584 2284 3584 
Q 2666 3584 2933 3390 
Q 3200 3197 3328 2828 
z
" transform="scale(0.015625)"/>
       <path id="DejaVuSans-28" d="M 1984 4856 
Q 1566 4138 1362 3434 
Q 1159 2731 1159 2009 
Q 1159 1288 1364 580 
Q 1569 -128 1984 -844 
L 1484 -844 
Q 1016 -109 783 600 
Q 550 1309 550 2009 
Q 550 2706 781 3412 
Q 1013 4119 1484 4856 
L 1984 4856 
z
" transform="scale(0.015625)"/>
       <path id="DejaVuSans-29" d="M 513 4856 
L 1013 4856 
Q 1481 4119 1714 3412 
Q 1947 2706 1947 2009 
Q 1947 1309 1714 600 
Q 1481 -109 1013 -844 
L 513 -844 
Q 928 -128 1133 580 
Q 1338 1288 1338 2009 
Q 1338 2731 1133 3434 
Q 928 4138 513 4856 
z
" transform="scale(0.015625)"/>
      </defs>
      <use xlink:href="#DejaVuSans-54"/>
      <use xlink:href="#DejaVuSans-6f" transform="translate(44.083984 0)"/>
      <use xlink:href="#DejaVuSans-74" transform="translate(105.265625 0)"/>
      <use xlink:href="#DejaVuSans-61" transform="translate(144.474609 0)"/>
      <use xlink:href="#DejaVuSans-6c" transform="translate(205.753906 0)"/>
      <use xlink:href="#DejaVuSans-20" transform="translate(233.537109 0)"/>
      <use xlink:href="#DejaVuSans-64" transform="translate(265.324219 0)"/>
      <use xlink:href="#DejaVuSans-65" transform="translate(328.800781 0)"/>
      <use xlink:href="#DejaVuSans-73" transform="translate(390.324219 0)"/>
      <use xlink:href="#DejaVuSans-20" transform="translate(442.423828 0)"/>
      <use xlink:href="#DejaVuSans-72" transform="translate(474.210938 0)"/>
      <use xlink:href="#DejaVuSans-65" transform="translate(513.074219 0)"/>
      <use xlink:href="#DejaVuSans-6e" transform="translate(574.597656 0)"/>
      <use xlink:href="#DejaVuSans-74" transform="translate(637.976562 0)"/>
      <use xlink:href="#DejaVuSans-65" transform="translate(677.185547 0)"/>
      <use xlink:href="#DejaVuSans-73" transform="translate(738.708984 0)"/>
      <use xlink:href="#DejaVuSans-20" transform="translate(790.808594 0)"/>
      <use xlink:href="#DejaVuSans-76" transform="translate(822.595703 0)"/>
      <use xlink:href="#DejaVuSans-65" transform="translate(881.775391 0)"/>
      <use xlink:href="#DejaVuSans-72" transform="translate(943.298828 0)"/>
      <use xlink:href="#DejaVuSans-73" transform="translate(984.412109 0)"/>
      <use xlink:href="#DejaVuSans-e9" transform="translate(1036.511719 0)"/>
      <use xlink:href="#DejaVuSans-65" transform="translate(1098.035156 0)"/>
      <use xlink:href="#DejaVuSans-73" transform="translate(1159.558594 0)"/>
      <use xlink:href="#DejaVuSans-20" transform="translate(1211.658203 0)"/>
      <use xlink:href="#DejaVuSans-2f" transform="translate(1243.445312 0)"/>
      <use xlink:href="#DejaVuSans-20" transform="translate(1277.136719 0)"/>
      <use xlink:href="#DejaVuSans-43" transform="translate(1308.923828 0)"/>
      <use xlink:href="#DejaVuSans-6f" transform="translate(1378.748047 0)"/>
      <use xlink:href="#DejaVuSans-74" transform="translate(1439.929688 0)"/>
      <use xlink:href="#DejaVuSans-69" transform="translate(1479.138672 0)"/>
      <use xlink:href="#DejaVuSans-73" transform="translate(1506.921875 0)"/>
      <use xlink:href="#DejaVuSans-61" transform="translate(1559.021484 0)"/>
      <use xlink:href="#DejaVuSans-74" transform="translate(1620.300781 0)"/>
      <use xlink:href="#DejaVuSans-69" transform="translate(1659.509766 0)"/>
      <use xlink:href="#DejaVuSans-6f" transform="translate(1687.292969 0)"/>
      <use xlink:href="#DejaVuSans-6e" transform="translate(1748.474609 0)"/>
      <use xlink:href="#DejaVuSans-73" transform="translate(1811.853516 0)"/>
      <use xlink:href="#DejaVuSans-20" transform="translate(1863.953125 0)"/>
      <use xlink:href="#DejaVuSans-63" transform="translate(1895.740234 0)"/>
      <use xlink:href="#DejaVuSans-75" transform="translate(1950.720703 0)"/>
      <use xlink:href="#DejaVuSans-6d" transform="translate(2014.099609 0)"/>
      <use xlink:href="#DejaVuSans-75" transform="translate(2111.511719 0)"/>
      <use xlink:href="#DejaVuSans-6c" transform="translate(2174.890625 0)"/>
      <use xlink:href="#DejaVuSans-e9" transform="translate(2202.673828 0)"/>
      <use xlink:href="#DejaVuSans-65" transform="translate(2264.197266 0)"/>
      <use xlink:href="#DejaVuSans-73" transform="translate(2325.720703 0)"/>
      <use xlink:href="#DejaVuSans-20" transform="translate(2377.820312 0)"/>
      <use xlink:href="#DejaVuSans-28" transform="translate(2409.607422 0)"/>
      <use xlink:href="#DejaVuSans-72" transform="translate(2448.621094 0)"/>
      <use xlink:href="#DejaVuSans-e9" transform="translate(2487.484375 0)"/>
      <use xlink:href="#DejaVuSans-65" transform="translate(2549.007812 0)"/>
      <use xlink:href="#DejaVuSans-6c" transform="translate(2610.53125 0)"/>
      <use xlink:href="#DejaVuSans-29" transform="translate(2638.314453 0)"/>
     </g>
    </g>
   </g>
   <g id="line2d_31">
    <path d="M 65.706944 384.530177 
L 90.263889 350.029103 
L 114.820833 368.51022 
L 139.377778 368.99831 
L 163.934722 362.271483 
L 188.491667 333.321674 
L 213.048611 350.074162 
L 237.605556 362.739349 
L 262.1625 332.183551 
L 286.719444 282.209836 
L 311.276389 219.120305 
L 335.833333 91.073703 
L 360.390278 61.580364 
L 384.947222 158.098004 
L 409.504167 268.841855 
L 434.061111 250.998296 
L 458.618056 230.438132 
L 483.175 172.355446 
L 507.731944 137.973532 
L 532.288889 112.44609 
L 556.845833 303.131717 
L 581.402778 243.29998 
L 605.959722 266.658231 
L 630.516667 305.268759 
L 655.073611 279.660064 
L 679.630556 247.62368 
L 704.1875 232.290896 
L 728.744444 214.325239 
L 753.301389 228.248216 
L 777.858333 191.688992 
L 802.415278 224.154504 
L 826.972222 182.856174 
L 851.529167 221.749501 
L 876.086111 175.548963 
L 900.643056 197.105793 
" clip-path="url(#p11f048f7ee)" style="fill: none; stroke: #0000ff; stroke-width: 1.8; stroke-linecap: square"/>
    <defs>
     <path id="m34ae59c433" d="M 0 2 
C 0.530406 2 1.03916 1.789267 1.414214 1.414214 
C 1.789267 1.03916 2 0.530406 2 0 
C 2 -0.530406 1.789267 -1.03916 1.414214 -1.414214 
C 1.03916 -1.789267 0.530406 -2 0 -2 
C -0.530406 -2 -1.03916 -1.789267 -1.414214 -1.414214 
C -1.789267 -1.03916 -2 -0.530406 -2 0 
C -2 0.530406 -1.789267 1.03916 -1.414214 1.414214 
C -1.03916 1.789267 -0.530406 2 0 2 
z
" style="stroke: #0000ff"/>
    </defs>
    <g clip-path="url(#p11f048f7ee)">
     <use xlink:href="#m34ae59c433" x="65.706944" y="384.530177" style="fill: #0000ff; stroke: #0000ff"/>
     <use xlink:href="#m34ae59c433" x="90.263889" y="350.029103" style="fill: #0000ff; stroke: #0000ff"/>
     <use xlink:href="#m34ae59c433" x="114.820833" y="368.51022" style="fill: #0000ff; stroke: #0000ff"/>
     <use xlink:href="#m34ae59c433" x="139.377778" y="368.99831" style="fill: #0000ff; stroke: #0000ff"/>
     <use xlink:href="#m34ae59c433" x="163.934722" y="362.271483" style="fill: #0000ff; stroke: #0000ff"/>
     <use xlink:href="#m34ae59c433" x="188.491667" y="333.321674" style="fill: #0000ff; stroke: #0000ff"/>
     <use xlink:href="#m34ae59c433" x="213.048611" y="350.074162" style="fill: #0000ff; stroke: #0000ff"/>
     <use xlink:href="#m34ae59c433" x="237.605556" y="362.739349" style="fill: #0000ff; stroke: #0000ff"/>
     <use xlink:href="#m34ae59c433" x="262.1625" y="332.183551" style="fill: #0000ff; stroke: #0000ff"/>
     <use xlink:href="#m34ae59c433" x="286.719444" y="282.209836" style="fill: #0000ff; stroke: #0000ff"/>
     <use xlink:href="#m34ae59c433" x="311.276389" y="219.120305" style="fill: #0000ff; stroke: #0000ff"/>
     <use xlink:href="#m34ae59c433" x="335.833333" y="91.073703" style="fill: #0000ff; stroke: #0000ff"/>
     <use xlink:href="#m34ae59c433" x="360.390278" y="61.580364" style="fill: #0000ff; stroke: #0000ff"/>
     <use xlink:href="#m34ae59c433" x="384.947222" y="158.098004" style="fill: #0000ff; stroke: #0000ff"/>
     <use xlink:href="#m34ae59c433" x="409.504167" y="268.841855" style="fill: #0000ff; stroke: #0000ff"/>
     <use xlink:href="#m34ae59c433" x="434.061111" y="250.998296" style="fill: #0000ff; stroke: #0000ff"/>
     <use xlink:href="#m34ae59c433" x="458.618056" y="230.438132" style="fill: #0000ff; stroke: #0000ff"/>
     <use xlink:href="#m34ae59c433" x="483.175" y="172.355446" style="fill: #0000ff; stroke: #0000ff"/>
     <use xlink:href="#m34ae59c433" x="507.731944" y="137.973532" style="fill: #0000ff; stroke: #0000ff"/>
     <use xlink:href="#m34ae59c433" x="532.288889" y="112.44609" style="fill: #0000ff; stroke: #0000ff"/>
     <use xlink:href="#m34ae59c433" x="556.845833" y="303.131717" style="fill: #0000ff; stroke: #0000ff"/>
     <use xlink:href="#m34ae59c433" x="581.402778" y="243.29998" style="fill: #0000ff; stroke: #0000ff"/>
     <use xlink:href="#m34ae59c433" x="605.959722" y="266.658231" style="fill: #0000ff; stroke: #0000ff"/>
     <use xlink:href="#m34ae59c433" x="630.516667" y="305.268759" style="fill: #0000ff; stroke: #0000ff"/>
     <use xlink:href="#m34ae59c433" x="655.073611" y="279.660064" style="fill: #0000ff; stroke: #0000ff"/>
     <use xlink:href="#m34ae59c433" x="679.630556" y="247.62368" style="fill: #0000ff; stroke: #0000ff"/>
     <use xlink:href="#m34ae59c433" x="704.1875" y="232.290896" style="fill: #0000ff; stroke: #0000ff"/>
     <use xlink:href="#m34ae59c433" x="728.744444" y="214.325239" style="fill: #0000ff; stroke: #0000ff"/>
     <use xlink:href="#m34ae59c433" x="753.301389" y="228.248216" style="fill: #0000ff; stroke: #0000ff"/>
     <use xlink:href="#m34ae59c433" x="777.858333" y="191.688992" style="fill: #0000ff; stroke: #0000ff"/>
     <use xlink:href="#m34ae59c433" x="802.415278" y="224.154504" style="fill: #0000ff; stroke: #0000ff"/>
     <use xlink:href="#m34ae59c433" x="826.972222" y="182.856174" style="fill: #0000ff; stroke: #0000ff"/>
     <use xlink:href="#m34ae59c433" x="851.529167" y="221.749501" style="fill: #0000ff; stroke: #0000ff"/>
     <use xlink:href="#m34ae59c433" x="876.086111" y="175.548963" style="fill: #0000ff; stroke: #0000ff"/>
     <use xlink:href="#m34ae59c433" x="900.643056" y="197.105793" style="fill: #0000ff; stroke: #0000ff"/>
    </g>
   </g>
   <g id="line2d_32">
    <path d="M 65.706944 367.716256 
L 90.263889 356.982855 
L 114.820833 365.020277 
L 139.377778 368.211546 
L 163.934722 368.090331 
L 188.491667 362.178521 
L 213.048611 368.901163 
L 237.605556 374.459868 
L 262.1625 366.118411 
L 286.719444 350.489961 
L 311.276389 329.514786 
L 335.833333 286.858716 
L 360.390278 276.556542 
L 384.947222 309.708964 
L 409.504167 348.205881 
L 434.061111 343.904388 
L 458.618056 337.203448 
L 483.175 318.739833 
L 507.731944 307.625502 
L 532.288889 299.439541 
L 556.845833 364.763613 
L 581.402778 348.568887 
L 605.959722 356.700987 
L 630.516667 369.799112 
L 655.073611 362.57304 
L 679.630556 352.93157 
L 704.1875 348.546064 
L 728.744444 343.128178 
L 753.301389 348.281716 
L 777.858333 335.872935 
L 802.415278 346.767954 
L 826.972222 333.052225 
L 851.529167 351.716144 
L 876.086111 333.519604 
L 900.643056 340.216029 
" clip-path="url(#p11f048f7ee)" style="fill: none; stroke: #008000; stroke-width: 1.8; stroke-linecap: square"/>
    <defs>
     <path id="m0842b69e35" d="M -2 2 
L 2 2 
L 2 -2 
L -2 -2 
z
" style="stroke: #008000; stroke-linejoin: miter"/>
    </defs>
    <g clip-path="url(#p11f048f7ee)">
     <use xlink:href="#m0842b69e35" x="65.706944" y="367.716256" style="fill: #008000; stroke: #008000; stroke-linejoin: miter"/>
     <use xlink:href="#m0842b69e35" x="90.263889" y="356.982855" style="fill: #008000; stroke: #008000; stroke-linejoin: miter"/>
     <use xlink:href="#m0842b69e35" x="114.820833" y="365.020277" style="fill: #008000; stroke: #008000; stroke-linejoin: miter"/>
     <use xlink:href="#m0842b69e35" x="139.377778" y="368.211546" style="fill: #008000; stroke: #008000; stroke-linejoin: miter"/>
     <use xlink:href="#m0842b69e35" x="163.934722" y="368.090331" style="fill: #008000; stroke: #008000; stroke-linejoin: miter"/>
     <use xlink:href="#m0842b69e35" x="188.491667" y="362.178521" style="fill: #008000; stroke: #008000; stroke-linejoin: miter"/>
     <use xlink:href="#m0842b69e35" x="213.048611" y="368.901163" style="fill: #008000; stroke: #008000; stroke-linejoin: miter"/>
     <use xlink:href="#m0842b69e35" x="237.605556" y="374.459868" style="fill: #008000; stroke: #008000; stroke-linejoin: miter"/>
     <use xlink:href="#m0842b69e35" x="262.1625" y="366.118411" style="fill: #008000; stroke: #008000; stroke-linejoin: miter"/>
     <use xlink:href="#m0842b69e35" x="286.719444" y="350.489961" style="fill: #008000; stroke: #008000; stroke-linejoin: miter"/>
     <use xlink:href="#m0842b69e35" x="311.276389" y="329.514786" style="fill: #008000; stroke: #008000; stroke-linejoin: miter"/>
     <use xlink:href="#m0842b69e35" x="335.833333" y="286.858716" style="fill: #008000; stroke: #008000; stroke-linejoin: miter"/>
     <use xlink:href="#m0842b69e35" x="360.390278" y="276.556542" style="fill: #008000; stroke: #008000; stroke-linejoin: miter"/>
     <use xlink:href="#m0842b69e35" x="384.947222" y="309.708964" style="fill: #008000; stroke: #008000; stroke-linejoin: miter"/>
     <use xlink:href="#m0842b69e35" x="409.504167" y="348.205881" style="fill: #008000; stroke: #008000; stroke-linejoin: miter"/>
     <use xlink:href="#m0842b69e35" x="434.061111" y="343.904388" style="fill: #008000; stroke: #008000; stroke-linejoin: miter"/>
     <use xlink:href="#m0842b69e35" x="458.618056" y="337.203448" style="fill: #008000; stroke: #008000; stroke-linejoin: miter"/>
     <use xlink:href="#m0842b69e35" x="483.175" y="318.739833" style="fill: #008000; stroke: #008000; stroke-linejoin: miter"/>
     <use xlink:href="#m0842b69e35" x="507.731944" y="307.625502" style="fill: #008000; stroke: #008000; stroke-linejoin: miter"/>
     <use xlink:href="#m0842b69e35" x="532.288889" y="299.439541" style="fill: #008000; stroke: #008000; stroke-linejoin: miter"/>
     <use xlink:href="#m0842b69e35" x="556.845833" y="364.763613" style="fill: #008000; stroke: #008000; stroke-linejoin: miter"/>
     <use xlink:href="#m0842b69e35" x="581.402778" y="348.568887" style="fill: #008000; stroke: #008000; stroke-linejoin: miter"/>
     <use xlink:href="#m0842b69e35" x="605.959722" y="356.700987" style="fill: #008000; stroke: #008000; stroke-linejoin: miter"/>
     <use xlink:href="#m0842b69e35" x="630.516667" y="369.799112" style="fill: #008000; stroke: #008000; stroke-linejoin: miter"/>
     <use xlink:href="#m0842b69e35" x="655.073611" y="362.57304" style="fill: #008000; stroke: #008000; stroke-linejoin: miter"/>
     <use xlink:href="#m0842b69e35" x="679.630556" y="352.93157" style="fill: #008000; stroke: #008000; stroke-linejoin: miter"/>
     <use xlink:href="#m0842b69e35" x="704.1875" y="348.546064" style="fill: #008000; stroke: #008000; stroke-linejoin: miter"/>
     <use xlink:href="#m0842b69e35" x="728.744444" y="343.128178" style="fill: #008000; stroke: #008000; stroke-linejoin: miter"/>
     <use xlink:href="#m0842b69e35" x="753.301389" y="348.281716" style="fill: #008000; stroke: #008000; stroke-linejoin: miter"/>
     <use xlink:href="#m0842b69e35" x="777.858333" y="335.872935" style="fill: #008000; stroke: #008000; stroke-linejoin: miter"/>
     <use xlink:href="#m0842b69e35" x="802.415278" y="346.767954" style="fill: #008000; stroke: #008000; stroke-linejoin: miter"/>
     <use xlink:href="#m0842b69e35" x="826.972222" y="333.052225" style="fill: #008000; stroke: #008000; stroke-linejoin: miter"/>
     <use xlink:href="#m0842b69e35" x="851.529167" y="351.716144" style="fill: #008000; stroke: #008000; stroke-linejoin: miter"/>
     <use xlink:href="#m0842b69e35" x="876.086111" y="333.519604" style="fill: #008000; stroke: #008000; stroke-linejoin: miter"/>
     <use xlink:href="#m0842b69e35" x="900.643056" y="340.216029" style="fill: #008000; stroke: #008000; stroke-linejoin: miter"/>
    </g>
   </g>
   <g id="line2d_33">
    <path d="M 65.706944 359.309296 
L 90.263889 360.45973 
L 114.820833 363.275305 
L 139.377778 367.818164 
L 163.934722 370.999755 
L 188.491667 376.606944 
L 213.048611 378.314663 
L 237.605556 380.320127 
L 262.1625 383.08584 
L 286.719444 384.630024 
L 311.276389 384.712026 
L 335.833333 384.751223 
L 360.390278 384.044632 
L 384.947222 385.514444 
L 409.504167 387.887894 
L 434.061111 390.357434 
L 458.618056 390.586106 
L 483.175 391.932027 
L 507.731944 392.451486 
L 532.288889 392.936266 
L 556.845833 395.579561 
L 581.402778 401.203341 
L 605.959722 401.722365 
L 630.516667 402.064289 
L 655.073611 404.029528 
L 679.630556 405.585515 
L 704.1875 406.673649 
L 728.744444 407.529648 
L 753.301389 408.298466 
L 777.858333 407.964907 
L 802.415278 408.074679 
L 826.972222 408.15025 
L 851.529167 416.699465 
L 876.086111 412.504925 
L 900.643056 411.771147 
" clip-path="url(#p11f048f7ee)" style="fill: none; stroke: #ff0000; stroke-width: 1.8; stroke-linecap: square"/>
    <defs>
     <path id="m7549de67a2" d="M 0 -2 
L -2 2 
L 2 2 
z
" style="stroke: #ff0000; stroke-linejoin: miter"/>
    </defs>
    <g clip-path="url(#p11f048f7ee)">
     <use xlink:href="#m7549de67a2" x="65.706944" y="359.309296" style="fill: #ff0000; stroke: #ff0000; stroke-linejoin: miter"/>
     <use xlink:href="#m7549de67a2" x="90.263889" y="360.45973" style="fill: #ff0000; stroke: #ff0000; stroke-linejoin: miter"/>
     <use xlink:href="#m7549de67a2" x="114.820833" y="363.275305" style="fill: #ff0000; stroke: #ff0000; stroke-linejoin: miter"/>
     <use xlink:href="#m7549de67a2" x="139.377778" y="367.818164" style="fill: #ff0000; stroke: #ff0000; stroke-linejoin: miter"/>
     <use xlink:href="#m7549de67a2" x="163.934722" y="370.999755" style="fill: #ff0000; stroke: #ff0000; stroke-linejoin: miter"/>
     <use xlink:href="#m7549de67a2" x="188.491667" y="376.606944" style="fill: #ff0000; stroke: #ff0000; stroke-linejoin: miter"/>
     <use xlink:href="#m7549de67a2" x="213.048611" y="378.314663" style="fill: #ff0000; stroke: #ff0000; stroke-linejoin: miter"/>
     <use xlink:href="#m7549de67a2" x="237.605556" y="380.320127" style="fill: #ff0000; stroke: #ff0000; stroke-linejoin: miter"/>
     <use xlink:href="#m7549de67a2" x="262.1625" y="383.08584" style="fill: #ff0000; stroke: #ff0000; stroke-linejoin: miter"/>
     <use xlink:href="#m7549de67a2" x="286.719444" y="384.630024" style="fill: #ff0000; stroke: #ff0000; stroke-linejoin: miter"/>
     <use xlink:href="#m7549de67a2" x="311.276389" y="384.712026" style="fill: #ff0000; stroke: #ff0000; stroke-linejoin: miter"/>
     <use xlink:href="#m7549de67a2" x="335.833333" y="384.751223" style="fill: #ff0000; stroke: #ff0000; stroke-linejoin: miter"/>
     <use xlink:href="#m7549de67a2" x="360.390278" y="384.044632" style="fill: #ff0000; stroke: #ff0000; stroke-linejoin: miter"/>
     <use xlink:href="#m7549de67a2" x="384.947222" y="385.514444" style="fill: #ff0000; stroke: #ff0000; stroke-linejoin: miter"/>
     <use xlink:href="#m7549de67a2" x="409.504167" y="387.887894" style="fill: #ff0000; stroke: #ff0000; stroke-linejoin: miter"/>
     <use xlink:href="#m7549de67a2" x="434.061111" y="390.357434" style="fill: #ff0000; stroke: #ff0000; stroke-linejoin: miter"/>
     <use xlink:href="#m7549de67a2" x="458.618056" y="390.586106" style="fill: #ff0000; stroke: #ff0000; stroke-linejoin: miter"/>
     <use xlink:href="#m7549de67a2" x="483.175" y="391.932027" style="fill: #ff0000; stroke: #ff0000; stroke-linejoin: miter"/>
     <use xlink:href="#m7549de67a2" x="507.731944" y="392.451486" style="fill: #ff0000; stroke: #ff0000; stroke-linejoin: miter"/>
     <use xlink:href="#m7549de67a2" x="532.288889" y="392.936266" style="fill: #ff0000; stroke: #ff0000; stroke-linejoin: miter"/>
     <use xlink:href="#m7549de67a2" x="556.845833" y="395.579561" style="fill: #ff0000; stroke: #ff0000; stroke-linejoin: miter"/>
     <use xlink:href="#m7549de67a2" x="581.402778" y="401.203341" style="fill: #ff0000; stroke: #ff0000; stroke-linejoin: miter"/>
     <use xlink:href="#m7549de67a2" x="605.959722" y="401.722365" style="fill: #ff0000; stroke: #ff0000; stroke-linejoin: miter"/>
     <use xlink:href="#m7549de67a2" x="630.516667" y="402.064289" style="fill: #ff0000; stroke: #ff0000; stroke-linejoin: miter"/>
     <use xlink:href="#m7549de67a2" x="655.073611" y="404.029528" style="fill: #ff0000; stroke: #ff0000; stroke-linejoin: miter"/>
     <use xlink:href="#m7549de67a2" x="679.630556" y="405.585515" style="fill: #ff0000; stroke: #ff0000; stroke-linejoin: miter"/>
     <use xlink:href="#m7549de67a2" x="704.1875" y="406.673649" style="fill: #ff0000; stroke: #ff0000; stroke-linejoin: miter"/>
     <use xlink:href="#m7549de67a2" x="728.744444" y="407.529648" style="fill: #ff0000; stroke: #ff0000; stroke-linejoin: miter"/>
     <use xlink:href="#m7549de67a2" x="753.301389" y="408.298466" style="fill: #ff0000; stroke: #ff0000; stroke-linejoin: miter"/>
     <use xlink:href="#m7549de67a2" x="777.858333" y="407.964907" style="fill: #ff0000; stroke: #ff0000; stroke-linejoin: miter"/>
     <use xlink:href="#m7549de67a2" x="802.415278" y="408.074679" style="fill: #ff0000; stroke: #ff0000; stroke-linejoin: miter"/>
     <use xlink:href="#m7549de67a2" x="826.972222" y="408.15025" style="fill: #ff0000; stroke: #ff0000; stroke-linejoin: miter"/>
     <use xlink:href="#m7549de67a2" x="851.529167" y="416.699465" style="fill: #ff0000; stroke: #ff0000; stroke-linejoin: miter"/>
     <use xlink:href="#m7549de67a2" x="876.086111" y="412.504925" style="fill: #ff0000; stroke: #ff0000; stroke-linejoin: miter"/>
     <use xlink:href="#m7549de67a2" x="900.643056" y="411.771147" style="fill: #ff0000; stroke: #ff0000; stroke-linejoin: miter"/>
    </g>
   </g>
   <g id="line2d_34">
    <path d="M 41.15 440.227636 
L 925.2 440.227636 
" clip-path="url(#p11f048f7ee)" style="fill: none; stroke-dasharray: 2.96,1.28; stroke-dashoffset: 0; stroke: #808080; stroke-width: 0.8"/>
   </g>
   <g id="patch_3">
    <path d="M 41.15 459.16 
L 41.15 42.648 
" style="fill: none; stroke: #000000; stroke-width: 0.8; stroke-linejoin: miter; stroke-linecap: square"/>
   </g>
   <g id="patch_4">
    <path d="M 925.2 459.16 
L 925.2 42.648 
" style="fill: none; stroke: #000000; stroke-width: 0.8; stroke-linejoin: miter; stroke-linecap: square"/>
   </g>
   <g id="patch_5">
    <path d="M 41.15 459.16 
L 925.2 459.16 
" style="fill: none; stroke: #000000; stroke-width: 0.8; stroke-linejoin: miter; stroke-linecap: square"/>
   </g>
   <g id="patch_6">
    <path d="M 41.15 42.648 
L 925.2 42.648 
" style="fill: none; stroke: #000000; stroke-width: 0.8; stroke-linejoin: miter; stroke-linecap: square"/>
   </g>
   <g id="text_18">
    <!-- Taux de récupération : 43 ans de cotisations, rente sur 20 ans -->
    <g transform="translate(281.644531 21.466844) scale(0.13 -0.13)">
     <defs>
      <path id="DejaVuSans-78" d="M 3513 3500 
L 2247 1797 
L 3578 0 
L 2900 0 
L 1881 1375 
L 863 0 
L 184 0 
L 1544 1831 
L 300 3500 
L 978 3500 
L 1906 2253 
L 2834 3500 
L 3513 3500 
z
" transform="scale(0.015625)"/>
      <path id="DejaVuSans-70" d="M 1159 525 
L 1159 -1331 
L 581 -1331 
L 581 3500 
L 1159 3500 
L 1159 2969 
Q 1341 3281 1617 3432 
Q 1894 3584 2278 3584 
Q 2916 3584 3314 3078 
Q 3713 2572 3713 1747 
Q 3713 922 3314 415 
Q 2916 -91 2278 -91 
Q 1894 -91 1617 61 
Q 1341 213 1159 525 
z
M 3116 1747 
Q 3116 2381 2855 2742 
Q 2594 3103 2138 3103 
Q 1681 3103 1420 2742 
Q 1159 2381 1159 1747 
Q 1159 1113 1420 752 
Q 1681 391 2138 391 
Q 2594 391 2855 752 
Q 3116 1113 3116 1747 
z
" transform="scale(0.015625)"/>
      <path id="DejaVuSans-3a" d="M 750 794 
L 1409 794 
L 1409 0 
L 750 0 
L 750 794 
z
M 750 3309 
L 1409 3309 
L 1409 2516 
L 750 2516 
L 750 3309 
z
" transform="scale(0.015625)"/>
      <path id="DejaVuSans-2c" d="M 750 794 
L 1409 794 
L 1409 256 
L 897 -744 
L 494 -744 
L 750 256 
L 750 794 
z
" transform="scale(0.015625)"/>
     </defs>
     <use xlink:href="#DejaVuSans-54"/>
     <use xlink:href="#DejaVuSans-61" transform="translate(44.583984 0)"/>
     <use xlink:href="#DejaVuSans-75" transform="translate(105.863281 0)"/>
     <use xlink:href="#DejaVuSans-78" transform="translate(169.242188 0)"/>
     <use xlink:href="#DejaVuSans-20" transform="translate(228.421875 0)"/>
     <use xlink:href="#DejaVuSans-64" transform="translate(260.208984 0)"/>
     <use xlink:href="#DejaVuSans-65" transform="translate(323.685547 0)"/>
     <use xlink:href="#DejaVuSans-20" transform="translate(385.208984 0)"/>
     <use xlink:href="#DejaVuSans-72" transform="translate(416.996094 0)"/>
     <use xlink:href="#DejaVuSans-e9" transform="translate(455.859375 0)"/>
     <use xlink:href="#DejaVuSans-63" transform="translate(517.382812 0)"/>
     <use xlink:href="#DejaVuSans-75" transform="translate(572.363281 0)"/>
     <use xlink:href="#DejaVuSans-70" transform="translate(635.742188 0)"/>
     <use xlink:href="#DejaVuSans-e9" transform="translate(699.21875 0)"/>
     <use xlink:href="#DejaVuSans-72" transform="translate(760.742188 0)"/>
     <use xlink:href="#DejaVuSans-61" transform="translate(801.855469 0)"/>
     <use xlink:href="#DejaVuSans-74" transform="translate(863.134766 0)"/>
     <use xlink:href="#DejaVuSans-69" transform="translate(902.34375 0)"/>
     <use xlink:href="#DejaVuSans-6f" transform="translate(930.126953 0)"/>
     <use xlink:href="#DejaVuSans-6e" transform="translate(991.308594 0)"/>
     <use xlink:href="#DejaVuSans-20" transform="translate(1054.6875 0)"/>
     <use xlink:href="#DejaVuSans-3a" transform="translate(1086.474609 0)"/>
     <use xlink:href="#DejaVuSans-20" transform="translate(1120.166016 0)"/>
     <use xlink:href="#DejaVuSans-34" transform="translate(1151.953125 0)"/>
     <use xlink:href="#DejaVuSans-33" transform="translate(1215.576172 0)"/>
     <use xlink:href="#DejaVuSans-20" transform="translate(1279.199219 0)"/>
     <use xlink:href="#DejaVuSans-61" transform="translate(1310.986328 0)"/>
     <use xlink:href="#DejaVuSans-6e" transform="translate(1372.265625 0)"/>
     <use xlink:href="#DejaVuSans-73" transform="translate(1435.644531 0)"/>
     <use xlink:href="#DejaVuSans-20" transform="translate(1487.744141 0)"/>
     <use xlink:href="#DejaVuSans-64" transform="translate(1519.53125 0)"/>
     <use xlink:href="#DejaVuSans-65" transform="translate(1583.007812 0)"/>
     <use xlink:href="#DejaVuSans-20" transform="translate(1644.53125 0)"/>
     <use xlink:href="#DejaVuSans-63" transform="translate(1676.318359 0)"/>
     <use xlink:href="#DejaVuSans-6f" transform="translate(1731.298828 0)"/>
     <use xlink:href="#DejaVuSans-74" transform="translate(1792.480469 0)"/>
     <use xlink:href="#DejaVuSans-69" transform="translate(1831.689453 0)"/>
     <use xlink:href="#DejaVuSans-73" transform="translate(1859.472656 0)"/>
     <use xlink:href="#DejaVuSans-61" transform="translate(1911.572266 0)"/>
     <use xlink:href="#DejaVuSans-74" transform="translate(1972.851562 0)"/>
     <use xlink:href="#DejaVuSans-69" transform="translate(2012.060547 0)"/>
     <use xlink:href="#DejaVuSans-6f" transform="translate(2039.84375 0)"/>
     <use xlink:href="#DejaVuSans-6e" transform="translate(2101.025391 0)"/>
     <use xlink:href="#DejaVuSans-73" transform="translate(2164.404297 0)"/>
     <use xlink:href="#DejaVuSans-2c" transform="translate(2216.503906 0)"/>
     <use xlink:href="#DejaVuSans-20" transform="translate(2248.291016 0)"/>
     <use xlink:href="#DejaVuSans-72" transform="translate(2280.078125 0)"/>
     <use xlink:href="#DejaVuSans-65" transform="translate(2318.941406 0)"/>
     <use xlink:href="#DejaVuSans-6e" transform="translate(2380.464844 0)"/>
     <use xlink:href="#DejaVuSans-74" transform="translate(2443.84375 0)"/>
     <use xlink:href="#DejaVuSans-65" transform="translate(2483.052734 0)"/>
     <use xlink:href="#DejaVuSans-20" transform="translate(2544.576172 0)"/>
     <use xlink:href="#DejaVuSans-73" transform="translate(2576.363281 0)"/>
     <use xlink:href="#DejaVuSans-75" transform="translate(2628.462891 0)"/>
     <use xlink:href="#DejaVuSans-72" transform="translate(2691.841797 0)"/>
     <use xlink:href="#DejaVuSans-20" transform="translate(2732.955078 0)"/>
     <use xlink:href="#DejaVuSans-32" transform="translate(2764.742188 0)"/>
     <use xlink:href="#DejaVuSans-30" transform="translate(2828.365234 0)"/>
     <use xlink:href="#DejaVuSans-20" transform="translate(2891.988281 0)"/>
     <use xlink:href="#DejaVuSans-61" transform="translate(2923.775391 0)"/>
     <use xlink:href="#DejaVuSans-6e" transform="translate(2985.054688 0)"/>
     <use xlink:href="#DejaVuSans-73" transform="translate(3048.433594 0)"/>
    </g>
    <!-- (taux d’actualisation : 1% notionnel / 2% capitalisé, cotisations +2%/an, 1946–1980) -->
    <g transform="translate(206.994062 36.648) scale(0.13 -0.13)">
     <defs>
      <path id="DejaVuSans-2019" d="M 813 4666 
L 1472 4666 
L 1472 4191 
L 959 3194 
L 556 3194 
L 813 4191 
L 813 4666 
z
" transform="scale(0.015625)"/>
      <path id="DejaVuSans-25" d="M 4653 2053 
Q 4381 2053 4226 1822 
Q 4072 1591 4072 1178 
Q 4072 772 4226 539 
Q 4381 306 4653 306 
Q 4919 306 5073 539 
Q 5228 772 5228 1178 
Q 5228 1588 5073 1820 
Q 4919 2053 4653 2053 
z
M 4653 2450 
Q 5147 2450 5437 2106 
Q 5728 1763 5728 1178 
Q 5728 594 5436 251 
Q 5144 -91 4653 -91 
Q 4153 -91 3862 251 
Q 3572 594 3572 1178 
Q 3572 1766 3864 2108 
Q 4156 2450 4653 2450 
z
M 1428 4353 
Q 1159 4353 1004 4120 
Q 850 3888 850 3481 
Q 850 3069 1003 2837 
Q 1156 2606 1428 2606 
Q 1700 2606 1854 2837 
Q 2009 3069 2009 3481 
Q 2009 3884 1853 4118 
Q 1697 4353 1428 4353 
z
M 4250 4750 
L 4750 4750 
L 1831 -91 
L 1331 -91 
L 4250 4750 
z
M 1428 4750 
Q 1922 4750 2215 4408 
Q 2509 4066 2509 3481 
Q 2509 2891 2217 2550 
Q 1925 2209 1428 2209 
Q 931 2209 642 2551 
Q 353 2894 353 3481 
Q 353 4063 643 4406 
Q 934 4750 1428 4750 
z
" transform="scale(0.015625)"/>
      <path id="DejaVuSans-2b" d="M 2944 4013 
L 2944 2272 
L 4684 2272 
L 4684 1741 
L 2944 1741 
L 2944 0 
L 2419 0 
L 2419 1741 
L 678 1741 
L 678 2272 
L 2419 2272 
L 2419 4013 
L 2944 4013 
z
" transform="scale(0.015625)"/>
      <path id="DejaVuSans-2013" d="M 313 1978 
L 2888 1978 
L 2888 1528 
L 313 1528 
L 313 1978 
z
" transform="scale(0.015625)"/>
     </defs>
     <use xlink:href="#DejaVuSans-28"/>
     <use xlink:href="#DejaVuSans-74" transform="translate(39.013672 0)"/>
     <use xlink:href="#DejaVuSans-61" transform="translate(78.222656 0)"/>
     <use xlink:href="#DejaVuSans-75" transform="translate(139.501953 0)"/>
     <use xlink:href="#DejaVuSans-78" transform="translate(202.880859 0)"/>
     <use xlink:href="#DejaVuSans-20" transform="translate(262.060547 0)"/>
     <use xlink:href="#DejaVuSans-64" transform="translate(293.847656 0)"/>
     <use xlink:href="#DejaVuSans-2019" transform="translate(357.324219 0)"/>
     <use xlink:href="#DejaVuSans-61" transform="translate(389.111328 0)"/>
     <use xlink:href="#DejaVuSans-63" transform="translate(450.390625 0)"/>
     <use xlink:href="#DejaVuSans-74" transform="translate(505.371094 0)"/>
     <use xlink:href="#DejaVuSans-75" transform="translate(544.580078 0)"/>
     <use xlink:href="#DejaVuSans-61" transform="translate(607.958984 0)"/>
     <use xlink:href="#DejaVuSans-6c" transform="translate(669.238281 0)"/>
     <use xlink:href="#DejaVuSans-69" transform="translate(697.021484 0)"/>
     <use xlink:href="#DejaVuSans-73" transform="translate(724.804688 0)"/>
     <use xlink:href="#DejaVuSans-61" transform="translate(776.904297 0)"/>
     <use xlink:href="#DejaVuSans-74" transform="translate(838.183594 0)"/>
     <use xlink:href="#DejaVuSans-69" transform="translate(877.392578 0)"/>
     <use xlink:href="#DejaVuSans-6f" transform="translate(905.175781 0)"/>
     <use xlink:href="#DejaVuSans-6e" transform="translate(966.357422 0)"/>
     <use xlink:href="#DejaVuSans-20" transform="translate(1029.736328 0)"/>
     <use xlink:href="#DejaVuSans-3a" transform="translate(1061.523438 0)"/>
     <use xlink:href="#DejaVuSans-20" transform="translate(1095.214844 0)"/>
     <use xlink:href="#DejaVuSans-31" transform="translate(1127.001953 0)"/>
     <use xlink:href="#DejaVuSans-25" transform="translate(1190.625 0)"/>
     <use xlink:href="#DejaVuSans-20" transform="translate(1285.644531 0)"/>
     <use xlink:href="#DejaVuSans-6e" transform="translate(1317.431641 0)"/>
     <use xlink:href="#DejaVuSans-6f" transform="translate(1380.810547 0)"/>
     <use xlink:href="#DejaVuSans-74" transform="translate(1441.992188 0)"/>
     <use xlink:href="#DejaVuSans-69" transform="translate(1481.201172 0)"/>
     <use xlink:href="#DejaVuSans-6f" transform="translate(1508.984375 0)"/>
     <use xlink:href="#DejaVuSans-6e" transform="translate(1570.166016 0)"/>
     <use xlink:href="#DejaVuSans-6e" transform="translate(1633.544922 0)"/>
     <use xlink:href="#DejaVuSans-65" transform="translate(1696.923828 0)"/>
     <use xlink:href="#DejaVuSans-6c" transform="translate(1758.447266 0)"/>
     <use xlink:href="#DejaVuSans-20" transform="translate(1786.230469 0)"/>
     <use xlink:href="#DejaVuSans-2f" transform="translate(1818.017578 0)"/>
     <use xlink:href="#DejaVuSans-20" transform="translate(1851.708984 0)"/>
     <use xlink:href="#DejaVuSans-32" transform="translate(1883.496094 0)"/>
     <use xlink:href="#DejaVuSans-25" transform="translate(1947.119141 0)"/>
     <use xlink:href="#DejaVuSans-20" transform="translate(2042.138672 0)"/>
     <use xlink:href="#DejaVuSans-63" transform="translate(2073.925781 0)"/>
     <use xlink:href="#DejaVuSans-61" transform="translate(2128.90625 0)"/>
     <use xlink:href="#DejaVuSans-70" transform="translate(2190.185547 0)"/>
     <use xlink:href="#DejaVuSans-69" transform="translate(2253.662109 0)"/>
     <use xlink:href="#DejaVuSans-74" transform="translate(2281.445312 0)"/>
     <use xlink:href="#DejaVuSans-61" transform="translate(2320.654297 0)"/>
     <use xlink:href="#DejaVuSans-6c" transform="translate(2381.933594 0)"/>
     <use xlink:href="#DejaVuSans-69" transform="translate(2409.716797 0)"/>
     <use xlink:href="#DejaVuSans-73" transform="translate(2437.5 0)"/>
     <use xlink:href="#DejaVuSans-e9" transform="translate(2489.599609 0)"/>
     <use xlink:href="#DejaVuSans-2c" transform="translate(2551.123047 0)"/>
     <use xlink:href="#DejaVuSans-20" transform="translate(2582.910156 0)"/>
     <use xlink:href="#DejaVuSans-63" transform="translate(2614.697266 0)"/>
     <use xlink:href="#DejaVuSans-6f" transform="translate(2669.677734 0)"/>
     <use xlink:href="#DejaVuSans-74" transform="translate(2730.859375 0)"/>
     <use xlink:href="#DejaVuSans-69" transform="translate(2770.068359 0)"/>
     <use xlink:href="#DejaVuSans-73" transform="translate(2797.851562 0)"/>
     <use xlink:href="#DejaVuSans-61" transform="translate(2849.951172 0)"/>
     <use xlink:href="#DejaVuSans-74" transform="translate(2911.230469 0)"/>
     <use xlink:href="#DejaVuSans-69" transform="translate(2950.439453 0)"/>
     <use xlink:href="#DejaVuSans-6f" transform="translate(2978.222656 0)"/>
     <use xlink:href="#DejaVuSans-6e" transform="translate(3039.404297 0)"/>
     <use xlink:href="#DejaVuSans-73" transform="translate(3102.783203 0)"/>
     <use xlink:href="#DejaVuSans-20" transform="translate(3154.882812 0)"/>
     <use xlink:href="#DejaVuSans-2b" transform="translate(3186.669922 0)"/>
     <use xlink:href="#DejaVuSans-32" transform="translate(3270.458984 0)"/>
     <use xlink:href="#DejaVuSans-25" transform="translate(3334.082031 0)"/>
     <use xlink:href="#DejaVuSans-2f" transform="translate(3429.101562 0)"/>
     <use xlink:href="#DejaVuSans-61" transform="translate(3462.792969 0)"/>
     <use xlink:href="#DejaVuSans-6e" transform="translate(3524.072266 0)"/>
     <use xlink:href="#DejaVuSans-2c" transform="translate(3587.451172 0)"/>
     <use xlink:href="#DejaVuSans-20" transform="translate(3619.238281 0)"/>
     <use xlink:href="#DejaVuSans-31" transform="translate(3651.025391 0)"/>
     <use xlink:href="#DejaVuSans-39" transform="translate(3714.648438 0)"/>
     <use xlink:href="#DejaVuSans-34" transform="translate(3778.271484 0)"/>
     <use xlink:href="#DejaVuSans-36" transform="translate(3841.894531 0)"/>
     <use xlink:href="#DejaVuSans-2013" transform="translate(3905.517578 0)"/>
     <use xlink:href="#DejaVuSans-31" transform="translate(3955.517578 0)"/>
     <use xlink:href="#DejaVuSans-39" transform="translate(4019.140625 0)"/>
     <use xlink:href="#DejaVuSans-38" transform="translate(4082.763672 0)"/>
     <use xlink:href="#DejaVuSans-30" transform="translate(4146.386719 0)"/>
     <use xlink:href="#DejaVuSans-29" transform="translate(4210.009766 0)"/>
    </g>
   </g>
   <g id="legend_1">
    <g id="patch_7">
     <path d="M 682.485 116.03175 
L 917.5 116.03175 
Q 919.7 116.03175 919.7 113.83175 
L 919.7 50.348 
Q 919.7 48.148 917.5 48.148 
L 682.485 48.148 
Q 680.285 48.148 680.285 50.348 
L 680.285 113.83175 
Q 680.285 116.03175 682.485 116.03175 
z
" style="fill: #ffffff; opacity: 0.8; stroke: #cccccc; stroke-linejoin: miter"/>
    </g>
    <g id="line2d_35">
     <path d="M 684.685 57.056281 
L 695.685 57.056281 
L 706.685 57.056281 
" style="fill: none; stroke: #0000ff; stroke-width: 1.8; stroke-linecap: square"/>
     <g>
      <use xlink:href="#m34ae59c433" x="695.685" y="57.056281" style="fill: #0000ff; stroke: #0000ff"/>
     </g>
    </g>
    <g id="text_19">
     <!-- 100 % Marché boursier -->
     <g transform="translate(715.485 60.906281) scale(0.11 -0.11)">
      <defs>
       <path id="DejaVuSans-4d" d="M 628 4666 
L 1569 4666 
L 2759 1491 
L 3956 4666 
L 4897 4666 
L 4897 0 
L 4281 0 
L 4281 4097 
L 3078 897 
L 2444 897 
L 1241 4097 
L 1241 0 
L 628 0 
L 628 4666 
z
" transform="scale(0.015625)"/>
       <path id="DejaVuSans-68" d="M 3513 2113 
L 3513 0 
L 2938 0 
L 2938 2094 
Q 2938 2591 2744 2837 
Q 2550 3084 2163 3084 
Q 1697 3084 1428 2787 
Q 1159 2491 1159 1978 
L 1159 0 
L 581 0 
L 581 4863 
L 1159 4863 
L 1159 2956 
Q 1366 3272 1645 3428 
Q 1925 3584 2291 3584 
Q 2894 3584 3203 3211 
Q 3513 2838 3513 2113 
z
" transform="scale(0.015625)"/>
      </defs>
      <use xlink:href="#DejaVuSans-31"/>
      <use xlink:href="#DejaVuSans-30" transform="translate(63.623047 0)"/>
      <use xlink:href="#DejaVuSans-30" transform="translate(127.246094 0)"/>
      <use xlink:href="#DejaVuSans-20" transform="translate(190.869141 0)"/>
      <use xlink:href="#DejaVuSans-25" transform="translate(222.65625 0)"/>
      <use xlink:href="#DejaVuSans-20" transform="translate(317.675781 0)"/>
      <use xlink:href="#DejaVuSans-4d" transform="translate(349.462891 0)"/>
      <use xlink:href="#DejaVuSans-61" transform="translate(435.742188 0)"/>
      <use xlink:href="#DejaVuSans-72" transform="translate(497.021484 0)"/>
      <use xlink:href="#DejaVuSans-63" transform="translate(535.884766 0)"/>
      <use xlink:href="#DejaVuSans-68" transform="translate(590.865234 0)"/>
      <use xlink:href="#DejaVuSans-e9" transform="translate(654.244141 0)"/>
      <use xlink:href="#DejaVuSans-20" transform="translate(715.767578 0)"/>
      <use xlink:href="#DejaVuSans-62" transform="translate(747.554688 0)"/>
      <use xlink:href="#DejaVuSans-6f" transform="translate(811.03125 0)"/>
      <use xlink:href="#DejaVuSans-75" transform="translate(872.212891 0)"/>
      <use xlink:href="#DejaVuSans-72" transform="translate(935.591797 0)"/>
      <use xlink:href="#DejaVuSans-73" transform="translate(976.705078 0)"/>
      <use xlink:href="#DejaVuSans-69" transform="translate(1028.804688 0)"/>
      <use xlink:href="#DejaVuSans-65" transform="translate(1056.587891 0)"/>
      <use xlink:href="#DejaVuSans-72" transform="translate(1118.111328 0)"/>
     </g>
    </g>
    <g id="line2d_36">
     <path d="M 684.685 73.202219 
L 695.685 73.202219 
L 706.685 73.202219 
" style="fill: none; stroke: #008000; stroke-width: 1.8; stroke-linecap: square"/>
     <g>
      <use xlink:href="#m0842b69e35" x="695.685" y="73.202219" style="fill: #008000; stroke: #008000; stroke-linejoin: miter"/>
     </g>
    </g>
    <g id="text_20">
     <!-- 67% Notionnel + 33% Boursier -->
     <g transform="translate(715.485 77.052219) scale(0.11 -0.11)">
      <defs>
       <path id="DejaVuSans-4e" d="M 628 4666 
L 1478 4666 
L 3547 763 
L 3547 4666 
L 4159 4666 
L 4159 0 
L 3309 0 
L 1241 3903 
L 1241 0 
L 628 0 
L 628 4666 
z
" transform="scale(0.015625)"/>
       <path id="DejaVuSans-42" d="M 1259 2228 
L 1259 519 
L 2272 519 
Q 2781 519 3026 730 
Q 3272 941 3272 1375 
Q 3272 1813 3026 2020 
Q 2781 2228 2272 2228 
L 1259 2228 
z
M 1259 4147 
L 1259 2741 
L 2194 2741 
Q 2656 2741 2882 2914 
Q 3109 3088 3109 3444 
Q 3109 3797 2882 3972 
Q 2656 4147 2194 4147 
L 1259 4147 
z
M 628 4666 
L 2241 4666 
Q 2963 4666 3353 4366 
Q 3744 4066 3744 3513 
Q 3744 3084 3544 2831 
Q 3344 2578 2956 2516 
Q 3422 2416 3680 2098 
Q 3938 1781 3938 1306 
Q 3938 681 3513 340 
Q 3088 0 2303 0 
L 628 0 
L 628 4666 
z
" transform="scale(0.015625)"/>
      </defs>
      <use xlink:href="#DejaVuSans-36"/>
      <use xlink:href="#DejaVuSans-37" transform="translate(63.623047 0)"/>
      <use xlink:href="#DejaVuSans-25" transform="translate(127.246094 0)"/>
      <use xlink:href="#DejaVuSans-20" transform="translate(222.265625 0)"/>
      <use xlink:href="#DejaVuSans-4e" transform="translate(254.052734 0)"/>
      <use xlink:href="#DejaVuSans-6f" transform="translate(328.857422 0)"/>
      <use xlink:href="#DejaVuSans-74" transform="translate(390.039062 0)"/>
      <use xlink:href="#DejaVuSans-69" transform="translate(429.248047 0)"/>
      <use xlink:href="#DejaVuSans-6f" transform="translate(457.03125 0)"/>
      <use xlink:href="#DejaVuSans-6e" transform="translate(518.212891 0)"/>
      <use xlink:href="#DejaVuSans-6e" transform="translate(581.591797 0)"/>
      <use xlink:href="#DejaVuSans-65" transform="translate(644.970703 0)"/>
      <use xlink:href="#DejaVuSans-6c" transform="translate(706.494141 0)"/>
      <use xlink:href="#DejaVuSans-20" transform="translate(734.277344 0)"/>
      <use xlink:href="#DejaVuSans-2b" transform="translate(766.064453 0)"/>
      <use xlink:href="#DejaVuSans-20" transform="translate(849.853516 0)"/>
      <use xlink:href="#DejaVuSans-33" transform="translate(881.640625 0)"/>
      <use xlink:href="#DejaVuSans-33" transform="translate(945.263672 0)"/>
      <use xlink:href="#DejaVuSans-25" transform="translate(1008.886719 0)"/>
      <use xlink:href="#DejaVuSans-20" transform="translate(1103.90625 0)"/>
      <use xlink:href="#DejaVuSans-42" transform="translate(1135.693359 0)"/>
      <use xlink:href="#DejaVuSans-6f" transform="translate(1204.296875 0)"/>
      <use xlink:href="#DejaVuSans-75" transform="translate(1265.478516 0)"/>
      <use xlink:href="#DejaVuSans-72" transform="translate(1328.857422 0)"/>
      <use xlink:href="#DejaVuSans-73" transform="translate(1369.970703 0)"/>
      <use xlink:href="#DejaVuSans-69" transform="translate(1422.070312 0)"/>
      <use xlink:href="#DejaVuSans-65" transform="translate(1449.853516 0)"/>
      <use xlink:href="#DejaVuSans-72" transform="translate(1511.376953 0)"/>
     </g>
    </g>
    <g id="line2d_37">
     <path d="M 684.685 89.348156 
L 695.685 89.348156 
L 706.685 89.348156 
" style="fill: none; stroke: #ff0000; stroke-width: 1.8; stroke-linecap: square"/>
     <g>
      <use xlink:href="#m7549de67a2" x="695.685" y="89.348156" style="fill: #ff0000; stroke: #ff0000; stroke-linejoin: miter"/>
     </g>
    </g>
    <g id="text_21">
     <!-- 100 % Notionnel (croissance du PIB) -->
     <g transform="translate(715.485 93.198156) scale(0.11 -0.11)">
      <defs>
       <path id="DejaVuSans-50" d="M 1259 4147 
L 1259 2394 
L 2053 2394 
Q 2494 2394 2734 2622 
Q 2975 2850 2975 3272 
Q 2975 3691 2734 3919 
Q 2494 4147 2053 4147 
L 1259 4147 
z
M 628 4666 
L 2053 4666 
Q 2838 4666 3239 4311 
Q 3641 3956 3641 3272 
Q 3641 2581 3239 2228 
Q 2838 1875 2053 1875 
L 1259 1875 
L 1259 0 
L 628 0 
L 628 4666 
z
" transform="scale(0.015625)"/>
       <path id="DejaVuSans-49" d="M 628 4666 
L 1259 4666 
L 1259 0 
L 628 0 
L 628 4666 
z
" transform="scale(0.015625)"/>
      </defs>
      <use xlink:href="#DejaVuSans-31"/>
      <use xlink:href="#DejaVuSans-30" transform="translate(63.623047 0)"/>
      <use xlink:href="#DejaVuSans-30" transform="translate(127.246094 0)"/>
      <use xlink:href="#DejaVuSans-20" transform="translate(190.869141 0)"/>
      <use xlink:href="#DejaVuSans-25" transform="translate(222.65625 0)"/>
      <use xlink:href="#DejaVuSans-20" transform="translate(317.675781 0)"/>
      <use xlink:href="#DejaVuSans-4e" transform="translate(349.462891 0)"/>
      <use xlink:href="#DejaVuSans-6f" transform="translate(424.267578 0)"/>
      <use xlink:href="#DejaVuSans-74" transform="translate(485.449219 0)"/>
      <use xlink:href="#DejaVuSans-69" transform="translate(524.658203 0)"/>
      <use xlink:href="#DejaVuSans-6f" transform="translate(552.441406 0)"/>
      <use xlink:href="#DejaVuSans-6e" transform="translate(613.623047 0)"/>
      <use xlink:href="#DejaVuSans-6e" transform="translate(677.001953 0)"/>
      <use xlink:href="#DejaVuSans-65" transform="translate(740.380859 0)"/>
      <use xlink:href="#DejaVuSans-6c" transform="translate(801.904297 0)"/>
      <use xlink:href="#DejaVuSans-20" transform="translate(829.6875 0)"/>
      <use xlink:href="#DejaVuSans-28" transform="translate(861.474609 0)"/>
      <use xlink:href="#DejaVuSans-63" transform="translate(900.488281 0)"/>
      <use xlink:href="#DejaVuSans-72" transform="translate(955.46875 0)"/>
      <use xlink:href="#DejaVuSans-6f" transform="translate(994.332031 0)"/>
      <use xlink:href="#DejaVuSans-69" transform="translate(1055.513672 0)"/>
      <use xlink:href="#DejaVuSans-73" transform="translate(1083.296875 0)"/>
      <use xlink:href="#DejaVuSans-73" transform="translate(1135.396484 0)"/>
      <use xlink:href="#DejaVuSans-61" transform="translate(1187.496094 0)"/>
      <use xlink:href="#DejaVuSans-6e" transform="translate(1248.775391 0)"/>
      <use xlink:href="#DejaVuSans-63" transform="translate(1312.154297 0)"/>
      <use xlink:href="#DejaVuSans-65" transform="translate(1367.134766 0)"/>
      <use xlink:href="#DejaVuSans-20" transform="translate(1428.658203 0)"/>
      <use xlink:href="#DejaVuSans-64" transform="translate(1460.445312 0)"/>
      <use xlink:href="#DejaVuSans-75" transform="translate(1523.921875 0)"/>
      <use xlink:href="#DejaVuSans-20" transform="translate(1587.300781 0)"/>
      <use xlink:href="#DejaVuSans-50" transform="translate(1619.087891 0)"/>
      <use xlink:href="#DejaVuSans-49" transform="translate(1679.390625 0)"/>
      <use xlink:href="#DejaVuSans-42" transform="translate(1708.882812 0)"/>
      <use xlink:href="#DejaVuSans-29" transform="translate(1777.486328 0)"/>
     </g>
    </g>
    <g id="line2d_38">
     <path d="M 684.685 105.494094 
L 695.685 105.494094 
L 706.685 105.494094 
" style="fill: none; stroke-dasharray: 2.96,1.28; stroke-dashoffset: 0; stroke: #808080; stroke-width: 0.8"/>
    </g>
    <g id="text_22">
     <!-- Seuil de rentabilité -->
     <g transform="translate(715.485 109.344094) scale(0.11 -0.11)">
      <defs>
       <path id="DejaVuSans-53" d="M 3425 4513 
L 3425 3897 
Q 3066 4069 2747 4153 
Q 2428 4238 2131 4238 
Q 1616 4238 1336 4038 
Q 1056 3838 1056 3469 
Q 1056 3159 1242 3001 
Q 1428 2844 1947 2747 
L 2328 2669 
Q 3034 2534 3370 2195 
Q 3706 1856 3706 1288 
Q 3706 609 3251 259 
Q 2797 -91 1919 -91 
Q 1588 -91 1214 -16 
Q 841 59 441 206 
L 441 856 
Q 825 641 1194 531 
Q 1563 422 1919 422 
Q 2459 422 2753 634 
Q 3047 847 3047 1241 
Q 3047 1584 2836 1778 
Q 2625 1972 2144 2069 
L 1759 2144 
Q 1053 2284 737 2584 
Q 422 2884 422 3419 
Q 422 4038 858 4394 
Q 1294 4750 2059 4750 
Q 2388 4750 2728 4690 
Q 3069 4631 3425 4513 
z
" transform="scale(0.015625)"/>
      </defs>
      <use xlink:href="#DejaVuSans-53"/>
      <use xlink:href="#DejaVuSans-65" transform="translate(63.476562 0)"/>
      <use xlink:href="#DejaVuSans-75" transform="translate(125 0)"/>
      <use xlink:href="#DejaVuSans-69" transform="translate(188.378906 0)"/>
      <use xlink:href="#DejaVuSans-6c" transform="translate(216.162109 0)"/>
      <use xlink:href="#DejaVuSans-20" transform="translate(243.945312 0)"/>
      <use xlink:href="#DejaVuSans-64" transform="translate(275.732422 0)"/>
      <use xlink:href="#DejaVuSans-65" transform="translate(339.208984 0)"/>
      <use xlink:href="#DejaVuSans-20" transform="translate(400.732422 0)"/>
      <use xlink:href="#DejaVuSans-72" transform="translate(432.519531 0)"/>
      <use xlink:href="#DejaVuSans-65" transform="translate(471.382812 0)"/>
      <use xlink:href="#DejaVuSans-6e" transform="translate(532.90625 0)"/>
      <use xlink:href="#DejaVuSans-74" transform="translate(596.285156 0)"/>
      <use xlink:href="#DejaVuSans-61" transform="translate(635.494141 0)"/>
      <use xlink:href="#DejaVuSans-62" transform="translate(696.773438 0)"/>
      <use xlink:href="#DejaVuSans-69" transform="translate(760.25 0)"/>
      <use xlink:href="#DejaVuSans-6c" transform="translate(788.033203 0)"/>
      <use xlink:href="#DejaVuSans-69" transform="translate(815.816406 0)"/>
      <use xlink:href="#DejaVuSans-74" transform="translate(843.599609 0)"/>
      <use xlink:href="#DejaVuSans-e9" transform="translate(882.808594 0)"/>
     </g>
    </g>
   </g>
  </g>
 </g>
 <defs>
  <clipPath id="p11f048f7ee">
   <rect x="41.15" y="42.648" width="884.05" height="416.512"/>
  </clipPath>
 </defs>
</svg>
